<?xml version="1.0" encoding="UTF-8" standalone="no"?>
<!-- Created with Inkscape (http://www.inkscape.org/) -->

<svg
   version="1.1"
   id="svg1"
   width="1752"
   height="1739"
   viewBox="0 0 1752 1739"
   sodipodi:docname="Alternate3Logo.svg"
   inkscape:version="1.4 (86a8ad7, 2024-10-11)"
   xmlns:inkscape="http://www.inkscape.org/namespaces/inkscape"
   xmlns:sodipodi="http://sodipodi.sourceforge.net/DTD/sodipodi-0.dtd"
   xmlns="http://www.w3.org/2000/svg"
   xmlns:svg="http://www.w3.org/2000/svg">
  <defs
     id="defs1">
    <inkscape:path-effect
       effect="bspline"
       id="path-effect1"
       is_visible="true"
       lpeversion="1.3"
       weight="33.333333"
       steps="2"
       helper_size="0"
       apply_no_weight="true"
       apply_with_weight="true"
       only_selected="false"
       uniform="false" />
    <inkscape:path-effect
       effect="bspline"
       id="path-effect69"
       is_visible="true"
       lpeversion="1.3"
       weight="33.333333"
       steps="2"
       helper_size="0"
       apply_no_weight="true"
       apply_with_weight="true"
       only_selected="false"
       uniform="false" />
    <inkscape:path-effect
       effect="bspline"
       id="path-effect68"
       is_visible="true"
       lpeversion="1.3"
       weight="33.333333"
       steps="2"
       helper_size="0"
       apply_no_weight="true"
       apply_with_weight="true"
       only_selected="false"
       uniform="false" />
    <inkscape:path-effect
       effect="bspline"
       id="path-effect66"
       is_visible="true"
       lpeversion="1.3"
       weight="33.333333"
       steps="2"
       helper_size="0"
       apply_no_weight="true"
       apply_with_weight="true"
       only_selected="false"
       uniform="false" />
    <inkscape:path-effect
       effect="bspline"
       id="path-effect65"
       is_visible="true"
       lpeversion="1.3"
       weight="33.333333"
       steps="2"
       helper_size="0"
       apply_no_weight="true"
       apply_with_weight="true"
       only_selected="false"
       uniform="false" />
    <inkscape:path-effect
       effect="bspline"
       id="path-effect63"
       is_visible="true"
       lpeversion="1.3"
       weight="33.333333"
       steps="2"
       helper_size="0"
       apply_no_weight="true"
       apply_with_weight="true"
       only_selected="false"
       uniform="false" />
    <inkscape:path-effect
       effect="bspline"
       id="path-effect62"
       is_visible="true"
       lpeversion="1.3"
       weight="33.333333"
       steps="2"
       helper_size="0"
       apply_no_weight="true"
       apply_with_weight="true"
       only_selected="false"
       uniform="false" />
    <inkscape:path-effect
       effect="bspline"
       id="path-effect37"
       is_visible="true"
       lpeversion="1.3"
       weight="33.333333"
       steps="2"
       helper_size="0"
       apply_no_weight="true"
       apply_with_weight="true"
       only_selected="false"
       uniform="false" />
    <inkscape:path-effect
       effect="bspline"
       id="path-effect36"
       is_visible="true"
       lpeversion="1.3"
       weight="33.333333"
       steps="2"
       helper_size="0"
       apply_no_weight="true"
       apply_with_weight="true"
       only_selected="false"
       uniform="false" />
    <inkscape:path-effect
       effect="bspline"
       id="path-effect35"
       is_visible="true"
       lpeversion="1.3"
       weight="33.333333"
       steps="2"
       helper_size="0"
       apply_no_weight="true"
       apply_with_weight="true"
       only_selected="false"
       uniform="false" />
    <inkscape:path-effect
       effect="bspline"
       id="path-effect34"
       is_visible="true"
       lpeversion="1.3"
       weight="33.333333"
       steps="2"
       helper_size="0"
       apply_no_weight="true"
       apply_with_weight="true"
       only_selected="false"
       uniform="false" />
    <inkscape:path-effect
       effect="bspline"
       id="path-effect33"
       is_visible="true"
       lpeversion="1.3"
       weight="33.333333"
       steps="2"
       helper_size="0"
       apply_no_weight="true"
       apply_with_weight="true"
       only_selected="false"
       uniform="false" />
    <inkscape:path-effect
       effect="bspline"
       id="path-effect32"
       is_visible="true"
       lpeversion="1.3"
       weight="33.333333"
       steps="2"
       helper_size="0"
       apply_no_weight="true"
       apply_with_weight="true"
       only_selected="false"
       uniform="false" />
    <inkscape:path-effect
       effect="bspline"
       id="path-effect31"
       is_visible="true"
       lpeversion="1.3"
       weight="33.333333"
       steps="2"
       helper_size="0"
       apply_no_weight="true"
       apply_with_weight="true"
       only_selected="false"
       uniform="false" />
    <inkscape:path-effect
       effect="bspline"
       id="path-effect30"
       is_visible="true"
       lpeversion="1.3"
       weight="33.333333"
       steps="2"
       helper_size="0"
       apply_no_weight="true"
       apply_with_weight="true"
       only_selected="false"
       uniform="false" />
    <inkscape:path-effect
       effect="bspline"
       id="path-effect28"
       is_visible="true"
       lpeversion="1.3"
       weight="33.333333"
       steps="2"
       helper_size="0"
       apply_no_weight="true"
       apply_with_weight="true"
       only_selected="false"
       uniform="false" />
    <inkscape:path-effect
       effect="bspline"
       id="path-effect27"
       is_visible="true"
       lpeversion="1.3"
       weight="33.333333"
       steps="2"
       helper_size="0"
       apply_no_weight="true"
       apply_with_weight="true"
       only_selected="false"
       uniform="false" />
    <inkscape:path-effect
       effect="bspline"
       id="path-effect26"
       is_visible="true"
       lpeversion="1.3"
       weight="33.333333"
       steps="2"
       helper_size="0"
       apply_no_weight="true"
       apply_with_weight="true"
       only_selected="false"
       uniform="false" />
    <inkscape:path-effect
       effect="bspline"
       id="path-effect25"
       is_visible="true"
       lpeversion="1.3"
       weight="33.333333"
       steps="2"
       helper_size="0"
       apply_no_weight="true"
       apply_with_weight="true"
       only_selected="false"
       uniform="false" />
    <inkscape:path-effect
       effect="bspline"
       id="path-effect24"
       is_visible="true"
       lpeversion="1.3"
       weight="33.333333"
       steps="2"
       helper_size="0"
       apply_no_weight="true"
       apply_with_weight="true"
       only_selected="false"
       uniform="false" />
    <inkscape:path-effect
       effect="bspline"
       id="path-effect23"
       is_visible="true"
       lpeversion="1.3"
       weight="33.333333"
       steps="2"
       helper_size="0"
       apply_no_weight="true"
       apply_with_weight="true"
       only_selected="false"
       uniform="false" />
    <inkscape:path-effect
       effect="bspline"
       id="path-effect22"
       is_visible="true"
       lpeversion="1.3"
       weight="33.333333"
       steps="2"
       helper_size="0"
       apply_no_weight="true"
       apply_with_weight="true"
       only_selected="false"
       uniform="false" />
    <inkscape:path-effect
       effect="bspline"
       id="path-effect21"
       is_visible="true"
       lpeversion="1.3"
       weight="33.333333"
       steps="2"
       helper_size="0"
       apply_no_weight="true"
       apply_with_weight="true"
       only_selected="false"
       uniform="false" />
    <inkscape:path-effect
       effect="bspline"
       id="path-effect20"
       is_visible="true"
       lpeversion="1.3"
       weight="33.333333"
       steps="2"
       helper_size="0"
       apply_no_weight="true"
       apply_with_weight="true"
       only_selected="false"
       uniform="false" />
    <inkscape:path-effect
       effect="bspline"
       id="path-effect19"
       is_visible="true"
       lpeversion="1.3"
       weight="33.333333"
       steps="2"
       helper_size="0"
       apply_no_weight="true"
       apply_with_weight="true"
       only_selected="false"
       uniform="false" />
    <inkscape:path-effect
       effect="bspline"
       id="path-effect18"
       is_visible="true"
       lpeversion="1.3"
       weight="33.333333"
       steps="2"
       helper_size="0"
       apply_no_weight="true"
       apply_with_weight="true"
       only_selected="false"
       uniform="false" />
    <inkscape:path-effect
       effect="bspline"
       id="path-effect17"
       is_visible="true"
       lpeversion="1.3"
       weight="33.333333"
       steps="2"
       helper_size="0"
       apply_no_weight="true"
       apply_with_weight="true"
       only_selected="false"
       uniform="false" />
    <inkscape:path-effect
       effect="bspline"
       id="path-effect16"
       is_visible="true"
       lpeversion="1.3"
       weight="33.333333"
       steps="2"
       helper_size="0"
       apply_no_weight="true"
       apply_with_weight="true"
       only_selected="false"
       uniform="false" />
    <inkscape:path-effect
       effect="bspline"
       id="path-effect15"
       is_visible="true"
       lpeversion="1.3"
       weight="33.333333"
       steps="2"
       helper_size="0"
       apply_no_weight="true"
       apply_with_weight="true"
       only_selected="false"
       uniform="false" />
    <inkscape:path-effect
       effect="bspline"
       id="path-effect13"
       is_visible="true"
       lpeversion="1.3"
       weight="33.333333"
       steps="2"
       helper_size="0"
       apply_no_weight="true"
       apply_with_weight="true"
       only_selected="false"
       uniform="false" />
    <inkscape:path-effect
       effect="bspline"
       id="path-effect12"
       is_visible="true"
       lpeversion="1.3"
       weight="33.333333"
       steps="2"
       helper_size="0"
       apply_no_weight="true"
       apply_with_weight="true"
       only_selected="false"
       uniform="false" />
    <inkscape:path-effect
       effect="bspline"
       id="path-effect11"
       is_visible="true"
       lpeversion="1.3"
       weight="33.333333"
       steps="2"
       helper_size="0"
       apply_no_weight="true"
       apply_with_weight="true"
       only_selected="false"
       uniform="false" />
    <inkscape:path-effect
       effect="bspline"
       id="path-effect10"
       is_visible="true"
       lpeversion="1.3"
       weight="33.333333"
       steps="2"
       helper_size="0"
       apply_no_weight="true"
       apply_with_weight="true"
       only_selected="false"
       uniform="false" />
    <inkscape:path-effect
       effect="bspline"
       id="path-effect9"
       is_visible="true"
       lpeversion="1.3"
       weight="33.333333"
       steps="2"
       helper_size="0"
       apply_no_weight="true"
       apply_with_weight="true"
       only_selected="false"
       uniform="false" />
    <inkscape:path-effect
       effect="bspline"
       id="path-effect8"
       is_visible="true"
       lpeversion="1.3"
       weight="33.333333"
       steps="2"
       helper_size="0"
       apply_no_weight="true"
       apply_with_weight="true"
       only_selected="false"
       uniform="false" />
    <clipPath
       clipPathUnits="userSpaceOnUse"
       id="clipPath60">
      <path
         id="path61"
         style="fill:#ff0000;fill-opacity:1;fill-rule:nonzero;stroke:none"
         d="M 617.36523,523.26953 V 1483.8867 H 1261.9121 V 523.26953 Z m 218.22071,154.75195 c 0.5845,-0.0432 0.74643,0.65261 0.0176,1.12891 -0.24816,0.16216 -0.47662,0.35217 -0.71094,0.5332 -0.35905,0.29122 -0.68236,0.62195 -1.00977,0.94727 -0.22225,0.22901 -0.47038,0.4285 -0.70898,0.63867 0.0146,-0.0128 0.0298,-0.0248 0.0449,-0.0371 0.0636,-0.0519 0.13437,-0.0949 0.20117,-0.14258 0.10213,-0.007 0.21751,-0.0617 0.31641,-0.0566 0.033,0.002 0.0635,0.0102 0.0918,0.0293 0.13964,0.0942 0.19196,0.28751 0.22266,0.45312 0.0365,0.19699 -0.39366,0.46098 -0.52539,0.54688 -0.0379,0.023 -0.0771,0.0438 -0.11523,0.0664 -0.24487,0.27902 -0.46736,0.5785 -0.69532,0.87109 -0.30704,0.43074 -0.6187,0.85886 -0.89453,1.31055 -0.15748,0.25789 -0.35497,0.3463 -0.51172,0.32226 -0.0965,0.24836 -0.18921,0.49818 -0.28711,0.7461 -0.0557,0.13732 -0.11235,0.27472 -0.16796,0.41211 0.0435,0.0101 0.099,-0.0123 0.13671,0.0137 0.40412,0.27829 -0.46788,1.21517 -0.60156,1.40234 -0.0935,0.12053 -0.18935,0.23916 -0.2832,0.35938 -0.0419,0.0893 -0.0842,0.17858 -0.12695,0.26757 0.13722,-0.15391 0.26745,-0.31402 0.4082,-0.46484 0.36224,-0.36503 0.73022,-0.72474 1.12695,-1.05273 0.30887,-0.23725 0.62864,-0.47103 0.98242,-0.63672 0.68625,-0.32138 0.93745,0.35884 0.26953,0.71679 -0.27719,0.14857 -0.5369,0.3328 -0.78515,0.5254 -0.36933,0.30816 -0.7123,0.64515 -1.05078,0.98632 -0.48388,0.52083 -0.94481,1.06122 -1.4043,1.60352 -0.5534,0.66653 -1.06096,1.37109 -1.54101,2.0918 -0.31728,0.48124 -0.58548,0.9917 -0.85938,1.49804 -0.13976,0.25665 -0.305,0.52115 -0.67969,0.43555 -0.13243,-0.0303 -0.2278,-0.15551 -0.3125,-0.26172 -0.0604,-0.0759 -0.0737,-0.21286 -0.0996,-0.3418 -0.15208,0.13193 -0.33617,0.10762 -0.69531,-0.30078 -0.0434,-0.0493 0.17575,-0.66487 0.17773,-0.67187 0.14354,-0.41202 0.30315,-0.81818 0.47461,-1.21875 -0.01,-0.0765 -0.002,-0.1617 0.0195,-0.23828 0.0268,-0.0956 0.0861,-0.17818 0.13671,-0.26368 0.056,-0.0944 0.13161,-0.17516 0.19336,-0.26562 0.18491,-0.39432 0.37527,-0.78655 0.57422,-1.17383 0.0654,-0.11975 0.13145,-0.23911 0.19922,-0.35742 -0.0335,-0.0415 -0.0725,-0.0459 -0.10351,-0.10352 -0.0837,-0.15521 -0.0307,-0.35486 -0.006,-0.52929 0.0398,-0.27699 0.27694,-0.77995 0.3789,-1.01953 0.0436,-0.0888 0.10709,-0.16608 0.15235,-0.25391 -0.17157,-0.0515 -0.1383,-0.13402 -0.084,-0.37305 -0.0476,0.0469 -0.0951,0.0937 -0.14258,0.14063 -0.30567,0.24511 -0.342,0.35396 -0.65429,0.0879 -0.006,0.006 -0.0132,0.0101 -0.0195,0.0156 v 0.002 c -0.57027,0.49908 -1.10636,-0.0362 -0.54297,-0.54297 0.003,-0.003 0.007,-0.005 0.01,-0.008 -0.56471,0.0914 -0.94036,-0.34742 -0.27734,-0.87891 0.0685,-0.0549 0.13658,-0.10916 0.20508,-0.16406 0.49043,-0.37417 1.00746,-0.71119 1.53711,-1.02735 0.67726,-0.40988 1.34644,-0.83246 2.02734,-1.23633 0.45362,-0.28945 0.91897,-0.56391 1.35156,-0.88476 0.3057,-0.22002 0.60869,-0.4403 0.90039,-0.67774 0.0977,-0.30696 0.28833,-0.44742 0.45703,-0.44726 0.0188,2e-5 0.0366,0.004 0.0547,0.008 0.26013,-0.22378 0.52471,-0.44285 0.76367,-0.68945 0.35936,-0.35691 0.71531,-0.71799 1.11133,-1.03516 0.28947,-0.22334 0.57081,-0.4614 0.88867,-0.64453 0.17411,-0.10031 0.32996,-0.15019 0.46485,-0.16016 z m -2.20313,3.19532 c -0.014,0.0183 -0.0367,0.0342 -0.0527,0.0527 0.0137,-0.0103 0.0333,-0.0228 0.043,-0.0312 0.006,-0.005 0.0148,-0.0275 0.01,-0.0215 z m -0.26172,0.10156 c -0.0973,0.0847 -0.18714,0.17787 -0.28711,0.25976 0.0286,-0.0163 0.0575,-0.0323 0.0859,-0.0488 0.0646,-0.0724 0.13063,-0.14426 0.20117,-0.21094 z m -5.96484,4.94141 c -0.007,0.0143 -0.0137,0.0278 -0.0195,0.043 -0.005,0.0138 0.0373,-0.024 0.0273,-0.0352 -0.002,-0.003 -0.005,-0.005 -0.008,-0.008 z m 0.2168,1.66406 c 0.007,0.005 0.0249,0.009 0.041,0.0137 7.6e-4,-0.001 9.6e-4,-0.003 0.002,-0.004 -0.0154,-0.004 -0.0333,-0.009 -0.043,-0.01 z m -0.65821,4.16797 c -0.005,0.0579 -0.007,0.11721 -0.008,0.17578 0.0277,-0.0509 0.056,-0.10158 0.084,-0.15235 -0.0254,-0.008 -0.0507,-0.0151 -0.0762,-0.0234 z m -0.35156,0.80078 c -0.0118,0.006 -0.0231,0.0139 -0.0352,0.0195 0.011,-0.005 0.0262,-0.006 0.0332,-0.0156 8.4e-4,-10e-4 9e-4,-0.003 0.002,-0.004 z" />
    </clipPath>
  </defs>
  <sodipodi:namedview
     id="namedview1"
     pagecolor="#505050"
     bordercolor="#eeeeee"
     borderopacity="1"
     inkscape:showpageshadow="0"
     inkscape:pageopacity="0"
     inkscape:pagecheckerboard="0"
     inkscape:deskcolor="#505050"
     inkscape:zoom="0.20412168"
     inkscape:cx="1398.6755"
     inkscape:cy="710.3606"
     inkscape:window-width="1360"
     inkscape:window-height="697"
     inkscape:window-x="-8"
     inkscape:window-y="-8"
     inkscape:window-maximized="1"
     inkscape:current-layer="svg1" />
  <path
     id="path35"
     style="fill:#ededed;fill-opacity:0;stroke:#000000;stroke-width:1.5;stroke-linecap:round;stroke-linejoin:round;stroke-dasharray:none"
     inkscape:path-effect="#path-effect35"
     inkscape:original-d="m 600.43842,334.35939 c 2.70468,2.29642 5.40936,4.59285 8.11403,6.88927 5.3074,1.63304 10.61459,3.26603 15.92188,4.89904 2.70473,0.61239 5.40936,1.22476 8.11403,1.83714 2.90887,-0.86756 5.81761,-1.73508 8.72642,-2.60262 3.01092,-0.71445 6.02173,-1.42888 9.0326,-2.14333 3.77642,0.71446 7.55268,1.42889 11.32902,2.14333 3.01093,1.73511 6.02174,3.47016 9.03261,5.20523 0.71445,1.83718 1.42888,3.67428 2.14333,5.51142 0.66342,0.71446 1.32682,1.42889 1.99023,2.14333 0.81652,-0.051 1.63301,-0.10206 2.44952,-0.1531 0.51033,-0.71445 1.02063,-1.42888 1.53095,-2.14332 0.10207,-0.81653 0.20413,-1.63302 0.30619,-2.44952 -0.91859,-1.32685 -1.83714,-2.65365 -2.75571,-3.98047 -1.63305,-1.58202 -3.26603,-3.16397 -4.89904,-4.74595 -2.29647,-1.58201 -4.59285,-3.16396 -6.88927,-4.74594 -2.60267,-0.56136 -5.20523,-1.1227 -7.80784,-1.68404 -3.62332,0 -7.2465,0 -10.86975,0 -3.57228,1.07168 -7.14443,2.14332 -10.71664,3.21499 -2.90887,0.051 -5.81761,0.10206 -8.72642,0.15309 -1.8882,-0.35722 -3.77634,-0.71444 -5.66451,-1.07166 -2.5006,-1.22478 -5.0011,-2.44952 -7.50165,-3.67428 -1.37788,-0.91859 -2.75571,-1.83714 -4.13357,-2.75571 -0.45929,-0.20413 -0.91857,-0.40825 -1.37785,-0.61238 -1.99027,0.51033 -3.98047,1.02063 -5.9707,1.53095 -0.4593,-0.25516 -0.91857,-0.51032 -1.37786,-0.76547 z m 14.39093,-8.11404 c 0.43377,1.37786 0.86754,2.75571 1.30131,4.13357 -2.50061,1.0972 -5.00111,2.19436 -7.50166,3.29154 -2.11785,0.38274 -4.23562,0.76547 -6.35344,1.14821 -1.0972,0.25516 -2.19436,0.51032 -3.29154,0.76548 -0.35723,-0.17862 -0.71444,-0.35723 -1.07166,-0.53584 1.81166,-2.55163 3.62324,-5.10316 5.43487,-7.65474 0.84204,-1.99028 1.68404,-3.98047 2.52606,-5.97071 -0.10206,-0.84204 -0.20412,-1.68404 -0.30619,-2.52606 0.35723,0.0255 0.71445,0.051 1.07167,0.0765 0.48481,0.40826 0.9696,0.81651 1.4544,1.22476 0.43378,0.35723 0.86754,0.71445 1.30131,1.07167 0.58687,0.33171 1.17373,0.66341 1.76059,0.99511 1.22478,1.32685 2.44952,2.65365 3.67428,3.98047 z m -6.88928,-5.9707 c -2.9088,4.92455 -5.8176,9.84911 -8.72641,14.77366 -2.67921,1.76063 -5.35832,3.52119 -8.03748,5.28178 -1.17375,-0.84204 -2.34746,-1.68404 -3.52119,-2.52607 -0.91858,-1.19926 -1.83714,-2.39848 -2.75571,-3.59773 -0.051,-0.56136 -0.10206,-1.12269 -0.15309,-1.68404 1.58201,-1.2503 3.16396,-2.50055 4.74594,-3.75083 1.42892,-2.16889 2.85778,-4.33769 4.28666,-6.50654 1.45443,-1.91372 2.90881,-3.82737 4.36321,-5.74106 0.38274,-1.40339 0.76547,-2.80674 1.14821,-4.21011 1.04617,0.94411 2.0923,1.88817 3.13845,2.83226 1.83717,1.70959 3.67428,3.41912 5.51141,5.12868 z m -20.43817,-8.19058 c 0.0255,-0.53583 0.051,-1.07166 0.0765,-1.6075 1.30133,-0.30619 2.60261,-0.61238 3.90392,-0.91857 0.71445,-0.43377 1.42888,-0.86753 2.14333,-1.3013 0.30619,-0.17862 0.61238,-0.35723 0.91857,-0.53584 1.12272,1.12272 2.24539,2.2454 3.36809,3.36809 0.81652,0.94411 1.63301,1.88817 2.44951,2.83226 -3.80193,5.4605 -7.60371,10.92077 -11.40557,16.38116 -1.68408,1.04617 -3.36809,2.0923 -5.05213,3.13845 -1.5565,-1.47995 -3.11293,-2.95984 -4.6694,-4.43976 -0.56136,-1.47994 -1.1227,-2.95983 -1.68404,-4.43975 0,-0.96962 0,-1.9392 0,-2.9088 1.07168,-0.56136 2.14333,-1.1227 3.21499,-1.68405 1.45443,-1.12272 2.9088,-2.24539 4.36321,-3.36809 0.81652,-0.96962 1.63301,-1.9392 2.44952,-2.9088 -0.0255,-0.53585 -0.051,-1.07167 -0.0765,-1.6075 z m -30.00661,-81.82925 c -0.10207,-0.25516 -0.20413,-0.51032 -0.30619,-0.76548 -0.20413,-1.5565 -0.40826,-3.11293 -0.61238,-4.6694 0.86755,-0.84203 1.73507,-1.68404 2.60261,-2.52606 1.17375,-0.40826 2.34746,-0.81651 3.52119,-1.22476 0.99513,0 1.99023,0 2.98535,0 0.71445,0.9441 1.42888,1.88817 2.14333,2.83225 1.97322,9.33579 3.94637,18.67121 5.91956,28.00681 2.95901,7.21711 5.91791,14.43393 8.87686,21.6509 5.07017,6.94764 10.14013,13.89501 15.21019,20.84252 4.64397,3.87849 9.28776,7.75681 13.93164,11.63522 6.02185,3.52125 12.04347,7.04237 18.0652,10.56355 0.79119,1.56634 1.58235,3.13262 2.37353,4.69893 -0.61346,1.65994 -1.22689,3.31981 -1.84033,4.97971 -2.95901,0.43303 -5.91791,0.86604 -8.87687,1.29905 -1.69602,0.10826 -3.39197,0.21651 -5.08796,0.32477 -2.67033,-2.38165 -5.34055,-4.7632 -8.01083,-7.1448 -4.83546,-4.40244 -9.67073,-8.8047 -14.5061,-13.20705 -2.41773,-2.67033 -4.83537,-5.34055 -7.25305,-8.01083 -1.51559,-1.29908 -3.03113,-2.5981 -4.54669,-3.89716 -2.81467,-4.51069 -5.62923,-9.02121 -8.44385,-13.53181 -2.29437,-4.73176 -4.58865,-9.46334 -6.88297,-14.19501 -1.53098,-5.71565 -3.0619,-11.43109 -4.59285,-17.14663 -1.07168,-5.97082 -2.14333,-11.94141 -3.21499,-17.91211 -0.48481,-0.86756 -0.9696,-1.73508 -1.4544,-2.60261 z m 88.35095,82.05936 c 0.36085,1.11863 0.7217,2.23726 1.08255,3.35589 -2.23731,1.62385 -4.47452,3.24764 -6.71178,4.87145 -1.76819,-0.2526 -3.53631,-0.50519 -5.30447,-0.75778 -7.46002,-4.37827 -14.91974,-8.75636 -22.37962,-13.13454 -7.1956,-6.27702 -14.39092,-12.55379 -21.58639,-18.83068 -4.36145,-7.67617 -8.72273,-15.35204 -13.0841,-23.02806 -2.74251,-10.03178 -5.4849,-20.06316 -8.22734,-30.09474 -0.72172,-4.76329 -1.4434,-9.5264 -2.16509,-14.28959 0.55932,-0.64954 1.11863,-1.29906 1.67794,-1.94858 1.02844,-0.2526 2.05684,-0.50519 3.08525,-0.75779 0.99236,0.1263 1.98467,0.2526 2.977,0.37889 0.5052,0.55933 1.01038,1.11863 1.51557,1.67795 0.27064,1.73211 0.54127,3.46414 0.8119,5.19621 2.17325,7.35545 4.3464,14.7106 6.5196,22.0659 2.12094,5.23841 4.24179,10.47661 6.36269,15.71492 2.4899,4.04158 4.9797,8.083 7.46956,12.1245 4.4746,5.19632 8.94903,10.39243 13.42355,15.58865 3.5003,2.7425 7.00046,5.48489 10.50069,8.22734 5.41283,3.31987 10.82544,6.63961 16.23817,9.95941 2.59816,1.22691 5.19621,2.45377 7.79432,3.68065 z m -83.78897,-18.0785 c -0.9382,0.0361 -1.87639,0.0722 -2.81461,0.10826 -0.10826,1.15471 -0.21651,2.3094 -0.32477,3.46414 1.47948,2.09292 2.95893,4.1858 4.43844,6.27876 1.44339,2.02075 2.88675,4.04146 4.33018,6.06225 1.47947,0.10826 2.95895,0.21651 4.43843,0.32477 4.97981,0.18043 9.95941,0.36085 14.93912,0.54127 1.87645,-0.57737 3.75282,-1.15472 5.62923,-1.73207 0.64954,-0.57737 1.29905,-1.15472 1.94858,-1.73208 -2.56207,-2.34556 -5.12405,-4.69103 -7.68607,-7.03654 -1.40734,-1.26299 -2.81461,-2.52594 -4.22192,-3.7889 -1.04648,0.36085 -2.09292,0.72169 -3.13938,1.08254 -3.86116,-0.5052 -7.72215,-1.01037 -11.58323,-1.51556 -1.98471,-0.68563 -3.96933,-1.37123 -5.954,-2.05684 z m 6.06225,16.99596 c 2.74245,3.57239 5.4849,7.14479 8.22734,10.71719 0.72172,-0.0361 1.4434,-0.0722 2.16509,-0.10825 2.38165,-1.84037 4.7632,-3.68066 7.1448,-5.52098 0.7578,-1.65994 1.51556,-3.31981 2.27334,-4.97971 -0.64954,-0.0361 -1.29905,-0.0722 -1.94858,-0.10825 -4.51069,-0.2526 -9.0212,-0.50519 -13.53181,-0.75778 -1.44342,0.25259 -2.88678,0.50518 -4.33018,0.75778 z m -18.61977,-34.42493 c -0.72169,-0.21651 -1.44339,-0.43302 -2.16509,-0.64953 0.21652,1.87645 0.43302,3.75283 0.64953,5.62924 1.62385,2.92293 3.24763,5.84574 4.87145,8.76861 3.42813,1.47951 6.85612,2.95896 10.28418,4.43843 5.30457,0.97431 10.60894,1.94859 15.91341,2.92288 1.51559,-0.2526 3.03112,-0.50519 4.54668,-0.75779 -1.65993,-2.05687 -3.3198,-4.11367 -4.9797,-6.1705 -1.04648,-1.47951 -2.09292,-2.95896 -3.13938,-4.43844 -0.64954,-1.19082 -1.29906,-2.38159 -1.94858,-3.57239 -0.7578,0.21651 -1.51557,0.43301 -2.27335,0.64952 -3.39204,-0.54128 -6.78394,-1.08254 -10.17592,-1.62381 -2.4899,-1.11866 -4.9797,-2.23726 -7.46956,-3.35589 -1.37125,-0.61346 -2.74244,-1.22689 -4.11367,-1.84033 z m 24.24901,6.92829 c -2.3816,0 -4.76315,0 -7.1448,0 -4.97971,-1.80424 -9.95931,-3.60845 -14.93912,-5.41273 -2.8507,-1.69598 -5.70134,-3.39194 -8.5521,-5.08796 -0.43302,-1.4073 -0.86603,-2.81458 -1.29906,-4.22192 -0.18042,-2.09292 -0.36084,-4.1858 -0.54127,-6.27876 1.51556,0.10825 3.03113,0.21651 4.54669,0.32476 6.20671,1.69602 12.41318,3.39198 18.61977,5.08796 1.15474,0.90214 2.30943,1.80424 3.46414,2.70636 1.58777,3.60856 3.17547,7.21697 4.7632,10.82545 0.36086,0.68563 0.7217,1.37123 1.08255,2.05684 z m 88.08074,-39.39545 c 0.35722,-0.61238 0.71444,-1.22476 1.07166,-1.83714 1.58202,0.40826 3.16397,0.81651 4.74595,1.22476 1.2503,0.99514 2.50055,1.99024 3.75082,2.98535 -0.48481,0.91859 -0.9696,1.83714 -1.4544,2.75571 -3.11299,2.19441 -6.22586,4.38872 -9.33879,6.58309 0.25516,-0.99514 0.51032,-1.99024 0.76548,-2.98536 0.15309,-2.90886 0.30618,-5.8176 0.45928,-8.72641 z m -9.41534,-4.97558 c 0.30619,-0.89306 0.61238,-1.78611 0.91857,-2.67917 0.99514,0.051 1.99023,0.10207 2.98535,0.1531 1.50547,1.19927 3.01087,2.39849 4.5163,3.59773 0.43378,1.60753 0.86754,3.21499 1.30131,4.82249 -0.12758,2.3475 -0.25516,4.69491 -0.38274,7.04237 -0.33171,1.30133 -0.66341,2.60261 -0.99511,3.90392 -3.72539,2.52612 -7.45063,5.05213 -11.17594,7.5782 0.6124,-0.51033 1.22476,-1.02063 1.83714,-1.53095 0.22965,-0.30619 0.45929,-0.61238 0.68893,-0.91857 0.0765,-0.91859 0.1531,-1.83714 0.22964,-2.75571 0.0255,-6.4046 0.051,-12.80894 0.0765,-19.21341 z m -10.02772,0.0765 c 0.0765,-0.43377 0.1531,-0.86754 0.22964,-1.3013 0.43378,-1.12272 0.86754,-2.2454 1.30131,-3.36809 2.11786,0.25516 4.23563,0.51031 6.35344,0.76547 0.84204,0.99514 1.68405,1.99024 2.52607,2.98535 0,3.57229 0,7.14443 0,10.71665 -0.10207,3.36816 -0.20413,6.73618 -0.30619,10.10427 -0.22965,0.89307 -0.45929,1.78611 -0.68893,2.67916 -3.49574,2.06682 -6.99134,4.13356 -10.487,6.20034 -0.38275,-0.30619 -0.76548,-0.61237 -1.14822,-0.91856 0.6124,-1.30134 1.22476,-2.60262 1.83714,-3.90393 0.0765,-3.06196 0.1531,-6.12379 0.22965,-9.18569 0.051,-4.92466 0.10206,-9.84911 0.15309,-14.77367 z m -13.75266,1.85873 c 1.26297,-1.11863 2.52594,-2.23726 3.78891,-3.35589 1.84036,-0.82997 3.68065,-1.6599 5.52097,-2.48985 1.44343,0.7578 2.88679,1.51556 4.33018,2.27334 0.0722,2.34556 0.14434,4.69103 0.21651,7.03654 -0.10825,6.67583 -0.21651,13.35139 -0.32476,20.02708 -0.64954,1.263 -1.29905,2.52594 -1.94858,3.78891 -3.17553,1.11865 -6.35093,2.23726 -9.5264,3.35589 -1.01039,0.32477 -2.02075,0.64953 -3.03112,0.97429 0.68562,-0.97431 1.37122,-1.94858 2.05683,-2.92287 0.0722,-3.64464 0.14434,-7.28914 0.21651,-10.9337 -0.0361,-3.68073 -0.0722,-7.36131 -0.10825,-11.04196 -0.39694,-2.2373 -0.79387,-4.47452 -1.1908,-6.71178 z m -11.47498,7.1448 c 0.28868,-1.1908 0.57736,-2.3816 0.86604,-3.5724 2.16513,-1.47951 4.33018,-2.95896 6.49527,-4.43843 0.93822,-0.32477 1.87641,-0.64953 2.81462,-0.9743 0.61345,0.28869 1.22688,0.57736 1.84032,0.86604 0.32477,3.60856 0.64953,7.21697 0.97429,10.82545 0,4.94372 0,9.88724 0,14.83086 -0.2526,2.16514 -0.50519,4.33018 -0.75778,6.49527 -2.7425,0.90214 -5.48489,1.80424 -8.22734,2.70636 -1.40734,0.21652 -2.81462,0.43302 -4.22193,0.64953 0.2526,-1.11865 0.50519,-2.23726 0.75779,-3.35589 0.14434,-2.12905 0.28867,-4.25801 0.43301,-6.38701 -0.32477,-5.88195 -0.64952,-11.76366 -0.97429,-17.64548 z m -16.72038,-25.53774 c 0.40825,-0.66341 0.81651,-1.32683 1.22476,-1.99024 2.6537,2.6537 5.30729,5.30729 7.96094,7.96094 2.5006,5.25637 5.0011,10.51252 7.50165,15.76878 0.51033,7.09354 1.02064,14.1868 1.53095,21.2802 -0.45929,3.31712 -0.91857,6.63412 -1.37785,9.95117 -0.4593,0.1531 -0.91857,0.30619 -1.37786,0.45929 -2.60266,-3.52126 -5.20523,-7.04237 -7.80784,-10.56355 -0.10207,-0.4593 -0.20413,-0.91857 -0.30619,-1.37786 0.45929,0.10207 0.91857,0.20413 1.37785,0.30619 0.051,-3.31712 0.10207,-6.63411 0.1531,-9.95117 -1.02065,-4.84811 -2.04127,-9.69602 -3.0619,-14.54402 -1.93924,-5.76669 -3.87841,-11.53316 -5.81761,-17.29973 z m -10.10427,-0.61238 c 0,-1.47992 0,-2.95984 0,-4.43976 0.96963,-0.56136 1.93921,-1.12269 2.90881,-1.68404 1.78614,0.91859 3.57221,1.83714 5.35832,2.75571 0.76549,1.78614 1.53095,3.57221 2.29643,5.35832 1.42891,3.87849 2.85777,7.75681 4.28666,11.63522 1.58201,6.73631 3.16396,13.47236 4.74594,20.20853 -0.1531,2.9599 -0.30619,5.91967 -0.45929,8.87951 -0.45929,0.25516 -0.91857,0.51032 -1.37785,0.76548 -1.73511,-2.6537 -3.47015,-5.3073 -5.20523,-7.96094 -2.24544,-5.51153 -4.49078,-11.02284 -6.73618,-16.53426 -1.93924,-6.32805 -3.8784,-12.65585 -5.81761,-18.98377 z m -13.40509,-0.75698 c -0.0224,-2.3758 -0.0448,-4.75155 -0.0673,-7.12741 2.0158,-0.051 4.03145,-0.10207 6.04725,-0.1531 1.19927,0.56136 2.39846,1.12269 3.59773,1.68405 0.96962,1.22478 1.93918,2.44949 2.9088,3.67428 0.84204,2.6537 1.68403,5.30723 2.52607,7.96093 2.83231,9.26243 5.66451,18.5245 8.49677,27.78674 4.18468,6.02185 8.36919,12.04347 12.55379,18.0652 6.63425,6.63425 13.26823,13.26823 19.90234,19.90235 8.87969,3.47022 17.75902,6.9403 26.63852,10.41045 0.7655,1.12272 1.53095,2.2454 2.29643,3.36809 -0.91859,1.88821 -1.83714,3.77635 -2.75571,5.66452 -2.1944,0.81652 -4.38872,1.63301 -6.58308,2.44952 -2.09234,-0.71446 -4.1846,-1.42889 -6.2769,-2.14333 -7.91699,-4.2605 -15.83366,-8.52084 -23.7505,-12.78126 -7.36145,-6.63974 -14.72261,-13.27921 -22.08391,-19.91882 -4.76329,-8.22751 -9.5264,-16.45468 -14.28959,-24.68202 -2.7425,-9.59876 -5.4849,-19.19713 -8.22734,-28.7957 -0.31113,-1.7882 -0.62225,-3.57633 -0.93337,-5.36449 z m -16.90771,20.81242 c -1.83714,-0.86754 -3.67424,-1.73506 -5.51142,-2.60262 -2.44951,-0.8165 -4.89899,-1.63299 -7.34855,-2.44952 -0.1531,-1.42888 -0.30619,-2.85774 -0.45929,-4.28666 2.55158,-1.99023 5.10312,-3.98042 7.65475,-5.9707 1.22476,1.02063 2.44952,2.04127 3.67428,3.0619 0.78275,3.62433 1.56547,7.24851 2.34821,10.87276 -0.11933,0.45829 -0.23865,0.91656 -0.35798,1.37484 z m -12.40069,-5.05214 c -0.86754,-0.10206 -1.73507,-0.20412 -2.60261,-0.30619 -1.17375,2.39854 -2.34746,4.79698 -3.52119,7.19547 -0.051,1.53098 -0.10206,3.0619 -0.15309,4.59285 2.6537,0.71445 5.30729,1.42888 7.96094,2.14332 3.41919,1.42892 6.83824,2.85778 10.25736,4.28666 1.27582,0.56136 2.55158,1.1227 3.82737,1.68405 -0.63791,-3.67435 -1.27579,-7.34856 -1.91368,-11.02284 -0.63791,-1.4034 -1.2758,-2.80674 -1.91369,-4.21011 -3.98055,-1.45443 -7.96094,-2.90881 -11.94141,-4.36321 z m -1.28817,23.62916 c 3.52118,1.53095 7.04236,3.0619 10.56355,4.59285 3.57229,1.22478 7.14443,2.44951 10.71665,3.67427 -0.19191,-0.7099 -0.38381,-1.41977 -0.57571,-2.12965 -0.90214,-2.88685 -1.80424,-5.77357 -2.70636,-8.66036 -0.90214,-0.97431 -1.80424,-1.94858 -2.70637,-2.92287 -4.29418,-1.47951 -8.58818,-2.95896 -12.88228,-4.43844 -1.80269,-0.70326 -3.60531,-1.40649 -5.40797,-2.10974 -0.3444,0.27024 -0.68878,0.54046 -1.03317,0.81069 -0.45107,1.06452 -0.90212,2.12901 -1.35318,3.19351 0.0541,1.02844 0.10825,2.05683 0.16238,3.08525 0.48716,0.8841 0.97429,1.76816 1.46144,2.65224 0.93822,0.61345 1.87641,1.22688 2.81461,1.84032 0.31548,0.13731 0.63094,0.27462 0.94641,0.41193 z M 543.334,248.9324 c -0.91857,1.07166 -1.83712,2.14331 -2.75571,3.21499 0.25516,2.14333 0.51031,4.28662 0.76548,6.42999 1.78611,0.81651 3.57221,1.63301 5.35832,2.44952 -0.29434,-0.0806 -0.58866,-0.16123 -0.88299,-0.24185 0.29434,0.0806 0.58866,0.16123 0.88299,0.24185 -1.23256,-0.60386 -2.46507,-1.20769 -3.69761,-1.81154 -0.55932,-1.0104 -1.11863,-2.02075 -1.67794,-3.03113 -0.16239,-0.82996 -0.32476,-1.6599 -0.48715,-2.48985 0.23456,-0.70367 0.46911,-1.40731 0.70366,-2.11096 0.36085,-0.73976 0.72169,-1.47948 1.08254,-2.21922 0.23614,-0.14394 0.47227,-0.28787 0.70841,-0.4318 z m 132.58024,7.34856 c 1.02063,0.9696 2.04126,1.9392 3.06189,2.9088 0.56136,3.31713 1.1227,6.63412 1.68405,9.95117 -3.16403,2.50061 -6.32793,5.00111 -9.49189,7.50166 -9.03278,4.74604 -18.0652,9.49188 -27.09781,14.23783 -2.09234,1.02065 -4.18459,2.04126 -6.27689,3.0619 -1.63304,-0.91859 -3.26603,-1.83714 -4.89904,-2.75571 -2.01579,-1.58201 -4.0315,-3.16396 -6.04725,-4.74595 -0.68894,-0.73997 -1.37785,-1.47991 -2.06678,-2.21987 1.07169,0.10206 2.14333,0.20412 3.21499,0.30619 1.88821,-0.35723 3.77635,-0.71445 5.66452,-1.07167 3.39367,-1.47994 6.78721,-2.95983 10.18081,-4.43975 5.93697,-3.69531 11.8737,-7.39048 17.81056,-11.08572 3.89724,-3.06727 7.79432,-6.13442 11.69148,-9.20163 0.85714,-0.81576 1.71424,-1.6315 2.57136,-2.44725 z M 649.735,300.06612 c 1.83714,-0.25516 3.67424,-0.51032 5.51142,-0.76548 7.0934,-4.64388 14.18665,-9.28767 21.2802,-13.93164 1.32682,-1.58198 2.65361,-3.16393 3.98046,-4.74594 0.10207,-3.01087 0.20413,-6.02168 0.30619,-9.03261 -0.66341,-0.86753 -1.32682,-1.73507 -1.99023,-2.60261 -0.38333,0.4773 -0.76665,0.95457 -1.14998,1.43186 -2.70642,2.34556 -5.41272,4.69102 -8.11909,7.03654 -4.51069,2.41773 -9.0212,4.83537 -13.53181,7.25305 -4.47461,2.30947 -8.94903,4.61886 -13.42355,6.92829 -1.91254,0.64954 -3.82499,1.29905 -5.73749,1.94858 0.61345,0.43302 1.22688,0.86603 1.84033,1.29905 1.33516,0.61345 2.67027,1.22688 4.00541,1.84033 2.34276,1.11355 4.68543,2.22705 7.02814,3.34058 z m 25.56686,-14.23784 c 0.81651,0 1.63301,0 2.44952,0 0.20413,1.22479 0.40825,2.44952 0.61237,3.67428 -1.17375,2.14338 -2.34745,4.28666 -3.52118,6.42999 -2.85783,2.9599 -5.71554,5.91967 -8.57332,8.87951 -0.71445,0.35723 -1.42888,0.71444 -2.14333,1.07166 -3.72538,-1.53098 -7.45062,-3.06189 -11.17593,-4.59284 -0.74411,-0.25882 -1.4882,-0.51762 -2.2323,-0.77644 0,-0.32477 0,-0.64952 0,-0.97429 0.64954,0 1.29906,0 1.94858,0 2.05688,-1.04648 4.11367,-2.09292 6.17051,-3.13938 3.21161,-1.94862 6.4231,-3.89716 9.63465,-5.84574 2.27685,-1.57561 4.55362,-3.15117 6.83043,-4.72675 z m -57.41061,-7.34859 c 2.34745,2.04127 4.69486,4.08249 7.04236,6.1238 1.1227,0.051 2.24538,0.10209 3.36809,0.15309 3.82738,-1.02063 7.65468,-2.04125 11.48213,-3.0619 5.71554,-3.41912 11.43097,-6.83817 17.14663,-10.25736 6.17483,-4.74594 12.34954,-9.49179 18.52449,-14.23783 0.61238,-1.07167 1.22475,-2.14331 1.83714,-3.215 -0.66341,-1.47991 -1.32681,-2.9598 -1.99023,-4.43975 -0.81651,-0.66341 -1.633,-1.32681 -2.44952,-1.99023 -1.83714,1.17372 -3.67425,2.34743 -5.51142,3.52118 -7.12881,5.36544 -14.25747,10.73078 -21.38642,16.09633 -8.29951,2.67028 -16.59886,5.3405 -24.89853,8.01083 -1.55165,0.14434 -3.10327,0.28868 -4.65495,0.43302 0.28868,0.54127 0.57735,1.08254 0.86604,1.62382 0.14434,0.18042 0.28868,0.36085 0.43302,0.54127 0.0637,0.23291 0.12745,0.46582 0.19117,0.69873 z"
     d="m 602.0204,335.63518 c 1.1227,1.02063 3.82738,3.31706 7.83341,5.28179 4.00604,1.96474 9.31323,3.59772 13.31924,4.72042 4.00601,1.1227 6.71064,1.73507 9.51741,1.60748 2.80677,-0.12759 5.71551,-0.99511 8.67537,-1.78611 2.95987,-0.791 5.97068,-1.50543 9.36432,-1.50542 3.39365,10e-6 7.16991,0.71444 10.56355,1.93921 3.39363,1.22478 6.40444,2.95982 8.26711,4.74595 1.86266,1.78613 2.57709,3.62323 3.26602,4.89903 0.68893,1.2758 1.35233,1.99023 2.09229,2.32193 0.73997,0.33171 1.55646,0.28067 2.21988,-0.10207 0.66342,-0.38274 1.17372,-1.09717 1.47991,-1.86265 0.3062,-0.76549 0.40826,-1.58198 -10e-6,-2.65366 -0.40826,-1.07167 -1.32681,-2.39847 -2.60262,-3.85289 -1.27581,-1.45442 -2.90879,-3.03637 -4.87353,-4.61837 -1.96474,-1.58199 -4.26112,-3.16394 -6.71066,-4.23561 -2.44955,-1.07167 -5.05211,-1.633 -8.16508,-1.91368 -3.11296,-0.28067 -6.73614,-0.28067 -10.3339,0.25517 -3.59777,0.53584 -7.16992,1.60749 -10.41046,2.16883 -3.24054,0.56135 -6.14928,0.61238 -8.54778,0.45928 -2.39851,-0.1531 -4.28665,-0.51031 -6.48103,-1.30131 -2.19439,-0.791 -4.69489,-2.01574 -6.63411,-3.08741 -1.93921,-1.07168 -3.31704,-1.99023 -4.23562,-2.55158 -0.91857,-0.56135 -1.37785,-0.76547 -2.60262,-0.61237 -1.22478,0.1531 -3.21498,0.6634 -4.43974,0.79098 -1.22477,0.12758 -1.68404,-0.12757 -0.56135,0.89306 z m 13.02584,-8.7009 c 0.21688,0.68893 0.65065,2.06678 -0.38277,3.30431 -1.03342,1.23753 -3.53392,2.33469 -5.84312,3.07465 -2.3092,0.73996 -4.42697,1.12269 -6.03448,1.44164 -1.60751,0.31895 -2.70467,0.57411 -3.43188,0.61238 -0.7272,0.0383 -1.08441,-0.14034 -0.35719,-1.50546 0.72722,-1.36512 2.5388,-3.91665 3.86564,-6.18758 1.32683,-2.27093 2.16883,-4.26112 2.53881,-5.67726 0.36997,-1.41614 0.26791,-2.25814 0.3955,-2.6664 0.12758,-0.40826 0.4848,-0.38276 0.90581,-0.16588 0.42102,0.21688 0.90581,0.62513 1.3651,1.00787 0.45929,0.38274 0.89305,0.73996 1.40337,1.08442 0.51032,0.34447 1.09718,0.67617 2.003,1.50544 0.90582,0.82928 2.13056,2.15608 2.74294,2.81949 0.61238,0.66341 0.61238,0.66345 0.82927,1.35238 z m -9.47914,-5.05213 c -0.53583,3.31705 -3.44464,8.24161 -6.23864,11.5842 -2.79401,3.34259 -5.47312,5.10315 -7.39958,5.56242 -1.92645,0.45928 -3.10016,-0.38272 -4.14631,-1.40337 -1.04616,-1.02064 -1.96472,-2.21986 -2.44952,-3.10016 -0.4848,-0.88031 -0.53583,-1.44164 0.22966,-2.34747 0.76549,-0.90582 2.34744,-2.15607 3.85289,-3.86566 1.50545,-1.70958 2.9343,-3.87838 4.37596,-5.91967 1.44166,-2.04128 2.89604,-3.95493 3.81461,-5.61347 0.91857,-1.65854 1.3013,-3.06189 2.01576,-3.29152 0.71445,-0.22963 1.76058,0.71443 3.20224,2.04127 1.44166,1.32684 3.27877,3.03637 2.74293,6.35343 z m -18.0397,-9.79808 c 0,-0.53583 0.0255,-1.07166 0.68891,-1.49268 0.66342,-0.42102 1.9647,-0.7272 2.97258,-1.09718 1.00788,-0.36998 1.72231,-0.80374 2.23263,-1.10993 0.51032,-0.3062 0.81651,-0.48481 1.53097,-0.0127 0.71445,0.47205 1.83713,1.59472 2.80673,2.62813 0.96961,1.0334 1.7861,1.97746 0.29338,5.17976 -1.49271,3.20229 -5.29449,8.66256 -8.03746,11.91584 -2.74297,3.25328 -4.42698,4.29941 -6.04725,4.08251 -1.62027,-0.2169 -3.1767,-1.69679 -4.23561,-3.17672 -1.05892,-1.47993 -1.62025,-2.95982 -1.90093,-4.18459 -0.28067,-1.22477 -0.28067,-2.19435 0.25517,-2.95983 0.53584,-0.76548 1.60749,-1.32682 2.87054,-2.16885 1.26304,-0.84204 2.71741,-1.96471 3.85288,-3.01087 1.13546,-1.04616 1.95195,-2.01574 2.34746,-2.76846 0.3955,-0.75273 0.37,-1.28855 0.37,-1.82438 z M 557.68666,230.561 c -0.29343,-0.56134 -0.3955,-0.8165 -0.54859,-1.72233 -0.1531,-0.90583 -0.35722,-2.46226 -0.0255,-3.66151 0.33171,-1.19925 1.19923,-2.04126 2.21988,-2.6664 1.02064,-0.62514 2.19435,-1.03339 3.27878,-1.23751 1.08443,-0.20413 2.07953,-0.20413 2.93432,0.26792 0.85478,0.47205 1.56922,1.41612 2.91305,6.55605 1.34384,5.13994 3.31698,14.47536 5.78308,22.75171 2.4661,8.27636 5.425,15.49318 9.43955,22.57549 4.01456,7.0823 9.08453,14.02967 13.94155,19.44267 4.85701,5.413 9.5008,9.29132 14.83366,12.99115 5.33287,3.69983 11.35449,7.22095 14.76095,9.76471 3.40646,2.54376 4.19762,4.11004 4.28648,5.72316 0.0889,1.61313 -0.52457,3.273 -2.31079,4.31946 -1.78623,1.04646 -4.74513,1.47947 -7.07262,1.75011 -2.32749,0.27064 -4.02344,0.37889 -6.2066,-0.7578 -2.18316,-1.1367 -4.85338,-3.51825 -8.60625,-6.91027 -3.75287,-3.39202 -8.58814,-7.79428 -12.21469,-11.33062 -3.62655,-3.53634 -6.04419,-6.20656 -8.01082,-8.19124 -1.96664,-1.98468 -3.48218,-3.28371 -5.64729,-6.18858 -2.16512,-2.90487 -4.97968,-7.41539 -7.53418,-12.03657 -2.55449,-4.62118 -4.84877,-9.35276 -6.76142,-14.57642 -1.91265,-5.22366 -3.44357,-10.9391 -4.74489,-16.78228 -1.30131,-5.84318 -2.37296,-11.81377 -3.15119,-15.2329 -0.77824,-3.41913 -1.26303,-4.28665 -1.55646,-4.848 z m 87.04095,81.69905 c 1.47948,1.17276 1.84033,2.29139 0.9021,3.66263 -0.93823,1.37124 -3.17544,2.99503 -5.17817,3.68063 -2.00272,0.68561 -3.77084,0.43302 -8.38493,-1.88241 -4.61409,-2.31543 -12.07381,-6.69352 -19.40155,-12.02112 -7.32774,-5.3276 -14.52306,-11.60436 -20.30152,-18.5809 -5.77846,-6.97653 -10.13974,-14.6524 -13.69168,-23.5063 -3.55193,-8.8539 -6.29432,-18.88528 -8.0264,-26.28272 -1.73208,-7.39743 -2.45376,-12.16054 -2.53495,-14.8669 -0.0812,-2.70637 0.47812,-3.35589 1.272,-3.80695 0.79387,-0.45106 1.82227,-0.70365 2.83265,-0.7668 1.01039,-0.0631 2.0027,0.0631 2.75147,0.40596 0.74876,0.34281 1.25394,0.90211 1.64185,2.04783 0.38792,1.14571 0.65855,2.87774 1.88049,7.4215 1.22193,4.54376 3.39509,11.89891 5.54216,18.19577 2.14707,6.29685 4.26792,11.53505 6.57332,16.17499 2.3054,4.63995 4.7952,8.68137 8.27743,13.30028 3.48223,4.61891 7.95666,9.81502 11.94407,13.78438 3.98741,3.96936 7.48757,6.71175 11.9441,9.74291 4.45653,3.03116 9.86914,6.35089 13.87459,8.62425 4.00544,2.27336 6.60349,3.50022 8.08297,4.67297 z M 562.5805,294.59653 c -1.46143,-0.32476 -2.39962,-0.28868 -2.92286,0.30672 -0.52324,0.5954 -0.63149,1.75009 0.0541,3.37392 0.68561,1.62383 2.16506,3.71671 3.62651,5.77356 1.46145,2.05686 2.90482,4.07757 4.36626,5.14209 1.46145,1.06453 2.94093,1.17278 6.17057,1.31713 3.22965,0.14434 8.20925,0.32476 11.63733,0.12628 3.42808,-0.19847 5.30445,-0.77581 6.56743,-1.35318 1.26297,-0.57736 1.91248,-1.15471 0.95621,-2.61617 -0.95627,-1.46146 -3.51825,-3.80693 -5.50293,-5.61118 -1.98468,-1.80425 -3.39195,-3.06719 -4.61885,-3.51825 -1.22689,-0.45106 -2.27333,-0.0902 -4.72714,-0.16239 -2.45381,-0.0722 -6.3148,-0.57735 -9.2377,-1.17276 -2.92289,-0.59541 -4.90751,-1.28101 -6.36895,-1.60577 z m 7.63194,18.29501 c 0.64952,1.91249 3.39197,5.48489 5.12406,7.25305 1.73208,1.76816 2.45376,1.73207 4.00543,0.79385 1.55167,-0.93823 3.93322,-2.77852 5.50292,-4.52865 1.5697,-1.75013 2.32746,-3.41 2.38158,-4.25799 0.0541,-0.84799 -0.59539,-0.88408 -3.1755,-1.02842 -2.58011,-0.14434 -7.09062,-0.39693 -10.06763,-0.39692 -2.97702,0 -4.42038,0.25259 -3.77086,2.16508 z m -20.38792,-35.88636 c -1.04646,-0.41498 -1.76816,-0.63149 -2.02075,0.19848 -0.2526,0.82997 -0.0361,2.70635 0.88409,5.10602 0.92018,2.39967 2.54396,5.32248 5.06994,7.52367 2.52597,2.20119 5.95396,3.68063 10.32028,4.90753 4.36631,1.22689 9.67068,2.20117 13.08071,2.56201 3.41003,0.36085 4.92556,0.10826 4.85337,-1.04648 -0.0722,-1.15473 -1.73205,-3.21153 -3.08524,-4.9797 -1.35319,-1.76817 -2.39963,-3.24762 -3.24763,-4.58277 -0.848,-1.33515 -1.49751,-2.52592 -2.20118,-3.01307 -0.70366,-0.48714 -1.46143,-0.27064 -3.53634,-0.43302 -2.07491,-0.16239 -5.46681,-0.70365 -8.40775,-1.53361 -2.94094,-0.82996 -5.43074,-1.94857 -7.3613,-2.81461 -1.93055,-0.86605 -3.30174,-1.47947 -4.3482,-1.89445 z m 22.55302,6.38701 c -1.01038,0.34281 -3.39193,0.34281 -7.07261,-0.55931 -3.68068,-0.90212 -8.66028,-2.70633 -12.57553,-4.45646 -3.91526,-1.75013 -6.7659,-3.44609 -8.40779,-4.99775 -1.64189,-1.55166 -2.0749,-2.95894 -2.38163,-4.70907 -0.30672,-1.75013 -0.48714,-3.84301 0.18042,-4.83536 0.66757,-0.99236 2.18314,-0.8841 6.04428,0.018 3.86113,0.90214 10.0676,2.59809 13.74827,3.89716 3.68066,1.29906 4.83535,2.20116 6.20659,4.4565 1.37124,2.25534 2.95894,5.86375 3.93323,8.01081 0.9743,2.14705 1.33514,2.83265 0.32477,3.17545 z m 89.55402,-37.90442 c 0.25516,-1.7606 0.61238,-2.37298 1.582,-2.47504 0.96962,-0.10206 2.55157,0.30619 3.96771,1.00788 1.41614,0.7017 2.66639,1.6968 3.04912,2.65365 0.38273,0.95685 -0.10206,1.8754 -1.90096,3.43189 -1.79889,1.55649 -4.91176,3.7508 -6.34064,4.35042 -1.42889,0.59961 -1.17373,-0.39549 -0.9696,-2.34748 0.20413,-1.95199 0.35722,-4.86073 0.61237,-6.62132 z m -9.3643,-6.57033 c 0.15309,-0.44653 0.45928,-1.33958 1.10994,-1.76059 0.65067,-0.42102 1.64576,-0.36998 2.89605,0.25517 1.2503,0.62515 2.7557,1.82437 3.7253,3.22775 0.96961,1.40339 1.40337,3.01085 1.55646,4.98835 0.1531,1.9775 0.0255,4.32491 -0.20412,6.14931 -0.22965,1.82439 -0.56135,3.12567 -2.58989,5.03939 -2.02855,1.91371 -5.75379,4.43972 -7.31024,5.44759 -1.55646,1.00787 -0.9441,0.49757 -0.52309,0.0893 0.42102,-0.40825 0.65066,-0.71444 0.80375,-1.32683 0.1531,-0.61239 0.22964,-1.53094 0.28067,-5.19253 0.051,-3.66158 0.0765,-10.06592 0.0893,-13.26816 0.0128,-3.20223 0.0128,-3.20223 0.1659,-3.64876 z m -10.16806,2.76843 c 0.0638,-2.67916 0.14033,-3.11294 0.3955,-3.89118 0.25516,-0.77824 0.68892,-1.90092 1.96474,-2.33468 1.27581,-0.43377 3.39358,-0.17862 4.87351,0.44653 1.47992,0.62515 2.32193,1.62025 2.74294,3.90395 0.42101,2.2837 0.42101,5.85584 0.36998,9.32603 -0.051,3.47019 -0.1531,6.83821 -0.31895,8.96879 -0.16586,2.13058 -0.3955,3.02362 -2.25819,4.50356 -1.86269,1.47993 -5.35829,3.54667 -7.29749,4.42697 -1.93921,0.88029 -2.32194,0.57411 -2.20711,-0.22966 0.11483,-0.80376 0.72719,-2.10504 1.07166,-4.28667 0.34446,-2.18164 0.42101,-5.24347 0.4848,-9.23675 0.0638,-3.99328 0.11482,-8.91773 0.17861,-11.59689 z m -12.93547,0.17264 c 0.43302,-1.67794 1.69599,-2.79657 3.24766,-3.77087 1.55166,-0.9743 3.39195,-1.80423 5.03382,-1.84031 1.64188,-0.0361 3.08524,0.72169 3.84302,2.27336 0.75778,1.55167 0.82995,3.89714 0.81191,8.40781 -0.0181,4.51067 -0.1263,11.18623 -0.50519,15.15557 -0.3789,3.96935 -1.02841,5.23229 -2.94094,6.4231 -1.91253,1.19081 -5.08793,2.30942 -7.18086,3.03112 -2.09293,0.7217 -3.10329,1.04646 -3.26566,0.72168 -0.16238,-0.32477 0.52322,-1.29904 0.90211,-3.60851 0.37889,-2.30946 0.45106,-5.95396 0.4691,-9.61661 0.0181,-3.66264 -0.018,-7.34322 -0.23455,-10.3022 -0.21651,-2.95897 -0.61344,-5.19619 -0.18042,-6.87414 z m -11.99821,8.931 c -0.018,-3.53631 0.27064,-4.72711 1.49755,-6.06226 1.2269,-1.33516 3.39195,-2.81461 4.94361,-3.71673 1.55165,-0.90212 2.48984,-1.22688 3.26567,-1.24492 0.77583,-0.018 1.38926,0.27063 1.85837,2.21925 0.4691,1.94862 0.79386,5.55703 0.95624,9.83313 0.16238,4.2761 0.16238,9.21962 0.0361,12.774 -0.1263,3.55438 -0.37889,5.71942 -1.87643,7.25303 -1.49755,1.53362 -4.23994,2.43572 -6.31484,2.99504 -2.07489,0.55931 -3.48217,0.77582 -4.05952,0.32475 -0.57736,-0.45107 -0.32477,-1.56968 -0.1263,-3.19352 0.19847,-1.62384 0.3428,-3.7528 0.25259,-7.75827 -0.0902,-4.00548 -0.41498,-9.88719 -0.43302,-13.4235 z m -15.85337,-25.33167 c -0.76548,-3.21499 -0.35722,-3.87841 1.17375,-2.88327 1.53098,0.99515 4.18457,3.64874 6.7617,7.60375 2.57712,3.95501 5.07762,9.21116 6.58306,15.38606 1.50544,6.1749 2.01574,13.26816 2.04126,18.47342 0.0255,5.20526 -0.43377,8.52226 -0.89306,10.25734 -0.45929,1.73507 -0.91856,1.88816 -2.44954,0.20408 -1.53098,-1.68408 -4.13354,-5.20519 -5.48588,-7.19543 -1.35234,-1.99024 -1.4544,-2.44951 -1.27578,-2.62812 0.17861,-0.17861 0.63789,-0.0765 0.89305,-1.68408 0.25515,-1.60753 0.30619,-4.92452 -0.17862,-9.0071 -0.48481,-4.08259 -1.50543,-8.9305 -2.98536,-14.23784 -1.47994,-5.30735 -3.41911,-11.07382 -4.18458,-14.28881 z m -10.3084,-0.73996 c -0.9696,-3.90392 -0.9696,-5.38384 -0.48479,-6.40448 0.48482,-1.02064 1.4544,-1.58197 2.83227,-1.40335 1.37787,0.17862 3.16394,1.09717 4.43974,2.44952 1.2758,1.35236 2.04126,3.13843 3.13846,5.97073 1.0972,2.8323 2.52605,6.71062 4.0315,12.01798 1.50545,5.30736 3.0874,12.04341 3.80184,16.89144 0.71444,4.84804 0.56135,7.80781 0.25515,9.41531 -0.30619,1.6075 -0.76547,1.86266 -1.86267,0.66339 -1.09719,-1.19927 -2.83224,-3.85287 -4.82249,-7.93545 -1.99026,-4.08259 -4.23561,-9.5939 -6.32792,-15.51363 -2.09232,-5.91974 -4.03149,-12.24754 -5.00109,-16.15146 z m -14.23035,-3.4748 c -0.16677,-2.08198 -0.18921,-4.45773 0.80748,-5.67118 0.99668,-1.21344 3.01233,-1.26448 4.61986,-1.00931 1.60754,0.25516 2.80673,0.81649 3.89117,1.70956 1.08445,0.89307 2.05401,2.11778 2.95984,4.05703 0.90583,1.93924 1.74782,4.59277 3.585,10.55083 1.83717,5.95807 4.66937,15.22014 8.17784,22.86218 3.50847,7.64205 7.69298,13.66367 13.10241,19.99166 5.40942,6.32799 12.0434,12.96197 19.8003,18.01414 7.7569,5.05217 16.63623,8.52225 21.45873,10.81869 4.82249,2.29643 5.58796,3.41911 5.5114,4.92456 -0.0766,1.50545 -0.99511,3.39359 -2.5516,4.74594 -1.55648,1.35234 -3.7508,2.16883 -5.89415,2.21986 -2.14335,0.051 -4.23561,-0.66341 -9.24025,-3.15088 -5.00465,-2.48747 -12.92132,-6.74781 -20.56047,-12.19789 -7.63914,-5.45008 -15.0003,-12.08955 -21.0626,-19.52311 -6.06229,-7.43356 -10.8254,-15.66073 -14.57824,-24.57378 -3.75285,-8.91305 -6.49524,-18.51142 -8.02203,-24.20481 -1.52679,-5.69338 -1.83791,-7.48151 -2.00469,-9.56349 z m -17.91096,20.44333 c -0.97823,-0.20463 -2.81533,-1.07215 -4.95867,-1.91418 -2.14335,-0.84203 -4.59283,-1.65853 -5.89416,-2.78123 -1.30133,-1.1227 -1.45442,-2.55156 -0.25518,-4.26114 1.19924,-1.70957 3.75078,-3.69977 5.63897,-4.18459 1.8882,-0.48482 3.11296,0.53582 4.11672,2.8583 1.00375,2.32248 1.78647,5.94666 2.11818,7.98793 0.3317,2.04127 0.21238,2.49954 -0.76586,2.29491 z m -9.98532,-3.71306 c -2.424,-0.77823 -3.29153,-0.8803 -4.31218,0.26794 -1.02064,1.14824 -2.19435,3.54668 -2.80673,5.51141 -0.61238,1.96474 -0.66341,3.49566 0.63792,4.61836 1.30134,1.1227 3.95493,1.83713 6.99135,2.90881 3.03642,1.07168 6.45547,2.50053 8.80294,3.49566 2.34747,0.99512 3.62323,1.55646 3.94217,-4e-5 0.31894,-1.5565 -0.31894,-5.23071 -0.95684,-7.76955 -0.6379,-2.53884 -1.27578,-3.94218 -3.58501,-5.37108 -2.30922,-1.4289 -6.28961,-2.88328 -8.71362,-3.66151 z m -1.24177,23.64981 c 1.91832,0.83413 5.4395,2.36508 8.98624,3.74294 3.54674,1.37787 7.11888,2.6026 8.80904,2.86003 1.69015,0.25743 1.49825,-0.45244 0.95123,-2.25081 -0.54702,-1.79836 -1.44912,-4.68508 -2.35125,-6.61563 -0.90213,-1.93055 -1.80423,-2.90482 -4.40239,-4.13172 -2.59815,-1.2269 -6.89215,-2.70635 -9.94055,-3.79772 -3.04839,-1.09137 -4.85101,-1.7946 -5.92454,-2.01111 -1.07353,-0.2165 -1.41791,0.0537 -1.81564,0.7211 -0.39773,0.66737 -0.84878,1.73186 -1.04725,2.77833 -0.19846,1.04647 -0.14434,2.07486 0.12631,3.03112 0.27064,0.95626 0.75777,1.84032 1.47046,2.58908 0.71268,0.74877 1.65087,1.3622 2.27771,1.73758 0.62684,0.37537 0.9423,0.51268 2.86063,1.34681 z m -5.1787,-12.08296 c -0.34122,0.46386 -1.25977,1.53551 -1.59149,3.14301 -0.33171,1.60751 -0.0765,3.7508 0.94408,5.23074 1.02064,1.47994 2.80674,2.29644 3.55263,2.66439 0.74588,0.36794 0.45156,0.28733 0.45156,0.28733 10e-6,0 0.29433,0.0806 -0.17479,-0.18101 -0.46911,-0.26162 -1.70162,-0.86545 -2.59755,-1.67257 -0.89593,-0.80713 -1.45524,-1.81748 -1.81609,-2.73765 -0.36085,-0.92017 -0.52323,-1.75011 -0.48714,-2.51692 0.0361,-0.76681 0.27064,-1.47045 0.56834,-2.19215 0.29771,-0.72171 0.65854,-1.46143 0.95704,-1.90327 0.29849,-0.44184 0.53462,-0.58577 0.19341,-0.1219 z m 133.23934,7.63343 c 0.93888,0.0769 1.95951,1.04653 2.75051,3.18989 0.79099,2.14337 1.35233,5.46036 0.051,8.36919 -1.30134,2.90883 -4.46524,5.40933 -10.56361,9.03262 -6.09837,3.6233 -15.13079,8.36914 -20.69326,11.25244 -5.56248,2.8833 -7.65473,3.90391 -9.5174,3.95494 -1.86267,0.051 -3.49566,-0.86753 -5.32006,-2.11782 -1.8244,-1.25029 -3.84011,-2.83224 -5.19245,-3.99322 -1.35235,-1.16098 -2.04126,-1.90092 -1.84988,-2.21987 0.19138,-0.31894 1.26302,-0.21688 2.74295,-0.34447 1.47994,-0.12758 3.36808,-0.4848 6.009,-1.40338 2.64092,-0.91858 6.03446,-2.39847 10.69974,-4.98609 4.66529,-2.58761 10.60202,-6.28278 15.51907,-9.66403 4.91705,-3.38126 8.81413,-6.44841 11.19128,-8.3899 2.37715,-1.94148 3.23425,-2.75722 4.17312,-2.6803 z m -26.51378,42.20815 c 2.08993,0.42918 3.92703,0.17403 8.39232,-2.2755 4.46529,-2.44952 11.55854,-7.0933 15.76873,-10.20628 4.21018,-3.11298 5.53697,-4.69493 6.25143,-6.99137 0.71445,-2.29644 0.81651,-5.30725 0.53584,-7.24648 -0.28067,-1.93923 -0.94408,-2.80677 -1.46745,-3.00189 -0.52337,-0.19512 -0.90669,0.28215 -2.45156,1.69358 -1.54488,1.41142 -4.25118,3.75688 -7.85971,6.13851 -3.60853,2.38162 -8.11904,4.79925 -12.61165,7.16284 -4.49261,2.36358 -8.96703,4.67296 -12.16056,6.15244 -3.19353,1.47949 -5.10598,2.129 -5.7555,2.67028 -0.64953,0.54127 -0.0361,0.97428 0.9382,1.49752 0.97431,0.52323 2.30942,1.13666 4.14837,2.00016 1.83895,0.8635 4.18162,1.977 6.27154,2.40619 z m 25.0895,-12.76571 c 1.54666,-0.78779 2.36316,-0.78779 2.87348,-0.17539 0.51032,0.61239 0.71444,1.83712 0.22962,3.52119 -0.48481,1.68407 -1.65851,3.82735 -3.67429,6.37896 -2.01578,2.55162 -4.87349,5.51139 -6.65961,7.16992 -1.78611,1.65853 -2.50054,2.01575 -4.72046,1.42887 -2.21991,-0.58688 -5.94515,-2.11779 -8.17986,-3.01268 -2.23471,-0.89488 -2.9788,-1.15369 -3.35085,-1.44548 -0.37205,-0.29179 -0.37205,-0.61654 -0.0473,-0.77893 0.32477,-0.16238 0.97429,-0.16238 2.32749,-0.68562 1.3532,-0.52324 3.40999,-1.56968 6.04422,-3.06722 2.63422,-1.49754 5.84571,-3.44608 8.58991,-5.20818 2.7442,-1.76209 5.02097,-3.33765 6.56763,-4.12544 z m -55.5386,-7.2322 c 1.20559,1.13709 3.553,3.17831 5.2881,4.22448 1.7351,1.04617 2.85778,1.0972 5.33283,0.6124 2.47504,-0.4848 6.30234,-1.50542 11.07384,-3.7253 4.77149,-2.21989 10.48692,-5.63894 16.43216,-9.72151 5.94525,-4.08256 12.11996,-8.82841 15.51362,-11.73727 3.39367,-2.90885 4.00604,-3.98049 3.98053,-5.25629 -0.0255,-1.2758 -0.68891,-2.75569 -1.42887,-3.82737 -0.73997,-1.07168 -1.55646,-1.73508 -2.88329,-1.47993 -1.32683,0.25515 -3.16394,1.42886 -7.64693,4.69846 -4.48299,3.26959 -11.61165,8.63493 -19.32588,12.65284 -7.71423,4.01792 -16.01358,6.68814 -20.93924,8.09548 -4.92566,1.40733 -6.47728,1.55167 -7.10878,1.89447 -0.6315,0.34281 -0.34282,0.88408 -0.12631,1.24493 0.21651,0.36085 0.36085,0.54128 0.46488,0.74794 0.10403,0.20666 0.16776,0.43958 1.37334,1.57667 z"
     inkscape:label="Heart"
     transform="matrix(2.056685,0,0,2.0709541,-595.14005,-260.03233)" />
  <path
     d="m 883.37178,65.553313 c 7.2261,0 47.1537,1.84878 62.9478,3.03159 15.8339,1.461126 47.601,5.228256 63.43492,7.514376 15.7245,2.55449 46.8455,8.4487 62.252,11.79836 21.1913,4.98971 45.4639,12.176071 60.4728,16.986861 14.9691,5.0891 44.798,16.10223 59.6578,22.0362 14.7802,6.19241 43.8338,19.27298 58.1072,26.15122 14.0944,7.09691 41.7962,21.90699 55.1749,30.1072 13.2993,8.38906 39.5897,25.96236 52.5709,35.1466 12.8718,9.44266 38.198,29.05359 50.5331,39.12246 12.1165,10.24777 35.6734,31.26019 47.114,42.02483 6.918,6.66951 32.433,34.19239 42.8597,46.08021 10.2478,12.11644 30.2166,37.0252 39.9276,49.77777 9.4427,12.87185 27.5428,38.94355 36.2002,52.13346 12.9017,20.46574 20.1377,32.97975 31.3994,54.38976 7.0969,14.09442 20.6247,42.81007 27.0457,57.42135 6.2024,14.78026 17.7821,44.53956 23.1495,59.46892 5.0891,14.96911 16.1619,50.83136 18.4778,60.15475 3.5981,15.28718 10.0192,46.19949 12.842,61.81468 2.5545,15.72452 6.8683,47.46182 8.6078,63.3255 1.4611,15.83386 3.5484,47.38231 4.1647,63.10683 0.3976,15.67483 -0.6163,47.07418 -1.5208,62.83847 -1.1828,15.7941 -4.3834,47.4916 -6.4111,63.3951 -2.2861,15.83379 -7.6634,47.17359 -10.7348,62.67939 -3.3497,15.3965 -9.2637,40.017 -15.5257,60.8704 -4.8108,14.9989 -15.2673,44.9074 -20.913,59.7969 -5.934,14.8598 -18.5574,44.2613 -25.207,58.7036 -6.8782,14.2634 -25.2368,49.7678 -28.8548,56.0298 -3.618,6.262 -25.1771,39.9176 -34.093,53.0082 -9.1842,12.9712 -28.3379,38.6056 -38.2378,51.1693 -10.0689,12.345 -30.7434,36.3493 -41.3291,48.0184 -14.9293,15.8538 -33.2879,33.278 -44.957,43.8737 -11.8878,10.4167 -36.3394,30.7433 -48.913,40.6432 -12.7526,9.7011 -38.6056,28.328 -51.6961,37.2538 -13.1999,8.6574 -39.8779,25.2368 -53.6642,32.7313 -13.9155,7.3255 -42.2833,21.3006 -56.7256,27.9503 -14.6113,6.421 -44.2513,18.5473 -59.1508,24.203 -14.9294,5.3674 -44.9074,15.2574 -59.9461,19.7799 -9.2339,2.6638 -45.8317,11.0032 -61.3375,14.0845 -15.6152,2.8129 -47.17362,7.6635 -63.07702,9.6912 -15.8637,1.7394 -47.4917,4.3833 -63.246,5.2779 -24.1733,0.9542 -38.6355,0.9542 -62.8087,0 -15.7543,-0.8946 -47.3823,-3.5385 -63.246,-5.2779 -15.9034,-2.0277 -47.4618,-6.8783 -63.077,-9.6912 -15.5058,-3.0813 -52.1036,-11.4207 -61.3276,-14.0845 -15.0486,-4.5225 -45.0167,-14.4125 -59.956,-19.7799 -14.8896,-5.6557 -44.5395,-17.782 -59.1508,-24.203 -14.4423,-6.6497 -42.8002,-20.6248 -56.7256,-27.9503 -13.7863,-7.4945 -40.4643,-24.0739 -53.6642,-32.7313 -13.0905,-8.9258 -38.9336,-27.5527 -51.6961,-37.2538 -12.5637,-9.8999 -37.0252,-30.2265 -48.913,-40.6432 -11.6691,-10.5957 -30.0277,-28.0199 -44.9471,-43.8737 -10.5957,-11.6691 -31.2602,-35.6734 -41.339,-48.0184 -9.8999,-12.5637 -29.0536,-38.1981 -38.2279,-51.1693 -8.9258,-13.0906 -30.4849,-46.7462 -34.1029,-53.0082 -3.6081,-6.262 -21.9766,-41.7664 -28.8548,-56.0298 -6.6496,-14.4423 -19.273,-43.8438 -25.207,-58.7036 -5.6457,-14.8895 -16.1022,-44.798 -20.903,-59.7969 -6.271999,-20.8534 -12.186099,-45.4739 -15.525799,-60.8704 -3.0813,-15.5058 -8.4487,-46.8456 -10.7447,-62.67939 -2.0277,-15.9035 -5.2283,-47.601 -6.4111,-63.3951 -0.8946,-15.76429 -1.9184,-47.16364 -1.5108,-62.83847 0.6162,-15.72452 2.6936,-47.27297 4.1547,-63.10683 1.7395,-15.86368 6.0632,-47.60098 8.6177,-63.3255 2.8129,-15.61519 9.2339,-46.5275 12.8321,-61.81468 2.3159,-9.32339 13.388699,-45.18564 18.477799,-60.15475 5.3674,-14.92936 16.9471,-44.68866 23.1494,-59.46892 6.4211,-14.61128 19.9489,-43.32693 27.0458,-57.42135 11.2716,-21.41001 18.4977,-33.92402 31.3994,-54.38976 8.6574,-13.18991 26.7575,-39.26161 36.2002,-52.13346 9.711,-12.75257 29.6897,-37.66133 39.9375,-49.77777 10.4167,-11.88782 35.9318,-39.4107 42.8598,-46.08021 11.4306,-10.76464 34.9875,-31.77706 47.104,-42.02483 12.345,-10.06887 37.6712,-29.6798 50.5431,-39.12246 12.9712,-9.18424 39.2616,-26.75754 52.5608,-35.1466 13.3788,-8.20021 41.0905,-23.01029 55.185,-30.1072 14.2634,-6.87824 43.317,-19.95881 58.1072,-26.15122 14.8597,-5.93397 44.6886,-16.9471 59.6577,-22.0362 14.999,-4.81079 39.2716,-11.997151 60.4729,-16.986861 15.3965,-3.34966 46.5175,-9.24387 62.242,-11.79836 15.8339,-2.28612 47.601,-6.05325 63.4349,-7.514376 15.7941,-1.18281 55.7216,-3.03159 62.9577,-3.03159 z"
     fill="none"
     stroke="#000000"
     stroke-width="12.6631"
     stroke-opacity="1"
     stroke-linejoin="round"
     id="path6"
     style="display:inline"
     inkscape:label="Circle" />
  <path
     id="path68"
     style="fill:#000000;fill-opacity:1;stroke:#000000;stroke-width:1.5;stroke-linecap:round;stroke-linejoin:round;stroke-dasharray:none;stroke-opacity:1"
     d="m 1148.6908,1125.4781 c -0.2745,-2.3735 7.2782,7.4246 16.464,19.6723 9.1858,12.2478 20.0043,26.9446 35.0078,39.3964 15.0035,12.4518 34.191,22.658 53.4812,30.8231 19.2901,8.1651 38.6818,14.2888 53.6852,16.0239 15.0034,1.735 25.6178,-0.9186 35.1097,-6.226 9.492,-5.3073 17.861,-13.2681 25.0055,-24.8014 7.1445,-11.5333 13.064,-26.6384 13.3702,-46.8472 0.3061,-20.2088 -5.001,-45.52 -12.5538,-69.8113 -7.5528,-24.2913 -17.3507,-47.5612 -25.9241,-68.7906 -8.5734,-21.22935 -15.9218,-40.41686 -18.9837,-53.27691 -3.0619,-12.86004 -1.8372,-19.39197 3.062,-23.67864 4.8991,-4.28668 13.4723,-6.32791 18.5755,-7.14441 5.1031,-0.81651 6.7361,-0.40825 15.922,12.24784 9.1858,12.65609 25.9239,37.55906 39.6005,73.07752 13.6766,35.5185 24.2909,81.6502 26.5362,121.4552 2.2454,39.8051 -3.8783,73.2811 -15.7178,98.7971 -11.8395,25.516 -29.3941,43.0706 -54.2978,50.215 -24.9038,7.1444 -57.1552,3.8784 -85.3249,-5.7157 -28.1697,-9.5941 -52.2562,-25.5156 -69.8295,-38.3003 -17.5734,-12.7848 -28.6328,-22.4319 -33.6655,-36.1845 -5.0328,-13.7525 -4.0387,-31.6099 -7.5926,-47.8116 -3.5539,-16.2017 -11.6555,-30.7464 -11.9301,-33.1198 z M 803.31926,498.00181 c -2.38216,-1.67837 -7.59839,-4.7682 -12.36027,-7.25561 -4.76189,-2.48741 -9.06926,-4.37233 -12.6568,-5.85156 -3.58754,-1.47923 -6.45504,-2.55269 -9.52531,-2.93917 -3.07027,-0.38649 -6.34313,-0.086 -8.68731,0.208 -2.34417,0.294 -3.75953,0.58149 -4.09677,0.97291 -0.33723,0.39141 0.40366,0.88672 1.89127,1.4981 1.4876,0.61138 3.72179,1.33878 7.27344,2.69559 3.55166,1.35682 8.42052,3.34296 13.42115,5.70538 5.00062,2.36242 10.13271,5.10096 13.98841,7.5413 3.8557,2.44033 6.43479,4.5823 9.01394,6.72431 1.07221,-2.36235 2.14442,-4.72469 2.90648,-6.03933 0.76205,-1.31463 1.21393,-1.58155 -1.16823,-3.25992 z m -15.58662,26.61236 c -2.81939,-0.73667 -8.7878,-1.80162 -14.11951,-2.46167 -5.3317,-0.66005 -10.02652,-0.9152 -13.90495,-1.04278 -3.87844,-0.12758 -6.94028,-0.12758 -9.95117,0.58688 -3.0109,0.71445 -5.97068,2.14331 -8.06299,3.2405 -2.09231,1.09719 -3.31704,1.86265 -3.49565,2.34745 -0.1786,0.4848 0.68892,0.68892 2.29645,0.73995 1.60752,0.051 3.95492,-0.051 7.75683,-0.0255 3.80192,0.0255 9.05807,0.17861 14.56955,0.63791 5.51147,0.45929 11.27793,1.22475 15.74446,2.15841 4.46653,0.93366 7.63288,2.03546 10.7993,3.13729 0.17594,-2.58831 0.35187,-5.17662 0.60466,-6.67499 0.25278,-1.49836 0.5824,-1.90676 -2.23698,-2.64344 z m 94.67571,-111.17022 c -0.84751,0.59826 -3.93296,2.77626 -7.42087,7.37146 -3.4879,4.59521 -6.93523,13.67348 -10.05786,23.10958 -3.12263,9.4361 -5.916,19.28313 -8.52739,23.18501 -2.61139,3.90189 -3.90001,4.79392 -10.6157,8.52553 -6.71569,3.7316 -19.50919,9.32213 -26.392,13.27634 -6.88281,3.95422 -10.50132,6.90121 -10.54371,9.83738 -0.0424,2.93617 3.51894,5.9942 6.31042,9.02651 2.79148,3.03231 4.68401,5.52031 5.09329,6.99031 0.40928,1.47 0.26824,2.33502 -0.12389,2.53521 -0.39213,0.20018 -1.48497,0.0847 -2.84601,-0.40353 -1.36104,-0.48819 -3.08822,-1.60748 -4.44583,-2.66168 -1.3576,-1.0542 -2.40865,-2.02339 -3.95637,-3.26261 -1.54773,-1.23922 -3.66684,-2.70517 -5.63082,-4.0513 -1.96397,-1.34613 -2.4595,-1.65517 -4.16679,1.34673 -1.70729,3.00191 -5.33077,10.49774 -6.93169,14.13505 -1.60092,3.63731 -1.32913,3.71424 1.36589,4.87349 2.69502,1.15925 8.38484,3.65248 12.33405,5.96504 3.94922,2.31255 6.44314,4.19569 7.23464,5.50035 0.79151,1.30466 0.88964,2.17546 0.56622,2.47421 -0.32343,0.29875 -1.40768,0.48328 -2.84986,0.38112 -1.44218,-0.10216 -3.40485,-0.7126 -4.99681,-1.36087 -1.59197,-0.64827 -2.8677,-1.29835 -4.69276,-2.07308 -1.82506,-0.77473 -4.26,-1.6126 -6.87406,-2.48242 -2.61405,-0.86983 -4.04124,-1.28621 -4.5435,1.65953 -0.50227,2.94574 -0.17894,9.33369 1.24399,16.18999 1.42292,6.85629 3.77283,14.06737 6.33861,19.16918 2.56578,5.10182 5.0278,8.57486 6.53923,10.36989 1.51143,1.79503 2.64173,2.71109 3.34714,3.32878 0.7054,0.6177 0.59158,0.62311 -2.75891,1.48796 -3.3505,0.86485 -10.15943,2.64571 -16.91064,5.22948 -6.75122,2.58378 -13.58439,6.0958 -18.32701,7.9389 -4.74263,1.8431 -7.1695,2.49294 -10.23048,1.37957 -3.06099,-1.11337 -9.35949,-7.20662 -17.9366,-14.78646 -8.57712,-7.57984 -19.65161,-16.50734 -33.54053,-26.05691 -13.88893,-9.54958 -31.03849,-19.51329 -43.79222,-25.72958 -12.75372,-6.21628 -20.86692,-9.46168 -26.03419,-9.63565 -5.16728,-0.17396 -8.98738,1.22908 -11.86264,4.2159 -2.87527,2.98682 -5.3215,9.34094 -6.01754,14.97815 -0.69604,5.63722 -0.005,11.30551 1.87181,17.20787 1.87632,5.90236 5.26979,12.18875 10.9662,19.30116 5.69642,7.1124 14.89365,15.13853 22.30978,20.76429 7.41613,5.62575 12.87551,9.20763 16.12255,11.43024 3.24704,2.22261 4.3471,3.00777 10.20028,7.4614 5.85318,4.45363 16.23835,12.86844 26.7444,22.88143 10.50604,10.01298 21.08015,21.86533 31.63451,37.38399 10.55437,15.51866 20.86557,35.9792 29.1527,53.30943 8.28713,17.33022 14.68977,31.46523 19.75492,39.74535 5.06515,8.28013 7.85297,11.76541 10.61038,13.41264 2.75741,1.64724 5.90127,2.24462 9.64201,2.17498 3.74073,-0.0697 8.35563,-1.1019 15.96162,-3.53229 7.60599,-2.43038 18.05105,-6.834 21.00469,-8.87509 2.95364,-2.04109 3.5904,-4.14615 3.33882,-7.11596 -0.25158,-2.96982 -2.42268,-8.4245 -5.08145,-14.57938 -2.65877,-6.15487 -4.70191,-10.26745 -6.86987,-14.81984 -2.16795,-4.55239 -4.04883,-8.70148 -5.13685,-11.10139 -1.08801,-2.3999 -1.25214,-2.76156 -1.3558,-3.02012 -0.10367,-0.25856 -0.16231,-0.43855 -0.42599,-1.24593 -0.26367,-0.80739 -0.70101,-2.14608 -1.20488,-3.83802 -0.50386,-1.69195 -1.04974,-3.65577 -1.35751,-4.76312 -0.30776,-1.10734 -0.41562,-1.49564 -0.48006,-1.82357 -0.0644,-0.32792 -0.0924,-0.59682 -0.17753,-3.91562 -0.0851,-3.3188 -0.21441,-9.23679 -0.17339,-12.59822 0.041,-3.36143 0.26087,-4.22818 0.58073,-5.921 0.31986,-1.69282 0.81192,-4.63068 1.24653,-7.10147 0.4346,-2.47079 0.4346,-2.47079 0.55746,-2.16446 0.12287,0.30632 0.4537,1.13117 2.25281,-1.22534 1.79912,-2.35652 5.30975,-8.11077 11.44599,-14.28038 6.13624,-6.16961 15.83121,-13.39865 24.98582,-17.9789 9.15461,-4.58025 18.19399,-7.26384 23.35422,-8.61014 5.16024,-1.3463 8.04501,-1.91511 10.55436,-2.20639 2.50935,-0.29129 5.59095,-0.48765 11.39021,-0.20735 5.79927,0.2803 14.91551,1.12352 22.54291,2.52588 7.6274,1.40235 13.9473,3.15808 16.63964,3.03841 2.69234,-0.11966 3.03457,-0.30655 6.77019,-3.75773 3.73562,-3.45117 9.75926,-12.19516 14.16504,-18.88244 4.40579,-6.68728 7.29266,-11.27257 11.53546,-17.74418 4.24279,-6.47161 9.9259,-14.80188 13.32795,-21.1506 3.40209,-6.34871 5.18649,-10.75394 8.29159,-17.82134 3.1051,-7.06739 7.7175,-16.78698 10.862,-25.4111 3.1445,-8.62413 5.1519,-16.30961 6.0999,-23.69032 0.9481,-7.38072 0.9481,-14.62738 -0.4749,-19.11647 -1.423,-4.48909 -3.7285,-7.62826 -6.5222,-9.10247 -2.7937,-1.4742 -7.1967,-1.68009 -12.2483,-0.64194 -5.0516,1.03815 -11.52163,4.0774 -21.35473,8.1891 -9.83309,4.1117 -23.20391,9.03515 -31.6958,10.29344 -8.4919,1.25828 -12.84066,0.97175 -16.46922,-0.5651 -3.62855,-1.53686 -6.95626,-4.48086 -11.52473,-10.1204 -4.56846,-5.63955 -9.95045,-15.05803 -13.4756,-21.80872 -3.52514,-6.75068 -5.40006,-10.69963 -7.70625,-17.35633 -2.30619,-6.6567 -4.56075,-16.51677 -6.70765,-23.40055 -2.14689,-6.88377 -3.82141,-11.07008 -5.8658,-13.9239 -2.04438,-2.85383 -4.34536,-4.79194 -5.22681,-5.5344 -0.88146,-0.74245 -0.88145,-0.74245 -1.72896,-0.1442 z m -52.92696,273.88474 c -0.45026,1.40486 -1.33418,4.16278 -1.80089,8.32663 -0.46672,4.16384 -0.54843,10.97739 -0.53244,15.42631 0.016,4.44892 0.1459,5.09782 0.4752,6.37601 0.32931,1.27818 0.87603,3.24504 1.37313,4.91409 0.4971,1.66906 0.92731,2.98591 1.26872,3.9684 0.3414,0.98249 0.55514,1.51061 1.58972,3.82104 1.03459,2.31043 3.05106,6.7586 4.93874,10.74175 1.88768,3.98314 3.77211,7.75629 4.80308,9.83491 1.03096,2.07861 1.32169,2.67537 2.16178,4.33183 0.84008,1.65646 2.22614,4.34017 3.04525,9.80482 0.81912,5.46465 1.11913,9.52077 1.24022,11.24793 0.12108,1.72717 0.10156,1.73908 -0.1551,2.06752 -0.25667,0.32844 -0.79292,1.02373 -2.04779,1.95988 -1.25486,0.93616 -2.81936,1.92433 -6.33939,4.04048 -3.52004,2.11614 -9.03785,5.26972 -14.31207,7.65706 -5.27422,2.38734 -10.41022,4.1493 -14.59372,4.87941 -4.18351,0.73011 -7.5058,0.77249 -10.67469,-0.38141 -3.16889,-1.1539 -6.6893,-4.34407 -12.84579,-12.42134 -6.15649,-8.07726 -13.83935,-23.07962 -22.57017,-40.32603 -8.73083,-17.24642 -18.48879,-36.74676 -26.89159,-50.63904 -8.40281,-13.89228 -14.86228,-22.85741 -22.74946,-32.0794 -7.88718,-9.22199 -17.44301,-18.68435 -24.68726,-25.19535 -7.24424,-6.51101 -11.98202,-10.37241 -13.30795,-11.45307 -1.32593,-1.08066 -1.32593,-1.08066 -2.4852,3.89756 -1.15927,4.97823 -0.0783,18.46427 2.04265,34.68841 2.121,16.22413 5.57888,35.21768 10.34019,52.02405 4.76132,16.80638 10.65983,31.91633 15.91408,42.33817 5.25426,10.42185 9.21279,16.71382 11.89675,19.92926 2.68395,3.21545 3.51492,3.97498 4.63904,4.60664 1.12411,0.63165 2.69469,1.11473 3.4394,1.58166 0.7447,0.46694 0.98996,0.75493 1.75295,2.05803 0.763,1.30311 1.75849,3.91849 6.90129,17.93658 5.1428,14.01808 14.15445,39.53057 22.49714,67.09341 8.34269,27.56284 15.91248,57.42104 23.54852,86.40013 7.63605,28.97909 15.32648,57.09438 22.8009,78.51398 7.47441,21.4196 13.98669,36.6211 23.27882,55.9226 9.29213,19.3014 21.84932,42.7121 35.13686,73.6552 13.28755,30.9432 26.47237,70.847 37.11448,97.5705 10.64212,26.7235 17.46638,41.249 24.24893,51.5228 6.78254,10.2739 12.89358,17.1415 20.33036,23.6585 7.43679,6.517 16.57794,12.7219 23.37335,16.3181 6.79541,3.5961 11.10749,5.3034 12.44964,6.0465 1.34214,0.7432 1.35085,0.637 -1.61822,8.7629 -2.96907,8.1259 -13.86699,24.3995 -19.68221,32.2966 -5.81522,7.8972 -5.86596,7.9601 -6.19301,7.8845 -0.32704,-0.076 -1.34943,-0.5534 -4.11277,-1.7401 -2.76334,-1.1868 -7.32,-2.9753 -10.97301,-4.0152 -3.653,-1.0399 -6.43029,-1.545 -8.21583,-1.3152 -1.78554,0.2299 -3.05758,0.8438 -4.4823,2.095 -1.42473,1.2512 -2.87956,3.4667 -4.80314,7.826 -1.92358,4.3594 -3.75838,11.4839 -4.63906,17.4273 -0.88069,5.9434 -1.08515,10.8095 -0.48117,13.7842 0.60398,2.9748 1.38566,4.5831 2.94543,6.3212 1.55976,1.738 4.38992,3.5706 7.5274,4.8954 3.13749,1.3248 6.80712,2.158 12.25972,2.7746 5.4526,0.6167 12.88466,0.637 19.95955,0.202 7.07488,-0.4349 13.83834,-1.2892 18.29004,-2.8914 4.45169,-1.6021 7.35076,-3.4764 9.87405,-6.0133 2.52329,-2.537 4.94357,-6.1971 11.5846,-14.7997 6.64103,-8.6027 18.40666,-21.7391 24.84776,-29.1182 6.4411,-7.3791 7.7148,-8.8764 10.9663,-12.9784 3.2514,-4.1021 8.3044,-10.9504 12.5041,-17.8457 4.1998,-6.8953 7.6411,-13.8832 8.1751,-18.9279 0.534,-5.0446 -0.7959,-10.0647 -3.2495,-17.3135 -2.4535,-7.2488 -6.332,-16.6055 -10.4287,-25.8976 -4.0967,-9.292 -8.3788,-18.4453 -13.2694,-25.1349 -4.8906,-6.6895 -10.5918,-11.937 -16.2366,-16.9392 -5.6447,-5.0022 -11.22907,-9.7666 -21.83411,-20.1882 -10.60504,-10.4216 -25.64609,-27.4314 -31.21725,-33.858 -5.57116,-6.4266 -5.57116,-6.4266 -4.45401,-5.4882 1.11716,0.9385 4.5583,3.8291 7.47836,6.5558 2.92006,2.7266 5.3821,5.2808 10.42503,10.1756 5.04292,4.8948 12.81964,11.9543 26.54969,22.6397 13.73009,10.6855 34.30689,24.3369 49.48479,34.2288 15.1779,9.8919 24.9001,16.1156 35.1307,23.9489 10.2307,7.8333 21.0316,17.6464 37.2249,33.3889 16.1934,15.7424 37.4052,37.8046 50.6446,55.1915 13.2394,17.387 20.5123,29.6605 23.5865,38.1127 3.0742,8.4522 3.8182,12.9472 4.8244,19.4755 1.0063,6.5282 2.2303,15.0974 4.4256,18.9061 2.1953,3.8087 5.0822,5.7985 9.7816,7.4506 4.6995,1.6522 11.7013,2.2604 18.9585,1.0524 7.2572,-1.208 15.7604,-5.0234 20.8421,-10.1027 5.0817,-5.0794 8.4744,-12.9023 9.7169,-22.5894 1.2426,-9.6871 -0.7057,-22.9357 -5.2054,-38.1676 -4.4998,-15.232 -12.5349,-32.8614 -22.693,-52.3369 -10.1581,-19.4756 -22.7724,-40.8234 -32.2068,-58.7219 -9.4345,-17.8985 -16.159,-32.3156 -20.1931,-40.9382 -4.0341,-8.6226 -5.3644,-11.4573 -7.0915,-14.5896 -1.7272,-3.1323 -3.9239,-6.5694 -6.0978,-10.5997 -2.1739,-4.0303 -4.276,-8.7355 -5.8325,-14.3046 -1.5566,-5.569 -2.4006,-12.3259 -2.8996,-22.2536 -0.499,-9.9277 -0.1884,-23.2084 -0.6962,-34.7637 -0.5078,-11.5554 -1.6235,-21.5014 -4.5428,-30.3702 -2.9193,-8.8688 -7.9718,-17.5883 -15.3226,-27.4275 -7.3508,-9.8393 -17.6135,-20.6951 -29.6859,-32.1059 -12.0725,-11.4108 -26.1909,-23.3289 -35.2404,-31.8696 -9.0496,-8.5408 -13.5344,-13.2738 -18.7807,-21.3747 -5.2463,-8.1009 -10.5604,-20.9117 -14.2346,-33.5469 -3.6741,-12.6352 -5.9088,-25.427 -7.7991,-37.87354 -1.8902,-12.44654 -3.4571,-24.57011 -7.1109,-41.47044 -3.6539,-16.90032 -10.3344,-38.69657 -19.2189,-63.94637 -8.88449,-25.2498 -20.33053,-53.97494 -24.64638,-69.84078 -4.31584,-15.86583 -4.75603,-18.7788 -4.97575,-22.87142 -0.21973,-4.09262 -0.0206,-9.29163 -0.41114,-16.7299 -0.39057,-7.43826 -1.79756,-17.20285 -4.18595,-28.39803 -2.38839,-11.19519 -6.00533,-23.908 -8.80202,-32.25481 -2.79669,-8.3468 -4.39966,-12.48675 -5.84788,-14.35812 -1.44823,-1.87136 -2.20068,-2.35701 -7.03691,-4.24668 -4.83623,-1.88967 -14.81797,-3.72452 -23.40471,-4.57296 -8.58675,-0.84843 -15.87655,-0.95641 -24.21857,-0.0166 -8.34201,0.93984 -17.95175,3.28396 -26.11129,6.82303 -8.15953,3.53908 -15.47271,8.33613 -22.57397,14.22768 -7.10126,5.89154 -14.17143,13.21169 -16.79755,14.85282 -2.62613,1.64112 -3.76643,1.7032 -4.08867,1.72074 -0.32224,0.0175 -0.32226,0.0172 -0.77252,1.42204 z M 655.03435,416.55956 c -3.00537,-0.47834 -4.56234,-0.25898 -7.66344,1.59755 -3.10109,1.85652 -8.71395,6.07582 -11.9479,11.37571 -3.23394,5.29988 -4.62954,13.53926 -3.9021,23.41754 0.72744,9.87828 4.80151,22.73058 9.58763,35.14971 4.78612,12.41913 10.28941,24.46529 14.18417,29.60773 3.89476,5.14244 4.56157,5.68796 10.02942,9.08043 5.46785,3.39247 16.61572,8.51398 26.25927,13.4921 9.64356,4.97812 17.89979,9.73184 22.87855,12.78916 4.97876,3.05733 6.79134,4.24222 7.94549,5.04794 1.15414,0.80573 1.67729,1.19518 1.94745,1.39629 0.27016,0.20112 0.27016,0.20112 -1.60651,-13.52789 -1.87667,-13.72901 -7.33767,-42.40547 -13.26318,-62.31745 -5.9255,-19.91199 -10.9135,-32.00098 -17.60829,-41.16694 -6.69479,-9.16596 -15.6888,-16.77952 -22.18275,-20.43632 -6.49395,-3.6568 -11.65245,-5.02722 -14.65781,-5.50556 z"
     inkscape:original-d="m 1140.8636,1113.3065 c 7.5527,9.7981 15.1054,19.5962 22.6581,29.3943 10.8189,14.6974 21.6374,29.3942 32.4561,44.0913 19.1883,10.2065 38.3758,20.4127 57.5637,30.619 19.3924,6.1239 38.7841,12.2476 58.1761,18.3714 10.6148,-2.6537 21.2292,-5.3073 31.8437,-7.9609 8.3694,-7.9611 16.7384,-15.9219 25.1076,-23.8829 5.9198,-15.1056 11.8394,-30.2107 17.759,-45.3161 -5.3074,-25.3122 -10.6146,-50.6234 -15.9218,-75.9351 -9.7983,-23.2709 -19.5962,-46.5408 -29.3943,-69.8113 -7.3487,-19.18825 -14.6971,-38.37577 -22.0457,-57.56367 1.2248,-6.53218 2.4496,-13.0641 3.6743,-19.59615 8.5735,-2.04131 17.1467,-4.08254 25.72,-6.1238 1.633,0.40826 3.266,0.8165 4.899,1.22476 16.7387,24.90394 33.4768,49.80689 50.2152,74.71036 10.6148,46.1335 21.2291,92.2652 31.8437,138.3978 -6.1239,33.4775 -12.2476,66.9535 -18.3714,100.4303 -17.5552,17.5552 -35.1098,35.1098 -52.6646,52.6647 -32.2527,-3.2661 -64.5041,-6.5321 -96.7561,-9.7981 -24.0874,-15.9222 -48.1738,-31.8438 -72.2608,-47.7656 -11.0598,-9.6476 -22.1192,-19.2947 -33.1788,-28.9421 0.9941,-17.8577 1.9882,-35.7151 2.9823,-53.5732 -8.1019,-14.5453 -16.2035,-29.09 -24.3053,-43.635 z M 806.15331,499.41326 c -5.21621,-3.08982 -10.43244,-6.17965 -15.64865,-9.26947 -4.30756,-1.885 -8.61493,-3.76992 -12.92239,-5.65488 -2.86762,-1.0735 -5.73512,-2.14696 -8.60267,-3.22043 -3.27299,0.3005 -6.54585,0.60099 -9.81877,0.90149 -1.41543,0.28751 -2.83079,0.575 -4.24618,0.86249 0.74092,0.49533 1.48181,0.99065 2.22273,1.48597 2.23429,0.72743 4.46848,1.45483 6.70272,2.18224 4.86907,1.98622 9.73793,3.97236 14.60689,5.95854 5.13229,2.73866 10.26438,5.47721 15.39658,8.21581 2.5792,2.14206 7.73744,6.42604 7.73744,6.42604 0,0 2.14442,-4.72469 3.21664,-7.08704 0.45189,-0.26693 0.90377,-0.53384 1.35566,-0.80076 z m -15.27166,25.52918 c -5.9684,-1.06494 -11.93681,-2.12989 -17.90521,-3.19483 -4.69501,-0.25517 -9.38983,-0.51031 -14.08474,-0.76547 -3.06196,0 -6.1238,0 -9.1857,0 -2.95989,1.42891 -5.91967,2.85777 -8.8795,4.28666 -1.22479,0.76549 -2.44952,1.53095 -3.67428,2.29642 0.86755,0.20413 1.73507,0.40826 2.60261,0.61238 2.34751,-0.10206 4.69491,-0.20412 7.04237,-0.30619 5.25637,0.1531 10.51252,0.30619 15.76878,0.45929 5.76669,0.76549 11.53315,1.53095 17.29973,2.29642 3.16647,1.10188 9.49925,3.30548 9.49925,3.30548 0,0 0.35187,-5.17662 0.52781,-7.76494 0.32963,-0.40841 0.65925,-0.81681 0.98888,-1.22522 z M 883.25586,412.8457 c -2.75575,-0.30617 -6.22588,1.32688 -9.54297,6.73633 -3.31709,5.40945 -6.48085,14.5954 -9.18555,24.18945 -2.70471,9.59405 -4.9509,19.5963 -6.99218,24.64843 -2.04129,5.05215 -3.87763,5.15296 -11.27735,7.80665 -7.39972,2.6537 -20.36124,7.85974 -28.73047,12.55469 -5.72624,3.2123 -9.14322,6.40674 -12.1875,9.92578 3.71699,2.68911 7.23436,5.79833 9.82618,8.43751 3.25098,3.31037 5.05258,5.86754 5.74804,7.55663 0.69547,1.68909 0.28452,2.51011 -0.46875,2.875 -0.75327,0.36489 -1.8486,0.27296 -3.25195,-0.34375 -1.40334,-0.61675 -3.11616,-1.75819 -4.43945,-2.87695 -1.32329,-1.11875 -2.25847,-2.2136 -3.78712,-3.49219 -1.52863,-1.27859 -3.65032,-2.74082 -7.31249,-5.05859 -0.36515,-0.23108 -0.86287,-0.53661 -1.25586,-0.78321 -3.91983,5.81478 -8.04496,13.06812 -10.12305,20.94141 0.27661,0.0791 0.55014,0.14988 0.82812,0.23441 5.37615,1.63321 11.0006,4.27561 15.02539,6.58398 4.02479,2.30837 6.45001,4.28248 7.57617,5.7207 1.12615,1.43822 0.95276,2.33962 0.32617,2.89453 -0.62659,0.55491 -1.70679,0.76324 -3.22462,0.54883 -1.51781,-0.2144 -3.47237,-0.85089 -5.04882,-1.57032 -1.57644,-0.71942 -2.77444,-1.52205 -4.59179,-2.33983 -1.81736,-0.81779 -4.25391,-1.65098 -8.40625,-2.89258 -1.13116,-0.33825 -2.56006,-0.74875 -3.88282,-1.13281 -0.58736,6.32306 -0.12208,12.70383 0.93946,18.56054 1.47994,8.16513 4.03187,15.31037 6.68554,20.51563 2.65367,5.20526 5.40864,8.47063 7.70508,10.86914 1.00783,1.05262 2.13149,1.97687 3.77149,3.05664 -0.10693,0.0107 -0.22133,0.004 -0.32813,0.0156 -6.85618,0.72172 -13.63981,2.59931 -20.42384,5.3418 -6.784,2.74247 -13.56832,6.34952 -17.97069,9.23633 -4.40238,2.88681 -6.42306,5.05357 -10.24805,2.74414 -3.82499,-2.30944 -9.45419,-9.09454 -17.68164,-17.10547 -8.22745,-8.01093 -19.05174,-17.2488 -33.125,-26.70312 -14.07326,-9.45433 -31.39376,-19.12384 -44.0957,-25.61914 -12.70194,-6.49532 -20.78517,-9.81563 -26.70313,-10.68165 -5.91795,-0.86602 -9.67011,0.72201 -12.77343,4.69141 -3.10332,3.96939 -5.55761,10.32041 -6.2793,16.31054 -0.72169,5.99015 0.28958,11.61943 2.16601,17.75391 1.87644,6.13449 4.61744,12.7731 10.75196,19.91796 6.13451,7.14488 15.66041,14.79438 23.23828,20.27931 7.57787,5.48492 13.2084,8.80595 16.56641,10.86914 3.358,2.06319 4.44321,2.86915 10.28906,7.34375 5.84585,4.4746 16.4512,12.61768 27.45508,22.24609 11.00388,9.62841 22.4063,20.74179 32.79882,36.76368 10.39253,16.02186 19.77388,36.951 27.4961,54.56054 7.72221,17.60954 13.78541,31.8983 18.40429,40.63086 4.61889,8.73256 7.79326,11.90865 10.96876,13.71289 3.17549,1.80425 6.35083,2.23596 10.24804,1.94727 3.89721,-0.28869 8.51697,-1.2992 16.23242,-3.63086 7.6964,-2.32591 18.46345,-5.96579 23.16797,-9.76758 1.21925,-1.62245 2.23892,-3.61168 1.99219,-6.58595 -0.30542,-3.68162 -2.72897,-9.03583 -6.69336,-16.81639 -2.18609,-4.18935 -4.18572,-8.32355 -6.52734,-13.13868 -2.11574,-4.23635 -4.07808,-8.34852 -5.87109,-12.95117 -0.1232,-0.31494 -0.32266,-0.66057 -0.44141,-0.97265 -0.08,-0.21027 -0.11931,-0.39655 -0.19727,-0.60547 -0.51357,-1.38489 -0.91046,-2.7368 -1.3457,-4.11915 -0.63291,-1.98546 -1.18921,-3.94639 -1.6211,-5.83202 -0.0771,-0.35867 -0.23391,-0.73337 -0.30273,-1.08986 -0.0588,-0.30436 -0.0391,-0.57823 -0.0918,-0.88085 -1.22808,-6.30899 -1.44537,-12.22505 -0.39648,-18.14257 0.15003,-0.84649 0.44877,-1.69323 0.64453,-2.54102 0.43238,-2.54135 0.87504,-5.48749 1.18945,-7.10157 1.03455,-5.31103 0.4026,-4.9541 0.59766,-3.32032 0.081,0.67872 0.36954,1.52053 0.86328,2.15236 2.43275,-5.96401 5.83972,-11.78151 10.39063,-17.03125 7.28077,-8.39882 17.14705,-15.39811 26.69921,-19.90821 9.55218,-4.51009 18.78837,-6.53073 25.64454,-7.61329 3.75226,-0.59245 6.67846,-0.95113 8.57812,-1.6914 3.05133,-0.16766 6.12732,-0.45198 9.41016,-0.59961 8.42582,-0.37888 17.51987,0.7043 25.16992,2.32813 7.65004,1.62384 13.85644,3.7881 17.11914,4.75586 3.2627,0.96776 3.58137,0.73772 6.80273,-3.71484 3.22137,-4.45256 9.34588,-13.12706 13.6836,-19.86329 4.33771,-6.73622 6.88856,-11.53307 11.27734,-17.9121 4.38878,-6.37904 10.61358,-14.33976 14.13481,-20.71874 3.52117,-6.37903 4.33837,-11.17604 7.40037,-18.26954 3.0619,-7.09351 8.3694,-16.48325 11.8906,-25.05665 3.5212,-8.57338 5.255,-16.33031 6.2246,-23.83203 0.9696,-7.50171 1.1738,-14.74837 0,-19.85156 -1.1737,-5.10319 -3.7251,-8.06181 -7.1953,-9.79687 -3.4702,-1.73507 -7.8589,-2.24635 -13.1152,-0.61328 -5.25635,1.63304 -11.38006,5.40955 -21.07621,9.90039 -9.69614,4.49082 -22.96275,9.69727 -31.74023,11.6875 -8.77749,1.99022 -13.06442,0.76515 -17.04492,-1.12305 -3.98051,-1.8882 -7.6547,-4.44056 -11.94141,-10.56446 -4.2867,-6.12389 -9.18508,-15.81872 -12.85937,-22.5039 -3.67431,-6.68518 -6.12474,-10.36088 -8.16602,-17.19922 -2.04128,-6.83834 -3.67481,-16.84041 -5.46094,-23.88281 -1.78611,-7.04241 -3.72459,-11.12313 -5.71484,-14.28712 -1.99025,-3.16398 -4.03136,-5.41061 -6.78711,-5.7168 z m -53.32421,273.07813 c -1.11771,2.74011 -2.00982,5.49541 -2.6504,8.26953 -0.95534,5.61515 -1.68723,12.4209 -0.24805,20.68359 0.12737,0.6543 0.24233,1.30619 0.39453,1.97072 0.41256,1.91936 1.00449,3.87365 1.6211,5.83202 0.43489,1.36429 0.81529,2.69742 1.3457,4.11914 0.19656,0.53003 0.4326,1.04913 0.63868,1.57812 1.64003,4.19265 3.75354,8.59683 5.87109,12.95117 1.77692,3.55795 3.61271,7.3554 5.15429,10.32032 0.59956,1.15312 0.84091,1.77394 1.37305,2.81837 1.1764,2.25439 2.56308,4.93778 3.52148,6.81835 4.47095,8.77281 5.91057,12.74464 1.22461,16.55664 -0.012,0.009 -0.0333,0.018 -0.0449,0.0274 -0.49256,0.65545 -0.93743,1.42122 -1.46875,1.9043 -1.8465,1.67887 -3.5789,2.40122 -7.11523,4.49414 -3.53632,2.09294 -8.8761,5.55802 -14.14453,8.08399 -5.26844,2.52596 -10.46459,4.11256 -14.72266,5.05077 -4.25806,0.93823 -7.57721,1.22709 -11.33007,0.14455 -3.75287,-1.08256 -7.93995,-3.53704 -13.65821,-12.37697 -5.71827,-8.83993 -12.968,-24.06409 -21.26757,-41.5293 -8.29958,-17.4652 -17.64858,-37.17018 -25.71485,-51.38867 -8.06628,-14.21849 -14.84919,-22.95058 -23.06055,-32.00585 -8.21135,-9.05529 -17.85048,-18.43352 -25.15625,-24.91016 -7.30576,-6.47664 -12.27815,-10.05018 -14.95117,-12.18554 -2.67303,-2.13538 -3.04552,-2.83175 -2.83008,3.57421 0.21544,6.40597 1.02035,19.91414 2.90235,36.21094 1.88201,16.29679 4.84018,35.38131 9.53515,52.37501 4.69499,16.99369 11.12577,31.89586 16.53516,42.35742 5.40941,10.46154 9.79844,16.48267 12.46484,19.81249 2.66641,3.32982 3.60896,3.96728 4.88478,4.46484 1.2758,0.49757 2.88506,0.85488 3.81639,1.17383 0.93133,0.31897 1.18566,0.59923 1.75977,2.06641 0.57411,1.46719 1.46794,4.12127 6.86914,18.04687 5.4012,13.92561 15.30954,39.12137 23.58399,66.76758 8.27444,27.64622 14.91269,57.74059 22.02148,86.86133 7.10878,29.12074 14.68707,57.26671 21.60742,78.99411 6.92036,21.7273 13.18295,37.0358 23.86722,55.713 10.68418,18.6771 25.78928,40.7211 38.67963,72.1113 12.89042,31.3899 23.56613,72.1227 32.87308,99.4901 9.30703,27.3674 17.24568,41.3693 24.31838,51.7617 7.07267,10.3926 13.27773,17.1765 20.99997,23.5997 7.72224,6.4231 16.96022,12.4853 23.81636,16.1661 6.8562,3.6805 11.33004,4.9792 14.21682,5.6288 2.88682,0.6496 4.18622,0.6492 -0.71477,8.7187 -4.90112,8.0696 -16.001,24.2079 -21.61524,32.2774 -5.61427,8.0696 -5.74142,8.0707 -6.30282,7.8027 -0.56134,-0.2678 -1.55669,-0.8035 -4.31245,-2.0156 -2.75571,-1.212 -7.27306,-3.1007 -10.92193,-4.287 -3.64871,-1.1866 -6.42966,-1.6716 -8.41985,-1.5314 -1.99027,0.1405 -3.1889,0.9065 -4.70705,2.2716 -1.51824,1.365 -3.35535,3.3294 -5.17386,7.8788 -1.81841,4.5495 -3.61869,11.6829 -4.55462,17.6856 -0.93599,6.0027 -1.00686,10.8744 -0.59185,14.0859 0.41496,3.2116 1.3159,4.762 3.15623,6.4941 1.84037,1.7321 4.61855,3.645 7.83009,5.0703 3.2116,1.4255 6.85744,2.3635 12.39647,2.8146 5.53912,0.4511 12.97133,0.4155 20.08014,0.055 7.10875,-0.361 13.89355,-1.0463 18.71087,-2.3633 4.81745,-1.3172 7.66839,-3.2659 9.85155,-6.3691 2.18322,-3.1035 3.69826,-7.3622 10.51571,-15.9025 6.81728,-8.54 18.93564,-21.3604 25.58194,-28.5624 6.6465,-7.2021 7.8204,-8.7843 11.0098,-12.9433 3.1896,-4.1593 8.3943,-10.8957 13.0001,-17.6192 4.6057,-6.7236 8.6107,-13.4339 9.4375,-19.164 0.8267,-5.7304 -1.5249,-10.4798 -4.6466,-17.5392 -3.1214,-7.0594 -7.0052,-16.4139 -10.7264,-25.877 -3.7214,-9.463 -7.2536,-18.9672 -12.1779,-26.0311 -4.9241,-7.0641 -11.2297,-11.655 -17.4258,-16.0392 -6.1961,-4.3841 -12.28137,-8.5613 -22.65227,-19.3261 -10.37087,-10.7649 -25.02572,-28.1162 -31.9922,-36.1797 -6.96648,-8.0635 -6.24319,-6.8375 -4.08395,-4.871 2.15918,1.9663 5.75525,4.6725 8.74215,7.3436 2.98694,2.6714 5.36431,5.3072 10.12496,10.5039 4.7608,5.1969 11.90387,12.9544 25.87703,23.4904 13.97308,10.5359 34.77368,23.85 50.22658,33.3221 15.4529,9.4723 25.5564,15.1004 35.8769,22.9668 10.3202,7.8666 20.8573,17.9701 37.0958,33.7033 16.2383,15.733 38.1785,37.0949 52.1795,54.2713 14.0011,17.1766 20.0626,30.1679 23.0939,38.9728 3.0311,8.8048 3.0316,13.4228 3.3203,20.0624 0.2887,6.6398 0.866,15.3013 2.8867,20.209 2.0208,4.9077 5.4835,6.0622 10.6797,7.3613 5.1962,1.2992 12.1256,2.7408 19.9199,1.7305 7.7945,-1.0103 16.4553,-4.4743 22.5176,-10.1035 6.0623,-5.6293 9.5246,-13.4221 10.3907,-23.959 0.866,-10.5369 -0.8659,-23.8173 -5.7735,-39.2616 -4.9076,-15.4445 -12.989,-33.0528 -23.8144,-52.2501 -10.8258,-19.1972 -24.3938,-39.9815 -34.1367,-57.7715 -9.7431,-17.7901 -15.6603,-32.5838 -19.3047,-41.3886 -3.6447,-8.8049 -5.0162,-11.6202 -6.8926,-14.6876 -1.8765,-3.0672 -4.2579,-6.3863 -6.6133,-10.3476 -2.3554,-3.9612 -4.6846,-8.5649 -6.3594,-14.2344 -1.675,-5.6693 -2.6967,-12.404 -2.7988,-22.4062 -0.1021,-10.0022 0.7142,-23.271 0.8164,-34.9063 0.1021,-11.6353 -0.5089,-21.6379 -3.4689,-30.9258 -2.9598,-9.2878 -8.2666,-17.86 -16.0037,-27.6191 -7.7373,-9.7592 -17.9047,-20.7051 -30.2053,-31.9512 -12.3004,-11.2461 -26.7333,-22.7916 -36.4042,-30.7305 -9.6709,-7.9388 -14.5799,-12.2699 -19.7324,-20.8241 -5.1526,-8.5544 -10.5488,-21.33112 -14.1661,-34.15043 -3.6171,-12.81934 -5.4549,-25.68048 -6.6795,-38.23437 -1.2248,-12.55394 -1.8361,-24.80101 -5.4083,-41.84571 -3.5723,-17.0447 -10.1054,-38.88611 -19.6056,-63.96682 -9.50011,-25.0807 -21.9679,-53.39871 -27.55263,-69.14647 -5.58474,-15.74775 -4.28602,-18.92349 -3.49219,-23.10938 0.79391,-4.18586 1.08362,-9.3814 0.64653,-16.87889 -0.43717,-7.49753 -1.60154,-17.29708 -4.10941,-28.51954 -2.50788,-11.22246 -6.35943,-23.86852 -9.16992,-32.23046 -2.81053,-8.36196 -4.57919,-12.43775 -5.75196,-14.85548 -1.17277,-2.41773 -1.74919,-3.17611 -7.01757,-4.52929 -5.2684,-1.3532 -15.22915,-3.30221 -23.85353,-4.38478 -8.62437,-1.08256 -15.91256,-1.29952 -24.39258,-0.36132 -8.48,0.93821 -18.15082,3.03194 -26.63084,6.4961 -8.48005,3.46416 -15.76853,8.29887 -22.53126,14.7793 -6.76273,6.48041 -12.99849,14.60647 -16.62695,17.21484 -2.12115,1.5248 -3.28763,1.10592 -3.98242,0.21679 z M 653.60353,415.85938 c -1.59794,0.0558 -3.1546,0.2774 -4.68556,0.66015 -6.12386,1.53099 -11.83887,5.6144 -15.61524,11.73828 -3.77636,6.12388 -5.61251,14.28864 -4.18359,24.69922 1.42894,10.41058 6.12334,23.06624 11.22656,35.41602 5.10323,12.34978 10.6147,24.3922 13.90625,30.43945 3.29155,6.04725 4.3623,6.09901 10.51172,8.59961 6.14943,2.5006 17.3763,7.45015 27.04688,12.42578 9.67058,4.97564 17.78428,9.9769 22.73437,13.08984 4.9501,3.11295 6.73656,4.33779 7.88477,5.1543 1.14822,0.81651 1.65752,1.22456 2.19336,1.63281 0.53583,0.40826 1.09853,0.81766 -1.07033,-13.36914 -2.16883,-14.1868 -7.06914,-42.97003 -12.0703,-63.38281 -5.00115,-20.41278 -10.10302,-32.45479 -17.34961,-42.04883 -7.24659,-9.59402 -16.63665,-16.73972 -24.59765,-20.82226 -5.97076,-3.06191 -11.13787,-4.3999 -15.93163,-4.23242 z"
     inkscape:path-effect="#path-effect69"
     transform="matrix(0.83036014,0,0,0.88525362,228.41182,114.68548)" />
  <path
     style="fill:#000000;stroke:#000000;stroke-width:5;stroke-linecap:round;stroke-linejoin:bevel"
     d="m 1150.6369,1135.3369 c 3.8611,4.8715 11.0781,14.9031 15.5887,23.4913 4.5106,8.5883 6.3148,15.7329 8.0469,22.6252 1.732,6.8923 3.3919,13.5317 3.5496,19.7619 0.1578,6.2303 -1.1865,12.0506 -1.4414,15.5343 -0.2549,3.4838 0.5797,4.6301 0.2055,4.6065 -0.3743,-0.024 -1.9575,-1.2171 -5.4555,-4.8451 -3.498,-3.6279 -8.9106,-9.69 -13.0964,-14.5976 -4.1859,-4.9076 -7.1448,-8.6603 -9.6347,-15.5526 -2.4899,-6.8923 -4.5106,-16.9237 -5.4127,-25.1511 -0.9021,-8.2274 -0.6856,-14.6504 -0.036,-19.3776 0.6496,-4.7271 1.732,-7.7581 2.5259,-9.418 0.7939,-1.66 1.2991,-1.9486 5.1602,2.9228 z"
     id="path1"
     inkscape:path-effect="#path-effect1"
     inkscape:original-d="m 1147.281,1130.1768 c 7.217,10.0316 14.4339,20.0632 21.6509,30.0947 1.8043,7.145 3.6085,14.2896 5.4127,21.4344 1.66,6.6398 3.3198,13.2792 4.9797,19.9189 -1.3444,5.8208 -2.6887,11.6411 -4.0332,17.4621 0.8347,1.1465 1.6693,2.2928 2.504,3.4392 -1.5832,-1.1935 -3.1664,-2.3871 -4.7495,-3.5806 -5.4129,-6.0624 -10.8255,-12.1245 -16.2382,-18.1868 -2.959,-3.7529 -5.9179,-7.5056 -8.8769,-11.2584 -2.0208,-10.0318 -4.0415,-20.0632 -6.0622,-30.0948 0.2165,-6.4232 0.433,-12.8462 0.6495,-19.2693 1.0826,-3.0312 2.1651,-6.0622 3.2476,-9.0934 0.5052,-0.2887 1.0104,-0.5773 1.5156,-0.866 z"
     transform="matrix(0.98370199,0,0,1.3618629,46.72337,-432.76018)"
     sodipodi:nodetypes="ccccccccccccc" />
  <path
     d="m 582.8642,1509.0829 h -12.75 v 19.4531 q 0,4.1719 -1.96875,6.3281 -1.96875,2.1563 -4.96875,2.1563 -3.14063,0 -5.0625,-2.1094 -1.92188,-2.1562 -1.92188,-6.2812 v -52.9688 q 0,-4.5937 2.10938,-6.5625 2.10937,-1.9687 6.70312,-1.9687 h 17.85938 q 7.92187,0 12.1875,1.2187 4.21875,1.1719 7.26562,3.8906 3.09375,2.7188 4.6875,6.6563 1.59375,3.9375 1.59375,8.8594 0,10.5 -6.46875,15.9375 -6.46875,5.3906 -19.26562,5.3906 z m -3.375,-31.5 h -9.375 v 21 h 9.375 q 4.92187,0 8.20312,-1.0313 3.32813,-1.0312 5.0625,-3.375 1.73438,-2.3437 1.73438,-6.1406 0,-4.5469 -2.67188,-7.4062 -3,-3.0469 -12.32812,-3.0469 z m 40.82812,29.8594 v -33.0469 q 0,-4.2188 1.875,-6.3281 1.92188,-2.1094 5.01563,-2.1094 3.23437,0 5.10937,2.1094 1.92188,2.1093 1.92188,6.3281 v 33.7969 q 0,5.7656 1.26562,9.6562 1.3125,3.8438 4.59375,6 3.28125,2.1094 9.1875,2.1094 8.15625,0 11.53125,-4.3125 3.375,-4.3594 3.375,-13.1719 v -34.0781 q 0,-4.2656 1.875,-6.3281 1.875,-2.1094 5.01563,-2.1094 3.14062,0 5.0625,2.1094 1.96875,2.0625 1.96875,6.3281 v 33.0469 q 0,8.0625 -1.59375,13.4531 -1.54688,5.3906 -5.90625,9.4687 -3.75,3.4688 -8.71875,5.0625 -4.96875,1.5938 -11.625,1.5938 -7.92188,0 -13.64063,-1.6875 -5.71875,-1.7344 -9.32812,-5.2969 -3.60938,-3.6094 -5.29688,-9.1875 -1.6875,-5.625 -1.6875,-13.4062 z m 72.9375,0 v -33.0469 q 0,-4.2188 1.875,-6.3281 1.92188,-2.1094 5.01563,-2.1094 3.23437,0 5.10937,2.1094 1.92188,2.1093 1.92188,6.3281 v 33.7969 q 0,5.7656 1.26562,9.6562 1.3125,3.8438 4.59375,6 3.28125,2.1094 9.1875,2.1094 8.15625,0 11.53125,-4.3125 3.375,-4.3594 3.375,-13.1719 v -34.0781 q 0,-4.2656 1.875,-6.3281 1.875,-2.1094 5.01563,-2.1094 3.14062,0 5.0625,2.1094 1.96875,2.0625 1.96875,6.3281 v 33.0469 q 0,8.0625 -1.59375,13.4531 -1.54688,5.3906 -5.90625,9.4687 -3.75,3.4688 -8.71875,5.0625 -4.96875,1.5938 -11.625,1.5938 -7.92188,0 -13.64063,-1.6875 -5.71875,-1.7344 -9.32812,-5.2969 -3.60938,-3.6094 -5.29688,-9.1875 -1.6875,-5.625 -1.6875,-13.4062 z m 72.9375,0 v -33.0469 q 0,-4.2188 1.875,-6.3281 1.92188,-2.1094 5.01563,-2.1094 3.23437,0 5.10937,2.1094 1.92188,2.1093 1.92188,6.3281 v 33.7969 q 0,5.7656 1.26562,9.6562 1.3125,3.8438 4.59375,6 3.28125,2.1094 9.1875,2.1094 8.15625,0 11.53125,-4.3125 3.375,-4.3594 3.375,-13.1719 v -34.0781 q 0,-4.2656 1.875,-6.3281 1.875,-2.1094 5.01563,-2.1094 3.14062,0 5.0625,2.1094 1.96875,2.0625 1.96875,6.3281 v 33.0469 q 0,8.0625 -1.59375,13.4531 -1.54688,5.3906 -5.90625,9.4687 -3.75,3.4688 -8.71875,5.0625 -4.96875,1.5938 -11.625,1.5938 -7.92188,0 -13.64063,-1.6875 -5.71875,-1.7344 -9.32812,-5.2969 -3.60938,-3.6094 -5.29688,-9.1875 -1.6875,-5.625 -1.6875,-13.4062 z m 91.54688,-0.9844 h -4.875 v 22.0781 q 0,4.3594 -1.92188,6.4219 -1.92187,2.0625 -5.01562,2.0625 -3.32813,0 -5.15625,-2.1563 -1.82813,-2.1562 -1.82813,-6.3281 v -52.875 q 0,-4.5 2.01563,-6.5156 2.01562,-2.0156 6.51562,-2.0156 h 22.64063 q 4.6875,0 8.01562,0.4218 3.32813,0.375 6,1.5938 3.23438,1.3594 5.71875,3.8906 2.48438,2.5313 3.75,5.9063 1.3125,3.3281 1.3125,7.0781 0,7.6875 -4.35937,12.2812 -4.3125,4.5938 -13.125,6.5157 3.70312,1.9687 7.07812,5.8125 3.375,3.8437 6,8.2031 2.67188,4.3125 4.125,7.8281 1.5,3.4688 1.5,4.7813 0,1.3593 -0.89062,2.7187 -0.84375,1.3125 -2.34375,2.0625 -1.5,0.7969 -3.46875,0.7969 -2.34375,0 -3.9375,-1.125 -1.59375,-1.0781 -2.76563,-2.7656 -1.125,-1.6875 -3.09375,-4.9688 l -5.57812,-9.2812 q -3,-5.1094 -5.39063,-7.7813 -2.34375,-2.6719 -4.78125,-3.6562 -2.4375,-0.9844 -6.14062,-0.9844 z m 7.96875,-28.875 H 852.8642 v 18.8906 h 12.46875 q 5.01562,0 8.4375,-0.8437 3.42187,-0.8907 5.20312,-2.9532 1.82813,-2.1093 1.82813,-5.7656 0,-2.8594 -1.45313,-5.0156 -1.45312,-2.2031 -4.03125,-3.2813 -2.4375,-1.0312 -9.60937,-1.0312 z m 110.34375,50.4844 -3.28125,-8.625 h -27.9375 l -3.28125,8.8125 q -1.92188,5.1562 -3.28125,6.9843 -1.35938,1.7813 -4.45313,1.7813 -2.625,0 -4.64062,-1.9219 -2.01563,-1.9219 -2.01563,-4.3594 0,-1.4062 0.46875,-2.9062 0.46875,-1.5 1.54688,-4.1719 l 17.57812,-44.625 q 0.75,-1.9219 1.78125,-4.5937 1.07813,-2.7188 2.25,-4.5 1.21875,-1.7813 3.14063,-2.8594 1.96875,-1.125 4.82812,-1.125 2.90625,0 4.82813,1.125 1.96875,1.0781 3.14062,2.8125 1.21875,1.7344 2.01563,3.75 0.84375,1.9687 2.10937,5.2969 l 17.95313,44.3437 q 2.10937,5.0625 2.10937,7.3594 0,2.3906 -2.01562,4.4062 -1.96875,1.9688 -4.78125,1.9688 -1.64063,0 -2.8125,-0.6094 -1.17188,-0.5625 -1.96875,-1.5469 -0.79688,-1.0312 -1.73438,-3.0937 -0.89062,-2.1094 -1.54687,-3.7031 z m -27.5625,-19.0782 h 20.53125 l -10.35938,-28.3593 z m 75.8437,16.5 -11.0156,-43.7812 v 47.4375 q 0,3.9375 -1.7812,5.9062 -1.7344,1.9688 -4.6407,1.9688 -2.8125,0 -4.5937,-1.9219 -1.7813,-1.9687 -1.7813,-5.9531 v -54.375 q 0,-4.5 2.3438,-6.0469 2.3437,-1.5937 6.3281,-1.5937 h 4.3125 q 3.8906,0 5.625,0.7031 1.7813,0.7031 2.625,2.5312 0.8438,1.8282 1.9219,5.9532 l 9.9844,37.6406 9.9843,-37.6406 q 1.0782,-4.125 1.9219,-5.9532 0.8438,-1.8281 2.5781,-2.5312 1.7813,-0.7031 5.6719,-0.7031 h 4.3125 q 3.9844,0 6.3281,1.5937 2.3438,1.5469 2.3438,6.0469 v 54.375 q 0,3.9375 -1.7813,5.9062 -1.7343,1.9688 -4.6875,1.9688 -2.7656,0 -4.5468,-1.9688 -1.7813,-1.9687 -1.7813,-5.9062 v -47.4375 l -11.0156,43.7812 q -1.0781,4.2657 -1.7813,6.2813 -0.6562,1.9687 -2.4843,3.6094 -1.8282,1.6406 -5.0625,1.6406 -2.4375,0 -4.125,-1.0781 -1.6875,-1.0313 -2.625,-2.6719 -0.9375,-1.6406 -1.5,-3.6094 -0.5157,-2.0156 -1.0782,-4.1719 z m 87,-59.5312 q 10.6875,0 18.3282,4.3594 7.6875,4.3125 11.625,12.3281 3.9375,7.9687 3.9375,18.75 0,7.9687 -2.1563,14.4844 -2.1562,6.5156 -6.4687,11.2968 -4.3125,4.7813 -10.5938,7.3125 -6.2812,2.5313 -14.3906,2.5313 -8.0625,0 -14.4375,-2.5781 -6.375,-2.625 -10.6406,-7.3594 -4.2657,-4.7344 -6.4688,-11.3906 -2.1562,-6.6563 -2.1562,-14.3907 0,-7.9218 2.25,-14.5312 2.2968,-6.6094 6.6093,-11.25 4.3125,-4.6406 10.5,-7.0781 6.1875,-2.4844 14.0625,-2.4844 z m 19.7813,35.3437 q 0,-7.5468 -2.4375,-13.0781 -2.4375,-5.5312 -6.9844,-8.3437 -4.5,-2.8594 -10.3594,-2.8594 -4.1718,0 -7.7343,1.5937 -3.5157,1.5469 -6.0938,4.5469 -2.5312,3 -4.0312,7.6875 -1.4532,4.6406 -1.4532,10.4531 0,5.8594 1.4532,10.5938 1.5,4.7344 4.1718,7.875 2.7188,3.0937 6.1875,4.6406 3.5157,1.5469 7.6875,1.5469 5.3438,0 9.7969,-2.6719 4.5,-2.6719 7.125,-8.25 2.6719,-5.5781 2.6719,-13.7344 z m 44.7187,5.1563 h -4.875 v 22.0781 q 0,4.3594 -1.9218,6.4219 -1.9219,2.0625 -5.0157,2.0625 -3.3281,0 -5.1562,-2.1563 -1.8281,-2.1562 -1.8281,-6.3281 v -52.875 q 0,-4.5 2.0156,-6.5156 2.0156,-2.0156 6.5156,-2.0156 h 22.6406 q 4.6875,0 8.0157,0.4218 3.3281,0.375 6,1.5938 3.2343,1.3594 5.7187,3.8906 2.4844,2.5313 3.75,5.9063 1.3125,3.3281 1.3125,7.0781 0,7.6875 -4.3594,12.2812 -4.3125,4.5938 -13.125,6.5157 3.7032,1.9687 7.0782,5.8125 3.375,3.8437 6,8.2031 2.6718,4.3125 4.125,7.8281 1.5,3.4688 1.5,4.7813 0,1.3593 -0.8907,2.7187 -0.8437,1.3125 -2.3437,2.0625 -1.5,0.7969 -3.4688,0.7969 -2.3437,0 -3.9375,-1.125 -1.5937,-1.0781 -2.7656,-2.7656 -1.125,-1.6875 -3.0937,-4.9688 l -5.5782,-9.2812 q -3,-5.1094 -5.3906,-7.7813 -2.3437,-2.6719 -4.7812,-3.6562 -2.4375,-0.9844 -6.1407,-0.9844 z m 7.9688,-28.875 h -12.8438 v 18.8906 h 12.4688 q 5.0156,0 8.4375,-0.8437 3.4219,-0.8907 5.2031,-2.9532 1.8281,-2.1093 1.8281,-5.7656 0,-2.8594 -1.4531,-5.0156 -1.4531,-2.2031 -4.0312,-3.2813 -2.4375,-1.0312 -9.6094,-1.0312 z"
     id="text1"
     style="font-size:96px;font-family:'Arial Rounded MT Bold';-inkscape-font-specification:'Arial Rounded MT Bold, ';stroke:#000000;stroke-width:5;stroke-linecap:round;stroke-linejoin:bevel"
     aria-label="PUUUR AMOR" />
</svg>
