<?xml version="1.0" encoding="UTF-8" standalone="no"?>
<svg
   width="2000.00"
   height="2000.00"
   viewBox="0.00 0.00 2000.00 2000.00"
   version="1.1"
   id="svg6"
   sodipodi:docname="AlternateLogo.svg"
   inkscape:version="1.4 (86a8ad7, 2024-10-11)"
   xmlns:inkscape="http://www.inkscape.org/namespaces/inkscape"
   xmlns:sodipodi="http://sodipodi.sourceforge.net/DTD/sodipodi-0.dtd"
   xmlns="http://www.w3.org/2000/svg"
   xmlns:svg="http://www.w3.org/2000/svg">
  <defs
     id="defs6">
    <rect
       x="468.42472"
       y="1419.5772"
       width="493.45505"
       height="178.78806"
       id="rect36" />
    <inkscape:path-effect
       effect="envelope"
       id="path-effect36"
       is_visible="true"
       lpeversion="1"
       yy="true"
       xx="true"
       bendpath1="m 1087.2613,1286.7659 378.4191,-20.3504"
       bendpath2="m 1449.1457,1284.2221 53.4197,272.63"
       bendpath3="m 1056.7357,1631.8941 464.9082,-11.4471"
       bendpath4="m 1056.7357,1284.2221 29.2537,305.6993"
       bendpath1-nodetypes="cc"
       bendpath4-nodetypes="cc"
       bendpath3-nodetypes="cc"
       bendpath2-nodetypes="cc" />
    <rect
       x="525.91656"
       y="1499.3679"
       width="710.49305"
       height="237.67383"
       id="rect35" />
    <inkscape:path-effect
       effect="envelope"
       id="path-effect35"
       is_visible="true"
       lpeversion="1"
       yy="true"
       xx="true"
       bendpath1="m 451.40776,1130.8413 615.35084,92.3376"
       bendpath2="m 870.2504,1182.2645 74.84701,387.2536"
       bendpath3="m 437.40309,1633.8651 505.48102,-13.7425"
       bendpath4="m 444.19254,1157.6666 -7.21053,452.2041"
       bendpath1-nodetypes="cc"
       bendpath2-nodetypes="cc"
       bendpath3-nodetypes="cc"
       bendpath4-nodetypes="cc" />
    <rect
       x="439.81863"
       y="1192.5164"
       width="854.60694"
       height="459.48532"
       id="rect26" />
    <rect
       x="472.00048"
       y="1376.6681"
       width="1026.2434"
       height="396.9095"
       id="rect14" />
  </defs>
  <sodipodi:namedview
     id="namedview6"
     pagecolor="#ffffff"
     bordercolor="#000000"
     borderopacity="0.25"
     inkscape:showpageshadow="2"
     inkscape:pageopacity="0.0"
     inkscape:pagecheckerboard="0"
     inkscape:deskcolor="#d1d1d1"
     inkscape:zoom="0.27966073"
     inkscape:cx="1063.789"
     inkscape:cy="865.33422"
     inkscape:window-width="1360"
     inkscape:window-height="697"
     inkscape:window-x="-8"
     inkscape:window-y="-8"
     inkscape:window-maximized="1"
     inkscape:current-layer="Layer_2"
     showguides="false"
     showgrid="true" />
  <g
     stroke-linecap="round"
     id="Layer_2"
     transform="matrix(0.9939649,0,0,0.9939649,5.957196,5.955118)">
    <path
       id="path22"
       style="display:inline;opacity:1;fill:#000000;fill-opacity:1"
       d="m 1394.2656,307.17335 c -2.7422,0.27618 -6.1053,1.15775 -10.0895,2.64662 -61.8509,26.4642 -106.0639,49.39641 -132.6396,68.79629 -0.3492,0.11347 -1.6569,0.88434 -3.9239,2.31231 -2.2672,1.42129 -5.4959,3.67428 -9.6876,6.75725 -13.4701,9.90375 -26.7542,21.98785 -39.8502,36.25379 -112.4916,71.75249 -181.8426,168.33328 -208.05375,289.74085 -7.83449,17.50659 -18.38108,21.08646 -31.64074,10.74057 -39.30092,-52.82532 -87.99811,-92.66853 -146.09062,-119.52762 0,0 -122.56018,-86.43165 -368.89883,-12.1911 -246.33864,74.24054 -188.21581,342.12955 -184.54257,359.93007 3.67323,17.80052 68.46704,173.79562 162.85671,269.84882 94.38964,96.0533 109.01027,113.4353 299.02113,233.7287 190.01087,120.2931 204.56481,135.4943 264.9794,148.682 60.41477,13.1877 139.49617,-50.0738 140.69277,-51.3656 0.708,-0.7645 101.2204,-73.1931 189.7224,-150.3555 61.0448,-53.2235 57.1874,-48.5344 95.901,-80.4818 46.876,-38.6829 135.0046,-155.9408 159.6758,-216.1878 24.6711,-60.2472 36.665,-124.89399 32.8336,-181.17731 -6.4605,-94.90123 -108.3692,-150.89544 -108.3692,-150.89544 -49.9383,-23.86285 -99.3144,-32.72622 -148.1284,-26.59013 -65.265,6.5138 -117.5161,31.87845 -156.7563,76.09548 -32.8048,34.40975 -46.849,74.74225 -42.1322,120.99535 4.7234,46.24619 21.007,67.36375 48.8536,63.35315 22.0744,-3.1819 43.1899,-16.77262 59.8083,-39.74004 53.1736,-60.74063 48.0046,-52.64683 80.0557,-80.66998 38.7161,-23.96872 72.8746,-25.24903 101.1733,-14.52616 28.2916,10.71648 34.1178,48.85403 28.6093,124.72108 -36.5197,158.0632 -184.2079,300.6227 -443.0667,427.6811 -56.76959,17.7029 -142.88309,-19.562 -258.33769,-111.7965 C 635.93124,1227.698 528.48531,1115.7621 443.9,978.1439 409.24748,910.66964 402.82765,855.59542 424.64083,812.92102 c 21.8201,-42.66798 48.35807,-68.34934 79.61448,-77.04079 31.25642,-8.69148 53.79602,-9.48532 67.61849,-2.38339 9.19003,6.5191 2.65696,9.72464 -19.59682,9.6178 -0.56062,-0.005 -12.13808,1.63334 -34.73552,4.91549 -45.49305,14.09463 -73.54917,48.72254 -84.1687,103.8836 -2.2367,54.37907 17.44658,109.3881 59.05044,165.02717 61.84648,98.6146 152.02191,153.3816 270.52764,164.2992 26.46391,3.9416 44.86375,6.6374 55.20033,8.0888 10.34349,1.4578 23.5865,2.6587 39.72781,3.6005 247.74502,17.1138 415.89472,-15.5887 504.44932,-98.1046 38.488,-49.3855 54.735,-97.43359 48.7396,-144.14477 0.1897,-20.96268 -6.087,-35.11926 -18.8315,-42.46935 -12.5235,-7.32523 -35.5331,5.04438 -69.0285,37.10556 -2.3517,3.73962 -4.8527,6.92735 -7.5003,9.56409 -2.6476,2.63675 -6.4033,7.14417 -11.269,13.52212 -15.7752,17.99143 -27.9537,30.17942 -36.5351,36.56645 -10.0084,7.4492 -27.6383,16.2891 -52.8913,26.5182 -8.2372,2.6644 -16.4795,4.0945 -24.7246,4.2909 -27.9082,0.6705 -46.2203,-13.6379 -54.9362,-42.92531 -7.7506,-26.03532 -8.6314,-56.74123 -2.6433,-92.1168 1.3514,-8.25122 2.2113,-13.92829 2.5794,-17.03135 0.3746,-3.10331 1.9643,-9.81222 4.7708,-20.12741 10.6846,-44.24886 39.4293,-78.40281 86.2346,-102.46175 46.805,-24.06558 89.1801,-33.71599 127.1238,-28.95397 3.5675,-11.69871 6.3895,-18.65041 8.4667,-20.85166 9.1799,-9.73914 20.8766,-11.19178 35.0891,-4.35834 1.2322,0.81336 2.8363,1.94299 4.8132,3.38827 6.5263,4.55979 14.5825,7.59267 24.1674,9.09961 1.0783,0.11201 2.8278,0.0623 5.2481,-0.15053 2.4135,-0.21269 5.3835,-0.60049 8.9112,-1.16283 45.4814,-7.26916 73.0217,-30.89595 82.6225,-70.88012 0.095,-0.12375 0.091,-0.22756 -0.012,-0.31031 -11.5874,-9.36261 -21.9544,-17.17668 -31.1014,-23.44392 -1.7433,-2.31485 -2.422,-3.60257 -2.0384,-3.86414 22.1964,-38.94634 31.6589,-67.37114 28.3901,-85.2723 -4.4928,-5.4651 -14.3756,-15.71619 -29.6502,-30.75493 -53.1408,-40.55902 -88.5317,-73.98595 -106.173,-100.28223 0.029,-0.0945 0.052,-0.18699 0.07,-0.27435 4.2834,-22.24727 10.9372,-49.57595 19.9611,-81.98578 2.9506,-10.08555 0.3137,-14.71296 -7.9151,-13.88447 z m -43.6937,37.35118 c 1.1252,-0.14325 2.9676,4.30868 3.5646,8.64898 0.5331,3.98249 0.299,15.33974 -0.5471,21.20647 -0.9699,6.542 -4.8313,19.63013 -7.616,25.04087 -0.698,1.36778 -5.0488,8.75948 -7.3659,11.23013 -0.8175,0.86199 -9.2901,8.22397 -10.2244,8.91029 -2.3469,1.69122 -9.9983,5.44704 -10.8125,5.34819 -1.1396,-0.22648 0.744,-4.30138 2.4607,-7.02921 9.1227,-14.1902 15.4816,-25.59404 17.671,-31.13205 1.0836,-2.79361 2.9485,-8.17923 3.1818,-12.79157 0.081,-2.32481 0.2216,-6.17248 0.273,-7.70558 l -0.2394,-0.0299 c -4.5977,2.49812 -16.1074,8.75315 -22.9984,12.51012 -9.2736,5.03926 -23.3145,14.95577 -29.766,21.03761 -6.4308,6.10104 -17.3259,19.96881 -21.753,27.69423 -1.7251,3.02837 -14.3591,28.22012 -15.3354,30.15899 -1.6539,0.45374 -4.0545,0.71761 -4.878,0.11874 -1.134,-0.86716 -3.4397,-9.82699 -3.5577,-10.553 -0.6706,-4.17736 0.3192,-12.5301 1.8994,-16.72378 1.5276,-4.00152 6.4741,-12.0177 9.8028,-16.02828 6.1131,-7.33977 22.3836,-20.96362 34.0411,-29.07655 11.4637,-7.68519 50.8357,-31.59202 55.225,-34.82269 2.3838,-1.77271 6.4776,-5.90292 6.9739,-6.01203 z m 5.7381,172.4263 c 0.1348,0.005 0.2642,0.0262 0.3896,0.0651 0.9949,0.37211 3.3519,3.1147 4.1073,4.80699 1.2845,2.96293 2.1852,10.25414 2.163,13.32725 -0.097,5.02743 0.3104,11.21618 1.0876,15.5596 1.1773,6.42957 6.1797,20.72767 9.3725,27.52025 1.6758,3.50833 6.0537,10.42446 8.7957,13.55163 2.1439,2.40957 7.2978,6.84608 9.7951,7.51083 2.5246,0.59363 18.9893,-5.35272 25.6139,-7.70844 7.6689,-2.52589 28.4149,-8.74434 33.522,-9.44066 1.4739,-0.18665 3.3899,-0.0616 3.7723,0.25399 0.6256,0.65651 -2.6734,4.13726 -6.4055,6.76229 -7.3692,5.1163 -24.0769,12.53102 -31.2137,15.09654 -7.4234,2.66658 -25.8747,9.49889 -27.7303,9.91034 -1.3305,0.27122 -4.0466,-0.85445 -5.801,-2.23821 -1.9012,-1.55825 -15.3156,-18.90724 -18.8167,-24.60719 -2.2427,-3.67672 -6.1716,-11.42083 -7.7193,-15.50449 -3.0232,-8.11005 -5.4211,-23.64031 -5.9269,-31.34658 -0.5603,-9.38543 1.3935,-19.47869 2.4444,-21.82071 0.4881,-0.97318 1.6068,-1.73275 2.55,-1.69863 z"
       sodipodi:nodetypes="cccccccccsssssssssscccccccccccccsccccccccccccscsccccccccccccsccccccccccscccccccccccccccccccccccsccccccccccccccccccscsc"
       sodipodi:insensitive="true" />
    <path
       d="m 987.09,164.63 c 7.27,0 47.44,1.86 63.33,3.05 15.93,1.47 47.89,5.26 63.82,7.56 15.82,2.57 47.13,8.5 62.63,11.87 21.32,5.02 45.74,12.25 60.84,17.09 15.06,5.12 45.07,16.2 60.02,22.17 14.87,6.23 44.1,19.39 58.46,26.31 14.18,7.14 42.05,22.04 55.51,30.29 13.38,8.44 39.83,26.12 52.89,35.36 12.95,9.5 38.43,29.23 50.84,39.36 12.19,10.31 35.89,31.45 47.4,42.28 6.96,6.71 32.63,34.4 43.12,46.36 10.31,12.19 30.4,37.25 40.17,50.08 9.5,12.95 27.71,39.18 36.42,52.45 12.98,20.59 20.26,33.18 31.59,54.72 7.14,14.18 20.75,43.07 27.21,57.77 6.24,14.87 17.89,44.81 23.29,59.83 5.12,15.06 16.26,51.14 18.59,60.52 3.62,15.38 10.08,46.48 12.92,62.19 2.57,15.82 6.91,47.75 8.66,63.71 1.47,15.93 3.57,47.67 4.19,63.49 0.4,15.77 -0.62,47.36 -1.53,63.22 -1.19,15.89 -4.41,47.78 -6.45,63.78 -2.3,15.93 -7.71,47.46 -10.8,63.06 -3.37,15.49 -9.32,40.26 -15.62,61.24 -4.84,15.09 -15.36,45.18 -21.04,60.16 -5.97,14.95 -18.67,44.53 -25.36,59.06 -6.92,14.35 -25.39,50.07 -29.03,56.37 -3.64,6.3 -25.33,40.16 -34.3,53.33 -9.24,13.05 -28.51,38.84 -38.47,51.48 -10.13,12.42 -30.93,36.57 -41.58,48.31 -15.02,15.95 -33.49,33.48 -45.23,44.14 -11.96,10.48 -36.56,30.93 -49.21,40.89 -12.83,9.76 -38.84,28.5 -52.01,37.48 -13.28,8.71 -40.12,25.39 -53.99,32.93 -14,7.37 -42.54,21.43 -57.07,28.12 -14.7,6.46 -44.52,18.66 -59.51,24.35 -15.02,5.4 -45.18,15.35 -60.31,19.9 -9.29,2.68 -46.11,11.07 -61.71,14.17 -15.71,2.83 -47.46,7.71 -63.46,9.75 -15.96,1.75 -47.78,4.41 -63.63,5.31 -24.32,0.96 -38.87,0.96 -63.19,0 -15.85,-0.9 -47.67,-3.56 -63.63,-5.31 -16,-2.04 -47.75,-6.92 -63.46,-9.75 -15.6,-3.1 -52.42,-11.49 -61.7,-14.17 -15.14,-4.55 -45.29,-14.5 -60.32,-19.9 -14.98,-5.69 -44.81,-17.89 -59.51,-24.35 -14.53,-6.69 -43.06,-20.75 -57.07,-28.12 -13.87,-7.54 -40.71,-24.22 -53.99,-32.93 -13.17,-8.98 -39.17,-27.72 -52.01,-37.48 -12.64,-9.96 -37.25,-30.41 -49.21,-40.89 -11.74,-10.66 -30.21,-28.19 -45.22,-44.14 -10.66,-11.74 -31.45,-35.89 -41.59,-48.31 -9.96,-12.64 -29.23,-38.43 -38.46,-51.48 -8.98,-13.17 -30.67,-47.03 -34.31,-53.33 -3.63,-6.3 -22.11,-42.02 -29.03,-56.37 -6.69,-14.53 -19.39,-44.11 -25.36,-59.06 -5.68,-14.98 -16.2,-45.07 -21.03,-60.16 -6.31,-20.98 -12.26,-45.75 -15.62,-61.24 -3.1,-15.6 -8.5,-47.13 -10.81,-63.06 -2.04,-16 -5.26,-47.89 -6.45,-63.78 -0.9,-15.86 -1.93,-47.45 -1.52,-63.22 0.62,-15.82 2.71,-47.56 4.18,-63.49 1.75,-15.96 6.1,-47.89 8.67,-63.71 2.83,-15.71 9.29,-46.81 12.91,-62.19 2.33,-9.38 13.47,-45.46 18.59,-60.52 5.4,-15.02 17.05,-44.96 23.29,-59.83 6.46,-14.7 20.07,-43.59 27.21,-57.77 11.34,-21.54 18.61,-34.13 31.59,-54.72 8.71,-13.27 26.92,-39.5 36.42,-52.45 9.77,-12.83 29.87,-37.89 40.18,-50.08 10.48,-11.96 36.15,-39.65 43.12,-46.36 11.5,-10.83 35.2,-31.97 47.39,-42.28 12.42,-10.13 37.9,-29.86 50.85,-39.36 13.05,-9.24 39.5,-26.92 52.88,-35.36 13.46,-8.25 41.34,-23.15 55.52,-30.29 14.35,-6.92 43.58,-20.08 58.46,-26.31 14.95,-5.97 44.96,-17.05 60.02,-22.17 15.09,-4.84 39.51,-12.07 60.84,-17.09 15.49,-3.37 46.8,-9.3 62.62,-11.87 15.93,-2.3 47.89,-6.09 63.82,-7.56 15.89,-1.19 56.06,-3.05 63.34,-3.05 z"
       fill="none"
       stroke="#000000"
       stroke-width="12.74"
       stroke-opacity="1"
       stroke-linejoin="round"
       id="path6"
       style="display:inline" />
    <path
       id="text37"
       style="font-size:129.267px;font-family:'Arial Rounded MT Bold';-inkscape-font-specification:'Arial Rounded MT Bold, ';display:inline;stroke-width:1.34653"
       transform="matrix(0.76867403,-0.60912886,0.62386521,0.80656516,0,0)"
       d="m -26.153187,1976.9714 -4.418305,-11.6138 h -37.618717 l -4.418305,11.8663 q -2.587865,6.943 -4.418306,9.4047 -1.830441,2.3985 -5.996272,2.3985 -3.534644,0 -6.248746,-2.5879 -2.714102,-2.5879 -2.714102,-5.87 0,-1.8936 0.631186,-3.9134 0.631187,-2.0198 2.082916,-5.6176 l 23.669494,-60.0889 q 1.009898,-2.5879 2.398509,-6.1856 1.451729,-3.6609 3.029695,-6.0594 1.641085,-2.3985 4.22895,-3.8503 2.650983,-1.5148 6.501221,-1.5148 3.913356,0 6.501221,1.5148 2.650983,1.4518 4.22895,3.7872 1.641085,2.3353 2.714102,5.0494 1.136135,2.651 2.840339,7.1325 l 24.1744434,59.7102 q 2.8403394,6.8168 2.8403394,9.9096 0,3.2191 -2.7141021,5.9332 -2.6509837,2.651 -6.4381027,2.651 -2.209153,0 -3.787119,-0.8206 -1.577966,-0.7574 -2.650983,-2.0829 -1.073017,-1.3886 -2.33539,-4.1658 -1.199255,-2.8404 -2.082916,-4.9864 z m -37.113767,-25.6893 h 27.64597 l -13.949222,-38.1868 z m 102.125975,22.2178 -14.832883,-58.9528 v 63.876 q 0,5.302 -2.398509,7.953 -2.33539,2.651 -6.248747,2.651 -3.787119,0 -6.1856275,-2.5879 -2.3985087,-2.651 -2.3985087,-8.0161 v -73.2176 q 0,-6.0594 3.1559326,-8.1423 3.1559326,-2.146 8.5210176,-2.146 h 5.806916 q 5.238848,0 7.574238,0.9467 2.398509,0.9468 3.534645,3.4084 1.136136,2.4617 2.587865,8.0161 l 13.444272,50.6843 13.444273,-50.6843 q 1.451729,-5.5544 2.587865,-8.0161 1.136136,-2.4616 3.471526,-3.4084 2.398508,-0.9467 7.637357,-0.9467 h 5.806915 q 5.365086,0 8.521018,2.146 3.155933,2.0829 3.155933,8.1423 v 73.2176 q 0,5.302 -2.398509,7.953 -2.33539,2.651 -6.311865,2.651 -3.724,0 -6.122509,-2.651 -2.398509,-2.651 -2.398509,-7.953 v -63.876 l -14.832883,58.9528 q -1.451729,5.7438 -2.398509,8.4579 -0.883661,2.651 -3.345288,4.8601 -2.461628,2.2092 -6.816815,2.2092 -3.282169,0 -5.554441,-1.4518 -2.272271,-1.3886 -3.534644,-3.5977 -1.262373,-2.2092 -2.019797,-4.8602 -0.694305,-2.7141 -1.451729,-5.6175 z m 117.148219,-80.1607 q 14.39105,0 24.67939,5.87 10.35146,5.8069 15.65343,16.6002 5.30196,10.7302 5.30196,25.2475 0,10.7302 -2.90345,19.5037 -2.90346,8.7734 -8.71038,15.2115 -5.80691,6.4381 -14.26481,9.8466 -8.4579,3.4084 -19.37743,3.4084 -10.85641,0 -19.44054,-3.4716 -8.58414,-3.5346 -14.32794,-9.9096 -5.7438,-6.375 -8.71037,-15.3378 -2.90346,-8.9629 -2.90346,-19.3774 0,-10.6671 3.0297,-19.5668 3.09281,-8.8998 8.89973,-15.1485 5.80691,-6.2488 14.13857,-9.5309 8.33166,-3.3453 18.9356,-3.3453 z m 26.63607,47.5915 q 0,-10.1622 -3.28217,-17.6102 -3.28217,-7.448 -9.40468,-11.2351 -6.05939,-3.8502 -13.94922,-3.8502 -5.61756,0 -10.41458,2.146 -4.7339,2.0829 -8.20542,6.1225 -3.40841,4.0396 -5.42821,10.3515 -1.95668,6.2487 -1.95668,14.0755 0,7.8898 1.95668,14.2648 2.0198,6.3749 5.61756,10.6039 3.66088,4.1658 8.33166,6.2487 4.7339,2.083 10.35146,2.083 7.19553,0 13.1918,-3.5978 6.05939,-3.5978 9.59404,-11.1089 3.59776,-7.5111 3.59776,-18.4937 z m 60.2152,6.943 h -6.56434 v 29.7289 q 0,5.87 -2.58786,8.6472 -2.58787,2.7773 -6.7537,2.7773 -4.48142,0 -6.94305,-2.9035 -2.46163,-2.9035 -2.46163,-8.521 v -71.1979 q 0,-6.0593 2.71411,-8.7734 2.7141,-2.7141 8.77349,-2.7141 h 30.48631 q 6.31186,0 10.79329,0.568 4.48142,0.505 8.07918,2.1461 4.35519,1.8304 7.70048,5.2388 3.34529,3.4084 5.04949,7.953 1.76732,4.4814 1.76732,9.5309 0,10.3514 -5.87003,16.5371 -5.80692,6.1856 -17.67322,8.7734 4.98637,2.651 9.53091,7.8268 4.54455,5.1757 8.07919,11.0457 3.59776,5.8069 5.55444,10.5408 2.0198,4.6708 2.0198,6.4381 0,1.8305 -1.19925,3.6609 -1.13614,1.7673 -3.15594,2.7772 -2.01979,1.0731 -4.67078,1.0731 -3.15593,0 -5.30196,-1.5149 -2.14604,-1.4517 -3.724,-3.724 -1.51485,-2.2723 -4.16584,-6.6906 l -7.51112,-12.4975 q -4.03959,-6.8799 -7.25864,-10.4777 -3.15593,-3.5977 -6.4381,-4.9232 -3.28217,-1.3255 -8.26855,-1.3255 z m 10.73017,-38.8811 h -17.29451 v 25.4368 h 16.78957 q 6.75369,0 11.36135,-1.1361 4.60766,-1.1993 7.00617,-3.9765 2.46163,-2.8403 2.46163,-7.7636 0,-3.8502 -1.95668,-6.7537 -1.95668,-2.9665 -5.4282,-4.4183 -3.28217,-1.3886 -12.93933,-1.3886 z m -722.56307,-556.4504 -4.79599,-15.7 -24.793,7.068 q -5.31709,1.5158 -8.80573,-0.1251 -3.48877,-1.6408 -4.61724,-5.3349 -1.18136,-3.8673 0.78415,-7.0003 2.02515,-3.15 7.28247,-4.6487 l 67.5088,-19.2455 q 5.85467,-1.6691 9.15737,0.213 3.30256,1.8822 5.03053,7.5388 l 6.71792,21.9916 q 2.97987,9.7549 3.03117,15.4503 0.0933,5.6206 -2.22556,10.3603 -2.30138,4.7974 -6.72022,8.1906 -4.41885,3.3931 -10.69182,5.1814 -13.38226,3.815 -22.74563,-2.1748 -9.30359,-6.0069 -14.11722,-21.7647 z m 38.87726,-15.601 -3.52646,-11.5441 -26.76453,7.63 3.52647,11.5442 q 1.8514,6.0607 4.40005,9.7264 2.56616,3.7235 6.20574,5.0076 3.63944,1.2841 8.47859,-0.095 5.79503,-1.6521 8.43417,-5.981 2.75481,-4.8012 -0.75403,-16.2877 z m -22.69807,61.1239 42.11831,-12.0071 q 5.37687,-1.5329 8.77047,0.01 3.41136,1.6001 4.57509,5.4097 1.21663,3.9827 -0.76651,7.058 -1.96538,3.1329 -7.34224,4.6658 l -43.07419,12.2796 q -7.34827,2.0949 -11.83077,5.0669 -4.40522,3.0128 -5.91903,7.8367 -1.45417,4.8069 0.7675,12.0797 3.06803,10.0434 9.83384,12.6324 6.82559,2.572 18.05713,-0.6299 l 43.43258,-12.3818 q 5.43651,-1.5498 8.77047,0.01 3.39372,1.5424 4.57509,5.4097 1.18137,3.8673 -0.78414,7.0003 -1.8881,3.1736 -7.32462,4.7235 l -42.11831,12.0071 q -10.27567,2.9294 -17.74549,2.9255 -7.45219,0.054 -14.28955,-3.8325 -5.83157,-3.3573 -9.73177,-8.8967 -3.90033,-5.5393 -6.40412,-13.7357 -2.97987,-9.7548 -2.98029,-17.4099 0.0593,-7.6721 3.24207,-13.411 3.2425,-5.7559 9.71703,-9.8606 6.5343,-4.1217 16.45145,-6.9489 z m 27.43592,89.8137 42.11831,-12.0072 q 5.37687,-1.5328 8.77047,0.01 3.41135,1.6002 4.57509,5.4097 1.21663,3.9828 -0.76651,7.058 -1.96538,3.133 -7.34225,4.6658 l -43.07419,12.2797 q -7.34826,2.0948 -11.83076,5.0669 -4.40522,3.0128 -5.91904,7.8366 -1.45417,4.8069 0.76751,12.0798 3.06802,10.0434 9.83384,12.6324 6.82559,2.572 18.05713,-0.6299 l 43.43258,-12.3818 q 5.43651,-1.5499 8.77046,0.01 3.39373,1.5424 4.5751,5.4097 1.18136,3.8673 -0.78414,7.0002 -1.88811,3.1737 -7.32462,4.7236 l -42.11831,12.0071 q -10.27567,2.9294 -17.74549,2.9255 -7.4522,0.054 -14.28955,-3.8325 -5.83157,-3.3574 -9.73177,-8.8967 -3.90033,-5.5393 -6.40412,-13.7357 -2.97987,-9.7548 -2.98029,-17.4099 0.0593,-7.6721 3.24207,-13.411 3.24249,-5.7559 9.71702,-9.8606 6.53431,-4.1217 16.45146,-6.9489 z m 27.43592,89.8136 42.11831,-12.0071 q 5.37686,-1.5328 8.77046,0.01 3.41136,1.6001 4.57509,5.4097 1.21664,3.9828 -0.7665,7.058 -1.96538,3.1329 -7.34225,4.6658 l -43.07419,12.2796 q -7.34826,2.0949 -11.83076,5.0669 -4.40522,3.0128 -5.91904,7.8367 -1.45417,4.8069 0.76751,12.0797 3.06802,10.0434 9.83384,12.6325 6.82559,2.5719 18.05713,-0.63 l 43.43258,-12.3818 q 5.43651,-1.5498 8.77046,0.01 3.39373,1.5424 4.57509,5.4097 1.18137,3.8673 -0.78414,7.0003 -1.8881,3.1737 -7.32461,4.7235 l -42.11831,12.0072 q -10.27567,2.9293 -17.7455,2.9254 -7.45219,0.054 -14.28954,-3.8325 -5.83158,-3.3573 -9.73178,-8.8967 -3.90033,-5.5393 -6.40412,-13.7356 -2.97986,-9.7549 -2.98029,-17.4099 0.0593,-7.6722 3.24207,-13.4111 3.2425,-5.7559 9.71703,-9.8606 6.53431,-4.1217 16.45146,-6.9489 z m 35.69057,112.3712 -1.83377,-6.003 -28.13856,8.0218 q -5.55606,1.5839 -8.90764,-0.033 -3.35159,-1.6172 -4.51532,-5.4268 -1.2519,-4.0982 0.80864,-7.1327 2.06043,-3.0346 7.37752,-4.5504 l 67.38925,-19.2114 q 5.73525,-1.635 9.06233,0.1147 3.32707,1.7496 5.01978,7.2908 l 8.51642,27.8792 q 1.76323,5.7721 2.47754,10.0235 0.77396,4.2344 0.22564,7.9674 -0.51593,4.4766 -2.80743,8.4555 -2.29163,3.9789 -6.117,6.7637 -3.74796,2.8254 -8.52734,4.1879 -9.79773,2.7931 -17.29221,-0.9059 -7.47698,-3.6412 -13.24132,-13.7944 -1.11616,5.2752 -4.74556,10.8277 -3.62927,5.5525 -8.19792,10.3688 -4.49124,4.8569 -8.42528,7.9236 -3.85675,3.1075 -5.52953,3.5843 -1.73243,0.4939 -3.80001,-0.1089 -1.99016,-0.5621 -3.51027,-2.1366 -1.57989,-1.5576 -2.32045,-3.9818 -0.88161,-2.8861 -0.0473,-5.2573 0.77454,-2.3543 2.48446,-4.4104 1.72754,-1.9984 5.169,-5.6149 l 9.73065,-10.241 q 5.38347,-5.5506 7.88956,-9.4651 2.52373,-3.8569 2.86134,-7.216 0.33773,-3.3591 -1.05522,-7.9191 z m 39.79872,-0.6788 -4.83126,-15.8155 -24.0761,6.8636 4.69021,15.3538 q 1.88666,6.1761 4.24911,10.0832 2.42236,3.89 5.72105,5.334 3.37597,1.4847 8.03593,0.1563 3.6443,-1.039 5.84578,-3.6117 2.26125,-2.5898 2.66564,-6.1562 0.39739,-3.3762 -2.30036,-12.2075 z" />
    <path
       id="path25"
       style="display:none;fill:#000000;fill-opacity:1"
       d="m 1441.2035,385.6025 c -2.7508,0.17084 -6.1461,0.92276 -10.1845,2.25777 -62.82,24.07332 -107.8791,45.29291 -135.1791,63.65958 -0.3533,0.1 -1.6905,0.81952 -4.0105,2.15952 -2.32,1.33333 -5.6322,3.4603 -9.9389,6.3803 -13.84,9.38 -27.5783,20.94632 -41.2116,34.69965 -115.16,67.38667 -188.1626,161.23742 -219.0093,281.55075 -8.5,17.19333 -19.1759,20.36702 -32.02922,9.52035 -37.24666,-54.29333 -84.38024,-95.97508 -141.40024,-125.04175 0,0 -119.15539,-91.06592 -368.15938,-26.32489 -249.00398,64.74104 -201.19597,334.66056 -198.20792,352.58884 2.98805,17.92828 61.75295,176.29398 152.3904,275.89558 90.63745,99.6016 104.58204,117.5296 289.84101,245.0197 185.25896,127.49 199.21851,143.2389 259.08313,158.7333 59.86462,15.4944 141.31452,-44.6883 142.55962,-45.9334 0.7368,-0.7368 103.9515,-69.2579 195.3469,-142.9703 63.0406,-50.8438 59.0053,-46.3069 98.9153,-76.7464 48.3246,-36.8573 140.8859,-150.6505 167.8489,-209.9074 26.9629,-59.2569 41.4263,-123.3954 39.7556,-179.7842 -2.8171,-95.07919 -102.5034,-154.939 -102.5034,-154.939 -48.9867,-25.76 -97.9872,-36.51128 -147.0005,-32.25128 -65.4667,4.00667 -118.6519,27.35006 -159.5586,70.03006 -34.1,33.12667 -49.6811,72.89032 -46.7411,119.29022 2.9467,46.3933 18.4093,68.1205 46.3893,65.1805 22.18,-2.3333 43.8012,-15.1039 61.2879,-37.4172 55.4634,-58.6573 49.9873,-50.76855 83.0893,-77.54222 39.6067,-22.46667 73.7898,-22.43646 101.6565,-10.63646 27.86,11.79333 32.2191,50.12758 23.8058,125.72758 -42.5533,156.5467 -195.5981,293.339 -459.1381,410.379 -57.40677,15.5133 -142.02887,-25.0274 -253.8622,-121.6207 -126.90667,-91.1867 -229.98088,-207.1601 -309.22755,-347.9201 -32.04,-68.75324 -36.34327,-124.03206 -12.90994,-165.83873 23.44,-41.8 50.943,-66.44585 82.50967,-73.93252 31.56667,-7.48667 54.12029,-7.41445 67.66029,0.21222 8.93333,6.86667 2.28088,9.81815 -19.95245,8.85815 -0.56,-0.0267 -12.19144,1.16687 -34.89811,3.5802 -46,12.34 -75.36356,45.86634 -88.09023,100.57967 -4.32,54.25333 13.24122,109.97771 52.68122,167.17101 58.02,100.9133 146.02899,159.0962 264.02899,174.5495 26.29333,4.9533 44.57526,8.3535 54.84859,10.2002 10.28,1.8533 23.46769,3.5608 39.56102,5.1208 246.9067,26.6 416.187,0.3683 507.8403,-78.6917 40.3533,-47.8733 58.4296,-95.2619 54.2296,-142.1686 0.9933,-20.94 -4.7364,-35.32751 -17.1897,-43.16084 -12.2333,-7.8 -35.6995,3.67901 -70.3995,34.43244 -2.4933,3.6467 -5.1152,6.7355 -7.8619,9.2688 -2.7467,2.5333 -6.6733,6.8922 -11.78,13.0789 -16.4533,17.3733 -29.0885,29.0865 -37.9085,35.1398 -10.2867,7.06 -28.2434,15.2167 -53.8701,24.47 -8.3333,2.3467 -16.6241,3.4605 -24.8708,3.3405 -27.9133,-0.4 -45.6623,-15.4001 -53.249,-45.0001 -6.7467,-26.3133 -6.4499,-57.0299 0.8901,-92.14992 1.6667,-8.19333 2.7437,-13.83381 3.2304,-16.92048 0.4933,-3.08667 2.3393,-9.72887 5.5393,-19.92887 12.3733,-43.80667 42.4052,-76.83371 90.0985,-99.08038 47.6933,-22.25333 90.4072,-30.27259 128.1405,-24.05926 4.0133,-11.55333 7.1009,-18.3905 9.2609,-20.5105 9.5467,-9.38 21.2902,-10.38369 35.2302,-3.01036 1.2,0.86 2.7587,2.05038 4.6787,3.57038 6.3467,4.80667 14.2818,8.14612 23.8018,10.01945 1.0733,0.15333 2.8238,0.17107 5.2505,0.0511 2.42,-0.12 5.4018,-0.39469 8.9485,-0.82136 45.7267,-5.52 74.1516,-28.07362 85.2783,-67.66029 0.1,-0.12 0.1,-0.2238 0,-0.31047 -11.22,-9.8 -21.2782,-18.00595 -30.1782,-24.61928 -1.6533,-2.38 -2.2816,-3.69313 -1.8883,-3.9398 23.6733,-38.06667 34.2182,-66.10764 31.6382,-84.12096 -4.28,-5.63334 -13.7624,-16.25477 -28.4491,-31.8681 -51.5467,-42.56667 -85.6299,-77.3264 -102.2499,-104.27973 0.033,-0.0933 0.059,-0.1845 0.079,-0.27117 5.1333,-22.06667 12.8306,-49.11973 23.0906,-81.15973 3.335,-9.96501 0.8759,-14.68986 -7.3766,-14.17736 z m -45.0944,35.64677 c 1.13,-0.1 2.8004,4.41955 3.2304,8.77955 0.38,4 -0.2897,15.34074 -1.3597,21.17074 -1.22,6.5 -5.5793,19.42932 -8.5693,24.72932 -0.75,1.34 -5.3812,8.56103 -7.7912,10.94103 -0.85,0.83 -9.5979,7.86034 -10.5579,8.51034 -2.41,1.6 -10.1998,5.06015 -11.0098,4.93015 -1.13,-0.27 0.9074,-4.2705 2.7274,-6.9305 9.66,-13.83 16.4521,-24.97974 18.8521,-30.42974 1.19,-2.75 3.2606,-8.06039 3.6706,-12.66039 0.17,-2.32 0.4579,-6.16095 0.5679,-7.69095 l -0.2378,-0.0373 c -4.69,2.32 -16.4319,8.12895 -23.4619,11.61895 -9.46,4.68 -23.8716,14.04974 -30.5516,19.87974 -6.66,5.85 -18.0777,19.28971 -22.7977,26.83971 -1.84,2.96 -15.4303,27.64943 -16.4803,29.54943 -1.67,0.39 -4.0791,0.56127 -4.8791,-0.0688 -1.1,-0.91 -3.0599,-9.95166 -3.1499,-10.68166 -0.51,-4.2 0.7988,-12.50751 2.5388,-16.63751 1.68,-3.94 6.9305,-11.76128 10.4105,-15.64128 6.39,-7.1 23.17,-20.0895 35.13,-27.7495 11.75,-7.24 52.0088,-29.61964 56.5188,-32.67964 2.45,-1.68 6.6997,-5.65169 7.1997,-5.74169 z m -0.8764,172.51969 c 0.1345,0.01 0.2634,0.0368 0.3871,0.0806 0.98,0.41 3.2301,3.24158 3.9201,4.96158 1.17,3.01 1.7887,10.32923 1.6487,13.39923 -0.29,5.02 -0.1188,11.22018 0.4912,15.59018 0.93,6.47 5.3799,20.94954 8.3099,27.85954 1.54,3.57 5.6507,10.64868 8.2707,13.87868 2.05,2.49 7.0287,7.12155 9.4987,7.88155 2.5,0.69 19.1806,-4.62024 25.8906,-6.72024 7.76,-2.23 28.7306,-7.64879 33.8606,-8.14879 1.48,-0.13 3.389,0.0688 3.759,0.39889 0.6,0.68 -2.8293,4.02999 -6.6593,6.50999 -7.56,4.83 -24.5399,11.60047 -31.7699,13.89047 -7.52,2.38 -26.2194,8.4985 -28.0894,8.8385 -1.34,0.22 -4.0122,-1.0082 -5.7122,-2.4582 -1.84,-1.63 -14.5798,-19.48095 -17.8598,-25.31095 -2.1,-3.76 -5.7291,-11.64865 -7.1191,-15.78865 -2.71,-8.22 -4.5099,-23.83174 -4.7199,-31.55174 -0.2,-9.4 2.1396,-19.41111 3.2796,-21.71111 0.525,-0.95375 1.6721,-1.66977 2.6134,-1.5995 z M 524.27129,1149.6884 c 4.00216,-0.084 7.98578,2.0166 11.91762,6.2762 7.63113,8.2673 15.23717,16.4728 22.78596,24.5741 6.70053,7.1909 11.15433,13.2717 13.4287,18.2783 2.28731,4.9222 3.25893,10.0393 3.01035,15.3603 -0.20894,5.3605 -1.60446,10.6153 -4.11467,15.7768 -2.50996,5.161 -6.05908,10.0774 -10.59323,14.7649 -9.6574,9.9842 -19.16391,14.7794 -29.29791,14.4407 -10.0405,-0.381 -20.52166,-5.9938 -31.46332,-17.0148 -5.45738,-5.4969 -10.89899,-11.0398 -16.31723,-16.6258 -7.64525,9.2996 -14.74353,18.4464 -21.4026,27.3605 -2.85794,3.8258 -5.76725,5.8387 -8.78545,6.0659 -3.01496,0.227 -5.71425,-0.9858 -8.12717,-3.6274 -2.52288,-2.7621 -3.88612,-5.9593 -4.08324,-9.5577 -0.16737,-3.6421 1.0655,-7.3461 3.79046,-11.1198 17.4279,-24.1355 38.48319,-50.4962 65.95075,-77.6896 4.79098,-4.7432 9.31055,-7.1788 13.30098,-7.2626 z m 1.70167,29.3019 c -10.70971,10.5962 -20.46075,21.0579 -29.42956,31.3022 4.01901,4.1411 8.04343,8.2593 12.07286,12.3538 4.22885,4.2972 8.20629,7.3616 11.92352,9.2079 3.75977,1.8879 7.41289,2.4475 10.98623,1.6899 3.5777,-0.7584 7.07985,-2.9632 10.60305,-6.6357 4.22123,-4.4 6.64706,-9.1615 7.17219,-14.309 0.42893,-5.622 -3.26882,-12.5695 -11.26329,-20.935 -4.01518,-4.2016 -8.03809,-8.4272 -12.065,-12.6741 z m 80.87874,55.1453 c 3.78408,-0.3394 6.95171,0.831 9.49677,3.4878 2.66182,2.7785 3.65575,5.9451 3.05948,9.5066 -0.55763,3.6014 -2.93361,7.3527 -7.03268,11.2751 -16.37582,15.67 -31.12657,31.3994 -44.65819,46.8609 -4.62372,5.283 -7.83,10.2163 -9.70506,14.7708 -1.79934,4.5524 -2.04298,9.1197 -0.77616,13.6783 1.30175,4.5156 4.56299,9.1108 9.7699,13.7431 7.19117,6.3974 13.90251,8.9202 20.11161,7.6595 6.25474,-1.3051 12.69644,-5.9162 19.59482,-13.8433 13.29645,-15.2791 27.55735,-30.7283 43.03904,-45.9944 3.88868,-3.8344 7.62846,-5.9201 11.08251,-6.2585 3.50115,-0.3806 6.51911,0.6982 9.04875,3.2088 2.52968,2.5103 3.57816,5.4567 3.21078,8.8464 -0.28667,3.3848 -2.33483,6.9598 -6.08752,10.7445 -14.49325,14.6166 -28.02386,29.445 -40.75377,44.1493 -6.23862,7.2064 -11.96902,12.594 -17.40779,16.2111 -5.38246,3.6428 -11.48438,5.6384 -18.33723,5.9637 -5.86479,0.2444 -11.57406,-0.8222 -17.13466,-3.2206 -5.55848,-2.3976 -11.2846,-6.1835 -17.15627,-11.3812 -6.98761,-6.1858 -12.37369,-12.337 -16.16396,-18.4001 -3.75564,-6.1037 -5.92247,-12.2437 -6.46872,-18.3745 -0.51203,-6.172 0.56362,-12.5105 3.31492,-18.9837 2.78462,-6.5109 7.23991,-13.3971 13.53678,-20.599 13.36282,-15.2834 28.02487,-30.8797 44.43025,-46.4836 4.1995,-3.9945 8.2495,-6.1875 11.9864,-6.567 z m 785.4827,38.6237 c 1.6553,-0.089 3.3288,0.023 5.0264,0.336 3.3939,0.6253 6.593,2.0583 9.6264,4.2542 3.0361,2.1205 5.734,4.8415 8.1036,8.1134 4.8574,6.7065 7.2158,13.2175 7.015,19.7029 -0.1665,6.4534 -2.805,13.1268 -8.0014,20.1509 4.0186,-0.8332 8.491,-0.8379 13.47,-0.079 4.9734,0.7586 9.8241,1.9002 14.5723,3.3837 4.7456,1.4194 8.792,2.8602 12.1318,4.3427 3.3482,1.4247 5.4424,2.5218 6.3115,3.3817 0.896,0.8864 1.48,2.0373 1.7548,3.4525 0.2762,1.3563 0.1387,2.7269 -0.4127,4.1225 -0.5204,1.4245 -1.4681,2.7454 -2.8472,3.9614 -1.6416,1.4473 -3.401,2.3139 -5.276,2.5879 -1.8437,0.3038 -3.7482,0.2803 -5.7103,-0.084 -1.9139,-0.3913 -4.7109,-1.0591 -8.306,-2.0279 -5.1085,-1.373 -10.2373,-2.8363 -15.374,-4.374 -5.6265,-1.744 -10.1627,-2.8844 -13.7313,-3.3464 -3.5165,-0.489 -6.502,-0.3475 -8.976,0.4559 -2.4713,0.8048 -5.0881,2.3745 -7.8639,4.714 v 0 c -1.8265,1.5393 -3.6592,3.0776 -5.4961,4.6177 7.4661,8.1686 15.0485,15.9607 22.7172,23.3833 3.0274,2.9304 4.5669,5.6395 4.6059,8.2058 0.039,2.5627 -1.0656,4.824 -3.3365,6.791 -2.4427,2.1155 -5.1103,3.0585 -7.9955,2.7962 -2.8831,-0.2622 -5.8185,-1.787 -8.7658,-4.6138 -18.6857,-17.9218 -36.8238,-37.5765 -54.0037,-59.0497 -2.9229,-3.6533 -4.2136,-7.0119 -3.9044,-10.0431 0.3094,-3.0311 2.2551,-6.0857 5.7947,-9.145 8.9044,-7.6964 17.6647,-15.4622 26.2817,-23.2988 3.5701,-3.2469 6.7184,-5.8363 9.481,-7.7656 2.7324,-1.9712 5.457,-3.3247 8.194,-4.0538 1.6216,-0.4951 3.2592,-0.7871 4.9145,-0.8764 z m -2.077,22.0236 c -1.2701,-0.036 -2.5576,0.1416 -3.8652,0.5384 -2.4879,0.7423 -6.401,3.5151 -11.8626,8.3158 -4.8839,4.2929 -9.8093,8.5697 -14.7786,12.8333 6.0676,7.82 12.2595,15.3707 18.5494,22.6484 4.7441,-3.9867 9.4494,-7.9737 14.1224,-11.9648 3.7577,-3.2094 6.6231,-6.2443 8.6125,-9.1097 1.9593,-2.9035 2.923,-5.7595 2.9082,-8.5909 -0.01,-2.9001 -1.1896,-5.8716 -3.5232,-8.9505 -1.8261,-2.4091 -3.9553,-4.0777 -6.402,-4.9675 -1.239,-0.4653 -2.4909,-0.716 -3.7609,-0.7525 z m -691.7392,28.3645 c 2.35351,0.2269 4.45351,1.22 6.30563,2.9711 2.58122,2.4402 3.72015,5.2702 3.47016,8.5024 -0.21226,3.2658 -2.03773,6.7333 -5.45086,10.4105 -13.61349,14.6671 -26.6584,29.6609 -39.09925,44.5266 -4.26427,5.0953 -7.23043,9.8371 -8.92496,14.2088 -1.61912,4.3653 -1.72366,8.7034 -0.32619,12.9964 1.43068,4.2509 4.80868,8.5092 10.11378,12.7389 7.32591,5.841 14.02408,7.9936 20.06641,6.5375 6.08449,-1.5001 12.16791,-6.1717 18.3667,-13.9671 11.87048,-14.9278 24.22047,-30.1537 36.5939,-44.8429 3.12656,-3.7115 6.23211,-5.8067 9.25311,-6.3076 3.05784,-0.5421 5.81878,0.2605 8.31581,2.3875 2.49609,2.1258 3.74957,4.7418 3.79831,7.8639 0.11935,3.1093 -1.2982,6.532 -4.26991,10.2611 -11.33386,14.2222 -23.05577,29.2538 -34.21037,43.6914 -5.53544,7.1647 -10.84275,12.6116 -15.97924,16.333 -5.08829,3.7491 -10.99889,5.9491 -17.7497,6.5591 -5.77941,0.4894 -11.4744,-0.3028 -17.07768,-2.3875 -5.60158,-2.0839 -11.42408,-5.5017 -17.44513,-10.2709 -7.16654,-5.6765 -12.74118,-11.3699 -16.70629,-17.0364 -3.93199,-5.7083 -6.25079,-11.4928 -6.93836,-17.3214 -0.65394,-5.8699 0.28858,-11.9231 2.86692,-18.1348 2.61194,-6.2516 6.83009,-12.8466 12.71737,-19.7461 12.46004,-14.6023 25.60242,-29.3156 39.49421,-43.7681 3.56076,-3.7045 7.05481,-5.7596 10.37708,-6.1759 0.84076,-0.095 1.65404,-0.1051 2.43855,-0.029 z m 611.5855,24.6605 c 6.7227,-0.2035 13.2293,1.0992 19.6341,3.8691 8.4929,3.6498 16.3734,9.5894 23.8215,17.5748 5.5012,5.8983 9.7338,11.8114 12.6761,17.7969 2.9433,5.9875 4.5041,11.965 4.6433,18.0169 0.139,6.0484 -1.2565,11.9522 -4.2522,17.7458 -2.9935,5.7891 -7.6492,11.3482 -14.0339,16.6237 -6.3547,5.2507 -13.0711,9.0517 -20.149,11.34 -7.113,2.2544 -14.2111,3.0176 -21.2631,2.2754 -7.0495,-0.7418 -13.9808,-2.9011 -20.7581,-6.4609 -6.7339,-3.5869 -12.9606,-8.2882 -18.628,-14.0633 -5.8057,-5.9161 -10.1444,-12.0526 -13.0082,-18.3903 -2.8261,-6.3705 -4.041,-12.6301 -3.6706,-18.801 0.3703,-6.172 2.3492,-12.1169 5.891,-17.8696 3.5084,-5.7864 8.5958,-11.21 15.1815,-16.2661 8.9489,-6.8704 17.9683,-11.1368 27.1168,-12.684 2.2931,-0.4044 4.5579,-0.6395 6.7988,-0.7074 z m -2.6743,19.308 c -1.4142,-0.026 -2.826,0.054 -4.2365,0.2417 -5.6299,0.6843 -10.8651,2.8936 -15.714,6.6121 -3.4502,2.6458 -6.1133,5.6966 -7.9661,9.1431 -1.8465,3.3819 -2.794,7.0028 -2.8236,10.8664 0.01,3.8341 1.0585,7.9681 3.1695,12.3971 2.1157,4.3637 5.2834,8.7016 9.5066,13.0023 4.2565,4.3344 8.7379,7.7848 13.4071,10.3436 4.7097,2.5305 9.3222,4.0872 13.8138,4.6728 4.4959,0.5219 8.7132,0.224 12.6447,-0.8804 3.9693,-1.1345 7.6099,-3.0433 10.9233,-5.7122 4.2436,-3.418 7.1192,-7.4972 8.6695,-12.2182 1.5882,-4.7545 1.3809,-9.9242 -0.558,-15.5686 -1.9024,-5.6752 -5.7339,-11.4676 -11.452,-17.4726 -5.293,-5.5587 -10.7788,-9.6953 -16.5471,-12.3323 -4.3292,-1.9791 -8.5947,-3.0166 -12.8372,-3.0948 z m -521.41244,32.3259 c 2.10438,-0.01 4.07729,0.712 5.93229,2.1478 2.58417,2.0001 3.96223,4.5012 4.15594,7.5317 0.23118,3.0546 -0.94646,6.4876 -3.57823,10.273 -10.73735,15.444 -21.11906,30.1476 -32.32006,45.7448 -3.75925,5.2347 -6.36822,10.0297 -7.80295,14.4112 -1.36084,4.3663 -1.28914,8.6198 0.22794,12.7547 1.54664,4.0883 4.97383,8.0802 10.27097,11.9157 7.31739,5.2983 13.89473,6.9699 19.70093,5.0441 5.83179,-1.9683 11.55441,-7.1556 17.03444,-15.4703 10.6526,-16.163 20.6082,-32.0324 30.11731,-48.1913 2.36661,-4.0216 4.86941,-6.4933 7.5141,-7.4433 2.67159,-0.995 5.26994,-0.6788 7.83832,0.9491 2.5696,1.6285 4.10242,3.9312 4.60789,6.958 0.56683,2.9978 -0.2269,6.5969 -2.46802,10.7406 -8.72236,16.1271 -18.08247,31.9926 -28.17591,48.0301 -4.90606,7.7953 -9.85112,13.8293 -14.7079,18.0483 -4.81891,4.2511 -10.53292,6.9725 -17.11305,8.1076 -5.63551,0.9388 -11.22194,0.5447 -16.74559,-1.1731 -5.5239,-1.718 -11.28452,-4.7763 -17.28203,-9.1726 -7.13553,-5.2303 -12.72854,-10.571 -16.75345,-15.9497 -3.99594,-5.4252 -6.42212,-10.9898 -7.27634,-16.6631 -0.82301,-5.7183 -0.11083,-11.6654 2.12611,-17.8362 2.27012,-6.2176 6.01545,-12.7997 11.2122,-19.7775 10.96783,-14.727 21.8533,-29.3988 32.82113,-44.1257 2.7789,-3.7314 5.63188,-5.9257 8.51624,-6.6063 0.7315,-0.1629 1.44626,-0.2456 2.14772,-0.2476 z m 433.36934,8.532 c 3.1168,-0.2262 6.2673,1.3626 9.4928,4.771 19.5504,20.6596 39.503,40.9252 60.0775,61.6847 2.9715,2.9982 4.4635,5.8308 4.4565,8.5084 0.033,2.6454 -1.1974,4.9512 -3.702,6.8951 -2.3464,1.8215 -5.0263,2.5495 -8.0368,2.1753 -3.0114,-0.3742 -6.0007,-2.111 -8.9682,-5.1876 -18.006,-18.667 -35.3051,-36.4721 -52.7087,-54.711 11.2163,19.9618 22.7858,40.0657 34.4049,60.997 2.2601,4.0817 3.841,7.1799 4.7415,9.259 0.906,2.0104 1.1817,4.2807 0.8155,6.8146 -0.3662,2.5334 -1.9693,4.8775 -4.8162,7.0091 -2.1461,1.6071 -4.3693,2.5185 -6.6633,2.7293 -2.2594,0.2495 -4.4099,-0.01 -6.4549,-0.7643 -2.0448,-0.7578 -4.042,-1.7759 -5.9932,-3.0517 -1.9442,-1.345 -3.9591,-2.7311 -6.0443,-4.1598 -20.7371,-14.4583 -41.9841,-29.2713 -62.4649,-43.6345 17.3073,19.073 34.5885,38.528 51.8088,58.8002 2.8618,3.369 4.2099,6.4918 4.0262,9.3691 -0.141,2.845 -1.5383,5.2404 -4.1893,7.1525 -2.5669,1.8517 -5.355,2.5073 -8.3532,1.9591 -3.0352,-0.5907 -5.9497,-2.6702 -8.7834,-6.1936 -19.2987,-23.9948 -38.8208,-46.7532 -58.6037,-69.0417 -3.2762,-3.6911 -4.479,-6.7814 -3.6018,-9.2728 0.8444,-2.5337 2.9729,-4.8408 6.396,-6.9658 1.8522,-1.15 3.7059,-2.3045 5.5609,-3.4663 3.3475,-2.0963 6.0264,-3.3509 8.0348,-3.7433 2.0485,-0.418 4.1054,-0.1412 6.1681,0.8332 2.0627,0.9743 5.0665,2.7855 9.0114,5.4312 17.9953,11.9855 36.2369,24.0168 54.4281,35.9356 -9.6286,-18.1757 -19.2069,-35.6383 -28.6396,-53.0565 -2.0759,-3.7986 -3.4074,-6.637 -4.0047,-8.528 -0.5972,-1.8907 -0.4007,-3.6076 0.5876,-5.1522 1.0298,-1.5735 3.2221,-3.4859 6.5768,-5.7672 1.8585,-1.2637 3.7161,-2.5325 5.5726,-3.8062 3.4308,-2.354 6.7204,-3.6314 9.8682,-3.8219 z m -344.68961,53.0408 c 2.19543,-0.2484 4.70251,0.3808 7.54553,1.8746 9.54054,5.0126 19.19326,9.6793 28.97959,13.973 4.05836,1.7806 7.44789,3.4697 10.19237,5.1482 2.75744,1.6209 5.07552,3.5893 6.94229,5.9461 2.30611,2.7162 4.05916,5.998 5.21506,9.8799 1.15552,3.8809 1.57071,8.0875 1.18882,12.5995 -0.3183,4.4719 -1.38008,8.9748 -3.21865,13.4582 -3.77092,9.1958 -9.06505,15.5723 -15.54105,18.9346 -6.44694,3.3905 -14.23934,3.9745 -23.26345,1.7016 2.17699,4.0194 3.6619,9.0313 4.3662,15.0597 0.70494,6.0341 0.85075,12.2216 0.40675,18.5632 -0.37186,6.3106 -1.12093,11.8993 -2.19489,16.7181 -1.00012,4.787 -1.99251,7.9626 -2.89442,9.4594 -0.93808,1.5569 -2.27516,2.8626 -4.0066,3.9025 -1.65787,1.0136 -3.41047,1.5094 -5.2524,1.4855 -1.87538,0.029 -3.67388,-0.5399 -5.40174,-1.6958 -2.05662,-1.3758 -3.39254,-3.164 -4.01643,-5.3467 -0.65639,-2.1308 -0.92254,-4.4668 -0.80761,-7.0072 0.1588,-2.5511 0.46855,-6.1045 0.90389,-10.8585 0.60687,-6.6755 1.12873,-13.281 1.56806,-19.8463 0.54541,-7.1702 0.50005,-12.8349 -0.0236,-16.9617 -0.48336,-4.1138 -1.54071,-7.3289 -3.13415,-9.6619 -1.59609,-2.337 -4.04643,-4.4779 -7.34707,-6.4648 -2.17223,-1.3077 -4.34261,-2.6251 -6.51196,-3.9515 -6.52194,11.403 -13.40472,22.7019 -20.61465,34.0335 -2.84402,4.4699 -5.83589,7.1798 -8.91709,8.1036 -3.08463,0.9248 -6.00312,0.4147 -8.75597,-1.5111 -2.96161,-2.0721 -4.53397,-4.7707 -4.73365,-8.0623 -0.19998,-3.297 1.07281,-7.0062 3.78653,-11.1611 17.33318,-26.5393 32.73538,-52.3981 46.11031,-79.3087 2.25597,-4.5389 4.68393,-7.3507 7.33725,-8.4632 0.66351,-0.2782 1.36089,-0.4576 2.09271,-0.5404 z m 7.07983,21.8978 c -4.59776,9.9111 -9.53496,19.7335 -14.79633,29.5298 5.51635,3.2245 11.04807,6.3787 16.59822,9.4574 4.4664,2.4775 8.46575,4.0586 11.98444,4.7533 3.54381,0.643 6.67075,0.2046 9.35725,-1.3047 2.75149,-1.5395 5.07405,-4.405 6.90299,-8.5615 1.43,-3.2498 1.99414,-6.4185 1.72722,-9.4673 -0.24469,-3.1042 -1.27638,-5.7825 -3.05555,-8.0505 -1.69166,-2.1768 -5.66714,-4.6723 -11.95692,-7.7637 -5.6191,-2.7619 -11.20609,-5.6279 -16.76132,-8.5928 z m 206.46278,4.5116 c 2.3998,0.036 4.7101,0.5344 6.9207,1.5052 2.25,0.9484 4.4255,2.1129 6.5218,3.4996 2.1041,1.3231 4.8615,3.133 8.2785,5.4273 23.0608,14.9013 46.5396,29.522 69.9357,43.7936 5.4362,3.2456 8.9561,5.8896 10.5559,7.9817 1.6611,2.172 2.2644,4.8324 1.7823,8.0034 -0.4708,3.0974 -2.0328,5.5868 -4.6708,7.4296 -1.5388,1.075 -3.0649,1.7086 -4.5765,1.8982 -1.4804,0.2338 -2.925,0.1435 -4.3328,-0.2712 -1.4396,-0.4592 -3.2868,-1.3623 -5.5412,-2.7097 -2.2396,-1.4202 -4.1988,-2.6769 -5.8694,-3.761 -4.3984,-3.0202 -8.7856,-6.0425 -13.1575,-9.0644 -12.7338,8.4842 -25.5462,16.8691 -38.4469,25.1655 1.1248,5.4188 2.1772,10.9177 3.1518,16.5059 1.1369,6.5312 1.4843,11.3075 1.1692,14.1105 -0.3447,2.7655 -2.0524,5.1624 -5.109,7.1545 -2.5965,1.6908 -5.4033,2.1323 -8.3885,1.3107 -2.9865,-0.822 -5.086,-2.5816 -6.3548,-5.2387 -0.7317,-1.5323 -1.2629,-3.2558 -1.6053,-5.1639 -0.3454,-1.9257 -0.7071,-4.6083 -1.1397,-8.1213 -3.795,-29.0594 -9.9646,-55.7731 -17.6358,-81.0694 -0.6636,-2.1659 -1.4802,-4.766 -2.4483,-7.74 -0.9648,-3.0495 -1.5902,-5.6583 -1.8628,-7.8462 -0.234,-2.2083 0.055,-4.2396 0.8744,-6.1013 0.8257,-1.9272 2.4071,-3.5312 4.7631,-4.8456 2.3932,-1.3352 4.7918,-1.9522 7.1859,-1.853 z m 8.0427,21.8938 c 5.4566,15.4903 10.4324,31.4994 14.7433,48.2522 9.1811,-5.8047 18.3508,-11.6776 27.5098,-17.62 -14.0864,-10.074 -28.1872,-20.2743 -42.2531,-30.6322 z" />
  </g>
</svg>
