<?xml version="1.0" encoding="UTF-8" standalone="no"?>
<!-- Created with Inkscape (http://www.inkscape.org/) -->

<svg
   version="1.1"
   id="svg1"
   width="1752"
   height="1739"
   viewBox="0 0 1752 1739"
   sodipodi:docname="ButtonAdopt1.svg"
   inkscape:version="1.4 (86a8ad7, 2024-10-11)"
   xml:space="preserve"
   xmlns:inkscape="http://www.inkscape.org/namespaces/inkscape"
   xmlns:sodipodi="http://sodipodi.sourceforge.net/DTD/sodipodi-0.dtd"
   xmlns="http://www.w3.org/2000/svg"
   xmlns:svg="http://www.w3.org/2000/svg"><defs
     id="defs1"><inkscape:path-effect
       effect="bspline"
       id="path-effect113"
       is_visible="true"
       lpeversion="1.3"
       weight="33.333333"
       steps="2"
       helper_size="0"
       apply_no_weight="true"
       apply_with_weight="true"
       only_selected="false"
       uniform="false" /><inkscape:path-effect
       effect="bspline"
       id="path-effect51"
       is_visible="true"
       lpeversion="1.3"
       weight="33.333333"
       steps="2"
       helper_size="0"
       apply_no_weight="true"
       apply_with_weight="true"
       only_selected="false"
       uniform="false" /><inkscape:path-effect
       effect="bspline"
       id="path-effect50"
       is_visible="true"
       lpeversion="1.3"
       weight="33.333333"
       steps="2"
       helper_size="0"
       apply_no_weight="true"
       apply_with_weight="true"
       only_selected="false"
       uniform="false" /><inkscape:path-effect
       effect="bspline"
       id="path-effect49"
       is_visible="true"
       lpeversion="1.3"
       weight="33.333333"
       steps="2"
       helper_size="0"
       apply_no_weight="true"
       apply_with_weight="true"
       only_selected="false"
       uniform="false" /><inkscape:path-effect
       effect="bspline"
       id="path-effect29"
       is_visible="true"
       lpeversion="1.3"
       weight="33.333333"
       steps="2"
       helper_size="0"
       apply_no_weight="true"
       apply_with_weight="true"
       only_selected="false"
       uniform="false" /><inkscape:path-effect
       effect="bspline"
       id="path-effect4"
       is_visible="true"
       lpeversion="1.3"
       weight="33.333333"
       steps="2"
       helper_size="0"
       apply_no_weight="true"
       apply_with_weight="true"
       only_selected="false"
       uniform="false" /><inkscape:path-effect
       effect="bspline"
       id="path-effect2"
       is_visible="true"
       lpeversion="1.3"
       weight="33.333333"
       steps="2"
       helper_size="0"
       apply_no_weight="true"
       apply_with_weight="true"
       only_selected="false"
       uniform="false" /><inkscape:path-effect
       effect="bspline"
       id="path-effect1"
       is_visible="true"
       lpeversion="1.3"
       weight="33.333333"
       steps="2"
       helper_size="0"
       apply_no_weight="true"
       apply_with_weight="true"
       only_selected="false"
       uniform="false" /><inkscape:path-effect
       effect="bspline"
       id="path-effect69"
       is_visible="true"
       lpeversion="1.3"
       weight="33.333333"
       steps="2"
       helper_size="0"
       apply_no_weight="true"
       apply_with_weight="true"
       only_selected="false"
       uniform="false" /><inkscape:path-effect
       effect="bspline"
       id="path-effect68"
       is_visible="true"
       lpeversion="1.3"
       weight="33.333333"
       steps="2"
       helper_size="0"
       apply_no_weight="true"
       apply_with_weight="true"
       only_selected="false"
       uniform="false" /><inkscape:path-effect
       effect="bspline"
       id="path-effect66"
       is_visible="true"
       lpeversion="1.3"
       weight="33.333333"
       steps="2"
       helper_size="0"
       apply_no_weight="true"
       apply_with_weight="true"
       only_selected="false"
       uniform="false" /><inkscape:path-effect
       effect="bspline"
       id="path-effect65"
       is_visible="true"
       lpeversion="1.3"
       weight="33.333333"
       steps="2"
       helper_size="0"
       apply_no_weight="true"
       apply_with_weight="true"
       only_selected="false"
       uniform="false" /><inkscape:path-effect
       effect="bspline"
       id="path-effect63"
       is_visible="true"
       lpeversion="1.3"
       weight="33.333333"
       steps="2"
       helper_size="0"
       apply_no_weight="true"
       apply_with_weight="true"
       only_selected="false"
       uniform="false" /><inkscape:path-effect
       effect="bspline"
       id="path-effect62"
       is_visible="true"
       lpeversion="1.3"
       weight="33.333333"
       steps="2"
       helper_size="0"
       apply_no_weight="true"
       apply_with_weight="true"
       only_selected="false"
       uniform="false" /><inkscape:path-effect
       effect="bspline"
       id="path-effect37"
       is_visible="true"
       lpeversion="1.3"
       weight="33.333333"
       steps="2"
       helper_size="0"
       apply_no_weight="true"
       apply_with_weight="true"
       only_selected="false"
       uniform="false" /><inkscape:path-effect
       effect="bspline"
       id="path-effect36"
       is_visible="true"
       lpeversion="1.3"
       weight="33.333333"
       steps="2"
       helper_size="0"
       apply_no_weight="true"
       apply_with_weight="true"
       only_selected="false"
       uniform="false" /><inkscape:path-effect
       effect="bspline"
       id="path-effect35"
       is_visible="true"
       lpeversion="1.3"
       weight="33.333333"
       steps="2"
       helper_size="0"
       apply_no_weight="true"
       apply_with_weight="true"
       only_selected="false"
       uniform="false" /><inkscape:path-effect
       effect="bspline"
       id="path-effect34"
       is_visible="true"
       lpeversion="1.3"
       weight="33.333333"
       steps="2"
       helper_size="0"
       apply_no_weight="true"
       apply_with_weight="true"
       only_selected="false"
       uniform="false" /><inkscape:path-effect
       effect="bspline"
       id="path-effect33"
       is_visible="true"
       lpeversion="1.3"
       weight="33.333333"
       steps="2"
       helper_size="0"
       apply_no_weight="true"
       apply_with_weight="true"
       only_selected="false"
       uniform="false" /><inkscape:path-effect
       effect="bspline"
       id="path-effect32"
       is_visible="true"
       lpeversion="1.3"
       weight="33.333333"
       steps="2"
       helper_size="0"
       apply_no_weight="true"
       apply_with_weight="true"
       only_selected="false"
       uniform="false" /><inkscape:path-effect
       effect="bspline"
       id="path-effect31"
       is_visible="true"
       lpeversion="1.3"
       weight="33.333333"
       steps="2"
       helper_size="0"
       apply_no_weight="true"
       apply_with_weight="true"
       only_selected="false"
       uniform="false" /><inkscape:path-effect
       effect="bspline"
       id="path-effect30"
       is_visible="true"
       lpeversion="1.3"
       weight="33.333333"
       steps="2"
       helper_size="0"
       apply_no_weight="true"
       apply_with_weight="true"
       only_selected="false"
       uniform="false" /><inkscape:path-effect
       effect="bspline"
       id="path-effect28"
       is_visible="true"
       lpeversion="1.3"
       weight="33.333333"
       steps="2"
       helper_size="0"
       apply_no_weight="true"
       apply_with_weight="true"
       only_selected="false"
       uniform="false" /><inkscape:path-effect
       effect="bspline"
       id="path-effect27"
       is_visible="true"
       lpeversion="1.3"
       weight="33.333333"
       steps="2"
       helper_size="0"
       apply_no_weight="true"
       apply_with_weight="true"
       only_selected="false"
       uniform="false" /><inkscape:path-effect
       effect="bspline"
       id="path-effect26"
       is_visible="true"
       lpeversion="1.3"
       weight="33.333333"
       steps="2"
       helper_size="0"
       apply_no_weight="true"
       apply_with_weight="true"
       only_selected="false"
       uniform="false" /><inkscape:path-effect
       effect="bspline"
       id="path-effect25"
       is_visible="true"
       lpeversion="1.3"
       weight="33.333333"
       steps="2"
       helper_size="0"
       apply_no_weight="true"
       apply_with_weight="true"
       only_selected="false"
       uniform="false" /><inkscape:path-effect
       effect="bspline"
       id="path-effect24"
       is_visible="true"
       lpeversion="1.3"
       weight="33.333333"
       steps="2"
       helper_size="0"
       apply_no_weight="true"
       apply_with_weight="true"
       only_selected="false"
       uniform="false" /><inkscape:path-effect
       effect="bspline"
       id="path-effect23"
       is_visible="true"
       lpeversion="1.3"
       weight="33.333333"
       steps="2"
       helper_size="0"
       apply_no_weight="true"
       apply_with_weight="true"
       only_selected="false"
       uniform="false" /><inkscape:path-effect
       effect="bspline"
       id="path-effect22"
       is_visible="true"
       lpeversion="1.3"
       weight="33.333333"
       steps="2"
       helper_size="0"
       apply_no_weight="true"
       apply_with_weight="true"
       only_selected="false"
       uniform="false" /><inkscape:path-effect
       effect="bspline"
       id="path-effect21"
       is_visible="true"
       lpeversion="1.3"
       weight="33.333333"
       steps="2"
       helper_size="0"
       apply_no_weight="true"
       apply_with_weight="true"
       only_selected="false"
       uniform="false" /><inkscape:path-effect
       effect="bspline"
       id="path-effect20"
       is_visible="true"
       lpeversion="1.3"
       weight="33.333333"
       steps="2"
       helper_size="0"
       apply_no_weight="true"
       apply_with_weight="true"
       only_selected="false"
       uniform="false" /><inkscape:path-effect
       effect="bspline"
       id="path-effect19"
       is_visible="true"
       lpeversion="1.3"
       weight="33.333333"
       steps="2"
       helper_size="0"
       apply_no_weight="true"
       apply_with_weight="true"
       only_selected="false"
       uniform="false" /><inkscape:path-effect
       effect="bspline"
       id="path-effect18"
       is_visible="true"
       lpeversion="1.3"
       weight="33.333333"
       steps="2"
       helper_size="0"
       apply_no_weight="true"
       apply_with_weight="true"
       only_selected="false"
       uniform="false" /><inkscape:path-effect
       effect="bspline"
       id="path-effect17"
       is_visible="true"
       lpeversion="1.3"
       weight="33.333333"
       steps="2"
       helper_size="0"
       apply_no_weight="true"
       apply_with_weight="true"
       only_selected="false"
       uniform="false" /><inkscape:path-effect
       effect="bspline"
       id="path-effect16"
       is_visible="true"
       lpeversion="1.3"
       weight="33.333333"
       steps="2"
       helper_size="0"
       apply_no_weight="true"
       apply_with_weight="true"
       only_selected="false"
       uniform="false" /><inkscape:path-effect
       effect="bspline"
       id="path-effect15"
       is_visible="true"
       lpeversion="1.3"
       weight="33.333333"
       steps="2"
       helper_size="0"
       apply_no_weight="true"
       apply_with_weight="true"
       only_selected="false"
       uniform="false" /><inkscape:path-effect
       effect="bspline"
       id="path-effect13"
       is_visible="true"
       lpeversion="1.3"
       weight="33.333333"
       steps="2"
       helper_size="0"
       apply_no_weight="true"
       apply_with_weight="true"
       only_selected="false"
       uniform="false" /><inkscape:path-effect
       effect="bspline"
       id="path-effect12"
       is_visible="true"
       lpeversion="1.3"
       weight="33.333333"
       steps="2"
       helper_size="0"
       apply_no_weight="true"
       apply_with_weight="true"
       only_selected="false"
       uniform="false" /><inkscape:path-effect
       effect="bspline"
       id="path-effect11"
       is_visible="true"
       lpeversion="1.3"
       weight="33.333333"
       steps="2"
       helper_size="0"
       apply_no_weight="true"
       apply_with_weight="true"
       only_selected="false"
       uniform="false" /><inkscape:path-effect
       effect="bspline"
       id="path-effect10"
       is_visible="true"
       lpeversion="1.3"
       weight="33.333333"
       steps="2"
       helper_size="0"
       apply_no_weight="true"
       apply_with_weight="true"
       only_selected="false"
       uniform="false" /><inkscape:path-effect
       effect="bspline"
       id="path-effect9"
       is_visible="true"
       lpeversion="1.3"
       weight="33.333333"
       steps="2"
       helper_size="0"
       apply_no_weight="true"
       apply_with_weight="true"
       only_selected="false"
       uniform="false" /><inkscape:path-effect
       effect="bspline"
       id="path-effect8"
       is_visible="true"
       lpeversion="1.3"
       weight="33.333333"
       steps="2"
       helper_size="0"
       apply_no_weight="true"
       apply_with_weight="true"
       only_selected="false"
       uniform="false" /><clipPath
       clipPathUnits="userSpaceOnUse"
       id="clipPath60"><path
         id="path61"
         style="fill:#ff0000;fill-opacity:1;fill-rule:nonzero;stroke:none"
         d="M 617.36523,523.26953 V 1483.8867 H 1261.9121 V 523.26953 Z m 218.22071,154.75195 c 0.5845,-0.0432 0.74643,0.65261 0.0176,1.12891 -0.24816,0.16216 -0.47662,0.35217 -0.71094,0.5332 -0.35905,0.29122 -0.68236,0.62195 -1.00977,0.94727 -0.22225,0.22901 -0.47038,0.4285 -0.70898,0.63867 0.0146,-0.0128 0.0298,-0.0248 0.0449,-0.0371 0.0636,-0.0519 0.13437,-0.0949 0.20117,-0.14258 0.10213,-0.007 0.21751,-0.0617 0.31641,-0.0566 0.033,0.002 0.0635,0.0102 0.0918,0.0293 0.13964,0.0942 0.19196,0.28751 0.22266,0.45312 0.0365,0.19699 -0.39366,0.46098 -0.52539,0.54688 -0.0379,0.023 -0.0771,0.0438 -0.11523,0.0664 -0.24487,0.27902 -0.46736,0.5785 -0.69532,0.87109 -0.30704,0.43074 -0.6187,0.85886 -0.89453,1.31055 -0.15748,0.25789 -0.35497,0.3463 -0.51172,0.32226 -0.0965,0.24836 -0.18921,0.49818 -0.28711,0.7461 -0.0557,0.13732 -0.11235,0.27472 -0.16796,0.41211 0.0435,0.0101 0.099,-0.0123 0.13671,0.0137 0.40412,0.27829 -0.46788,1.21517 -0.60156,1.40234 -0.0935,0.12053 -0.18935,0.23916 -0.2832,0.35938 -0.0419,0.0893 -0.0842,0.17858 -0.12695,0.26757 0.13722,-0.15391 0.26745,-0.31402 0.4082,-0.46484 0.36224,-0.36503 0.73022,-0.72474 1.12695,-1.05273 0.30887,-0.23725 0.62864,-0.47103 0.98242,-0.63672 0.68625,-0.32138 0.93745,0.35884 0.26953,0.71679 -0.27719,0.14857 -0.5369,0.3328 -0.78515,0.5254 -0.36933,0.30816 -0.7123,0.64515 -1.05078,0.98632 -0.48388,0.52083 -0.94481,1.06122 -1.4043,1.60352 -0.5534,0.66653 -1.06096,1.37109 -1.54101,2.0918 -0.31728,0.48124 -0.58548,0.9917 -0.85938,1.49804 -0.13976,0.25665 -0.305,0.52115 -0.67969,0.43555 -0.13243,-0.0303 -0.2278,-0.15551 -0.3125,-0.26172 -0.0604,-0.0759 -0.0737,-0.21286 -0.0996,-0.3418 -0.15208,0.13193 -0.33617,0.10762 -0.69531,-0.30078 -0.0434,-0.0493 0.17575,-0.66487 0.17773,-0.67187 0.14354,-0.41202 0.30315,-0.81818 0.47461,-1.21875 -0.01,-0.0765 -0.002,-0.1617 0.0195,-0.23828 0.0268,-0.0956 0.0861,-0.17818 0.13671,-0.26368 0.056,-0.0944 0.13161,-0.17516 0.19336,-0.26562 0.18491,-0.39432 0.37527,-0.78655 0.57422,-1.17383 0.0654,-0.11975 0.13145,-0.23911 0.19922,-0.35742 -0.0335,-0.0415 -0.0725,-0.0459 -0.10351,-0.10352 -0.0837,-0.15521 -0.0307,-0.35486 -0.006,-0.52929 0.0398,-0.27699 0.27694,-0.77995 0.3789,-1.01953 0.0436,-0.0888 0.10709,-0.16608 0.15235,-0.25391 -0.17157,-0.0515 -0.1383,-0.13402 -0.084,-0.37305 -0.0476,0.0469 -0.0951,0.0937 -0.14258,0.14063 -0.30567,0.24511 -0.342,0.35396 -0.65429,0.0879 -0.006,0.006 -0.0132,0.0101 -0.0195,0.0156 v 0.002 c -0.57027,0.49908 -1.10636,-0.0362 -0.54297,-0.54297 0.003,-0.003 0.007,-0.005 0.01,-0.008 -0.56471,0.0914 -0.94036,-0.34742 -0.27734,-0.87891 0.0685,-0.0549 0.13658,-0.10916 0.20508,-0.16406 0.49043,-0.37417 1.00746,-0.71119 1.53711,-1.02735 0.67726,-0.40988 1.34644,-0.83246 2.02734,-1.23633 0.45362,-0.28945 0.91897,-0.56391 1.35156,-0.88476 0.3057,-0.22002 0.60869,-0.4403 0.90039,-0.67774 0.0977,-0.30696 0.28833,-0.44742 0.45703,-0.44726 0.0188,2e-5 0.0366,0.004 0.0547,0.008 0.26013,-0.22378 0.52471,-0.44285 0.76367,-0.68945 0.35936,-0.35691 0.71531,-0.71799 1.11133,-1.03516 0.28947,-0.22334 0.57081,-0.4614 0.88867,-0.64453 0.17411,-0.10031 0.32996,-0.15019 0.46485,-0.16016 z m -2.20313,3.19532 c -0.014,0.0183 -0.0367,0.0342 -0.0527,0.0527 0.0137,-0.0103 0.0333,-0.0228 0.043,-0.0312 0.006,-0.005 0.0148,-0.0275 0.01,-0.0215 z m -0.26172,0.10156 c -0.0973,0.0847 -0.18714,0.17787 -0.28711,0.25976 0.0286,-0.0163 0.0575,-0.0323 0.0859,-0.0488 0.0646,-0.0724 0.13063,-0.14426 0.20117,-0.21094 z m -5.96484,4.94141 c -0.007,0.0143 -0.0137,0.0278 -0.0195,0.043 -0.005,0.0138 0.0373,-0.024 0.0273,-0.0352 -0.002,-0.003 -0.005,-0.005 -0.008,-0.008 z m 0.2168,1.66406 c 0.007,0.005 0.0249,0.009 0.041,0.0137 7.6e-4,-0.001 9.6e-4,-0.003 0.002,-0.004 -0.0154,-0.004 -0.0333,-0.009 -0.043,-0.01 z m -0.65821,4.16797 c -0.005,0.0579 -0.007,0.11721 -0.008,0.17578 0.0277,-0.0509 0.056,-0.10158 0.084,-0.15235 -0.0254,-0.008 -0.0507,-0.0151 -0.0762,-0.0234 z m -0.35156,0.80078 c -0.0118,0.006 -0.0231,0.0139 -0.0352,0.0195 0.011,-0.005 0.0262,-0.006 0.0332,-0.0156 8.4e-4,-10e-4 9e-4,-0.003 0.002,-0.004 z" /></clipPath><clipPath
       clipPathUnits="userSpaceOnUse"
       id="clipPath45"><path
         id="path46"
         style="fill:#ff0000;fill-opacity:1;fill-rule:nonzero;stroke:none"
         d="m 478.45508,1071.6816 v 340.5821 h 206.58008 v -340.5821 h -62.11524 c 0.29545,0.5427 0.52369,1.1239 0.72266,1.7129 0.2798,0.8527 0.39408,1.738 0.45898,2.6289 0.057,1.0183 0.0675,2.0391 0.0781,3.0586 0.0314,1.0569 -0.006,2.1109 -0.0625,3.166 -0.0124,0.2153 -0.0729,0.4244 -0.0937,0.6387 1.64159,-0.4395 3.15964,1.3389 1.83594,3.9863 -0.0452,0.091 -0.0962,0.1775 -0.13477,0.2715 -0.10452,0.2535 -0.2686,0.8832 -0.3125,1.0469 -0.31672,1.1804 -0.60011,2.3652 -0.86328,3.5586 -0.26464,1.2632 -0.46256,2.5378 -0.62891,3.8164 0.23985,0.9478 0.49065,1.893 0.70117,2.8477 0.34284,1.7531 0.75191,3.4928 1.13086,5.2382 0.22753,1.0671 0.45782,2.1323 0.63477,3.209 0.34758,2.115 -1.79273,2.4651 -2.13672,0.3496 -0.16914,-1.0402 -0.39557,-2.0686 -0.61328,-3.0996 -0.18858,-0.8688 -0.37242,-1.739 -0.56445,-2.6074 -0.28439,0.5363 -0.74628,0.9158 -1.52149,0.9238 -0.12975,0 -0.24507,-0.015 -0.36523,-0.025 -2.8e-4,0.024 -0.002,0.048 -0.002,0.072 -0.0433,3.8198 -3.46685,4.1742 -4.18164,1.1777 -0.58153,0.1233 -1.19325,0.1107 -1.77539,-0.037 -0.47697,-0.1211 -0.90971,-0.4011 -1.30273,-0.6972 -0.32789,-0.2471 -0.55322,-0.607 -0.83008,-0.9102 -0.30477,-0.508 -0.48727,-0.8191 -0.6875,-1.2031 -0.36297,0.8328 -0.65754,1.6902 -0.94531,2.5527 -0.19998,0.5964 -0.73448,2.8968 -1.70117,2.7149 -1.0697,-0.2012 -1.96529,-0.9547 -2.77539,-1.7168 -0.23865,0.358 -0.50514,0.6907 -0.89649,0.7422 -0.21536,0.028 -0.40131,0.042 -0.5918,0.057 0.15732,0.4143 0.31951,0.8265 0.44336,1.2539 0.2043,0.9678 0.16575,1.335 -0.27343,1.5137 0.14719,0.3817 0.20933,0.7711 0.043,1.1191 -0.14595,0.305 -0.44521,0.5073 -0.66796,0.7617 -0.29688,0.045 -0.59044,0.1348 -0.89063,0.1348 -0.21313,0 -0.42108,-0.082 -0.62109,-0.1563 -0.92515,-0.3405 -1.57709,-1.0518 -2.20703,-1.7734 -0.81432,-0.9445 -1.32021,-2.0715 -1.75391,-3.2266 -0.26398,-0.8043 -0.50709,-1.6171 -0.74609,-2.4296 -0.29782,-0.4255 -0.55464,-0.878 -0.73438,-1.3789 -0.18717,-0.5231 -0.38021,-1.0574 -0.4707,-1.6075 -0.45318,-0.9979 -0.87074,-2.0125 -1.23828,-3.0468 -0.4405,-1.1923 -0.7829,-2.4135 -1.08594,-3.6465 -0.25725,-1.0467 -0.18116,-1.8939 0.0898,-2.5117 -0.21385,-0.6888 -0.45783,-1.3681 -0.71484,-2.043 -0.34375,-0.8899 -0.6927,-1.772 -1.17188,-2.6016 -0.63444,-1.1578 -1.28065,-2.3241 -1.5332,-3.6367 -0.19219,-1.0523 -0.27232,-2.1158 -0.32812,-3.1836 0.008,-0.2736 -0.0179,-1.6197 0.32031,-1.7363 0.2991,-0.1031 0.54569,-0.1812 0.80078,-0.2617 -0.01,-0.4315 -0.008,-0.8631 0.0176,-1.2969 0.1173,-2.006 1.10844,-2.9871 2.11133,-3.0215 0.94826,-0.033 1.86245,0.8277 2.10351,2.4199 0.0893,-0.021 0.16481,-0.049 0.26367,-0.066 0.51912,-0.091 0.95408,-0.016 1.33008,0.1621 0.50958,-1.2646 1.28812,-2.0171 3.5918,-1.6074 0.0111,0 0.0204,0.01 0.0312,0.01 0.10553,-0.2551 0.20226,-0.5131 0.31445,-0.7657 0.12619,-0.2839 0.25359,-0.5676 0.38477,-0.8496 z m 139.81836,1.2618 c 0.0709,0.1061 0.14573,0.2097 0.23242,0.3027 0.052,0.056 -0.008,-0.1767 -0.0742,-0.2149 -0.0514,-0.029 -0.10596,-0.058 -0.1582,-0.088 z m 2.48242,0.1504 c -0.0239,0.01 -0.0793,0.1075 -0.12891,0.2011 0.0292,-0.03 0.0593,-0.057 0.0859,-0.092 0.0145,-0.036 0.0799,-0.1224 0.043,-0.1093 z m -0.92774,5.0527 c -0.43549,0.4419 -1.01806,0.5612 -1.84179,0.5039 -0.10664,0.7262 -0.19045,1.4562 -0.32422,2.1777 -0.2644,1.4263 -0.62234,2.8288 -1.03125,4.2168 0.12836,0.3755 0.20801,0.6374 0.37109,1.0996 0.43924,1.245 0.91546,2.4761 1.40625,3.7012 0.29009,-1.4039 0.58302,-2.8079 0.83789,-4.2187 0.22254,-1.197 0.46908,-2.3943 0.54688,-3.6114 0.052,-0.9628 0.09,-1.9241 0.0586,-2.8886 -0.003,-0.327 -0.0183,-0.6536 -0.0234,-0.9805 z m -11.16015,4.9473 c -0.0396,0.036 -0.0287,0.2076 -0.0215,0.1562 0.006,-0.042 0.017,-0.09 0.0234,-0.1328 -9.3e-4,-0.01 -10e-4,-0.017 -0.002,-0.023 z m -1.05859,0.1406 c -0.34505,-0.036 -0.92203,0.5029 -1.05274,0.2519 -1.7748,0.5221 -4.0995,1.2273 -5.92773,0.5977 -0.41858,-0.1441 -0.78785,-0.4028 -1.17969,-0.6094 -0.0755,0.1 -0.15743,0.1939 -0.25391,0.2734 -0.22385,0.1846 -0.46175,0.3915 -0.71093,0.5684 0.13329,0.4879 0.27734,0.9735 0.35156,1.4727 0.0248,0.167 0.20125,0.4309 0.0488,0.5039 -0.079,0.038 -0.16028,0.07 -0.24024,0.1054 0.0204,0.052 0.0422,0.1039 0.0625,0.1563 0.43938,1.1366 0.82831,2.289 1.14063,3.4668 0.32086,1.1815 0.73345,2.3314 1.13867,3.4844 0.0207,-1.0362 0.0907,-2.071 0.22461,-3.0977 0.27718,-2.1254 2.37632,-1.7025 2.12304,0.4258 -0.2761,2.3173 -0.23145,4.6708 0.002,6.9902 0.003,0.031 0.008,0.062 0.0117,0.094 5.3e-4,0 10e-4,-0.01 0.002,-0.01 0.0279,-0.08 0.0737,-0.2002 0.10937,-0.2989 -0.0378,-0.8767 -0.0626,-1.7541 -0.11718,-2.6289 -0.0991,-1.5897 -0.11248,-0.8119 -0.0684,-1.8437 0.74801,-0.01 1.5571,-0.3222 2.24414,-0.025 0.37556,0.1617 0.26605,0.7739 0.39453,1.1621 0.0304,0.092 0.0887,0.251 0.125,0.3633 0.38619,-0.1007 0.7819,-0.1817 1.15625,-0.3067 0.26734,0.1415 0.55106,0.2591 0.82617,0.3887 0.092,-0.11 0.17902,-0.2203 0.24219,-0.3379 0.37681,-0.7014 0.72657,-1.4183 1.08984,-2.1269 0.11312,-0.2623 0.23017,-0.522 0.34571,-0.7832 -0.47043,-2.1222 -0.94737,-4.2431 -1.54883,-6.3321 -0.12331,-0.3254 -0.23658,-0.6555 -0.3711,-0.9765 -0.0796,-0.1899 -0.20708,-0.3591 -0.27148,-0.5547 -0.0202,-0.061 -0.0106,-0.1394 0.0273,-0.1914 0.0483,-0.067 0.26913,-0.075 0.20703,-0.1289 -0.0379,-0.033 -0.0816,-0.049 -0.13085,-0.055 z m -3.98829,25.3886 c 0.009,0.054 0.0227,0.1176 0.0449,0.2051 0.007,0.027 0.0172,-0.057 0.008,-0.082 -0.0163,-0.042 -0.0337,-0.083 -0.0527,-0.1231 z" /></clipPath><clipPath
       clipPathUnits="userSpaceOnUse"
       id="clipPath48"><path
         id="path48"
         style="fill:#ff0000;fill-opacity:1;fill-rule:nonzero;stroke:none"
         d="m 584.02734,889.84766 v 250.38084 h 70.96485 c 0.0392,-0.2965 0.0801,-0.5934 0.11328,-0.8906 0.21481,-1.6459 0.39134,-3.2979 0.51953,-4.9531 0.0855,-1.6759 0.1257,-3.3512 -0.10742,-5.0196 -0.20395,-1.5476 -0.53725,-3.0661 -0.83399,-4.5976 -0.2746,-1.5213 -0.58324,-3.0347 -0.99609,-4.5254 -0.41223,-1.4839 -0.87502,-2.9605 -1.13867,-4.4805 -0.5504,-3.1731 0.85385,-4.8947 2.47265,-4.9219 1.42836,-0.024 3.02215,1.2719 3.5879,4.0567 0.25446,1.2525 0.6363,2.4749 0.97851,3.7051 0.46327,1.6718 0.81166,3.3682 1.12109,5.0742 0.32416,1.623 0.65838,3.2394 0.87891,4.8808 0.28219,2.0385 0.25511,4.0897 0.15234,6.1387 -0.13425,1.8168 -0.3269,3.6274 -0.5625,5.4336 -0.004,0.033 -0.01,0.066 -0.0137,0.1 h 52.75782 V 889.84766 Z" /></clipPath><clipPath
       clipPathUnits="userSpaceOnUse"
       id="clipPath71"><path
         id="path72"
         style="fill:#ff0000;fill-opacity:1;fill-rule:nonzero;stroke:none"
         d="M 404.79688,604.79883 V 1021.377 H 1306.5586 V 604.79883 Z M 660.54883,898.375 c 2.9968,-0.0151 3.68806,2.74156 1.26367,5.01758 1.79598,-0.0577 3.00227,1.40263 2.5625,3.32812 0.45705,-0.14818 0.91333,-0.29933 1.37109,-0.44531 0.29648,-0.0928 4.1477,-1.37074 4.26953,-1.17187 0.9163,1.49589 1.54071,2.54757 1.91211,3.33398 1.52763,-0.5368 3.07037,-1.03103 4.63672,-1.44727 1.46874,-0.33423 4.69845,-0.86289 5.71875,0.72266 0.54782,0.85129 0.83663,1.90392 0.86328,2.92773 2.3124,0.5457 5.65784,-0.13589 2.35547,1.85352 -0.18781,0.11314 -0.37318,0.22845 -0.56054,0.3418 0.51717,-0.1916 1.02419,-0.41119 1.55273,-0.57032 0.72562,-0.21842 1.37885,-0.32056 1.95703,-0.32812 2.6415,-0.0345 3.68378,1.90439 2.70703,3.75 0.29678,-0.072 0.61296,-0.2048 0.88477,-0.20898 1.97981,-0.0304 3.19791,1.65109 2.375,3.74609 1.80737,0.49261 2.67329,2.95841 0.55273,5.88086 -0.70906,0.97719 -1.68925,1.66418 -2.70508,2.28711 -1.12472,0.66175 -2.32816,1.16764 -3.51757,1.69726 -1.36934,0.54711 -2.78321,0.96911 -4.20508,1.35547 -1.28501,0.31453 -2.57312,0.61898 -3.86328,0.91211 -1.33182,0.32376 -2.68521,0.55834 -4.01953,0.86914 -1.63706,0.43877 -3.24274,0.98723 -4.85743,1.50196 -2.0561,0.66931 -4.06511,1.46698 -6.08007,2.24804 -2.8399,1.10085 -4.80938,0.20569 -5.35157,-1.23437 -4.07992,1.62441 -6.47675,-2.76248 -2,-5.82227 0.0584,-0.0399 0.12682,-0.0621 0.18555,-0.10156 -0.0727,-0.12038 -0.13159,-0.24816 -0.20312,-0.36914 -1.38249,0.87407 -2.76106,1.75443 -4.12696,2.6543 -0.14604,-0.13098 -0.43139,-0.33279 -0.89648,-0.625 -3.92398,-2.46541 -5.56833,-2.24172 -5.00781,-2.76758 -0.41088,0.15039 -0.82951,0.27922 -1.24024,0.42968 -1.41851,0.53675 -2.83919,1.06711 -4.25781,1.60352 -4.62612,1.74923 -6.83841,-1.72509 -4.44727,-4.23437 -0.29257,-0.11809 -0.58087,-0.24951 -0.85742,-0.41016 -0.55363,-0.32161 -0.95997,-0.84913 -1.43945,-1.27344 -0.27225,-0.51032 -0.61147,-0.98841 -0.81641,-1.52929 -0.6195,-1.63503 -0.28331,-3.64025 0.42578,-5.18165 0.15934,-0.34636 0.38267,-0.66059 0.57422,-0.99023 0.23195,-0.30112 0.44854,-0.61491 0.69727,-0.90234 1.17014,-1.35218 2.70378,-2.32174 4.17968,-3.29883 1.47142,-0.93618 2.95664,-1.88856 4.21876,-3.10156 1.41476,-1.46816 2.71138,-3.04376 4.17578,-4.46289 1.54182,-1.37666 3.15992,-2.66615 4.97265,-3.67383 1.18673,-0.69387 2.39246,-1.38518 3.69141,-1.84766 0.89235,-0.31771 1.67871,-0.45952 2.34961,-0.46289 z m -3.04688,7.65625 c -0.16852,0.0948 -0.33173,0.19813 -0.49609,0.29883 0.0332,0.0268 0.0667,0.0528 0.0996,0.0801 0.11159,-0.10557 0.25272,-0.23759 0.35351,-0.33594 0.0143,-0.0143 0.0287,-0.0286 0.043,-0.043 z m -15.71484,12.99805 c -0.21897,0.22269 -0.42114,0.46121 -0.5918,0.72851 -0.14374,0.26117 -0.17463,0.49374 -0.14453,0.79102 0.0234,0.23122 0.13758,0.2515 0.14258,0.2207 0.0204,-0.11499 -0.0174,-0.23312 -0.0254,-0.34961 -0.0392,-0.15692 -0.18974,-0.38639 0.10547,-0.43359 0.31267,-0.05 0.63282,-0.0246 0.94922,-0.0371 0.0909,-0.0143 0.18233,-0.0258 0.27343,-0.0391 -0.31019,-0.31144 -0.53941,-0.60369 -0.70898,-0.88086 z m 4.64648,9.5625 c 0.91998,0.0412 6.24017,2.34938 7.57618,2.65429 -0.45841,0.30298 -0.91781,0.6043 -1.37305,0.91211 -2.19038,1.47483 -0.41709,0.56044 -5.3457,-2.69336 -0.98163,-0.64805 -1.16409,-0.88676 -0.85743,-0.87304 z" /></clipPath><clipPath
       clipPathUnits="userSpaceOnUse"
       id="clipPath87"><path
         id="path88"
         style="fill:#ff0000;fill-opacity:1;fill-rule:nonzero;stroke:none"
         d="M 375.13086,463.41406 V 1031.6738 H 1362.4746 V 463.41406 Z M 659.75,899.46094 c 3.56444,0.13248 4.10063,3.6674 0.74023,5.56836 1.1836,-0.11539 2.37396,-0.17895 3.56055,-0.22071 4.53442,0.0628 9.02028,0.78632 13.4336,1.78125 3.12291,0.67255 6.05672,1.8795 8.9375,3.22461 1.15961,0.57471 2.38743,1.04146 3.48632,1.73438 0.74376,0.469 0.88833,0.62445 1.54297,1.16992 0.74655,0.6609 1.28979,1.44978 1.73438,2.29492 0.0976,-0.008 0.19337,-0.0138 0.28515,-0.0117 1.77163,0.0402 2.43421,1.93447 0.95508,3.59571 0.14278,0.74437 0.27853,1.49127 0.35156,2.24609 0.56302,0.34242 1.12762,0.68208 1.69532,1.01758 1.35799,0.83215 2.72555,1.6459 4.14062,2.37695 0.76634,0.3671 1.60651,0.57352 2.44922,0.66602 0.66684,0.0551 1.33746,0.0421 2.00586,0.0391 0.48011,0.0179 0.95988,0.0446 1.43945,0.0723 -0.19574,-0.34387 -0.39696,-0.68521 -0.58984,-1.01953 -2.1422,-3.71301 1.63981,-5.87725 3.75781,-2.15039 0.64431,1.13373 1.69112,2.71459 1.80664,4.0586 0.0441,0.51291 -0.0458,1.02866 -0.0684,1.54297 -0.31521,0.46022 -0.53816,0.9976 -0.94531,1.3789 -0.80907,0.75771 -2.04088,0.59657 -3.03516,0.57617 -0.78215,-0.0342 -1.56213,-0.0852 -2.34375,-0.1289 -0.85613,0.004 -1.71553,0.0152 -2.56836,-0.0742 -1.34524,-0.18076 -2.67853,-0.4959 -3.89648,-1.11328 -1.48772,-0.76919 -2.92838,-1.61966 -4.35547,-2.4961 -0.20354,-0.12033 -0.40632,-0.2422 -0.60937,-0.36328 -1.31996,1.84298 -3.45327,2.95881 -5.43946,3.9043 -2.17064,0.94712 -4.34889,1.87377 -6.48828,2.89062 -1.99285,0.98952 -3.92347,2.10027 -5.92383,3.07422 -1.48951,0.78966 -3.06181,1.35717 -4.67773,1.82032 -0.82151,0.19437 -3.71214,1.09004 -4.32227,0.51171 -0.99387,-0.94208 -1.52405,-2.26863 -2.24804,-3.43554 -0.47348,0.017 -0.94658,0.0336 -1.41993,0.0488 -1.27517,0.009 -2.55262,0.0967 -3.82812,0.0859 -0.37231,-0.003 -0.74813,0.0231 -1.11523,-0.0391 -0.52429,-0.0889 -1.17553,-0.0258 -1.54102,-0.41211 -0.89351,-0.94428 -1.33986,-2.22769 -2.00977,-3.3418 0.38729,-0.89484 0.62979,-1.86666 1.16211,-2.68359 0.083,-0.12733 0.385,-0.3081 0.53125,-0.4668 -1.41712,0.28239 -3.14513,0.62008 -3.59765,0.67774 -0.62103,0.0791 -1.25185,0.0673 -1.87696,0.10156 -4.13628,-2.00735 -4.8911,-1.1055 -2.23242,-7.5 0.31061,-0.74705 1.34665,-0.89796 2.03907,-1.31641 0.51729,-0.31263 1.0483,-0.60338 1.57812,-0.89453 -0.007,0.002 -0.013,0.004 -0.0195,0.006 -0.54756,0.16362 -0.9807,0.30797 -1.33985,0.41992 -0.16866,0.11173 -0.34984,0.24979 -0.41796,0.12305 -1.25268,0.33577 -1.2088,-0.22777 -1.64258,-2.93945 -1.01584,0.38802 -2.0621,0.66518 -3.12696,0.5332 -0.61184,-0.0758 -1.25781,-0.14692 -1.79296,-0.45312 -0.64582,-0.36952 -1.09522,-1.00769 -1.64258,-1.51172 -0.15295,-0.80296 -0.39839,-1.59306 -0.45899,-2.40821 -0.0221,-0.2978 0.1253,-0.58683 0.2168,-0.87109 0.38822,-1.20627 1.09598,-2.26951 1.87695,-3.25391 1.83817,-2.04967 3.99974,-3.77881 6.4336,-5.08007 2.3723,-1.26503 4.81431,-2.48611 7.43945,-3.12891 v 0.002 c 0.73604,-0.18023 1.39482,-0.25006 1.97461,-0.22851 z m 15.19336,15.79297 c 1.2e-4,10e-4 0.002,0.003 0.002,0.004 0.003,-0.001 0.005,-0.002 0.008,-0.004 -0.003,0 -0.007,-10e-6 -0.01,0 z m 33.66797,9.81836 c -0.0559,0.0134 -0.11407,0.0245 -0.17188,0.0352 0.0698,-0.001 0.13988,-0.003 0.20899,-0.0137 0.0141,-0.002 -0.0232,-0.0245 -0.0371,-0.0215 z m -39.96094,0.72851 c -1.1133,0.65785 -2.21593,1.32951 -3.29687,2.0332 1.2641,-0.0518 2.52675,-0.12396 3.7871,-0.22851 0.0231,-0.0219 0.0957,-0.0929 0.11524,-0.11133 0.0888,-0.084 0.18031,-0.16457 0.26953,-0.24805 -0.29946,-0.47563 -0.58627,-0.96093 -0.875,-1.44531 z m -9.97266,2.10352 c -0.13232,-0.006 -0.3179,0.0504 -0.23437,0.0644 0.13306,0.0223 0.26907,0.0302 0.4043,0.0332 -0.0227,-0.0223 -0.0435,-0.0463 -0.0664,-0.0684 -0.0203,-0.0196 -0.0594,-0.0274 -0.10352,-0.0293 z" /></clipPath><clipPath
       clipPathUnits="userSpaceOnUse"
       id="clipPath110"><path
         id="path111"
         style="fill:#ff0000;fill-opacity:1;fill-rule:nonzero;stroke:none"
         d="M 303.20117,427.80664 V 1218.9609 H 1414.6113 V 427.80664 Z m 298.61524,632.38866 c 5.27424,-6e-4 9.7736,4.8973 5.54101,11.8731 2.80562,1.2911 5.11365,4.8571 5.14649,10.7011 2.4e-4,0.043 -2e-4,0.086 0,0.1289 1.30725,-0.6875 2.67137,-1.2579 4.08398,-1.7187 1.15027,-0.3402 0.89358,-0.2893 -0.70117,0.3496 -3.79253,1.5192 -3.81164,2.7311 -2.30664,3.8262 0.1973,-0.6544 0.42335,-1.2865 0.99804,-1.3047 2.22498,-0.07 3.86062,-0.1392 5.06836,-0.1367 3.62322,0.01 3.40914,0.6462 3.80469,3.7519 -0.0185,0.5681 -0.0512,1.1353 -0.0801,1.7031 3.4116,1.4521 5.11838,3.0865 -0.0176,5.3497 -0.0939,0.041 -0.0256,0.01 -0.10743,0.045 0.0364,1.6124 0.14316,3.2239 0.34571,4.8242 0.12902,0.837 0.16493,1.6537 0.70703,2.3379 0.75226,1.1572 1.45212,2.3478 2.27148,3.4609 0.96329,1.3109 1.95634,2.6137 3.15235,3.7246 0.17396,0.1646 0.34801,0.3271 0.52148,0.4922 0.0897,0.086 0.18328,0.1668 0.26758,0.2578 0.024,0.026 0.0265,0.074 0.0566,0.092 0.16635,0.1023 0.35211,0.1667 0.52148,0.2637 0.0329,0.019 -0.0415,0.1268 0.0742,0.088 0.22554,0.1174 0.0451,0.032 0.57617,0.1172 0.5718,0.091 1.13798,0.2174 1.72071,0.1914 1.41851,0.048 2.83982,0.1112 4.24218,0.3457 1.4297,0.2671 2.84007,0.6246 4.19336,1.166 0.94663,0.336 1.89373,0.6667 2.86719,0.918 0.60363,0.1737 -0.14969,-0.036 1.02539,0.2168 1.30414,0.2805 2.57705,0.6994 3.72071,1.4004 0.35072,0.2477 0.72081,0.4697 1.05273,0.7421 1.11702,0.9166 1.88599,2.1476 2.56055,3.4043 0.19276,0.4179 0.32404,0.8589 0.49414,1.2852 0.059,-0.1271 0.12015,-0.2533 0.18359,-0.3789 0.11713,-0.2092 0.23691,-0.4185 0.35938,-0.625 -0.0333,-0.5094 -0.0431,-1.0204 -0.10352,-1.5274 -0.1708,-1.2994 -0.43141,-2.5809 -0.73633,-3.8554 -0.53323,-2.0287 -1.40141,-3.9776 -1.44531,-6.1094 2.34125,-1.4611 4.39901,-3.5293 7.02344,-4.3828 0.048,-0.016 0.0961,-0.026 0.14258,-0.031 0.0435,0 0.0866,-0.01 0.1289,0 0.63451,0.057 1.13345,1.0219 1.65235,1.5059 0.31407,0.293 0.52999,0.6761 0.76562,1.0352 0.77722,1.1846 1.37972,2.4684 1.97656,3.7519 0.72587,-8.5609 9.7461,-8.1923 9.7461,1.1172 v 9.0293 9.8242 c -0.0253,1.6904 0.008,3.3784 0.0859,5.0664 0.38448,1.2223 0.74334,2.4522 1.05664,3.6953 0.15585,3.8226 0.96761,5.7059 -6.16992,6.6582 -2.43427,0.3248 -3.48067,-3.2592 -4.01562,-4.9746 -0.26333,-1.1474 -0.44791,-2.3055 -0.56055,-3.4746 -0.64176,-1.9063 -1.32428,-3.7993 -2.02344,-5.6855 -0.0205,-0.011 -0.0458,-0.052 -0.0664,-0.064 -0.33849,8.1243 -7.79222,8.8808 -9.45703,2.334 -2.29292,0.3427 -5.20178,-1.6763 -6.68946,-6.3242 -0.18105,-0.5657 -0.27628,-1.1531 -0.47265,-1.7149 -0.20807,-0.6801 -0.43358,-1.3524 -0.7461,-1.9921 -0.0317,-0.013 -0.0532,-0.036 -0.0762,-0.061 -0.59098,-0.074 -1.18827,-0.216 -1.76953,-0.3535 -1.28341,-0.3295 -2.53925,-0.7505 -3.78711,-1.1934 -0.86367,-0.3575 -1.7593,-0.6003 -2.67773,-0.7617 -0.93101,-0.1285 -1.87233,-0.1603 -2.81055,-0.1914 -1.46296,-0.025 -2.91677,-0.2687 -4.33984,-0.5937 -1.36501,-0.4099 -2.66731,-1.0365 -3.82422,-1.8731 -0.73571,-0.5319 -1.26158,-1.0491 -1.92188,-1.6582 -0.12297,-0.1137 -0.23525,-0.2371 -0.35547,-0.3535 -1.62477,3.5151 -6.78502,3.521 -9.44726,-2.6348 -1.14733,-2.653 -2.01262,-5.4233 -2.35157,-8.3047 -0.079,-0.8656 -0.13152,-1.7257 -0.16796,-2.584 -1.28032,0.5655 -2.65628,0.9001 -4.33008,0.7852 -2.33407,-0.1603 -4.30732,-1.3454 -5.83985,-2.9941 -0.56408,-0.6068 -0.94119,-1.3633 -1.41211,-2.045 -0.21279,-0.4872 -0.4534,-0.9626 -0.63867,-1.4609 -0.1693,-0.4554 -0.30694,-0.9191 -0.42773,-1.3867 -0.95035,-0.1402 -1.92093,-0.2224 -2.8086,-0.5 -1.43538,-0.4488 -1.858,-2.3642 -2.7871,-3.5469 -1.02789,-2.6313 -1.20302,-5.4633 -1.39063,-8.2519 -0.19854,-2.1936 -0.005,-4.3841 0.24805,-6.5625 0.18084,-1.4023 0.23321,-2.8151 0.34961,-4.2227 0.0586,-1.2639 0.38474,-2.4803 0.71289,-3.6934 1.59158,-5.8836 5.68484,-8.3296 9.41797,-8.33 z m -9.36329,27.6875 c -0.004,0.065 -0.0104,0.1268 -0.0137,0.1934 -0.003,0.056 0.01,-0.112 0.0156,-0.168 -3.5e-4,-0.01 -0.002,-0.017 -0.002,-0.025 z m 60.71876,22.8711 c -0.0663,-0.027 0.16824,0.4793 0.5332,0.8731 -0.0273,-0.051 -0.0505,-0.1037 -0.0781,-0.1543 -0.27664,-0.5062 -0.41653,-0.7029 -0.45507,-0.7188 z m -9.24415,11.7637 c -0.009,-0.01 -0.002,0.025 0.004,0.035 0.0511,0.081 0.0878,0.1299 0.12891,0.1778 -0.0372,-0.078 -0.0727,-0.159 -0.13282,-0.2129 z" /></clipPath><clipPath
       clipPathUnits="userSpaceOnUse"
       id="clipPath130"><path
         id="path131"
         style="fill:#ff0000;fill-opacity:1;fill-rule:nonzero;stroke:none"
         d="m 478.45508,1071.6816 v 340.5821 h 206.58008 v -340.5821 h -60.50977 c 0.0698,1.0565 0.11474,2.1159 0.16016,3.168 0.12238,3.4789 0.16337,6.9589 0.20117,10.4395 -0.0174,1.2963 0.0301,2.5909 0.0898,3.8847 0.0649,0.3691 0.17816,0.8422 0.15039,0.8516 -0.0397,0.013 -0.0702,0.024 -0.10937,0.037 0.0153,0.2995 0.0272,0.5989 0.043,0.8984 0.14096,1.6698 0.42424,3.3248 0.625,4.9883 0.26904,2.1479 0.32916,4.3111 0.38086,6.4727 0.0418,1.1967 0.0976,2.3937 0.15234,3.5898 0.42631,9.3167 -8.58221,10.0601 -9.67187,1.4922 -1.46367,0.842 -3.31926,0.648 -4.84571,-0.7324 -0.25106,1.6724 -0.5369,2.6176 -2.85742,4.0293 -0.82465,0.5017 -1.867,0.535 -2.82813,0.625 -1.46572,0.1367 -3.15516,-0.6816 -4.42578,-1.3086 -1.9695,-1.1502 -3.53863,-2.7896 -4.60937,-4.8027 -0.20639,-0.388 -0.37534,-0.7958 -0.5625,-1.1934 -0.81783,-1.908 -1.22089,-3.9403 -1.48242,-5.9883 -0.13341,-1.7468 -0.26847,-3.491 -0.49805,-5.2285 -0.23248,-1.7382 -0.66387,-3.4388 -1.13477,-5.125 -0.42829,-1.3653 -0.79665,-2.7575 -1.35351,-4.0781 -0.45545,-1.086 -0.95794,-2.1443 -1.3457,-3.2578 -0.55331,-1.821 -0.70277,-3.7055 -0.66407,-5.5977 0.0348,-1.0618 0.15289,-2.1146 0.30664,-3.1641 z" /></clipPath></defs><sodipodi:namedview
     id="namedview1"
     pagecolor="#505050"
     bordercolor="#eeeeee"
     borderopacity="1"
     inkscape:showpageshadow="0"
     inkscape:pageopacity="0"
     inkscape:pagecheckerboard="0"
     inkscape:deskcolor="#505050"
     inkscape:zoom="0.28867165"
     inkscape:cx="743.05877"
     inkscape:cy="509.22909"
     inkscape:window-width="1360"
     inkscape:window-height="697"
     inkscape:window-x="-8"
     inkscape:window-y="-8"
     inkscape:window-maximized="1"
     inkscape:current-layer="svg1" /><path
     d="m 883.37178,65.553313 c 7.2261,0 47.1537,1.84878 62.9478,3.03159 15.8339,1.461126 47.601,5.228256 63.43492,7.514376 15.7245,2.55449 46.8455,8.4487 62.252,11.79836 21.1913,4.98971 45.4639,12.176071 60.4728,16.986861 14.9691,5.0891 44.798,16.10223 59.6578,22.0362 14.7802,6.19241 43.8338,19.27298 58.1072,26.15122 14.0944,7.09691 41.7962,21.90699 55.1749,30.1072 13.2993,8.38906 39.5897,25.96236 52.5709,35.1466 12.8718,9.44266 38.198,29.05359 50.5331,39.12246 12.1165,10.24777 35.6734,31.26019 47.114,42.02483 6.918,6.66951 32.433,34.19239 42.8597,46.08021 10.2478,12.11644 30.2166,37.0252 39.9276,49.77777 9.4427,12.87185 27.5428,38.94355 36.2002,52.13346 12.9017,20.46574 20.1377,32.97975 31.3994,54.38976 7.0969,14.09442 20.6247,42.81007 27.0457,57.42135 6.2024,14.78026 17.7821,44.53956 23.1495,59.46892 5.0891,14.96911 16.1619,50.83136 18.4778,60.15475 3.5981,15.28718 10.0192,46.19949 12.842,61.81468 2.5545,15.72452 6.8683,47.46182 8.6078,63.3255 1.4611,15.83386 3.5484,47.38231 4.1647,63.10683 0.3976,15.67483 -0.6163,47.07418 -1.5208,62.83847 -1.1828,15.7941 -4.3834,47.4916 -6.4111,63.3951 -2.2861,15.83379 -7.6634,47.17359 -10.7348,62.67939 -3.3497,15.3965 -9.2637,40.017 -15.5257,60.8704 -4.8108,14.9989 -15.2673,44.9074 -20.913,59.7969 -5.934,14.8598 -18.5574,44.2613 -25.207,58.7036 -6.8782,14.2634 -25.2368,49.7678 -28.8548,56.0298 -3.618,6.262 -25.1771,39.9176 -34.093,53.0082 -9.1842,12.9712 -28.3379,38.6056 -38.2378,51.1693 -10.0689,12.345 -30.7434,36.3493 -41.3291,48.0184 -14.9293,15.8538 -33.2879,33.278 -44.957,43.8737 -11.8878,10.4167 -36.3394,30.7433 -48.913,40.6432 -12.7526,9.7011 -38.6056,28.328 -51.6961,37.2538 -13.1999,8.6574 -39.8779,25.2368 -53.6642,32.7313 -13.9155,7.3255 -42.2833,21.3006 -56.7256,27.9503 -14.6113,6.421 -44.2513,18.5473 -59.1508,24.203 -14.9294,5.3674 -44.9074,15.2574 -59.9461,19.7799 -9.2339,2.6638 -45.8317,11.0032 -61.3375,14.0845 -15.6152,2.8129 -47.17362,7.6635 -63.07702,9.6912 -15.8637,1.7394 -47.4917,4.3833 -63.246,5.2779 -24.1733,0.9542 -38.6355,0.9542 -62.8087,0 -15.7543,-0.8946 -47.3823,-3.5385 -63.246,-5.2779 -15.9034,-2.0277 -47.4618,-6.8783 -63.077,-9.6912 -15.5058,-3.0813 -52.1036,-11.4207 -61.3276,-14.0845 -15.0486,-4.5225 -45.0167,-14.4125 -59.956,-19.7799 -14.8896,-5.6557 -44.5395,-17.782 -59.1508,-24.203 -14.4423,-6.6497 -42.8002,-20.6248 -56.7256,-27.9503 -13.7863,-7.4945 -40.4643,-24.0739 -53.6642,-32.7313 -13.0905,-8.9258 -38.9336,-27.5527 -51.6961,-37.2538 -12.5637,-9.8999 -37.0252,-30.2265 -48.913,-40.6432 -11.6691,-10.5957 -30.0277,-28.0199 -44.9471,-43.8737 -10.5957,-11.6691 -31.2602,-35.6734 -41.339,-48.0184 -9.8999,-12.5637 -29.0536,-38.1981 -38.2279,-51.1693 -8.9258,-13.0906 -30.4849,-46.7462 -34.1029,-53.0082 -3.6081,-6.262 -21.9766,-41.7664 -28.8548,-56.0298 -6.6496,-14.4423 -19.273,-43.8438 -25.207,-58.7036 -5.6457,-14.8895 -16.1022,-44.798 -20.903,-59.7969 -6.271999,-20.8534 -12.186099,-45.4739 -15.525799,-60.8704 -3.0813,-15.5058 -8.4487,-46.8456 -10.7447,-62.67939 -2.0277,-15.9035 -5.2283,-47.601 -6.4111,-63.3951 -0.8946,-15.76429 -1.9184,-47.16364 -1.5108,-62.83847 0.6162,-15.72452 2.6936,-47.27297 4.1547,-63.10683 1.7395,-15.86368 6.0632,-47.60098 8.6177,-63.3255 2.8129,-15.61519 9.2339,-46.5275 12.8321,-61.81468 2.3159,-9.32339 13.388699,-45.18564 18.477799,-60.15475 5.3674,-14.92936 16.9471,-44.68866 23.1494,-59.46892 6.4211,-14.61128 19.9489,-43.32693 27.0458,-57.42135 11.2716,-21.41001 18.4977,-33.92402 31.3994,-54.38976 8.6574,-13.18991 26.7575,-39.26161 36.2002,-52.13346 9.711,-12.75257 29.6897,-37.66133 39.9375,-49.77777 10.4167,-11.88782 35.9318,-39.4107 42.8598,-46.08021 11.4306,-10.76464 34.9875,-31.77706 47.104,-42.02483 12.345,-10.06887 37.6712,-29.6798 50.5431,-39.12246 12.9712,-9.18424 39.2616,-26.75754 52.5608,-35.1466 13.3788,-8.20021 41.0905,-23.01029 55.185,-30.1072 14.2634,-6.87824 43.317,-19.95881 58.1072,-26.15122 14.8597,-5.93397 44.6886,-16.9471 59.6577,-22.0362 14.999,-4.81079 39.2716,-11.997151 60.4729,-16.986861 15.3965,-3.34966 46.5175,-9.24387 62.242,-11.79836 15.8339,-2.28612 47.601,-6.05325 63.4349,-7.514376 15.7941,-1.18281 55.7216,-3.03159 62.9577,-3.03159 z"
     fill="none"
     stroke="#000000"
     stroke-width="12.6631"
     stroke-opacity="1"
     stroke-linejoin="round"
     id="path6"
     style="display:inline"
     inkscape:label="Circle" /><path
     d="m 620.375,1074.1953 c -8.99615,0.1772 -18.13681,1.9858 -26.26367,6.4512 -9.28784,5.1032 -17.25016,13.6759 -23.57813,23.5762 -6.32796,9.9002 -11.02251,21.127 -14.39062,31.8437 -3.17123,10.0903 -5.11533,19.7137 -5.76367,28.9844 -5.6905,2.7014 -11.15414,5.9692 -16.28125,9.5957 -12.55395,8.8796 -23.16822,19.6982 -32.25196,35.0078 -9.08374,15.3096 -16.6363,35.1102 -19.49414,54.4004 -2.85783,19.2901 -1.0205,38.0681 2.75586,54.3984 3.77636,16.3303 9.49217,30.2113 17.04492,42.0508 7.55276,11.8395 16.94126,21.638 22.14649,26.9453 5.20522,5.3073 6.22689,6.1227 7.34961,4.5918 1.12271,-1.5309 2.34659,-5.4088 2.95898,-12.4512 0.61239,-7.0424 0.61203,-17.249 -1.12305,-24.5976 -1.73506,-7.3487 -5.20368,-11.8396 -8.26562,-17.0449 -3.06194,-5.2053 -5.71722,-11.1236 -6.02344,-18.5743 -0.30621,-7.4507 1.73666,-16.4325 6.83985,-24.1894 5.10319,-7.7569 13.26689,-14.2891 22.14648,-17.0449 8.87959,-2.7558 18.47346,-1.736 27.04688,3.3672 8.57341,5.1031 16.12552,14.2896 19.1875,24.9043 3.06197,10.6147 1.63361,22.6571 -3.50196,31.6933 -5.13556,9.0363 -13.9772,15.0658 -18.60742,25.7754 -4.63022,10.7096 -4.63041,25.8153 -4.32422,33.9805 0.3062,8.1652 0.91937,9.389 5.41016,10.5117 4.49079,1.1227 12.85949,2.1442 23.16797,0.6133 10.30847,-1.531 22.55466,-5.6139 33.67968,-12.6563 11.12503,-7.0424 21.12825,-17.0441 29.59961,-30.7207 8.47136,-13.6766 15.41059,-31.0282 19.28907,-49.9101 3.87847,-18.8819 4.69525,-39.2925 1.12304,-57.2559 -3.5722,-17.9633 -11.53381,-33.478 -21.74023,-48.2773 -0.741,-1.0745 -1.51874,-2.1338 -2.2832,-3.1993 0.76919,-4.8929 2.23784,-9.9727 4.52929,-15.7832 2.85781,-7.2465 6.94055,-15.6159 9.90039,-25.0058 2.95985,-9.3899 4.79634,-19.8002 5.30664,-31.8438 0.51031,-12.0436 -0.30511,-25.7209 -4.18359,-35.2129 -3.87848,-9.4919 -10.82017,-14.7978 -19.18945,-18.5742 -8.36928,-3.7763 -18.16662,-6.0219 -28.37305,-6.3281 -1.2758,-0.038 -2.55859,-0.047 -3.84375,-0.021 z m 2.99219,19.8652 c 3.4446,-0.069 6.97035,0.322 10.24218,0.9766 4.82079,0.9645 8.5066,2.3509 13.3711,6.2246 8.2419,6.5631 7.04021,21.4352 6.01953,31.0293 -1.02068,9.5941 -4.89834,20.4118 -9.28711,30.4141 -3.11518,7.0997 -6.45381,13.7382 -9.09766,19.3945 -4.13749,-3.8298 -8.44369,-7.3665 -12.94726,-10.4121 -10.32854,-6.9848 -33.48454,-8.0873 -44.70703,-9.7207 0.50614,-2.6719 5.47763,-19.5178 6.31836,-22.2207 7.76998,-24.9804 6.53452,-34.2869 30.32617,-43.8926 2.95319,-1.1923 6.31711,-1.7235 9.76172,-1.793 z"
     style="fill:none;stroke:#000000;stroke-width:5;stroke-linecap:round;stroke-linejoin:bevel"
     id="path112"
     clip-path="url(#clipPath130)"
     transform="translate(51.962151,-86.603585)" /><path
     style="fill:none;fill-opacity:1;stroke:#000000;stroke-width:5;stroke-linecap:round;stroke-linejoin:bevel"
     d="m 684.64065,929.08226 c 5.51142,-2.14333 8.57331,-1.73507 11.12491,-0.61236 2.55161,1.12271 4.59284,2.95982 7.65478,3.36806 3.06194,0.40824 7.14439,-0.61237 7.8588,-4.79704 0.71442,-4.18467 -1.93917,-11.53308 -6.63415,-18.57551 -4.69498,-7.04244 -11.43103,-13.77849 -21.0251,-15.61559 -9.59408,-1.83711 -22.04555,1.22473 -34.90566,11.63537 -12.86011,10.41063 -26.12807,28.16929 -36.74274,49.7049 -10.61466,21.53561 -18.57544,46.84681 -22.35178,65.01421 -3.77634,18.1673 -3.36809,29.19 -2.55157,40.7233 0.81651,11.5332 2.04125,23.5764 5.61352,34.5993 3.57228,11.023 9.49184,21.025 15.71776,28.3736 6.22592,7.3486 12.75782,12.0434 20.82094,13.8806 8.06311,1.8371 17.65686,0.8165 22.76003,-2.9599 5.10317,-3.7764 5.71554,-10.3083 2.8577,-14.4929 -2.85784,-4.1847 -9.18564,-6.0218 -14.3909,-7.0424 -5.20526,-1.0206 -9.28771,-1.2248 -11.63518,-5.0012 -2.34746,-3.7764 -2.95983,-11.1248 -3.36808,-22.5561 -0.40826,-11.4312 -0.61238,-26.9445 2.24545,-45.8264 2.85784,-18.882 8.77739,-41.13133 15.20744,-58.07396 6.43006,-16.94262 13.37023,-28.57761 20.82093,-36.74272 7.4507,-8.16511 15.41148,-12.85993 20.9229,-15.00326 z"
     id="path15"
     clip-path="url(#clipPath48)"
     inkscape:label="Iron2"
     inkscape:original-d="m 687.09017,926.53068 c 3.0619,0.40825 6.12379,0.81651 9.18569,1.22476 2.04131,1.83717 4.08254,3.67428 6.1238,5.51142 4.08262,-1.02066 8.16507,-2.04127 12.2476,-3.0619 -2.6537,-7.34871 -5.30729,-14.69712 -7.96094,-22.04568 -6.73631,-6.73631 -13.47236,-13.47235 -20.20853,-20.20853 -12.45198,3.06196 -24.90345,6.1238 -37.35517,9.1857 -13.2685,17.75937 -26.53646,35.51803 -39.80469,53.27704 -7.9611,25.31221 -15.92188,50.62341 -23.88282,75.93511 0.40827,11.023 0.81651,22.0457 1.22476,33.0685 1.22479,12.0437 2.44952,24.0869 3.67428,36.1304 5.91979,10.0024 11.83935,20.0044 17.75902,30.0066 6.53218,4.695 13.0641,9.3898 19.59615,14.0848 9.59415,-1.0207 19.1879,-2.0413 28.78185,-3.0619 0.6124,-6.5322 1.22476,-13.0641 1.83714,-19.5962 -6.32805,-1.8372 -12.65585,-3.6743 -18.98377,-5.5114 -4.08261,-0.2041 -8.16506,-0.4083 -12.2476,-0.6124 -0.61239,-7.3487 -1.22476,-14.6971 -1.83714,-22.0457 -0.20413,-15.5139 -0.40825,-31.0272 -0.61238,-46.5408 5.91979,-22.2503 11.83935,-44.49963 17.75902,-66.74944 6.94044,-11.63544 13.88061,-23.27043 20.82091,-34.90565 7.9611,-4.695 15.92188,-9.38982 23.88282,-14.08473 z"
     inkscape:path-effect="#path-effect29"
     transform="translate(51.962151,-86.603585)" /><path
     id="path51"
     clip-path="url(#clipPath87)"
     style="display:inline;fill:#000000;fill-opacity:1;stroke:#000000;stroke-width:12.5;stroke-linecap:round;stroke-linejoin:bevel;stroke-dasharray:none"
     transform="translate(51.962151,-86.603585)"
     d="m 1116.1758,1012.2515 c 43.7349,-3.0311 89.9224,-9.6706 122.2551,-18.18678 32.3328,-8.51621 50.8078,-18.90839 69.8608,-40.5596 19.053,-21.65122 38.6827,-54.55989 45.3223,-81.6959 6.6395,-27.13602 0.2887,-48.49781 -12.702,-75.34523 -12.9907,-26.84743 -32.6205,-59.17881 -61.2,-88.62429 -28.5796,-29.44548 -66.1071,-56.00339 -113.7396,-84.29419 -47.6326,-28.2908 -105.3672,-58.31279 -166.85637,-82.85065 -61.48918,-24.53787 -126.72924,-43.59028 -195.14679,-56.00352 -68.41755,-12.41324 -140.00842,-18.18669 -201.49748,-13.279 -61.48906,4.9077 -112.87282,20.49603 -148.0918,42.1472 -35.21899,21.65117 -54.2714,49.36377 -64.37516,72.74692 -10.10376,23.38316 -11.25845,42.43557 -4.33002,69.28303 6.92844,26.84746 21.93943,61.4882 47.63219,94.39787 25.69276,32.90968 62.06554,64.08634 114.60573,98.43948 52.5402,34.35313 121.24434,71.8806 197.60067,100.02695 76.35634,28.14636 160.35837,46.9097 223.00295,56.58061 62.64458,9.6709 103.92468,10.2483 147.65948,7.2171 z m 53.2613,-2.4537 c -12.4132,2.3094 -15.8773,4.6188 -40.4155,5.1962 -24.5381,0.5774 -70.1484,-0.5773 -127.5962,-6.9283 -57.4477,-6.3511 -126.72919,-17.89802 -178.69169,-29.73398 -51.96249,-11.83595 -86.60323,-23.96021 -129.90554,-45.32273 -43.30232,-21.36252 -95.26343,-51.96185 -140.87504,-85.16025 -45.61162,-33.19839 -84.87112,-68.99383 -108.54285,-96.99585 -23.67173,-28.00203 -31.75457,-48.20913 -32.33186,-65.52999 -0.57729,-17.32086 6.35086,-31.75451 18.18685,-42.72437 11.83599,-10.96986 28.57902,-18.47536 56.00387,-24.24897 27.42485,-5.77361 65.52966,-9.81503 117.20378,-5.48472 51.67413,4.3303 116.9142,17.03191 193.99228,38.9718 77.07808,21.93989 165.98931,53.11655 232.6745,81.98467 66.6852,28.86812 111.1408,55.42601 144.9165,76.21103 33.7756,20.78501 56.8694,35.796 77.9431,52.82824 21.0738,17.03224 40.1262,36.08464 46.1884,53.69419 6.0622,17.60955 -0.866,33.77524 -15.3002,47.92061 -14.4341,14.14537 -36.3732,26.26962 -58.0243,33.4866 -21.6511,7.21702 -43.0129,9.52642 -55.4261,11.83582 z"
     inkscape:original-d="m 1113.7221,1015.86 c 46.1886,-6.6396 92.3761,-13.2791 138.5657,-19.91882 18.4759,-10.39264 36.9509,-20.78485 55.4263,-31.17724 19.6306,-32.91002 39.2603,-65.81872 58.8905,-98.72808 -6.3511,-21.36265 -12.7019,-42.72444 -19.0528,-64.08666 -19.6305,-32.33265 -39.2603,-64.66401 -58.8904,-96.99601 -37.529,-26.55897 -75.0565,-53.11687 -112.5847,-79.6753 -57.7369,-30.02318 -115.4715,-60.04515 -173.2072,-90.06773 -65.24265,-19.05317 -130.48271,-38.10558 -195.72408,-57.15837 -71.59373,-5.77369 -143.1846,-11.54714 -214.77689,-17.32071 -51.38583,15.58895 -102.76959,31.17729 -154.15439,46.76593 -19.05317,27.7137 -38.10557,55.4263 -57.15836,83.13944 -1.15474,19.05317 -2.30943,38.10558 -3.46415,57.15837 15.01159,34.64213 30.02258,69.28287 45.03387,103.9243 36.37423,31.17792 72.74701,62.35458 109.12052,93.53188 68.70688,37.52897 137.41102,75.05644 206.11653,112.58466 84.00716,18.76448 168.0092,37.52781 252.01644,56.29234 41.28191,0.5773 82.56201,1.1547 123.84311,1.732 z m 46.7659,-6.0622 c -3.4641,2.3094 -6.9282,4.6189 -10.3924,6.9283 -45.6121,-1.1547 -91.2224,-2.3094 -136.8336,-3.4641 -69.2843,-11.5474 -138.56579,-23.09434 -207.84865,-34.64148 -34.64213,-12.12475 -69.28287,-24.24901 -103.92431,-36.37351 -51.96319,-30.60054 -103.9243,-61.19987 -155.88645,-91.7998 -39.26108,-35.79686 -78.52058,-71.5923 -117.78088,-107.38845 -8.08316,-20.2079 -16.166,-40.415 -24.249,-60.62251 6.92842,-14.43421 13.85657,-28.86786 20.78486,-43.30179 16.74369,-7.50579 33.48672,-15.01129 50.23008,-22.51693 38.10634,-4.04158 76.21115,-8.083 114.31673,-12.1245 65.24267,12.70211 130.48274,25.40372 195.72411,38.10558 88.91479,31.17791 177.82602,62.35458 266.73901,93.53187 44.4574,26.55896 88.913,53.11686 133.3696,79.6753 23.0947,15.01159 46.1885,30.02257 69.2828,45.03386 19.0532,19.05317 38.1056,38.10558 57.1584,57.15837 -6.9284,16.16632 -13.8566,32.332 -20.7849,48.49801 -21.94,12.12474 -43.8791,24.249 -65.8187,36.37348 -21.3626,2.3095 -42.7244,4.6189 -64.0867,6.9283 z"
     inkscape:path-effect="#path-effect51" /><path
     style="display:inline;opacity:1;fill:none;fill-opacity:1;stroke:#000000;stroke-width:12.5;stroke-linecap:round;stroke-linejoin:bevel;stroke-dasharray:none"
     d="m 655.87781,1118.0523 c -32.90936,-18.1868 -94.10921,-51.0961 -153.52204,-92.089 -59.41284,-40.99284 -117.03519,-90.06625 -150.23389,-140.00864 -33.1987,-49.9424 -41.96979,-100.74779 -44.04612,-147.22599 -2.07633,-46.47819 2.54243,-88.62442 12.93502,-125.5756 10.3926,-36.95118 26.55828,-68.70519 49.94155,-93.53174 23.38328,-24.82654 53.9826,-42.72425 91.79995,-56.58093 37.81735,-13.85667 82.85031,-23.67155 138.85463,-27.42435 56.00432,-3.75279 122.97642,-1.44341 203.80738,14.7229 80.83096,16.1663 175.51566,46.18828 257.78981,84.8717 82.2741,38.68342 152.1329,86.02575 202.652,128.46187 50.519,42.43612 81.6957,79.9636 103.9241,122.9772 22.2284,43.01361 35.5073,91.51064 38.1053,144.62808 2.598,53.11743 -5.4848,110.852 -26.5587,154.4427 -21.0738,43.5908 -55.1372,73.0355 -110.2756,94.3978 -55.1384,21.3624 -131.348,34.6413 -208.7147,32.3317 -77.36662,-2.3096 -155.88563,-20.2073 -216.79725,-34.3527 -60.91162,-14.1453 -104.21254,-24.5376 -128.17292,-31.4659 -23.96038,-6.9283 -28.57916,-10.3924 -61.48852,-28.5791 z"
     id="path49"
     clip-path="url(#clipPath110)"
     transform="translate(51.962151,-86.603585)"
     inkscape:original-d="m 684.16833,1132.7749 c -61.19987,-32.9094 -122.39974,-65.8187 -183.59961,-98.7281 -57.62579,-49.07634 -115.24814,-98.14974 -172.87393,-147.22609 -8.77162,-50.80845 -17.5427,-101.61384 -26.31431,-152.4223 4.61895,-42.14793 9.23771,-84.29416 13.85657,-126.44124 16.16633,-31.75528 32.33201,-63.50929 48.49801,-95.26394 30.60055,-17.89844 61.19987,-35.79615 91.7998,-53.69423 45.03477,-9.81527 90.06773,-19.63014 135.10159,-29.44522 66.97478,2.30948 133.94688,4.61886 200.92032,6.92829 94.68848,30.02318 189.37318,60.04515 284.05973,90.06773 69.8617,47.34424 139.7205,94.68659 209.5807,142.02988 31.1779,37.52897 62.3546,75.05644 93.5319,112.58466 13.2795,48.49898 26.5584,96.99602 39.8376,145.49403 -8.0831,57.73687 -16.166,115.47143 -24.249,173.20713 -34.0647,29.4458 -68.1281,58.8905 -102.1922,88.3357 -76.2127,13.2795 -152.4223,26.5584 -228.6335,39.8376 -78.52212,-17.8984 -157.04114,-35.7961 -235.56172,-53.6942 -43.30266,-10.3926 -86.60359,-20.7848 -129.90538,-31.1773 -4.61895,-3.4642 -9.23772,-6.9283 -13.85657,-10.3924 z"
     inkscape:path-effect="#path-effect49"
     sodipodi:nodetypes="ccccccccccccccccccc" /><path
     style="fill:#000000;fill-opacity:1;stroke:#000000;stroke-width:1.5;stroke-linecap:round;stroke-linejoin:bevel;stroke-dasharray:none"
     d="m 530.30262,1392.5857 c 0.86601,-0.7217 2.02074,-3.1755 3.1033,-6.351 1.08255,-3.1755 2.09291,-7.0726 2.16507,-12.7741 0.0722,-5.7015 -0.79384,-13.2069 -2.67028,-19.4136 -1.87643,-6.2066 -4.76319,-11.1141 -7.21697,-16.3103 -2.45378,-5.1963 -4.47449,-10.6811 -5.55704,-16.3104 -1.08254,-5.6293 -1.22688,-11.4027 1.15477,-17.1763 2.38165,-5.7737 7.28907,-11.5471 11.98014,-15.6608 4.69108,-4.1137 9.16555,-6.5675 13.6401,-8.3717 4.47455,-1.8043 8.94895,-2.959 14.65044,-2.2372 5.70148,0.7217 12.62963,3.3198 18.40324,8.1552 5.7736,4.8354 10.39239,11.9079 12.84616,18.9085 2.45377,7.0005 2.74244,13.9286 1.94855,20.0631 -0.79389,6.1345 -2.67024,11.4749 -5.4849,16.3825 -2.81466,4.9076 -6.56741,9.382 -9.59855,12.9905 -3.03114,3.6085 -5.34052,6.3509 -6.78393,9.8873 -1.4434,3.5363 -2.02075,7.8664 -2.81463,12.6296 -0.79387,4.7633 -1.80423,9.9594 -2.0929,14.434 -0.28868,4.4745 0.14434,8.2273 0.36084,10.5367 0.21651,2.3095 0.21651,3.1755 -1.51559,3.7529 -1.73211,0.5773 -5.19619,0.866 -9.16558,0.1443 -3.96938,-0.7217 -8.44379,-2.4538 -12.77401,-4.1859 -4.33022,-1.7321 -8.51597,-3.4641 -11.25843,-5.1962 -2.74247,-1.7321 -4.04148,-3.4641 -4.40233,-3.825 -0.36085,-0.3608 0.21652,0.6496 1.08253,-0.072 z"
     id="path113"
     inkscape:original-d="m 530.01394,1394.3177 c 1.15472,-2.4537 2.30943,-4.9075 3.46415,-7.3613 1.01039,-3.8972 2.02075,-7.7943 3.03112,-11.6915 -0.86605,-7.5058 -1.73207,-15.0112 -2.5981,-22.5169 -2.88685,-4.9076 -5.77358,-9.8151 -8.66036,-14.7226 -2.02079,-5.485 -4.0415,-10.9698 -6.06225,-16.4547 -0.14435,-5.7737 -0.28868,-11.5471 -0.43302,-17.3207 4.90763,-5.7737 9.81507,-11.5471 14.72261,-17.3207 4.47461,-2.4538 8.94904,-4.9076 13.42355,-7.3613 4.47461,-1.1548 8.94904,-2.3094 13.42356,-3.4642 6.92843,2.5982 13.85657,5.1963 20.78486,7.7944 4.61895,7.0727 9.23772,14.1452 13.85657,21.2178 0.28869,6.9285 0.57736,13.8566 0.86604,20.7849 -1.87645,5.3407 -3.75282,10.6811 -5.62923,16.0217 -3.7529,4.4746 -7.50565,8.949 -11.25847,13.4235 -2.30947,2.7425 -4.61886,5.4849 -6.92829,8.2274 -0.57737,4.3302 -1.15471,8.6603 -1.73207,12.9905 -1.01039,5.1963 -2.02075,10.3924 -3.03112,15.5886 0.43302,3.7529 0.86603,7.5057 1.29905,11.2585 0,0.8661 0,1.7321 0,2.5981 -3.46421,0.2887 -6.92829,0.5774 -10.39243,0.8661 -4.47461,-1.7322 -8.94904,-3.4642 -13.42356,-5.1963 -4.18592,-1.7321 -8.37168,-3.4641 -12.55752,-5.1962 -1.29908,-1.7321 -2.5981,-3.4641 -3.89716,-5.1962 0.57737,1.0104 1.15472,2.0208 1.73207,3.0311 z"
     inkscape:path-effect="#path-effect113"
     transform="translate(51.962151,-86.603585)" /></svg>
