<?xml version="1.0" encoding="UTF-8" standalone="no"?>
<!-- Created with Inkscape (http://www.inkscape.org/) -->

<svg
   version="1.1"
   id="svg1"
   width="1752"
   height="1739"
   viewBox="0 0 1752 1739"
   sodipodi:docname="ButtonApadrinhar1.svg"
   inkscape:version="1.4 (86a8ad7, 2024-10-11)"
   xml:space="preserve"
   xmlns:inkscape="http://www.inkscape.org/namespaces/inkscape"
   xmlns:sodipodi="http://sodipodi.sourceforge.net/DTD/sodipodi-0.dtd"
   xmlns="http://www.w3.org/2000/svg"
   xmlns:svg="http://www.w3.org/2000/svg"><defs
     id="defs1"><inkscape:path-effect
       effect="bspline"
       id="path-effect53"
       is_visible="true"
       lpeversion="1.3"
       weight="33.333333"
       steps="2"
       helper_size="0"
       apply_no_weight="true"
       apply_with_weight="true"
       only_selected="false"
       uniform="false" /><inkscape:path-effect
       effect="bspline"
       id="path-effect47"
       is_visible="true"
       lpeversion="1.3"
       weight="33.333333"
       steps="2"
       helper_size="0"
       apply_no_weight="true"
       apply_with_weight="true"
       only_selected="false"
       uniform="false" /><inkscape:path-effect
       effect="bspline"
       id="path-effect40"
       is_visible="true"
       lpeversion="1.3"
       weight="33.333333"
       steps="2"
       helper_size="0"
       apply_no_weight="true"
       apply_with_weight="true"
       only_selected="false"
       uniform="false" /><inkscape:path-effect
       effect="bspline"
       id="path-effect39"
       is_visible="true"
       lpeversion="1.3"
       weight="33.333333"
       steps="2"
       helper_size="0"
       apply_no_weight="true"
       apply_with_weight="true"
       only_selected="false"
       uniform="false" /><inkscape:path-effect
       effect="bspline"
       id="path-effect38"
       is_visible="true"
       lpeversion="1.3"
       weight="33.333333"
       steps="2"
       helper_size="0"
       apply_no_weight="true"
       apply_with_weight="true"
       only_selected="false"
       uniform="false" /><inkscape:path-effect
       effect="bspline"
       id="path-effect14"
       is_visible="true"
       lpeversion="1.3"
       weight="33.333333"
       steps="2"
       helper_size="0"
       apply_no_weight="true"
       apply_with_weight="true"
       only_selected="false"
       uniform="false" /><inkscape:path-effect
       effect="bspline"
       id="path-effect5"
       is_visible="true"
       lpeversion="1.3"
       weight="33.333333"
       steps="2"
       helper_size="0"
       apply_no_weight="true"
       apply_with_weight="true"
       only_selected="false"
       uniform="false" /><inkscape:path-effect
       effect="bspline"
       id="path-effect3"
       is_visible="true"
       lpeversion="1.3"
       weight="33.333333"
       steps="2"
       helper_size="0"
       apply_no_weight="true"
       apply_with_weight="true"
       only_selected="false"
       uniform="false" /><inkscape:path-effect
       effect="bspline"
       id="path-effect137"
       is_visible="true"
       lpeversion="1.3"
       weight="33.333333"
       steps="2"
       helper_size="0"
       apply_no_weight="true"
       apply_with_weight="true"
       only_selected="false"
       uniform="false" /><inkscape:path-effect
       effect="bspline"
       id="path-effect136"
       is_visible="true"
       lpeversion="1.3"
       weight="33.333333"
       steps="2"
       helper_size="0"
       apply_no_weight="true"
       apply_with_weight="true"
       only_selected="false"
       uniform="false" /><inkscape:path-effect
       effect="bspline"
       id="path-effect113"
       is_visible="true"
       lpeversion="1.3"
       weight="33.333333"
       steps="2"
       helper_size="0"
       apply_no_weight="true"
       apply_with_weight="true"
       only_selected="false"
       uniform="false" /><inkscape:path-effect
       effect="bspline"
       id="path-effect51"
       is_visible="true"
       lpeversion="1.3"
       weight="33.333333"
       steps="2"
       helper_size="0"
       apply_no_weight="true"
       apply_with_weight="true"
       only_selected="false"
       uniform="false" /><inkscape:path-effect
       effect="bspline"
       id="path-effect50"
       is_visible="true"
       lpeversion="1.3"
       weight="33.333333"
       steps="2"
       helper_size="0"
       apply_no_weight="true"
       apply_with_weight="true"
       only_selected="false"
       uniform="false" /><inkscape:path-effect
       effect="bspline"
       id="path-effect49"
       is_visible="true"
       lpeversion="1.3"
       weight="33.333333"
       steps="2"
       helper_size="0"
       apply_no_weight="true"
       apply_with_weight="true"
       only_selected="false"
       uniform="false" /><inkscape:path-effect
       effect="bspline"
       id="path-effect29"
       is_visible="true"
       lpeversion="1.3"
       weight="33.333333"
       steps="2"
       helper_size="0"
       apply_no_weight="true"
       apply_with_weight="true"
       only_selected="false"
       uniform="false" /><inkscape:path-effect
       effect="bspline"
       id="path-effect4"
       is_visible="true"
       lpeversion="1.3"
       weight="33.333333"
       steps="2"
       helper_size="0"
       apply_no_weight="true"
       apply_with_weight="true"
       only_selected="false"
       uniform="false" /><inkscape:path-effect
       effect="bspline"
       id="path-effect2"
       is_visible="true"
       lpeversion="1.3"
       weight="33.333333"
       steps="2"
       helper_size="0"
       apply_no_weight="true"
       apply_with_weight="true"
       only_selected="false"
       uniform="false" /><inkscape:path-effect
       effect="bspline"
       id="path-effect1"
       is_visible="true"
       lpeversion="1.3"
       weight="33.333333"
       steps="2"
       helper_size="0"
       apply_no_weight="true"
       apply_with_weight="true"
       only_selected="false"
       uniform="false" /><inkscape:path-effect
       effect="bspline"
       id="path-effect69"
       is_visible="true"
       lpeversion="1.3"
       weight="33.333333"
       steps="2"
       helper_size="0"
       apply_no_weight="true"
       apply_with_weight="true"
       only_selected="false"
       uniform="false" /><inkscape:path-effect
       effect="bspline"
       id="path-effect68"
       is_visible="true"
       lpeversion="1.3"
       weight="33.333333"
       steps="2"
       helper_size="0"
       apply_no_weight="true"
       apply_with_weight="true"
       only_selected="false"
       uniform="false" /><inkscape:path-effect
       effect="bspline"
       id="path-effect66"
       is_visible="true"
       lpeversion="1.3"
       weight="33.333333"
       steps="2"
       helper_size="0"
       apply_no_weight="true"
       apply_with_weight="true"
       only_selected="false"
       uniform="false" /><inkscape:path-effect
       effect="bspline"
       id="path-effect65"
       is_visible="true"
       lpeversion="1.3"
       weight="33.333333"
       steps="2"
       helper_size="0"
       apply_no_weight="true"
       apply_with_weight="true"
       only_selected="false"
       uniform="false" /><inkscape:path-effect
       effect="bspline"
       id="path-effect63"
       is_visible="true"
       lpeversion="1.3"
       weight="33.333333"
       steps="2"
       helper_size="0"
       apply_no_weight="true"
       apply_with_weight="true"
       only_selected="false"
       uniform="false" /><inkscape:path-effect
       effect="bspline"
       id="path-effect62"
       is_visible="true"
       lpeversion="1.3"
       weight="33.333333"
       steps="2"
       helper_size="0"
       apply_no_weight="true"
       apply_with_weight="true"
       only_selected="false"
       uniform="false" /><inkscape:path-effect
       effect="bspline"
       id="path-effect37"
       is_visible="true"
       lpeversion="1.3"
       weight="33.333333"
       steps="2"
       helper_size="0"
       apply_no_weight="true"
       apply_with_weight="true"
       only_selected="false"
       uniform="false" /><inkscape:path-effect
       effect="bspline"
       id="path-effect36"
       is_visible="true"
       lpeversion="1.3"
       weight="33.333333"
       steps="2"
       helper_size="0"
       apply_no_weight="true"
       apply_with_weight="true"
       only_selected="false"
       uniform="false" /><inkscape:path-effect
       effect="bspline"
       id="path-effect35"
       is_visible="true"
       lpeversion="1.3"
       weight="33.333333"
       steps="2"
       helper_size="0"
       apply_no_weight="true"
       apply_with_weight="true"
       only_selected="false"
       uniform="false" /><inkscape:path-effect
       effect="bspline"
       id="path-effect34"
       is_visible="true"
       lpeversion="1.3"
       weight="33.333333"
       steps="2"
       helper_size="0"
       apply_no_weight="true"
       apply_with_weight="true"
       only_selected="false"
       uniform="false" /><inkscape:path-effect
       effect="bspline"
       id="path-effect33"
       is_visible="true"
       lpeversion="1.3"
       weight="33.333333"
       steps="2"
       helper_size="0"
       apply_no_weight="true"
       apply_with_weight="true"
       only_selected="false"
       uniform="false" /><inkscape:path-effect
       effect="bspline"
       id="path-effect32"
       is_visible="true"
       lpeversion="1.3"
       weight="33.333333"
       steps="2"
       helper_size="0"
       apply_no_weight="true"
       apply_with_weight="true"
       only_selected="false"
       uniform="false" /><inkscape:path-effect
       effect="bspline"
       id="path-effect31"
       is_visible="true"
       lpeversion="1.3"
       weight="33.333333"
       steps="2"
       helper_size="0"
       apply_no_weight="true"
       apply_with_weight="true"
       only_selected="false"
       uniform="false" /><inkscape:path-effect
       effect="bspline"
       id="path-effect30"
       is_visible="true"
       lpeversion="1.3"
       weight="33.333333"
       steps="2"
       helper_size="0"
       apply_no_weight="true"
       apply_with_weight="true"
       only_selected="false"
       uniform="false" /><inkscape:path-effect
       effect="bspline"
       id="path-effect28"
       is_visible="true"
       lpeversion="1.3"
       weight="33.333333"
       steps="2"
       helper_size="0"
       apply_no_weight="true"
       apply_with_weight="true"
       only_selected="false"
       uniform="false" /><inkscape:path-effect
       effect="bspline"
       id="path-effect27"
       is_visible="true"
       lpeversion="1.3"
       weight="33.333333"
       steps="2"
       helper_size="0"
       apply_no_weight="true"
       apply_with_weight="true"
       only_selected="false"
       uniform="false" /><inkscape:path-effect
       effect="bspline"
       id="path-effect26"
       is_visible="true"
       lpeversion="1.3"
       weight="33.333333"
       steps="2"
       helper_size="0"
       apply_no_weight="true"
       apply_with_weight="true"
       only_selected="false"
       uniform="false" /><inkscape:path-effect
       effect="bspline"
       id="path-effect25"
       is_visible="true"
       lpeversion="1.3"
       weight="33.333333"
       steps="2"
       helper_size="0"
       apply_no_weight="true"
       apply_with_weight="true"
       only_selected="false"
       uniform="false" /><inkscape:path-effect
       effect="bspline"
       id="path-effect24"
       is_visible="true"
       lpeversion="1.3"
       weight="33.333333"
       steps="2"
       helper_size="0"
       apply_no_weight="true"
       apply_with_weight="true"
       only_selected="false"
       uniform="false" /><inkscape:path-effect
       effect="bspline"
       id="path-effect23"
       is_visible="true"
       lpeversion="1.3"
       weight="33.333333"
       steps="2"
       helper_size="0"
       apply_no_weight="true"
       apply_with_weight="true"
       only_selected="false"
       uniform="false" /><inkscape:path-effect
       effect="bspline"
       id="path-effect22"
       is_visible="true"
       lpeversion="1.3"
       weight="33.333333"
       steps="2"
       helper_size="0"
       apply_no_weight="true"
       apply_with_weight="true"
       only_selected="false"
       uniform="false" /><inkscape:path-effect
       effect="bspline"
       id="path-effect21"
       is_visible="true"
       lpeversion="1.3"
       weight="33.333333"
       steps="2"
       helper_size="0"
       apply_no_weight="true"
       apply_with_weight="true"
       only_selected="false"
       uniform="false" /><inkscape:path-effect
       effect="bspline"
       id="path-effect20"
       is_visible="true"
       lpeversion="1.3"
       weight="33.333333"
       steps="2"
       helper_size="0"
       apply_no_weight="true"
       apply_with_weight="true"
       only_selected="false"
       uniform="false" /><inkscape:path-effect
       effect="bspline"
       id="path-effect19"
       is_visible="true"
       lpeversion="1.3"
       weight="33.333333"
       steps="2"
       helper_size="0"
       apply_no_weight="true"
       apply_with_weight="true"
       only_selected="false"
       uniform="false" /><inkscape:path-effect
       effect="bspline"
       id="path-effect18"
       is_visible="true"
       lpeversion="1.3"
       weight="33.333333"
       steps="2"
       helper_size="0"
       apply_no_weight="true"
       apply_with_weight="true"
       only_selected="false"
       uniform="false" /><inkscape:path-effect
       effect="bspline"
       id="path-effect17"
       is_visible="true"
       lpeversion="1.3"
       weight="33.333333"
       steps="2"
       helper_size="0"
       apply_no_weight="true"
       apply_with_weight="true"
       only_selected="false"
       uniform="false" /><inkscape:path-effect
       effect="bspline"
       id="path-effect16"
       is_visible="true"
       lpeversion="1.3"
       weight="33.333333"
       steps="2"
       helper_size="0"
       apply_no_weight="true"
       apply_with_weight="true"
       only_selected="false"
       uniform="false" /><inkscape:path-effect
       effect="bspline"
       id="path-effect15"
       is_visible="true"
       lpeversion="1.3"
       weight="33.333333"
       steps="2"
       helper_size="0"
       apply_no_weight="true"
       apply_with_weight="true"
       only_selected="false"
       uniform="false" /><inkscape:path-effect
       effect="bspline"
       id="path-effect13"
       is_visible="true"
       lpeversion="1.3"
       weight="33.333333"
       steps="2"
       helper_size="0"
       apply_no_weight="true"
       apply_with_weight="true"
       only_selected="false"
       uniform="false" /><inkscape:path-effect
       effect="bspline"
       id="path-effect12"
       is_visible="true"
       lpeversion="1.3"
       weight="33.333333"
       steps="2"
       helper_size="0"
       apply_no_weight="true"
       apply_with_weight="true"
       only_selected="false"
       uniform="false" /><inkscape:path-effect
       effect="bspline"
       id="path-effect11"
       is_visible="true"
       lpeversion="1.3"
       weight="33.333333"
       steps="2"
       helper_size="0"
       apply_no_weight="true"
       apply_with_weight="true"
       only_selected="false"
       uniform="false" /><inkscape:path-effect
       effect="bspline"
       id="path-effect10"
       is_visible="true"
       lpeversion="1.3"
       weight="33.333333"
       steps="2"
       helper_size="0"
       apply_no_weight="true"
       apply_with_weight="true"
       only_selected="false"
       uniform="false" /><inkscape:path-effect
       effect="bspline"
       id="path-effect9"
       is_visible="true"
       lpeversion="1.3"
       weight="33.333333"
       steps="2"
       helper_size="0"
       apply_no_weight="true"
       apply_with_weight="true"
       only_selected="false"
       uniform="false" /><inkscape:path-effect
       effect="bspline"
       id="path-effect8"
       is_visible="true"
       lpeversion="1.3"
       weight="33.333333"
       steps="2"
       helper_size="0"
       apply_no_weight="true"
       apply_with_weight="true"
       only_selected="false"
       uniform="false" /><clipPath
       clipPathUnits="userSpaceOnUse"
       id="clipPath60"><path
         id="path61"
         style="fill:#ff0000;fill-opacity:1;fill-rule:nonzero;stroke:none"
         d="M 617.36523,523.26953 V 1483.8867 H 1261.9121 V 523.26953 Z m 218.22071,154.75195 c 0.5845,-0.0432 0.74643,0.65261 0.0176,1.12891 -0.24816,0.16216 -0.47662,0.35217 -0.71094,0.5332 -0.35905,0.29122 -0.68236,0.62195 -1.00977,0.94727 -0.22225,0.22901 -0.47038,0.4285 -0.70898,0.63867 0.0146,-0.0128 0.0298,-0.0248 0.0449,-0.0371 0.0636,-0.0519 0.13437,-0.0949 0.20117,-0.14258 0.10213,-0.007 0.21751,-0.0617 0.31641,-0.0566 0.033,0.002 0.0635,0.0102 0.0918,0.0293 0.13964,0.0942 0.19196,0.28751 0.22266,0.45312 0.0365,0.19699 -0.39366,0.46098 -0.52539,0.54688 -0.0379,0.023 -0.0771,0.0438 -0.11523,0.0664 -0.24487,0.27902 -0.46736,0.5785 -0.69532,0.87109 -0.30704,0.43074 -0.6187,0.85886 -0.89453,1.31055 -0.15748,0.25789 -0.35497,0.3463 -0.51172,0.32226 -0.0965,0.24836 -0.18921,0.49818 -0.28711,0.7461 -0.0557,0.13732 -0.11235,0.27472 -0.16796,0.41211 0.0435,0.0101 0.099,-0.0123 0.13671,0.0137 0.40412,0.27829 -0.46788,1.21517 -0.60156,1.40234 -0.0935,0.12053 -0.18935,0.23916 -0.2832,0.35938 -0.0419,0.0893 -0.0842,0.17858 -0.12695,0.26757 0.13722,-0.15391 0.26745,-0.31402 0.4082,-0.46484 0.36224,-0.36503 0.73022,-0.72474 1.12695,-1.05273 0.30887,-0.23725 0.62864,-0.47103 0.98242,-0.63672 0.68625,-0.32138 0.93745,0.35884 0.26953,0.71679 -0.27719,0.14857 -0.5369,0.3328 -0.78515,0.5254 -0.36933,0.30816 -0.7123,0.64515 -1.05078,0.98632 -0.48388,0.52083 -0.94481,1.06122 -1.4043,1.60352 -0.5534,0.66653 -1.06096,1.37109 -1.54101,2.0918 -0.31728,0.48124 -0.58548,0.9917 -0.85938,1.49804 -0.13976,0.25665 -0.305,0.52115 -0.67969,0.43555 -0.13243,-0.0303 -0.2278,-0.15551 -0.3125,-0.26172 -0.0604,-0.0759 -0.0737,-0.21286 -0.0996,-0.3418 -0.15208,0.13193 -0.33617,0.10762 -0.69531,-0.30078 -0.0434,-0.0493 0.17575,-0.66487 0.17773,-0.67187 0.14354,-0.41202 0.30315,-0.81818 0.47461,-1.21875 -0.01,-0.0765 -0.002,-0.1617 0.0195,-0.23828 0.0268,-0.0956 0.0861,-0.17818 0.13671,-0.26368 0.056,-0.0944 0.13161,-0.17516 0.19336,-0.26562 0.18491,-0.39432 0.37527,-0.78655 0.57422,-1.17383 0.0654,-0.11975 0.13145,-0.23911 0.19922,-0.35742 -0.0335,-0.0415 -0.0725,-0.0459 -0.10351,-0.10352 -0.0837,-0.15521 -0.0307,-0.35486 -0.006,-0.52929 0.0398,-0.27699 0.27694,-0.77995 0.3789,-1.01953 0.0436,-0.0888 0.10709,-0.16608 0.15235,-0.25391 -0.17157,-0.0515 -0.1383,-0.13402 -0.084,-0.37305 -0.0476,0.0469 -0.0951,0.0937 -0.14258,0.14063 -0.30567,0.24511 -0.342,0.35396 -0.65429,0.0879 -0.006,0.006 -0.0132,0.0101 -0.0195,0.0156 v 0.002 c -0.57027,0.49908 -1.10636,-0.0362 -0.54297,-0.54297 0.003,-0.003 0.007,-0.005 0.01,-0.008 -0.56471,0.0914 -0.94036,-0.34742 -0.27734,-0.87891 0.0685,-0.0549 0.13658,-0.10916 0.20508,-0.16406 0.49043,-0.37417 1.00746,-0.71119 1.53711,-1.02735 0.67726,-0.40988 1.34644,-0.83246 2.02734,-1.23633 0.45362,-0.28945 0.91897,-0.56391 1.35156,-0.88476 0.3057,-0.22002 0.60869,-0.4403 0.90039,-0.67774 0.0977,-0.30696 0.28833,-0.44742 0.45703,-0.44726 0.0188,2e-5 0.0366,0.004 0.0547,0.008 0.26013,-0.22378 0.52471,-0.44285 0.76367,-0.68945 0.35936,-0.35691 0.71531,-0.71799 1.11133,-1.03516 0.28947,-0.22334 0.57081,-0.4614 0.88867,-0.64453 0.17411,-0.10031 0.32996,-0.15019 0.46485,-0.16016 z m -2.20313,3.19532 c -0.014,0.0183 -0.0367,0.0342 -0.0527,0.0527 0.0137,-0.0103 0.0333,-0.0228 0.043,-0.0312 0.006,-0.005 0.0148,-0.0275 0.01,-0.0215 z m -0.26172,0.10156 c -0.0973,0.0847 -0.18714,0.17787 -0.28711,0.25976 0.0286,-0.0163 0.0575,-0.0323 0.0859,-0.0488 0.0646,-0.0724 0.13063,-0.14426 0.20117,-0.21094 z m -5.96484,4.94141 c -0.007,0.0143 -0.0137,0.0278 -0.0195,0.043 -0.005,0.0138 0.0373,-0.024 0.0273,-0.0352 -0.002,-0.003 -0.005,-0.005 -0.008,-0.008 z m 0.2168,1.66406 c 0.007,0.005 0.0249,0.009 0.041,0.0137 7.6e-4,-0.001 9.6e-4,-0.003 0.002,-0.004 -0.0154,-0.004 -0.0333,-0.009 -0.043,-0.01 z m -0.65821,4.16797 c -0.005,0.0579 -0.007,0.11721 -0.008,0.17578 0.0277,-0.0509 0.056,-0.10158 0.084,-0.15235 -0.0254,-0.008 -0.0507,-0.0151 -0.0762,-0.0234 z m -0.35156,0.80078 c -0.0118,0.006 -0.0231,0.0139 -0.0352,0.0195 0.011,-0.005 0.0262,-0.006 0.0332,-0.0156 8.4e-4,-10e-4 9e-4,-0.003 0.002,-0.004 z" /></clipPath><clipPath
       clipPathUnits="userSpaceOnUse"
       id="clipPath45"><path
         id="path46"
         style="fill:#ff0000;fill-opacity:1;fill-rule:nonzero;stroke:none"
         d="m 478.45508,1071.6816 v 340.5821 h 206.58008 v -340.5821 h -62.11524 c 0.29545,0.5427 0.52369,1.1239 0.72266,1.7129 0.2798,0.8527 0.39408,1.738 0.45898,2.6289 0.057,1.0183 0.0675,2.0391 0.0781,3.0586 0.0314,1.0569 -0.006,2.1109 -0.0625,3.166 -0.0124,0.2153 -0.0729,0.4244 -0.0937,0.6387 1.64159,-0.4395 3.15964,1.3389 1.83594,3.9863 -0.0452,0.091 -0.0962,0.1775 -0.13477,0.2715 -0.10452,0.2535 -0.2686,0.8832 -0.3125,1.0469 -0.31672,1.1804 -0.60011,2.3652 -0.86328,3.5586 -0.26464,1.2632 -0.46256,2.5378 -0.62891,3.8164 0.23985,0.9478 0.49065,1.893 0.70117,2.8477 0.34284,1.7531 0.75191,3.4928 1.13086,5.2382 0.22753,1.0671 0.45782,2.1323 0.63477,3.209 0.34758,2.115 -1.79273,2.4651 -2.13672,0.3496 -0.16914,-1.0402 -0.39557,-2.0686 -0.61328,-3.0996 -0.18858,-0.8688 -0.37242,-1.739 -0.56445,-2.6074 -0.28439,0.5363 -0.74628,0.9158 -1.52149,0.9238 -0.12975,0 -0.24507,-0.015 -0.36523,-0.025 -2.8e-4,0.024 -0.002,0.048 -0.002,0.072 -0.0433,3.8198 -3.46685,4.1742 -4.18164,1.1777 -0.58153,0.1233 -1.19325,0.1107 -1.77539,-0.037 -0.47697,-0.1211 -0.90971,-0.4011 -1.30273,-0.6972 -0.32789,-0.2471 -0.55322,-0.607 -0.83008,-0.9102 -0.30477,-0.508 -0.48727,-0.8191 -0.6875,-1.2031 -0.36297,0.8328 -0.65754,1.6902 -0.94531,2.5527 -0.19998,0.5964 -0.73448,2.8968 -1.70117,2.7149 -1.0697,-0.2012 -1.96529,-0.9547 -2.77539,-1.7168 -0.23865,0.358 -0.50514,0.6907 -0.89649,0.7422 -0.21536,0.028 -0.40131,0.042 -0.5918,0.057 0.15732,0.4143 0.31951,0.8265 0.44336,1.2539 0.2043,0.9678 0.16575,1.335 -0.27343,1.5137 0.14719,0.3817 0.20933,0.7711 0.043,1.1191 -0.14595,0.305 -0.44521,0.5073 -0.66796,0.7617 -0.29688,0.045 -0.59044,0.1348 -0.89063,0.1348 -0.21313,0 -0.42108,-0.082 -0.62109,-0.1563 -0.92515,-0.3405 -1.57709,-1.0518 -2.20703,-1.7734 -0.81432,-0.9445 -1.32021,-2.0715 -1.75391,-3.2266 -0.26398,-0.8043 -0.50709,-1.6171 -0.74609,-2.4296 -0.29782,-0.4255 -0.55464,-0.878 -0.73438,-1.3789 -0.18717,-0.5231 -0.38021,-1.0574 -0.4707,-1.6075 -0.45318,-0.9979 -0.87074,-2.0125 -1.23828,-3.0468 -0.4405,-1.1923 -0.7829,-2.4135 -1.08594,-3.6465 -0.25725,-1.0467 -0.18116,-1.8939 0.0898,-2.5117 -0.21385,-0.6888 -0.45783,-1.3681 -0.71484,-2.043 -0.34375,-0.8899 -0.6927,-1.772 -1.17188,-2.6016 -0.63444,-1.1578 -1.28065,-2.3241 -1.5332,-3.6367 -0.19219,-1.0523 -0.27232,-2.1158 -0.32812,-3.1836 0.008,-0.2736 -0.0179,-1.6197 0.32031,-1.7363 0.2991,-0.1031 0.54569,-0.1812 0.80078,-0.2617 -0.01,-0.4315 -0.008,-0.8631 0.0176,-1.2969 0.1173,-2.006 1.10844,-2.9871 2.11133,-3.0215 0.94826,-0.033 1.86245,0.8277 2.10351,2.4199 0.0893,-0.021 0.16481,-0.049 0.26367,-0.066 0.51912,-0.091 0.95408,-0.016 1.33008,0.1621 0.50958,-1.2646 1.28812,-2.0171 3.5918,-1.6074 0.0111,0 0.0204,0.01 0.0312,0.01 0.10553,-0.2551 0.20226,-0.5131 0.31445,-0.7657 0.12619,-0.2839 0.25359,-0.5676 0.38477,-0.8496 z m 139.81836,1.2618 c 0.0709,0.1061 0.14573,0.2097 0.23242,0.3027 0.052,0.056 -0.008,-0.1767 -0.0742,-0.2149 -0.0514,-0.029 -0.10596,-0.058 -0.1582,-0.088 z m 2.48242,0.1504 c -0.0239,0.01 -0.0793,0.1075 -0.12891,0.2011 0.0292,-0.03 0.0593,-0.057 0.0859,-0.092 0.0145,-0.036 0.0799,-0.1224 0.043,-0.1093 z m -0.92774,5.0527 c -0.43549,0.4419 -1.01806,0.5612 -1.84179,0.5039 -0.10664,0.7262 -0.19045,1.4562 -0.32422,2.1777 -0.2644,1.4263 -0.62234,2.8288 -1.03125,4.2168 0.12836,0.3755 0.20801,0.6374 0.37109,1.0996 0.43924,1.245 0.91546,2.4761 1.40625,3.7012 0.29009,-1.4039 0.58302,-2.8079 0.83789,-4.2187 0.22254,-1.197 0.46908,-2.3943 0.54688,-3.6114 0.052,-0.9628 0.09,-1.9241 0.0586,-2.8886 -0.003,-0.327 -0.0183,-0.6536 -0.0234,-0.9805 z m -11.16015,4.9473 c -0.0396,0.036 -0.0287,0.2076 -0.0215,0.1562 0.006,-0.042 0.017,-0.09 0.0234,-0.1328 -9.3e-4,-0.01 -10e-4,-0.017 -0.002,-0.023 z m -1.05859,0.1406 c -0.34505,-0.036 -0.92203,0.5029 -1.05274,0.2519 -1.7748,0.5221 -4.0995,1.2273 -5.92773,0.5977 -0.41858,-0.1441 -0.78785,-0.4028 -1.17969,-0.6094 -0.0755,0.1 -0.15743,0.1939 -0.25391,0.2734 -0.22385,0.1846 -0.46175,0.3915 -0.71093,0.5684 0.13329,0.4879 0.27734,0.9735 0.35156,1.4727 0.0248,0.167 0.20125,0.4309 0.0488,0.5039 -0.079,0.038 -0.16028,0.07 -0.24024,0.1054 0.0204,0.052 0.0422,0.1039 0.0625,0.1563 0.43938,1.1366 0.82831,2.289 1.14063,3.4668 0.32086,1.1815 0.73345,2.3314 1.13867,3.4844 0.0207,-1.0362 0.0907,-2.071 0.22461,-3.0977 0.27718,-2.1254 2.37632,-1.7025 2.12304,0.4258 -0.2761,2.3173 -0.23145,4.6708 0.002,6.9902 0.003,0.031 0.008,0.062 0.0117,0.094 5.3e-4,0 10e-4,-0.01 0.002,-0.01 0.0279,-0.08 0.0737,-0.2002 0.10937,-0.2989 -0.0378,-0.8767 -0.0626,-1.7541 -0.11718,-2.6289 -0.0991,-1.5897 -0.11248,-0.8119 -0.0684,-1.8437 0.74801,-0.01 1.5571,-0.3222 2.24414,-0.025 0.37556,0.1617 0.26605,0.7739 0.39453,1.1621 0.0304,0.092 0.0887,0.251 0.125,0.3633 0.38619,-0.1007 0.7819,-0.1817 1.15625,-0.3067 0.26734,0.1415 0.55106,0.2591 0.82617,0.3887 0.092,-0.11 0.17902,-0.2203 0.24219,-0.3379 0.37681,-0.7014 0.72657,-1.4183 1.08984,-2.1269 0.11312,-0.2623 0.23017,-0.522 0.34571,-0.7832 -0.47043,-2.1222 -0.94737,-4.2431 -1.54883,-6.3321 -0.12331,-0.3254 -0.23658,-0.6555 -0.3711,-0.9765 -0.0796,-0.1899 -0.20708,-0.3591 -0.27148,-0.5547 -0.0202,-0.061 -0.0106,-0.1394 0.0273,-0.1914 0.0483,-0.067 0.26913,-0.075 0.20703,-0.1289 -0.0379,-0.033 -0.0816,-0.049 -0.13085,-0.055 z m -3.98829,25.3886 c 0.009,0.054 0.0227,0.1176 0.0449,0.2051 0.007,0.027 0.0172,-0.057 0.008,-0.082 -0.0163,-0.042 -0.0337,-0.083 -0.0527,-0.1231 z" /></clipPath><clipPath
       clipPathUnits="userSpaceOnUse"
       id="clipPath48"><path
         id="path48"
         style="fill:#ff0000;fill-opacity:1;fill-rule:nonzero;stroke:none"
         d="m 584.02734,889.84766 v 250.38084 h 70.96485 c 0.0392,-0.2965 0.0801,-0.5934 0.11328,-0.8906 0.21481,-1.6459 0.39134,-3.2979 0.51953,-4.9531 0.0855,-1.6759 0.1257,-3.3512 -0.10742,-5.0196 -0.20395,-1.5476 -0.53725,-3.0661 -0.83399,-4.5976 -0.2746,-1.5213 -0.58324,-3.0347 -0.99609,-4.5254 -0.41223,-1.4839 -0.87502,-2.9605 -1.13867,-4.4805 -0.5504,-3.1731 0.85385,-4.8947 2.47265,-4.9219 1.42836,-0.024 3.02215,1.2719 3.5879,4.0567 0.25446,1.2525 0.6363,2.4749 0.97851,3.7051 0.46327,1.6718 0.81166,3.3682 1.12109,5.0742 0.32416,1.623 0.65838,3.2394 0.87891,4.8808 0.28219,2.0385 0.25511,4.0897 0.15234,6.1387 -0.13425,1.8168 -0.3269,3.6274 -0.5625,5.4336 -0.004,0.033 -0.01,0.066 -0.0137,0.1 h 52.75782 V 889.84766 Z" /></clipPath><clipPath
       clipPathUnits="userSpaceOnUse"
       id="clipPath71"><path
         id="path72"
         style="fill:#ff0000;fill-opacity:1;fill-rule:nonzero;stroke:none"
         d="M 404.79688,604.79883 V 1021.377 H 1306.5586 V 604.79883 Z M 660.54883,898.375 c 2.9968,-0.0151 3.68806,2.74156 1.26367,5.01758 1.79598,-0.0577 3.00227,1.40263 2.5625,3.32812 0.45705,-0.14818 0.91333,-0.29933 1.37109,-0.44531 0.29648,-0.0928 4.1477,-1.37074 4.26953,-1.17187 0.9163,1.49589 1.54071,2.54757 1.91211,3.33398 1.52763,-0.5368 3.07037,-1.03103 4.63672,-1.44727 1.46874,-0.33423 4.69845,-0.86289 5.71875,0.72266 0.54782,0.85129 0.83663,1.90392 0.86328,2.92773 2.3124,0.5457 5.65784,-0.13589 2.35547,1.85352 -0.18781,0.11314 -0.37318,0.22845 -0.56054,0.3418 0.51717,-0.1916 1.02419,-0.41119 1.55273,-0.57032 0.72562,-0.21842 1.37885,-0.32056 1.95703,-0.32812 2.6415,-0.0345 3.68378,1.90439 2.70703,3.75 0.29678,-0.072 0.61296,-0.2048 0.88477,-0.20898 1.97981,-0.0304 3.19791,1.65109 2.375,3.74609 1.80737,0.49261 2.67329,2.95841 0.55273,5.88086 -0.70906,0.97719 -1.68925,1.66418 -2.70508,2.28711 -1.12472,0.66175 -2.32816,1.16764 -3.51757,1.69726 -1.36934,0.54711 -2.78321,0.96911 -4.20508,1.35547 -1.28501,0.31453 -2.57312,0.61898 -3.86328,0.91211 -1.33182,0.32376 -2.68521,0.55834 -4.01953,0.86914 -1.63706,0.43877 -3.24274,0.98723 -4.85743,1.50196 -2.0561,0.66931 -4.06511,1.46698 -6.08007,2.24804 -2.8399,1.10085 -4.80938,0.20569 -5.35157,-1.23437 -4.07992,1.62441 -6.47675,-2.76248 -2,-5.82227 0.0584,-0.0399 0.12682,-0.0621 0.18555,-0.10156 -0.0727,-0.12038 -0.13159,-0.24816 -0.20312,-0.36914 -1.38249,0.87407 -2.76106,1.75443 -4.12696,2.6543 -0.14604,-0.13098 -0.43139,-0.33279 -0.89648,-0.625 -3.92398,-2.46541 -5.56833,-2.24172 -5.00781,-2.76758 -0.41088,0.15039 -0.82951,0.27922 -1.24024,0.42968 -1.41851,0.53675 -2.83919,1.06711 -4.25781,1.60352 -4.62612,1.74923 -6.83841,-1.72509 -4.44727,-4.23437 -0.29257,-0.11809 -0.58087,-0.24951 -0.85742,-0.41016 -0.55363,-0.32161 -0.95997,-0.84913 -1.43945,-1.27344 -0.27225,-0.51032 -0.61147,-0.98841 -0.81641,-1.52929 -0.6195,-1.63503 -0.28331,-3.64025 0.42578,-5.18165 0.15934,-0.34636 0.38267,-0.66059 0.57422,-0.99023 0.23195,-0.30112 0.44854,-0.61491 0.69727,-0.90234 1.17014,-1.35218 2.70378,-2.32174 4.17968,-3.29883 1.47142,-0.93618 2.95664,-1.88856 4.21876,-3.10156 1.41476,-1.46816 2.71138,-3.04376 4.17578,-4.46289 1.54182,-1.37666 3.15992,-2.66615 4.97265,-3.67383 1.18673,-0.69387 2.39246,-1.38518 3.69141,-1.84766 0.89235,-0.31771 1.67871,-0.45952 2.34961,-0.46289 z m -3.04688,7.65625 c -0.16852,0.0948 -0.33173,0.19813 -0.49609,0.29883 0.0332,0.0268 0.0667,0.0528 0.0996,0.0801 0.11159,-0.10557 0.25272,-0.23759 0.35351,-0.33594 0.0143,-0.0143 0.0287,-0.0286 0.043,-0.043 z m -15.71484,12.99805 c -0.21897,0.22269 -0.42114,0.46121 -0.5918,0.72851 -0.14374,0.26117 -0.17463,0.49374 -0.14453,0.79102 0.0234,0.23122 0.13758,0.2515 0.14258,0.2207 0.0204,-0.11499 -0.0174,-0.23312 -0.0254,-0.34961 -0.0392,-0.15692 -0.18974,-0.38639 0.10547,-0.43359 0.31267,-0.05 0.63282,-0.0246 0.94922,-0.0371 0.0909,-0.0143 0.18233,-0.0258 0.27343,-0.0391 -0.31019,-0.31144 -0.53941,-0.60369 -0.70898,-0.88086 z m 4.64648,9.5625 c 0.91998,0.0412 6.24017,2.34938 7.57618,2.65429 -0.45841,0.30298 -0.91781,0.6043 -1.37305,0.91211 -2.19038,1.47483 -0.41709,0.56044 -5.3457,-2.69336 -0.98163,-0.64805 -1.16409,-0.88676 -0.85743,-0.87304 z" /></clipPath><clipPath
       clipPathUnits="userSpaceOnUse"
       id="clipPath87"><path
         id="path88"
         style="fill:#ff0000;fill-opacity:1;fill-rule:nonzero;stroke:none"
         d="M 375.13086,463.41406 V 1031.6738 H 1362.4746 V 463.41406 Z M 659.75,899.46094 c 3.56444,0.13248 4.10063,3.6674 0.74023,5.56836 1.1836,-0.11539 2.37396,-0.17895 3.56055,-0.22071 4.53442,0.0628 9.02028,0.78632 13.4336,1.78125 3.12291,0.67255 6.05672,1.8795 8.9375,3.22461 1.15961,0.57471 2.38743,1.04146 3.48632,1.73438 0.74376,0.469 0.88833,0.62445 1.54297,1.16992 0.74655,0.6609 1.28979,1.44978 1.73438,2.29492 0.0976,-0.008 0.19337,-0.0138 0.28515,-0.0117 1.77163,0.0402 2.43421,1.93447 0.95508,3.59571 0.14278,0.74437 0.27853,1.49127 0.35156,2.24609 0.56302,0.34242 1.12762,0.68208 1.69532,1.01758 1.35799,0.83215 2.72555,1.6459 4.14062,2.37695 0.76634,0.3671 1.60651,0.57352 2.44922,0.66602 0.66684,0.0551 1.33746,0.0421 2.00586,0.0391 0.48011,0.0179 0.95988,0.0446 1.43945,0.0723 -0.19574,-0.34387 -0.39696,-0.68521 -0.58984,-1.01953 -2.1422,-3.71301 1.63981,-5.87725 3.75781,-2.15039 0.64431,1.13373 1.69112,2.71459 1.80664,4.0586 0.0441,0.51291 -0.0458,1.02866 -0.0684,1.54297 -0.31521,0.46022 -0.53816,0.9976 -0.94531,1.3789 -0.80907,0.75771 -2.04088,0.59657 -3.03516,0.57617 -0.78215,-0.0342 -1.56213,-0.0852 -2.34375,-0.1289 -0.85613,0.004 -1.71553,0.0152 -2.56836,-0.0742 -1.34524,-0.18076 -2.67853,-0.4959 -3.89648,-1.11328 -1.48772,-0.76919 -2.92838,-1.61966 -4.35547,-2.4961 -0.20354,-0.12033 -0.40632,-0.2422 -0.60937,-0.36328 -1.31996,1.84298 -3.45327,2.95881 -5.43946,3.9043 -2.17064,0.94712 -4.34889,1.87377 -6.48828,2.89062 -1.99285,0.98952 -3.92347,2.10027 -5.92383,3.07422 -1.48951,0.78966 -3.06181,1.35717 -4.67773,1.82032 -0.82151,0.19437 -3.71214,1.09004 -4.32227,0.51171 -0.99387,-0.94208 -1.52405,-2.26863 -2.24804,-3.43554 -0.47348,0.017 -0.94658,0.0336 -1.41993,0.0488 -1.27517,0.009 -2.55262,0.0967 -3.82812,0.0859 -0.37231,-0.003 -0.74813,0.0231 -1.11523,-0.0391 -0.52429,-0.0889 -1.17553,-0.0258 -1.54102,-0.41211 -0.89351,-0.94428 -1.33986,-2.22769 -2.00977,-3.3418 0.38729,-0.89484 0.62979,-1.86666 1.16211,-2.68359 0.083,-0.12733 0.385,-0.3081 0.53125,-0.4668 -1.41712,0.28239 -3.14513,0.62008 -3.59765,0.67774 -0.62103,0.0791 -1.25185,0.0673 -1.87696,0.10156 -4.13628,-2.00735 -4.8911,-1.1055 -2.23242,-7.5 0.31061,-0.74705 1.34665,-0.89796 2.03907,-1.31641 0.51729,-0.31263 1.0483,-0.60338 1.57812,-0.89453 -0.007,0.002 -0.013,0.004 -0.0195,0.006 -0.54756,0.16362 -0.9807,0.30797 -1.33985,0.41992 -0.16866,0.11173 -0.34984,0.24979 -0.41796,0.12305 -1.25268,0.33577 -1.2088,-0.22777 -1.64258,-2.93945 -1.01584,0.38802 -2.0621,0.66518 -3.12696,0.5332 -0.61184,-0.0758 -1.25781,-0.14692 -1.79296,-0.45312 -0.64582,-0.36952 -1.09522,-1.00769 -1.64258,-1.51172 -0.15295,-0.80296 -0.39839,-1.59306 -0.45899,-2.40821 -0.0221,-0.2978 0.1253,-0.58683 0.2168,-0.87109 0.38822,-1.20627 1.09598,-2.26951 1.87695,-3.25391 1.83817,-2.04967 3.99974,-3.77881 6.4336,-5.08007 2.3723,-1.26503 4.81431,-2.48611 7.43945,-3.12891 v 0.002 c 0.73604,-0.18023 1.39482,-0.25006 1.97461,-0.22851 z m 15.19336,15.79297 c 1.2e-4,10e-4 0.002,0.003 0.002,0.004 0.003,-0.001 0.005,-0.002 0.008,-0.004 -0.003,0 -0.007,-10e-6 -0.01,0 z m 33.66797,9.81836 c -0.0559,0.0134 -0.11407,0.0245 -0.17188,0.0352 0.0698,-0.001 0.13988,-0.003 0.20899,-0.0137 0.0141,-0.002 -0.0232,-0.0245 -0.0371,-0.0215 z m -39.96094,0.72851 c -1.1133,0.65785 -2.21593,1.32951 -3.29687,2.0332 1.2641,-0.0518 2.52675,-0.12396 3.7871,-0.22851 0.0231,-0.0219 0.0957,-0.0929 0.11524,-0.11133 0.0888,-0.084 0.18031,-0.16457 0.26953,-0.24805 -0.29946,-0.47563 -0.58627,-0.96093 -0.875,-1.44531 z m -9.97266,2.10352 c -0.13232,-0.006 -0.3179,0.0504 -0.23437,0.0644 0.13306,0.0223 0.26907,0.0302 0.4043,0.0332 -0.0227,-0.0223 -0.0435,-0.0463 -0.0664,-0.0684 -0.0203,-0.0196 -0.0594,-0.0274 -0.10352,-0.0293 z" /></clipPath><clipPath
       clipPathUnits="userSpaceOnUse"
       id="clipPath110"><path
         id="path111"
         style="fill:#ff0000;fill-opacity:1;fill-rule:nonzero;stroke:none"
         d="M 303.20117,427.80664 V 1218.9609 H 1414.6113 V 427.80664 Z m 298.61524,632.38866 c 5.27424,-6e-4 9.7736,4.8973 5.54101,11.8731 2.80562,1.2911 5.11365,4.8571 5.14649,10.7011 2.4e-4,0.043 -2e-4,0.086 0,0.1289 1.30725,-0.6875 2.67137,-1.2579 4.08398,-1.7187 1.15027,-0.3402 0.89358,-0.2893 -0.70117,0.3496 -3.79253,1.5192 -3.81164,2.7311 -2.30664,3.8262 0.1973,-0.6544 0.42335,-1.2865 0.99804,-1.3047 2.22498,-0.07 3.86062,-0.1392 5.06836,-0.1367 3.62322,0.01 3.40914,0.6462 3.80469,3.7519 -0.0185,0.5681 -0.0512,1.1353 -0.0801,1.7031 3.4116,1.4521 5.11838,3.0865 -0.0176,5.3497 -0.0939,0.041 -0.0256,0.01 -0.10743,0.045 0.0364,1.6124 0.14316,3.2239 0.34571,4.8242 0.12902,0.837 0.16493,1.6537 0.70703,2.3379 0.75226,1.1572 1.45212,2.3478 2.27148,3.4609 0.96329,1.3109 1.95634,2.6137 3.15235,3.7246 0.17396,0.1646 0.34801,0.3271 0.52148,0.4922 0.0897,0.086 0.18328,0.1668 0.26758,0.2578 0.024,0.026 0.0265,0.074 0.0566,0.092 0.16635,0.1023 0.35211,0.1667 0.52148,0.2637 0.0329,0.019 -0.0415,0.1268 0.0742,0.088 0.22554,0.1174 0.0451,0.032 0.57617,0.1172 0.5718,0.091 1.13798,0.2174 1.72071,0.1914 1.41851,0.048 2.83982,0.1112 4.24218,0.3457 1.4297,0.2671 2.84007,0.6246 4.19336,1.166 0.94663,0.336 1.89373,0.6667 2.86719,0.918 0.60363,0.1737 -0.14969,-0.036 1.02539,0.2168 1.30414,0.2805 2.57705,0.6994 3.72071,1.4004 0.35072,0.2477 0.72081,0.4697 1.05273,0.7421 1.11702,0.9166 1.88599,2.1476 2.56055,3.4043 0.19276,0.4179 0.32404,0.8589 0.49414,1.2852 0.059,-0.1271 0.12015,-0.2533 0.18359,-0.3789 0.11713,-0.2092 0.23691,-0.4185 0.35938,-0.625 -0.0333,-0.5094 -0.0431,-1.0204 -0.10352,-1.5274 -0.1708,-1.2994 -0.43141,-2.5809 -0.73633,-3.8554 -0.53323,-2.0287 -1.40141,-3.9776 -1.44531,-6.1094 2.34125,-1.4611 4.39901,-3.5293 7.02344,-4.3828 0.048,-0.016 0.0961,-0.026 0.14258,-0.031 0.0435,0 0.0866,-0.01 0.1289,0 0.63451,0.057 1.13345,1.0219 1.65235,1.5059 0.31407,0.293 0.52999,0.6761 0.76562,1.0352 0.77722,1.1846 1.37972,2.4684 1.97656,3.7519 0.72587,-8.5609 9.7461,-8.1923 9.7461,1.1172 v 9.0293 9.8242 c -0.0253,1.6904 0.008,3.3784 0.0859,5.0664 0.38448,1.2223 0.74334,2.4522 1.05664,3.6953 0.15585,3.8226 0.96761,5.7059 -6.16992,6.6582 -2.43427,0.3248 -3.48067,-3.2592 -4.01562,-4.9746 -0.26333,-1.1474 -0.44791,-2.3055 -0.56055,-3.4746 -0.64176,-1.9063 -1.32428,-3.7993 -2.02344,-5.6855 -0.0205,-0.011 -0.0458,-0.052 -0.0664,-0.064 -0.33849,8.1243 -7.79222,8.8808 -9.45703,2.334 -2.29292,0.3427 -5.20178,-1.6763 -6.68946,-6.3242 -0.18105,-0.5657 -0.27628,-1.1531 -0.47265,-1.7149 -0.20807,-0.6801 -0.43358,-1.3524 -0.7461,-1.9921 -0.0317,-0.013 -0.0532,-0.036 -0.0762,-0.061 -0.59098,-0.074 -1.18827,-0.216 -1.76953,-0.3535 -1.28341,-0.3295 -2.53925,-0.7505 -3.78711,-1.1934 -0.86367,-0.3575 -1.7593,-0.6003 -2.67773,-0.7617 -0.93101,-0.1285 -1.87233,-0.1603 -2.81055,-0.1914 -1.46296,-0.025 -2.91677,-0.2687 -4.33984,-0.5937 -1.36501,-0.4099 -2.66731,-1.0365 -3.82422,-1.8731 -0.73571,-0.5319 -1.26158,-1.0491 -1.92188,-1.6582 -0.12297,-0.1137 -0.23525,-0.2371 -0.35547,-0.3535 -1.62477,3.5151 -6.78502,3.521 -9.44726,-2.6348 -1.14733,-2.653 -2.01262,-5.4233 -2.35157,-8.3047 -0.079,-0.8656 -0.13152,-1.7257 -0.16796,-2.584 -1.28032,0.5655 -2.65628,0.9001 -4.33008,0.7852 -2.33407,-0.1603 -4.30732,-1.3454 -5.83985,-2.9941 -0.56408,-0.6068 -0.94119,-1.3633 -1.41211,-2.045 -0.21279,-0.4872 -0.4534,-0.9626 -0.63867,-1.4609 -0.1693,-0.4554 -0.30694,-0.9191 -0.42773,-1.3867 -0.95035,-0.1402 -1.92093,-0.2224 -2.8086,-0.5 -1.43538,-0.4488 -1.858,-2.3642 -2.7871,-3.5469 -1.02789,-2.6313 -1.20302,-5.4633 -1.39063,-8.2519 -0.19854,-2.1936 -0.005,-4.3841 0.24805,-6.5625 0.18084,-1.4023 0.23321,-2.8151 0.34961,-4.2227 0.0586,-1.2639 0.38474,-2.4803 0.71289,-3.6934 1.59158,-5.8836 5.68484,-8.3296 9.41797,-8.33 z m -9.36329,27.6875 c -0.004,0.065 -0.0104,0.1268 -0.0137,0.1934 -0.003,0.056 0.01,-0.112 0.0156,-0.168 -3.5e-4,-0.01 -0.002,-0.017 -0.002,-0.025 z m 60.71876,22.8711 c -0.0663,-0.027 0.16824,0.4793 0.5332,0.8731 -0.0273,-0.051 -0.0505,-0.1037 -0.0781,-0.1543 -0.27664,-0.5062 -0.41653,-0.7029 -0.45507,-0.7188 z m -9.24415,11.7637 c -0.009,-0.01 -0.002,0.025 0.004,0.035 0.0511,0.081 0.0878,0.1299 0.12891,0.1778 -0.0372,-0.078 -0.0727,-0.159 -0.13282,-0.2129 z" /></clipPath><clipPath
       clipPathUnits="userSpaceOnUse"
       id="clipPath130"><path
         id="path131"
         style="fill:#ff0000;fill-opacity:1;fill-rule:nonzero;stroke:none"
         d="m 478.45508,1071.6816 v 340.5821 h 206.58008 v -340.5821 h -60.50977 c 0.0698,1.0565 0.11474,2.1159 0.16016,3.168 0.12238,3.4789 0.16337,6.9589 0.20117,10.4395 -0.0174,1.2963 0.0301,2.5909 0.0898,3.8847 0.0649,0.3691 0.17816,0.8422 0.15039,0.8516 -0.0397,0.013 -0.0702,0.024 -0.10937,0.037 0.0153,0.2995 0.0272,0.5989 0.043,0.8984 0.14096,1.6698 0.42424,3.3248 0.625,4.9883 0.26904,2.1479 0.32916,4.3111 0.38086,6.4727 0.0418,1.1967 0.0976,2.3937 0.15234,3.5898 0.42631,9.3167 -8.58221,10.0601 -9.67187,1.4922 -1.46367,0.842 -3.31926,0.648 -4.84571,-0.7324 -0.25106,1.6724 -0.5369,2.6176 -2.85742,4.0293 -0.82465,0.5017 -1.867,0.535 -2.82813,0.625 -1.46572,0.1367 -3.15516,-0.6816 -4.42578,-1.3086 -1.9695,-1.1502 -3.53863,-2.7896 -4.60937,-4.8027 -0.20639,-0.388 -0.37534,-0.7958 -0.5625,-1.1934 -0.81783,-1.908 -1.22089,-3.9403 -1.48242,-5.9883 -0.13341,-1.7468 -0.26847,-3.491 -0.49805,-5.2285 -0.23248,-1.7382 -0.66387,-3.4388 -1.13477,-5.125 -0.42829,-1.3653 -0.79665,-2.7575 -1.35351,-4.0781 -0.45545,-1.086 -0.95794,-2.1443 -1.3457,-3.2578 -0.55331,-1.821 -0.70277,-3.7055 -0.66407,-5.5977 0.0348,-1.0618 0.15289,-2.1146 0.30664,-3.1641 z" /></clipPath></defs><sodipodi:namedview
     id="namedview1"
     pagecolor="#505050"
     bordercolor="#eeeeee"
     borderopacity="1"
     inkscape:showpageshadow="0"
     inkscape:pageopacity="0"
     inkscape:pagecheckerboard="0"
     inkscape:deskcolor="#505050"
     inkscape:zoom="0.28867165"
     inkscape:cx="774.23606"
     inkscape:cy="845.251"
     inkscape:window-width="1360"
     inkscape:window-height="697"
     inkscape:window-x="-8"
     inkscape:window-y="-8"
     inkscape:window-maximized="1"
     inkscape:current-layer="svg1" /><path
     d="m 883.37178,65.553313 c 7.2261,0 47.1537,1.84878 62.9478,3.03159 15.8339,1.461126 47.601,5.228256 63.43492,7.514376 15.7245,2.55449 46.8455,8.4487 62.252,11.79836 21.1913,4.98971 45.4639,12.176071 60.4728,16.986861 14.9691,5.0891 44.798,16.10223 59.6578,22.0362 14.7802,6.19241 43.8338,19.27298 58.1072,26.15122 14.0944,7.09691 41.7962,21.90699 55.1749,30.1072 13.2993,8.38906 39.5897,25.96236 52.5709,35.1466 12.8718,9.44266 38.198,29.05359 50.5331,39.12246 12.1165,10.24777 35.6734,31.26019 47.114,42.02483 6.918,6.66951 32.433,34.19239 42.8597,46.08021 10.2478,12.11644 30.2166,37.0252 39.9276,49.77777 9.4427,12.87185 27.5428,38.94355 36.2002,52.13346 12.9017,20.46574 20.1377,32.97975 31.3994,54.38976 7.0969,14.09442 20.6247,42.81007 27.0457,57.42135 6.2024,14.78026 17.7821,44.53956 23.1495,59.46892 5.0891,14.96911 16.1619,50.83136 18.4778,60.15475 3.5981,15.28718 10.0192,46.19949 12.842,61.81468 2.5545,15.72452 6.8683,47.46182 8.6078,63.3255 1.4611,15.83386 3.5484,47.38231 4.1647,63.10683 0.3976,15.67483 -0.6163,47.07418 -1.5208,62.83847 -1.1828,15.7941 -4.3834,47.4916 -6.4111,63.3951 -2.2861,15.83379 -7.6634,47.17359 -10.7348,62.67939 -3.3497,15.3965 -9.2637,40.017 -15.5257,60.8704 -4.8108,14.9989 -15.2673,44.9074 -20.913,59.7969 -5.934,14.8598 -18.5574,44.2613 -25.207,58.7036 -6.8782,14.2634 -25.2368,49.7678 -28.8548,56.0298 -3.618,6.262 -25.1771,39.9176 -34.093,53.0082 -9.1842,12.9712 -28.3379,38.6056 -38.2378,51.1693 -10.0689,12.345 -30.7434,36.3493 -41.3291,48.0184 -14.9293,15.8538 -33.2879,33.278 -44.957,43.8737 -11.8878,10.4167 -36.3394,30.7433 -48.913,40.6432 -12.7526,9.7011 -38.6056,28.328 -51.6961,37.2538 -13.1999,8.6574 -39.8779,25.2368 -53.6642,32.7313 -13.9155,7.3255 -42.2833,21.3006 -56.7256,27.9503 -14.6113,6.421 -44.2513,18.5473 -59.1508,24.203 -14.9294,5.3674 -44.9074,15.2574 -59.9461,19.7799 -9.2339,2.6638 -45.8317,11.0032 -61.3375,14.0845 -15.6152,2.8129 -47.17362,7.6635 -63.07702,9.6912 -15.8637,1.7394 -47.4917,4.3833 -63.246,5.2779 -24.1733,0.9542 -38.6355,0.9542 -62.8087,0 -15.7543,-0.8946 -47.3823,-3.5385 -63.246,-5.2779 -15.9034,-2.0277 -47.4618,-6.8783 -63.077,-9.6912 -15.5058,-3.0813 -52.1036,-11.4207 -61.3276,-14.0845 -15.0486,-4.5225 -45.0167,-14.4125 -59.956,-19.7799 -14.8896,-5.6557 -44.5395,-17.782 -59.1508,-24.203 -14.4423,-6.6497 -42.8002,-20.6248 -56.7256,-27.9503 -13.7863,-7.4945 -40.4643,-24.0739 -53.6642,-32.7313 -13.0905,-8.9258 -38.9336,-27.5527 -51.6961,-37.2538 -12.5637,-9.8999 -37.0252,-30.2265 -48.913,-40.6432 -11.6691,-10.5957 -30.0277,-28.0199 -44.9471,-43.8737 -10.5957,-11.6691 -31.2602,-35.6734 -41.339,-48.0184 -9.8999,-12.5637 -29.0536,-38.1981 -38.2279,-51.1693 -8.9258,-13.0906 -30.4849,-46.7462 -34.1029,-53.0082 -3.6081,-6.262 -21.9766,-41.7664 -28.8548,-56.0298 -6.6496,-14.4423 -19.273,-43.8438 -25.207,-58.7036 -5.6457,-14.8895 -16.1022,-44.798 -20.903,-59.7969 -6.271999,-20.8534 -12.186099,-45.4739 -15.525799,-60.8704 -3.0813,-15.5058 -8.4487,-46.8456 -10.7447,-62.67939 -2.0277,-15.9035 -5.2283,-47.601 -6.4111,-63.3951 -0.8946,-15.76429 -1.9184,-47.16364 -1.5108,-62.83847 0.6162,-15.72452 2.6936,-47.27297 4.1547,-63.10683 1.7395,-15.86368 6.0632,-47.60098 8.6177,-63.3255 2.8129,-15.61519 9.2339,-46.5275 12.8321,-61.81468 2.3159,-9.32339 13.388699,-45.18564 18.477799,-60.15475 5.3674,-14.92936 16.9471,-44.68866 23.1494,-59.46892 6.4211,-14.61128 19.9489,-43.32693 27.0458,-57.42135 11.2716,-21.41001 18.4977,-33.92402 31.3994,-54.38976 8.6574,-13.18991 26.7575,-39.26161 36.2002,-52.13346 9.711,-12.75257 29.6897,-37.66133 39.9375,-49.77777 10.4167,-11.88782 35.9318,-39.4107 42.8598,-46.08021 11.4306,-10.76464 34.9875,-31.77706 47.104,-42.02483 12.345,-10.06887 37.6712,-29.6798 50.5431,-39.12246 12.9712,-9.18424 39.2616,-26.75754 52.5608,-35.1466 13.3788,-8.20021 41.0905,-23.01029 55.185,-30.1072 14.2634,-6.87824 43.317,-19.95881 58.1072,-26.15122 14.8597,-5.93397 44.6886,-16.9471 59.6577,-22.0362 14.999,-4.81079 39.2716,-11.997151 60.4729,-16.986861 15.3965,-3.34966 46.5175,-9.24387 62.242,-11.79836 15.8339,-2.28612 47.601,-6.05325 63.4349,-7.514376 15.7941,-1.18281 55.7216,-3.03159 62.9577,-3.03159 z"
     fill="none"
     stroke="#000000"
     stroke-width="12.6631"
     stroke-opacity="1"
     stroke-linejoin="round"
     id="path6"
     style="display:inline"
     inkscape:label="Circle" /><path
     style="fill:#000000;fill-opacity:1;stroke:#000000;stroke-width:1.5;stroke-linecap:round;stroke-linejoin:bevel;stroke-dasharray:none"
     d="m 1063.5642,527.27151 c -4.4023,0.72168 -15.6608,1.29904 -35.4356,-3.3199 -19.7747,-4.61895 -48.06469,-14.43385 -70.14876,-22.94994 -22.08407,-8.51609 -37.96108,-15.73291 -50.23001,-21.21784 -12.26893,-5.48493 -20.92911,-9.23768 -28.86785,-10.68106 -7.93873,-1.44339 -15.15555,-0.57737 -22.66128,3.31986 -7.50572,3.89723 -15.29989,10.82537 -19.91876,17.75373 -4.61887,6.92836 -6.06224,13.85651 -5.91788,19.84664 0.14436,5.99013 1.8764,11.04191 5.41277,16.6712 3.53636,5.6293 8.87681,11.83576 18.48236,18.86446 9.60556,7.02869 23.47556,14.87918 44.49572,25.03048 21.02015,10.15131 49.18906,22.60279 75.81307,36.21485 26.62402,13.61206 51.70152,28.38384 71.09672,40.67751 19.3953,12.29368 33.1073,22.10857 45.6649,28.89256 12.5577,6.78398 23.9602,10.5367 33.8476,12.55746 9.8873,2.02076 18.2588,2.30943 28.3627,0.866 10.1039,-1.44342 21.9394,-4.6188 36.0341,-8.42066 14.0947,-3.80185 30.4476,-8.22992 43.6255,-11.0564 13.1778,-2.82647 23.1798,-4.05121 37.0606,-4.45946 13.8808,-0.40825 31.6394,0 44.3974,0.61239 12.758,0.61238 20.5146,1.42887 27.614,0.73138 7.0994,-0.69749 13.5411,-2.90891 20.3706,-6.03542 6.8294,-3.12652 14.0462,-7.16793 23.9336,-20.73606 9.8874,-13.56814 22.4447,-36.66193 34.8033,-62.11346 12.3586,-25.45153 24.5179,-53.2592 32.1286,-71.65417 7.6108,-18.39497 10.6726,-27.37638 11.8098,-33.75199 1.1372,-6.37561 0.3498,-10.14511 -1.0183,-13.22073 -1.3681,-3.07561 -3.3166,-5.45713 -9.3529,-5.91979 -6.0364,-0.46266 -16.1601,0.99356 -30.8162,4.12022 -14.6561,3.12665 -33.8437,7.92355 -54.3586,12.51645 -20.515,4.59289 -42.3561,8.98153 -61.5952,12.2986 -19.2391,3.31708 -35.875,5.56242 -52.4095,5.61807 -16.5345,0.0556 -32.9665,-2.07838 -52.2248,-6.53745 -19.2583,-4.45907 -41.3418,-11.24289 -64.8165,-19.87198 -23.4748,-8.62908 -48.3394,-19.10289 -72.9495,-30.00062 -24.6101,-10.89773 -48.9642,-22.21872 -67.1317,-30.54967 -18.16751,-8.33094 -30.14743,-13.67138 -39.74607,-17.71291 -9.59864,-4.04153 -16.81546,-6.78392 -23.5273,-7.72212 -6.71184,-0.9382 -12.9183,-0.0722 -21.21791,1.51558 -8.29962,1.58775 -18.69184,3.89713 -35.72412,7.21698 -17.03227,3.31985 -40.70345,7.64994 -62.64323,11.25845 -21.93977,3.60851 -42.14687,6.49524 -54.70444,7.93864 -12.55757,1.44339 -17.46501,1.44339 -35.1596,11.35884 -17.69459,9.91545 -48.17502,29.74556 -73.62207,46.60125 -25.44705,16.8557 -45.8593,30.73603 -57.49455,40.33003 -11.63525,9.59401 -14.49296,14.90119 -15.61565,20.20853 -1.12269,5.30735 -0.51032,10.61454 1.22478,15.30949 1.73511,4.69495 4.59282,8.7774 8.26715,11.94138 3.67432,3.16399 8.16501,5.40934 12.85998,7.14443 4.69496,1.73509 9.5939,2.95982 16.53429,2.95981 6.9404,-10e-6 15.92179,-1.22475 23.88279,-2.85778 7.96101,-1.63304 14.90118,-3.67426 29.39439,-9.79816 14.49321,-6.12391 36.53844,-16.33003 51.0315,-23.27037 14.49306,-6.94034 21.43322,-10.61454 25.26061,-12.60478 3.82738,-1.99024 4.5418,-2.29642 13.72768,-1.99022 9.18587,0.3062 26.84247,1.22475 35.77301,1.17371 8.93054,-0.051 9.13466,-1.07166 9.44086,-4.23568 0.30619,-3.16401 0.71444,-8.4712 2.75574,-15.30952 2.0413,-6.83833 5.71551,-15.20735 10.34542,-21.34381 4.6299,-6.13646 10.21521,-10.04003 16.50822,-13.54353 6.29301,-3.50351 13.29333,-6.60674 20.07734,-8.15838 6.78401,-1.55165 13.35132,-1.55165 20.24359,-0.75777 6.89228,0.79388 14.1091,2.38158 29.9145,8.37176 15.8054,5.99019 40.19825,16.38241 61.30806,25.94498 21.1098,9.56257 38.93533,18.29492 54.27153,25.40369 15.3362,7.10878 28.1821,12.59355 35.8321,15.76902 7.65,3.17547 10.1038,4.04151 5.7014,4.7632 z"
     id="path136"
     inkscape:original-d="m 1070.4203,527.41584 c -11.2584,0.57735 -22.5169,1.15471 -33.7754,1.73207 -28.291,-9.81527 -56.58099,-19.63015 -84.87149,-29.44522 -15.87764,-7.21711 -31.75465,-14.43393 -47.63198,-21.6509 -8.66053,-3.75289 -17.32071,-7.50564 -25.98107,-11.25846 -7.21711,0.86605 -14.43393,1.73207 -21.6509,2.5981 -7.79448,6.92843 -15.58864,13.85658 -23.38297,20.78486 -1.44342,6.92843 -2.88678,13.85658 -4.33018,20.78487 1.73211,5.05197 3.46415,10.10375 5.19622,15.15562 5.34066,6.20672 10.68111,12.41318 16.02166,18.61977 13.87056,7.8508 27.74056,15.70129 41.61084,23.55193 28.17003,12.45197 56.33894,24.90345 84.50841,37.35517 25.07856,14.77238 50.15606,29.54417 75.23406,44.31626 13.7125,9.81527 27.4245,19.63015 41.1367,29.44522 11.4031,3.7529 22.8056,7.50564 34.2085,11.25847 8.3718,0.28868 16.7433,0.57735 25.115,0.86603 11.8361,-3.17553 23.6716,-6.35093 35.5075,-9.52639 16.3535,-4.42825 32.7064,-8.85631 49.0597,-13.28447 10.0024,-1.22478 20.0044,-2.44952 30.0066,-3.67428 17.7594,0.40826 35.518,0.81651 53.277,1.22476 7.757,0.81652 15.5136,1.63301 23.2705,2.44952 6.4419,-2.2115 12.8836,-4.4229 19.3254,-6.63436 7.2171,-4.04158 14.4339,-8.083 21.6509,-12.1245 12.5578,-23.09475 25.115,-46.18858 37.6726,-69.28287 12.1597,-27.80876 24.319,-55.61641 36.4785,-83.42462 3.0619,-8.98175 6.1238,-17.96314 9.1857,-26.94471 -0.7875,-3.76965 -1.575,-7.53914 -2.3624,-11.30871 -1.9487,-2.38164 -3.8972,-4.76319 -5.8458,-7.14479 -10.1241,1.45628 -20.2478,2.91251 -30.3718,4.36876 -19.1882,4.79707 -38.3758,9.59395 -57.5637,14.39093 -21.842,4.38881 -43.6831,8.77744 -65.5246,13.16616 -16.6367,2.24544 -33.2726,4.49079 -49.909,6.73618 -16.4326,-2.13411 -32.8646,-4.26813 -49.2969,-6.4022 -22.0843,-6.78408 -44.1678,-13.56789 -66.2517,-20.35184 -24.8656,-10.47422 -49.7302,-20.94803 -74.5953,-31.42204 -24.3551,-11.32145 -48.7092,-22.64244 -73.06381,-33.96367 -11.9804,-5.34066 -23.96032,-10.6811 -35.94049,-16.02166 -7.21711,-2.7425 -14.43393,-5.48489 -21.65089,-8.22734 -6.20672,0.86605 -12.41318,1.73207 -18.61977,2.59811 -10.39264,2.30947 -20.78486,4.61886 -31.17729,6.92828 -23.67212,4.33027 -47.3433,8.66036 -71.01494,12.99054 -20.20791,2.88685 -40.41501,5.77357 -60.62251,8.66036 -4.90764,0 -9.81508,0 -14.72261,0 -30.48165,19.8309 -60.96208,39.66101 -91.44311,59.49151 -20.41307,13.88089 -40.82532,27.76122 -61.23799,41.64183 -2.85783,5.3074 -5.71554,10.61458 -8.57331,15.92187 0.61239,5.3074 1.22476,10.61459 1.83714,15.92188 2.85783,4.08261 5.71554,8.16506 8.57331,12.24759 4.49088,2.24544 8.98157,4.49079 13.47236,6.73618 4.89914,1.22479 9.79808,2.44952 14.69712,3.67428 8.98175,-1.22478 17.96314,-2.44952 26.94471,-3.67428 6.94044,-2.0413 13.88061,-4.08253 20.82091,-6.1238 22.04612,-10.20653 44.09135,-20.41266 66.13702,-30.61899 6.94045,-3.67435 13.88061,-7.34855 20.82092,-11.02283 0.71446,-0.3062 1.42888,-0.61238 2.14333,-0.91857 17.6573,0.91858 35.3139,1.83714 52.97085,2.75571 0.20413,-1.02066 0.40826,-2.04127 0.61238,-3.0619 0.40826,-5.3074 0.81651,-10.61459 1.22476,-15.92188 3.67435,-8.36936 7.34856,-16.73838 11.02284,-25.10757 5.58553,-3.90373 11.17084,-7.8073 16.75626,-11.71095 7.0006,-3.10336 14.00092,-6.20659 21.00137,-9.30988 6.56757,0 13.13488,0 19.70232,0 7.21711,1.58776 14.43393,3.17546 21.6509,4.76319 24.39383,10.39264 48.78668,20.78486 73.18003,31.17729 17.82626,8.73271 35.65179,17.46506 53.47769,26.19759 12.8465,5.485 25.6924,10.96979 38.5386,16.45468 2.4538,0.86605 4.9076,1.73207 7.3613,2.59811 z"
     inkscape:path-effect="#path-effect136"
     transform="matrix(0.99650681,0.18561554,-0.16782575,1.1021381,164.7959,-151.15191)" /><path
     id="path15"
     style="display:inline;opacity:1;fill:#000000;stroke:#000000;stroke-width:1.59413;stroke-linecap:round;stroke-linejoin:bevel"
     d="m 725.55313,617.92595 c -1.8283,-0.16397 -3.86522,-0.13427 -6.13429,0.0939 -18.1525,1.82503 -51.15654,16.42515 -81.27347,26.46362 -30.11694,10.03848 -57.34509,15.51447 -80.03596,29.65944 -13.03194,8.12382 -24.29071,19.06665 -33.54718,29.88428 -7.21227,0.0199 -14.26735,0.13433 -20.90948,0.45842 -42.0813,2.05325 -70.96015,10.26672 -98.39543,32.85306 -27.43528,22.58633 -53.42669,59.54481 -81.06821,109.96497 -27.64153,50.42018 -56.9311,114.29904 -75.49642,154.90926 -18.56534,40.6103 -26.40347,57.95 -16.5022,84.643 9.90127,26.693 37.54197,62.7391 67.24631,99.2425 29.70433,36.5034 61.47066,73.4622 103.75799,104.4901 42.28734,31.028 95.09191,56.1217 132.60378,62.5605 37.51189,6.4389 59.72687,-5.7797 74.04378,-14.309 14.3169,-8.5293 20.73599,-13.3683 26.86221,-16.7562 6.12622,-3.3878 11.9601,-5.3234 17.50287,-6.4527 5.54277,-1.1293 10.79385,-1.4515 16.48246,0.323 5.68861,1.7747 11.81515,5.6467 16.70154,10.083 4.88639,4.4364 8.53106,9.4355 15.02192,13.3879 6.49085,3.9525 15.82707,6.8564 29.17343,8.3082 13.34634,1.452 30.70305,1.454 44.19533,-0.1593 13.49229,-1.6132 23.11872,-4.841 29.78923,-8.8278 6.67049,-3.9867 10.3847,-8.7333 14.09821,-10.6505 3.71352,-1.9172 7.42698,-1.0038 15.88443,-3.7415 8.45745,-2.7377 21.65887,-9.127 33.82941,-16.1995 12.17055,-7.0726 23.30953,-14.8288 30.52935,-21.9014 7.21991,-7.0725 10.51862,-13.4614 12.37518,-18.4806 1.85656,-5.0193 2.27008,-8.6677 7.42706,-14.1432 5.15699,-5.4755 15.05766,-12.7768 20.21475,-19.8494 5.15709,-7.0725 5.56989,-13.916 4.74479,-23.2699 -0.82511,-9.354 -2.88853,-21.2172 -10.31459,-45.4006 -7.42605,-24.1833 -20.21393,-60.686 -25.57727,-88.9761 -5.36344,-28.2902 -3.30144,-48.3671 -0.20726,-64.3374 3.09417,-15.97032 7.2196,-27.83402 8.45731,-39.92572 1.23771,-12.0918 -0.4117,-24.41065 -7.01254,-41.06529 -6.60095,-16.65464 -18.15342,-37.6432 -40.01901,-65.02068 -21.86559,-27.37748 -54.04482,-61.14251 -72.81612,-80.53475 -0.98664,-1.01928 -1.61151,-1.61135 -2.52832,-2.55403 20.76581,-9.40242 40.549,-20.79622 56.36721,-35.54678 21.04064,-19.62052 35.06613,-45.17084 40.4295,-64.79148 5.36332,-19.62063 2.06412,-33.30876 -10.72515,-36.50291 -12.78927,-3.19416 -35.06721,4.10517 -63.12126,10.94956 -24.50843,5.97936 -53.42081,11.61388 -78.21817,22.37283 1.52802,-11.7961 2.08128,-22.87628 1.89477,-31.95369 -0.36097,-17.56734 -2.93237,-28.14918 -15.73049,-29.29708 z m 83.3597,226.53987 c 2.3931,0.67503 8.0494,5.14847 17.97656,14.70202 15.88346,15.28566 42.69926,43.57414 56.72643,62.05408 14.02715,18.47994 15.26486,27.1496 13.61465,39.92576 -1.65019,12.7761 -6.1892,29.6594 -8.66459,46.08602 -2.47537,16.4265 -2.88768,32.3947 -1.65002,48.3649 1.23767,15.9702 4.1251,31.9401 9.13036,49.9781 5.0053,18.038 12.1288,38.145 18.02399,52.3924 5.89519,14.2475 10.56176,22.6354 12.45804,29.7337 1.89628,7.0983 1.02115,12.9064 -2.91713,21.7791 -3.93827,8.8728 -10.93839,20.8105 -15.46005,26.2955 -4.52176,5.4851 -6.56416,4.5164 -9.18965,2.7417 -2.62548,-1.7745 -5.83456,-4.3566 -9.04354,-5.6472 -3.20897,-1.2905 -6.41783,-1.2907 -8.89749,-1.7747 -2.47966,-0.4839 -4.23002,-1.4507 -4.52177,-4.0318 -0.29175,-2.5812 0.87512,-6.7764 1.45857,-10.4868 0.58345,-3.7104 0.58306,-6.936 -0.29211,-10.8077 -0.87516,-3.8717 -2.62436,-8.3888 -5.10402,-6.6143 -2.47965,1.7745 -5.68914,9.8405 -7.87708,16.2934 -2.18794,6.453 -3.35519,11.2926 -0.2921,16.4549 3.06307,5.1624 10.35704,10.6478 15.6081,15.1648 5.25106,4.5171 8.45877,8.066 8.99618,12.7243 0.53741,4.6583 -1.59665,10.4253 -9.2646,15.5904 -7.66796,5.1652 -20.86852,9.7276 -32.00767,14.975 -11.13916,5.2473 -20.21593,11.1804 -34.03665,15.287 -13.82072,4.1066 -32.38584,6.3863 -45.38155,4.7893 -12.9957,-1.5969 -20.42117,-7.0706 -26.60957,-14.5994 -6.18841,-7.5288 -11.13867,-17.1118 -18.56473,-17.5682 -7.42605,-0.4563 -17.32604,8.2126 -25.98982,13.46 -8.66379,5.2474 -16.09143,7.073 -25.37404,4.3353 -9.2826,-2.7377 -20.41999,-10.0373 -27.63985,-8.6685 -7.21984,1.3688 -10.52025,11.4049 -15.26468,17.793 -4.74444,6.3882 -10.93222,9.1272 -19.80224,6.8457 -8.87003,-2.2814 -20.4231,-9.5814 -26.61154,-22.8138 -6.18845,-13.2324 -7.01298,-32.397 -3.71256,-46.9984 3.30043,-14.6013 10.72748,-24.6387 23.10426,-32.6238 12.37679,-7.9851 29.70241,-13.9178 44.14205,-18.0245 14.43965,-4.1066 25.992,-6.3873 39.60647,-5.4747 13.61446,0.9125 29.2898,5.0186 44.55455,4.5622 15.26474,-0.4562 30.11758,-5.4754 39.19396,-17.3389 9.07638,-11.8635 12.37645,-30.5706 17.73972,-39.6965 5.36325,-9.1259 12.78965,-8.6692 20.00948,-11.6351 7.21981,-2.9658 14.23215,-9.3537 15.88244,-19.1639 1.65031,-9.8102 -2.06248,-23.0429 -2.06252,-31.4843 -4e-5,-8.4415 3.71231,-12.0914 5.36257,-19.6202 1.65027,-7.5288 1.23868,-18.9368 -0.20527,-27.8345 -1.44395,-8.8977 -3.91859,-15.2848 -5.36257,-23.7262 -1.44397,-8.44142 -1.85756,-18.93542 0.61777,-30.79902 2.47534,-11.86355 7.83837,-25.09616 9.28237,-40.38194 1.444,-15.28578 -1.03056,-32.62507 -6.60009,-47.91089 -5.56953,-15.28582 -14.2331,-28.51696 -16.0897,-33.99255 -0.69622,-2.05334 -0.43519,-3.0158 1.00068,-2.61078 z m -24.32204,180.04788 c 0.18955,-0.017 0.39754,0 0.62961,0.059 1.85654,0.4563 5.15744,3.4211 7.94221,7.7559 2.78478,4.3348 5.05446,10.0389 6.7047,16.7693 1.65024,6.7303 2.6806,14.486 0.61777,22.0148 -2.06283,7.5288 -7.21816,14.8306 -12.37517,20.6483 -5.15701,5.8177 -10.31408,10.153 -14.43967,13.2329 -4.1256,3.08 -7.22068,4.905 -11.862,1.8249 -4.64132,-3.08 -10.82842,-11.0657 -17.11997,-19.8493 -6.29155,-8.7836 -12.68752,-18.3647 -16.60681,-24.6387 -3.91929,-6.274 -5.36157,-9.2401 -5.56784,-11.0653 -0.20626,-1.8251 0.82364,-2.5094 3.91781,-5.3612 3.09419,-2.8518 8.25081,-7.8723 14.12981,-11.2945 5.87899,-3.4222 12.48084,-5.2462 15.88443,-5.1321 3.40359,0.1141 3.60953,2.1667 2.88754,5.4748 -0.72199,3.3081 -2.37174,7.8711 -3.71256,11.9777 -1.34081,4.1067 -2.37241,7.757 -2.3724,11.9778 10e-6,4.2207 1.03209,9.0113 2.26977,11.635 1.23768,2.6236 2.6799,3.0801 5.56784,2.6238 2.88794,-0.4563 7.22093,-1.8251 10.21198,-3.9925 2.99105,-2.1674 4.6415,-5.1344 5.98232,-8.6706 1.34082,-3.5363 2.37082,-7.6425 3.0928,-11.635 0.72198,-3.9926 1.13535,-7.8701 1.44476,-11.2923 0.30942,-3.4222 0.51559,-6.388 0.82501,-8.8976 0.27074,-2.1959 0.62113,-4.0434 1.94806,-4.165 z" /><path
     id="path49"
     style="fill:#000000;fill-opacity:1;stroke:#000000;stroke-width:1.5;stroke-linecap:round;stroke-linejoin:bevel"
     transform="matrix(-0.56008133,-0.11066722,-0.09334864,0.66399087,1832.1969,451.18835)"
     inkscape:path-effect="#path-effect53"
     inkscape:original-d="m 1227.2092,1090.0361 c -43.2749,-44.0914 -86.5497,-88.1827 -129.8245,-132.27405 -11.4314,-28.5783 -22.8622,-57.15545 -34.2933,-85.73318 11.4313,-14.6974 22.8622,-29.39423 34.2933,-44.09134 21.2295,-2.44957 42.4583,-4.89904 63.6875,-7.34856 22.8626,8.16523 45.7243,16.33013 68.5865,24.49519 4.8991,15.51394 9.7981,31.02725 14.6971,46.54087 m -16.1413,197.68167 c 49.9348,-36.377 99.8695,-72.7539 149.8042,-109.13088 15.9742,-26.3101 31.9476,-52.61917 47.9214,-78.92876 -8.8595,-16.37675 -17.7187,-32.75287 -26.578,-49.12929 -20.5379,-5.90642 -41.0752,-11.81261 -61.6128,-17.71893 -23.8939,4.29548 -47.7869,8.59077 -71.6804,12.88614 -7.3829,14.49743 -14.7657,28.99425 -22.1485,43.49138"
     d="m 1227.2092,1090.0361 c -43.2749,-44.0914 -86.5497,-88.1827 -113.9028,-124.51755 -27.353,-36.33482 -38.7839,-64.91195 -38.7838,-86.54951 10e-5,-21.63756 11.431,-36.3344 27.7613,-44.90773 16.3303,-8.57334 37.5591,-11.02282 59.605,-8.16497 22.0459,2.85785 44.9076,11.02275 58.7883,22.86225 13.8806,11.8395 18.7796,27.35283 23.6786,42.86644 m -16.1413,197.68167 c 49.9348,-36.377 99.8695,-72.7539 132.8239,-104.09747 32.9544,-31.34355 48.9279,-57.65258 52.485,-78.99575 3.5572,-21.34317 -5.302,-37.7193 -20.0006,-48.8607 -14.6986,-11.14141 -35.2359,-17.04763 -57.4517,-17.85306 -22.2157,-0.80542 -46.1087,3.48987 -61.7469,12.88626 -15.6383,9.39639 -23.021,23.89326 -30.4038,38.39038" /></svg>
