<?xml version="1.0" encoding="UTF-8" standalone="no"?>
<svg
   width="2000.00"
   height="2000.00"
   viewBox="0.00 0.00 2000.00 2000.00"
   version="1.1"
   id="svg48"
   sodipodi:docname="PuuurAmorLogoOriginal.svg"
   inkscape:version="1.4 (86a8ad7, 2024-10-11)"
   xmlns:inkscape="http://www.inkscape.org/namespaces/inkscape"
   xmlns:sodipodi="http://sodipodi.sourceforge.net/DTD/sodipodi-0.dtd"
   xmlns="http://www.w3.org/2000/svg"
   xmlns:svg="http://www.w3.org/2000/svg">
  <defs
     id="defs48">
    <rect
       x="848.60558"
       y="629.48207"
       width="577.68924"
       height="215.13944"
       id="rect1" />
  </defs>
  <sodipodi:namedview
     id="namedview48"
     pagecolor="#ffffff"
     bordercolor="#000000"
     borderopacity="0.25"
     inkscape:showpageshadow="2"
     inkscape:pageopacity="0.0"
     inkscape:pagecheckerboard="0"
     inkscape:deskcolor="#d1d1d1"
     inkscape:zoom="0.251"
     inkscape:cx="1013.9442"
     inkscape:cy="1143.4263"
     inkscape:window-width="1360"
     inkscape:window-height="697"
     inkscape:window-x="-8"
     inkscape:window-y="-8"
     inkscape:window-maximized="1"
     inkscape:current-layer="Layer_1" />
  <g
     stroke-linecap="round"
     id="Layer_1">
    <path
       d="M987.09,164.63 C994.36,164.63 1034.53,166.49 1050.42,167.68 C1066.35,169.15 1098.31,172.94 1114.24,175.24 C1130.06,177.81 1161.37,183.74 1176.87,187.11 C1198.19,192.13 1222.61,199.36 1237.71,204.20 C1252.77,209.32 1282.78,220.40 1297.73,226.37 C1312.60,232.60 1341.83,245.76 1356.19,252.68 C1370.37,259.82 1398.24,274.72 1411.70,282.97 C1425.08,291.41 1451.53,309.09 1464.59,318.33 C1477.54,327.83 1503.02,347.56 1515.43,357.69 C1527.62,368.00 1551.32,389.14 1562.83,399.97 C1569.79,406.68 1595.46,434.37 1605.95,446.33 C1616.26,458.52 1636.35,483.58 1646.12,496.41 C1655.62,509.36 1673.83,535.59 1682.54,548.86 C1695.52,569.45 1702.80,582.04 1714.13,603.58 C1721.27,617.76 1734.88,646.65 1741.34,661.35 C1747.58,676.22 1759.23,706.16 1764.63,721.18 C1769.75,736.24 1780.89,772.32 1783.22,781.70 C1786.84,797.08 1793.30,828.18 1796.14,843.89 C1798.71,859.71 1803.05,891.64 1804.80,907.60 C1806.27,923.53 1808.37,955.27 1808.99,971.09 C1809.39,986.86 1808.37,1018.45 1807.46,1034.31 C1806.27,1050.20 1803.05,1082.09 1801.01,1098.09 C1798.71,1114.02 1793.30,1145.55 1790.21,1161.15 C1786.84,1176.64 1780.89,1201.41 1774.59,1222.39 C1769.75,1237.48 1759.23,1267.57 1753.55,1282.55 C1747.58,1297.50 1734.88,1327.08 1728.19,1341.61 C1721.27,1355.96 1702.80,1391.68 1699.16,1397.98 C1695.52,1404.28 1673.83,1438.14 1664.86,1451.31 C1655.62,1464.36 1636.35,1490.15 1626.39,1502.79 C1616.26,1515.21 1595.46,1539.36 1584.81,1551.10 C1569.79,1567.05 1551.32,1584.58 1539.58,1595.24 C1527.62,1605.72 1503.02,1626.17 1490.37,1636.13 C1477.54,1645.89 1451.53,1664.63 1438.36,1673.61 C1425.08,1682.32 1398.24,1699.00 1384.37,1706.54 C1370.37,1713.91 1341.83,1727.97 1327.30,1734.66 C1312.60,1741.12 1282.78,1753.32 1267.79,1759.01 C1252.77,1764.41 1222.61,1774.36 1207.48,1778.91 C1198.19,1781.59 1161.37,1789.98 1145.77,1793.08 C1130.06,1795.91 1098.31,1800.79 1082.31,1802.83 C1066.35,1804.58 1034.53,1807.24 1018.68,1808.14 C994.36,1809.10 979.81,1809.10 955.49,1808.14 C939.64,1807.24 907.82,1804.58 891.86,1802.83 C875.86,1800.79 844.11,1795.91 828.40,1793.08 C812.80,1789.98 775.98,1781.59 766.70,1778.91 C751.56,1774.36 721.41,1764.41 706.38,1759.01 C691.40,1753.32 661.57,1741.12 646.87,1734.66 C632.34,1727.97 603.81,1713.91 589.80,1706.54 C575.93,1699.00 549.09,1682.32 535.81,1673.61 C522.64,1664.63 496.64,1645.89 483.80,1636.13 C471.16,1626.17 446.55,1605.72 434.59,1595.24 C422.85,1584.58 404.38,1567.05 389.37,1551.10 C378.71,1539.36 357.92,1515.21 347.78,1502.79 C337.82,1490.15 318.55,1464.36 309.32,1451.31 C300.34,1438.14 278.65,1404.28 275.01,1397.98 C271.38,1391.68 252.90,1355.96 245.98,1341.61 C239.29,1327.08 226.59,1297.50 220.62,1282.55 C214.94,1267.57 204.42,1237.48 199.59,1222.39 C193.28,1201.41 187.33,1176.64 183.97,1161.15 C180.87,1145.55 175.47,1114.02 173.16,1098.09 C171.12,1082.09 167.90,1050.20 166.71,1034.31 C165.81,1018.45 164.78,986.86 165.19,971.09 C165.81,955.27 167.90,923.53 169.37,907.60 C171.12,891.64 175.47,859.71 178.04,843.89 C180.87,828.18 187.33,797.08 190.95,781.70 C193.28,772.32 204.42,736.24 209.54,721.18 C214.94,706.16 226.59,676.22 232.83,661.35 C239.29,646.65 252.90,617.76 260.04,603.58 C271.38,582.04 278.65,569.45 291.63,548.86 C300.34,535.59 318.55,509.36 328.05,496.41 C337.82,483.58 357.92,458.52 368.23,446.33 C378.71,434.37 404.38,406.68 411.35,399.97 C422.85,389.14 446.55,368.00 458.74,357.69 C471.16,347.56 496.64,327.83 509.59,318.33 C522.64,309.09 549.09,291.41 562.47,282.97 C575.93,274.72 603.81,259.82 617.99,252.68 C632.34,245.76 661.57,232.60 676.45,226.37 C691.40,220.40 721.41,209.32 736.47,204.20 C751.56,199.36 775.98,192.13 797.31,187.11 C812.80,183.74 844.11,177.81 859.93,175.24 C875.86,172.94 907.82,169.15 923.75,167.68 C939.64,166.49 979.81,164.63 987.09,164.63 Z"
       fill="none"
       stroke="rgb(0, 0, 0)"
       stroke-width="12.74"
       stroke-opacity="1.00"
       stroke-linejoin="round"
       id="path2" />
    <path
       d="M1189.75,861.29 Q956.39,863.48 863.58,787.13 Q770.77,710.77 812.97,644.14"
       fill="none"
       stroke="rgb(0, 0, 0)"
       stroke-width="17.57"
       stroke-opacity="1.00"
       stroke-linejoin="round"
       id="path3" />
    <path
       d="M799.27,676.81 Q848.29,536.69 1055.72,559.95 Q1263.15,583.22 1314.78,643.30"
       fill="none"
       stroke="rgb(0, 0, 0)"
       stroke-width="17.57"
       stroke-opacity="1.00"
       stroke-linejoin="round"
       id="path4" />
    <path
       d="M1316.06,644.49 Q1435.21,770.24 1263.71,838.89"
       fill="none"
       stroke="rgb(0, 0, 0)"
       stroke-width="17.57"
       stroke-opacity="1.00"
       stroke-linejoin="round"
       id="path5" />
    <path
       d="M1264.92,838.06 C1264.92,838.06 1265.66,838.00 1265.66,838.00"
       fill="none"
       stroke="rgb(0, 0, 0)"
       stroke-width="17.57"
       stroke-opacity="1.00"
       stroke-linejoin="round"
       id="path6" />
    <path
       d="M1264.92,838.06 C1265.05,838.05 1265.41,838.02 1265.29,838.03 C1264.82,838.07 1264.36,838.11 1263.89,838.15"
       fill="none"
       stroke="rgb(0, 0, 0)"
       stroke-width="17.57"
       stroke-opacity="1.00"
       stroke-linejoin="round"
       id="path7" />
    <path
       d="M1265.26,839.52 L1179.19,957.51"
       fill="none"
       stroke="rgb(0, 0, 0)"
       stroke-width="17.57"
       stroke-opacity="1.00"
       stroke-linejoin="round"
       id="path8" />
    <path
       d="M1178.60,957.56"
       fill="none"
       stroke="rgb(0, 0, 0)"
       stroke-width="17.57"
       stroke-opacity="1.00"
       stroke-linejoin="round"
       id="path9" />
    <path
       d="M1189.80,860.30"
       fill="none"
       stroke="rgb(0, 0, 0)"
       stroke-width="17.57"
       stroke-opacity="1.00"
       stroke-linejoin="round"
       id="path10" />
    <path
       d="M1188.74,861.58 L1178.48,954.49"
       fill="none"
       stroke="rgb(0, 0, 0)"
       stroke-width="17.57"
       stroke-opacity="1.00"
       stroke-linejoin="round"
       id="path11" />
    <path
       d="M1178.48,954.49"
       fill="none"
       stroke="rgb(0, 0, 0)"
       stroke-width="17.57"
       stroke-opacity="1.00"
       stroke-linejoin="round"
       id="path12" />
    <path
       d="M1247.86,833.54 C1248.21,833.31 1248.46,833.04 1248.61,832.74 C1248.75,832.45 1249.00,831.70 1249.35,830.50 C1248.83,832.02 1243.75,837.57 1242.61,838.74 C1241.32,840.06 1239.45,841.89 1238.39,842.88"
       fill="none"
       stroke="rgb(255, 255, 255)"
       stroke-width="17.57"
       stroke-opacity="1.00"
       stroke-linejoin="round"
       id="path13" />
    <path
       d="M1249.79,830.06 C1249.74,830.90 1249.16,832.55 1248.31,833.76 C1247.45,834.98 1239.96,842.22 1238.21,843.79 C1237.88,844.09 1237.43,844.49 1236.85,844.99"
       fill="none"
       stroke="rgb(255, 255, 255)"
       stroke-width="17.57"
       stroke-opacity="1.00"
       stroke-linejoin="round"
       id="path14" />
    <path
       d="M1252.35,830.13 C1250.70,832.90 1247.62,837.15 1243.66,842.06 C1242.58,843.38 1241.87,844.25 1241.53,844.65 C1240.67,845.67 1239.81,846.68 1238.95,847.69"
       fill="none"
       stroke="rgb(255, 255, 255)"
       stroke-width="17.57"
       stroke-opacity="1.00"
       stroke-linejoin="round"
       id="path15" />
    <path
       d="M1369.08,1087.41 C1368.87,1089.98 1368.58,1091.64 1367.95,1093.55 C1367.53,1094.83 1367.27,1095.64 1367.17,1096.00 C1367.08,1096.35 1366.96,1096.88 1366.82,1097.61"
       fill="none"
       stroke="rgb(255, 255, 255)"
       stroke-width="7.00"
       stroke-opacity="1.00"
       stroke-linejoin="round"
       id="path16" />
    <path
       d="M553.33,1067.31 C553.26,1069.07 553.37,1070.46 553.82,1073.31 C554.48,1077.48 554.73,1081.27 554.78,1082.32 C554.81,1082.64 554.86,1083.21 554.95,1084.02"
       fill="none"
       stroke="rgb(255, 255, 255)"
       stroke-width="7.00"
       stroke-opacity="1.00"
       stroke-linejoin="round"
       id="path17" />
    <path
       d="M551.73,1068.10 C551.68,1069.47 553.40,1076.60 553.47,1077.29 C553.75,1080.09 553.51,1086.61 553.50,1087.64 C553.49,1088.04 553.51,1088.61 553.53,1089.34"
       fill="none"
       stroke="rgb(255, 255, 255)"
       stroke-width="7.00"
       stroke-opacity="1.00"
       stroke-linejoin="round"
       id="path18" />
    <path
       d="M550.17,1068.26 C550.11,1068.76 550.10,1069.17 550.14,1069.49 C550.27,1070.64 552.37,1079.08 552.63,1081.96 C552.72,1083.09 552.78,1083.72 552.78,1083.84 C552.79,1084.10 552.80,1084.54 552.80,1085.14"
       fill="none"
       stroke="rgb(255, 255, 255)"
       stroke-width="7.00"
       stroke-opacity="1.00"
       stroke-linejoin="round"
       id="path19" />
    <path
       d="M552.09,1070.91 C552.10,1075.40 552.15,1077.92 552.33,1082.21 C552.51,1088.44 551.43,1092.58 550.90,1094.02 C550.76,1094.38 550.56,1094.82 550.30,1095.35"
       fill="none"
       stroke="rgb(255, 255, 255)"
       stroke-width="7.00"
       stroke-opacity="1.00"
       stroke-linejoin="round"
       id="path20" />
    <path
       d="M553.99,1082.01 C553.81,1082.09 553.12,1083.79 552.46,1085.93 C552.27,1086.54 550.70,1092.27 549.57,1095.72 C549.21,1096.82 548.86,1097.92 548.51,1099.02 C548.38,1099.42 548.26,1099.81 548.14,1100.22"
       fill="none"
       stroke="rgb(255, 255, 255)"
       stroke-width="7.00"
       stroke-opacity="1.00"
       stroke-linejoin="round"
       id="path21" />
    <path
       d="M922.75,978.58 C922.76,978.73 923.04,979.10 924.61,981.08 C927.91,985.22 937.20,992.60 937.83,993.88 C937.89,994.01 937.95,994.22 938.02,994.51 C938.02,994.51 936.69,993.34 936.69,993.34"
       fill="none"
       stroke="rgb(255, 255, 255)"
       stroke-width="7.00"
       stroke-opacity="1.00"
       stroke-linejoin="round"
       id="path22" />
    <path
       d="M919.86,972.66 C921.82,975.00 925.99,979.99 928.20,982.63 C930.80,985.71 934.60,989.20 937.13,991.50 C937.41,991.76 937.72,992.09 938.06,992.48"
       fill="none"
       stroke="rgb(255, 255, 255)"
       stroke-width="7.00"
       stroke-opacity="1.00"
       stroke-linejoin="round"
       id="path23" />
    <path
       d="M923.26,976.60 C924.92,978.43 930.36,983.23 931.90,984.68 C933.46,986.16 938.61,991.43 939.98,992.69 C940.19,992.88 940.35,993.02 940.48,993.09"
       fill="none"
       stroke="rgb(255, 255, 255)"
       stroke-width="7.00"
       stroke-opacity="1.00"
       stroke-linejoin="round"
       id="path24" />
    <path
       d="M922.98,975.48 C925.41,978.23 930.19,983.65 932.32,985.89 C940.08,993.80 943.56,996.52 944.71,997.31 C945.14,997.59 945.57,997.88 945.99,998.17"
       fill="none"
       stroke="rgb(255, 255, 255)"
       stroke-width="7.00"
       stroke-opacity="1.00"
       stroke-linejoin="round"
       id="path25" />
    <path
       d="M662.81,1000.83 Q642.15,980.99 591.74,950.41 Q544.63,914.05 538.84,965.29 Q525.62,1047.11 543.80,1078.51 Q476.36,1202.73 598.76,1285.54 Q777.27,1362.40 955.11,1231.18 Q973.94,1216.97 972.42,1218.48 Q962.42,1206.67 945.15,1169.70 Q927.88,1132.73 943.03,1093.33 Q958.18,1053.94 977.44,1039.16 Q967.82,1015.84 952.84,1001.78 Q960.37,966.21 917.99,892.99 Q894.01,846.33 858.62,895.89 Q828.01,929.76 812.40,952.52 Q810.88,954.74 809.11,957.45 Q807.34,960.16 805.53,963.21 Q713.33,942.00 654.67,993.33"
       fill="none"
       stroke="rgb(3, 3, 3)"
       stroke-width="10.00"
       stroke-opacity="1.00"
       stroke-linejoin="round"
       id="path26" />
    <path
       d="M680.56,1184.33 C680.56,1184.33 679.59,1182.01 679.59,1182.01 C679.59,1182.01 674.40,1182.31 674.40,1182.31 C672.55,1184.21 670.81,1187.54 670.48,1190.92 C670.22,1194.32 671.93,1199.78 674.12,1202.16 C676.27,1204.40 682.31,1207.43 685.22,1207.76 C686.53,1207.88 689.50,1207.51 690.56,1207.09 C692.82,1206.12 695.88,1202.04 696.54,1199.33 C697.14,1196.64 696.58,1191.03 695.40,1188.26 C694.08,1185.26 690.56,1181.04 688.36,1179.95 C686.05,1178.87 681.39,1179.11 679.34,1180.59 C677.14,1182.24 674.58,1186.93 674.16,1189.85 C673.83,1192.53 674.73,1197.66 676.00,1199.87 C677.37,1202.15 681.88,1204.94 684.45,1204.94 C685.64,1204.92 688.51,1203.99 689.55,1203.31 C691.83,1201.73 694.17,1196.74 694.11,1193.92 C694.02,1191.69 691.56,1186.06 689.99,1184.79 C689.23,1184.19 687.25,1183.29 685.91,1182.79 C685.91,1182.79 681.55,1184.17 681.55,1184.17 C679.43,1186.98 677.74,1191.05 677.93,1194.35 C678.16,1197.23 680.58,1202.03 682.02,1202.52 C682.46,1202.66 683.62,1202.89 685.48,1203.20 C687.13,1201.29 689.33,1198.23 689.71,1196.75 C690.08,1195.27 689.44,1192.11 688.77,1190.11 C688.77,1190.11 688.97,1192.64 688.97,1192.64 C688.97,1192.64 685.59,1186.65 685.59,1186.65 C683.68,1187.28 682.56,1187.76 682.22,1188.08 C681.29,1189.01 684.53,1197.12 686.68,1201.03 C688.75,1204.75 691.78,1209.16 693.71,1211.02 C695.54,1212.75 700.80,1216.65 702.92,1217.78 C705.19,1218.98 711.63,1221.20 714.81,1221.84 C718.34,1222.53 724.47,1223.09 728.29,1223.06 C735.11,1222.96 750.29,1219.64 756.42,1216.84 C759.85,1215.25 764.70,1212.39 767.72,1210.18 C770.26,1208.30 776.01,1202.82 777.88,1200.37 C779.70,1197.94 783.29,1191.54 784.24,1189.11 C785.03,1187.07 786.72,1180.52 786.39,1177.39 C786.39,1177.39 784.51,1178.83 784.51,1178.83 C784.51,1178.83 783.35,1176.90 783.35,1176.90 C783.27,1179.00 785.55,1183.51 786.79,1185.05 C789.99,1188.94 800.09,1195.72 805.57,1198.17 C808.57,1199.50 815.96,1201.96 819.13,1202.69 C822.47,1203.43 830.60,1204.44 834.25,1204.49 C838.24,1204.53 844.31,1203.95 847.88,1203.19 C850.99,1202.51 857.46,1200.26 859.35,1199.32 C862.63,1197.67 868.99,1193.25 871.40,1190.72 C872.94,1189.08 877.60,1182.66 878.87,1179.21 C879.88,1176.40 880.59,1170.35 880.22,1167.58 C879.82,1165.05 876.74,1160.01 874.34,1158.69 C873.55,1158.29 869.53,1157.35 868.62,1157.55 C867.00,1157.95 864.31,1159.76 863.44,1160.99 C862.38,1162.62 861.74,1164.61 861.44,1167.23 C861.24,1169.54 861.69,1172.65 862.59,1174.45 C863.62,1176.42 866.36,1178.57 868.48,1179.29 C869.03,1179.45 871.90,1179.47 872.46,1179.31 C874.63,1178.60 877.31,1176.65 878.26,1174.88 C879.11,1173.21 879.69,1170.27 879.63,1168.14 C879.52,1165.65 879.02,1163.30 878.17,1161.27 C876.51,1157.56 873.97,1156.25 872.02,1156.05 C870.01,1157.34 868.95,1158.26 868.37,1159.43 C866.26,1163.77 866.35,1171.30 866.88,1173.91 C867.18,1175.36 867.99,1176.58 869.68,1178.40 C870.79,1177.16 873.12,1174.71 873.36,1173.98 C874.13,1171.56 872.16,1166.57 871.61,1165.05 C870.18,1166.87 869.83,1168.93 870.93,1170.48 C871.16,1170.79 871.56,1171.09 872.15,1171.39 C872.47,1170.28 873.23,1167.82 873.12,1167.09 C872.86,1165.39 870.82,1162.57 869.41,1161.79 C868.65,1161.39 867.46,1161.54 866.04,1161.93 C866.04,1161.93 861.78,1167.86 861.78,1167.86"
       fill="none"
       stroke="rgb(0, 0, 0)"
       stroke-width="17.57"
       stroke-opacity="1.00"
       stroke-linejoin="round"
       id="path27" />
    <path
       d="M760.92,1141.95 C762.58,1143.99 765.90,1146.47 770.11,1148.47 C771.48,1149.12 776.61,1151.35 779.14,1152.54"
       fill="none"
       stroke="rgb(0, 0, 0)"
       stroke-width="17.57"
       stroke-opacity="1.00"
       stroke-linejoin="round"
       id="path28" />
    <path
       d="M761.10,1137.68 C764.13,1136.29 772.02,1132.73 774.58,1131.90 C777.95,1130.82 787.23,1130.33 788.18,1130.28 C785.44,1132.62 777.95,1143.83 777.23,1145.23 C776.31,1147.05 775.58,1149.05 775.43,1149.96"
       fill="none"
       stroke="rgb(0, 0, 0)"
       stroke-width="17.57"
       stroke-opacity="1.00"
       stroke-linejoin="round"
       id="path29" />
    <path
       d="M782.42,1134.90 C782.42,1134.90 778.33,1154.55 778.33,1154.55 C778.12,1154.59 776.14,1151.13 773.82,1149.00 C769.97,1145.54 761.70,1140.76 756.89,1138.28 C756.89,1138.28 773.33,1138.12 773.33,1138.12 C773.33,1138.12 767.47,1138.08 767.47,1138.08 C767.47,1138.08 777.80,1135.11 777.80,1135.11 C777.80,1135.11 773.24,1136.08 773.24,1136.08"
       fill="none"
       stroke="rgb(0, 0, 0)"
       stroke-width="17.57"
       stroke-opacity="1.00"
       stroke-linejoin="round"
       id="path30" />
    <path
       d="M669.13,1059.48 C668.93,1059.50 668.73,1059.52 668.53,1059.54 C665.76,1059.79 659.56,1060.67 657.07,1062.36 C654.08,1064.43 650.26,1067.92 648.92,1070.16 C647.16,1073.22 645.17,1079.05 644.52,1083.41 C643.87,1088.11 644.36,1101.13 645.39,1106.86 C645.94,1109.82 647.83,1115.85 648.74,1117.56 C650.67,1121.06 655.28,1125.36 658.54,1127.31 C661.28,1128.90 667.98,1131.24 671.16,1131.86 C674.29,1132.45 681.76,1132.86 685.07,1132.52 C688.64,1132.12 693.99,1130.69 696.99,1129.33 C699.59,1128.13 704.63,1124.70 706.22,1123.27 C708.73,1120.98 713.86,1115.08 715.57,1112.20 C716.79,1110.10 720.06,1102.73 720.71,1100.12 C721.25,1097.86 721.86,1092.10 721.81,1089.79 C721.71,1087.05 719.87,1080.27 718.91,1077.96 C717.64,1074.96 713.36,1068.79 711.26,1066.69 C708.74,1064.24 702.36,1060.36 698.44,1058.67 C695.62,1057.49 690.30,1056.49 686.06,1056.11 C682.68,1055.83 676.77,1056.11 674.74,1056.57 C671.11,1057.41 665.09,1060.02 662.39,1061.58 C660.04,1062.97 655.17,1066.87 653.28,1068.79 C651.53,1070.58 647.34,1075.96 645.95,1078.84 C642.97,1085.17 642.75,1094.74 643.22,1097.57 C643.47,1098.91 644.62,1101.23 645.67,1102.46 C647.37,1104.39 661.64,1107.59 667.48,1107.86 C670.61,1107.98 676.29,1107.31 680.01,1106.48 C681.68,1106.07 684.58,1104.85 686.06,1103.85 C688.23,1102.34 691.49,1096.57 692.31,1093.46 C693.08,1090.34 693.44,1083.25 692.89,1080.02 C692.32,1076.84 689.46,1070.92 688.36,1069.64 C686.85,1067.94 681.36,1064.35 678.91,1062.78 C679.70,1062.50 686.32,1063.44 689.40,1065.06 C691.13,1066.00 698.08,1071.88 699.87,1074.17 C701.15,1075.83 704.99,1083.14 705.56,1085.09 C706.33,1087.80 706.82,1094.67 707.01,1097.70 C706.22,1088.72 703.55,1077.49 701.09,1071.46 C700.66,1070.41 697.13,1062.59 695.90,1059.90 C697.62,1059.76 698.64,1060.08 699.72,1061.31 C704.40,1066.71 711.15,1078.18 713.25,1083.93 C714.40,1087.12 715.75,1093.91 715.87,1096.64 C715.95,1099.13 715.00,1105.38 713.45,1108.35 C711.77,1111.43 705.77,1115.83 703.19,1117.06 C700.02,1118.52 687.09,1121.77 683.90,1122.56 C687.52,1121.16 701.47,1113.23 705.10,1109.38 C707.05,1107.27 710.73,1101.87 711.98,1099.14 C714.03,1094.49 715.44,1082.05 715.33,1080.66 C713.36,1087.62 709.25,1097.51 705.91,1102.31 C703.90,1105.16 699.03,1110.61 696.40,1112.55 C694.04,1114.26 688.40,1117.40 686.36,1118.14 C682.73,1119.43 668.86,1121.84 666.13,1121.69 C667.72,1121.15 675.70,1119.52 676.52,1119.31 C680.19,1118.33 687.94,1114.68 691.94,1112.42 C695.72,1110.25 699.23,1107.25 701.24,1104.70 C703.93,1101.21 706.12,1096.87 707.63,1092.56 C708.20,1090.90 708.31,1090.13 708.22,1089.21 C707.15,1090.02 696.62,1105.56 692.33,1110.35 C689.92,1113.02 684.88,1117.75 682.56,1119.36 C679.86,1121.18 674.79,1123.41 671.69,1123.98 C669.13,1124.40 661.30,1123.45 658.36,1122.29 C657.04,1121.77 654.69,1120.31 653.28,1119.32 C653.54,1118.44 654.09,1118.47 657.07,1119.65 C670.02,1124.70 686.41,1121.70 688.52,1121.10 C685.33,1120.07 677.17,1118.74 674.17,1117.96 C671.40,1117.24 659.08,1112.59 657.92,1112.16 C659.71,1114.62 663.31,1117.87 667.83,1120.94 C669.11,1121.78 672.03,1123.69 672.65,1124.01 C673.83,1124.60 680.83,1126.42 682.63,1126.88"
       fill="none"
       stroke="rgb(0, 0, 0)"
       stroke-width="17.57"
       stroke-opacity="1.00"
       stroke-linejoin="round"
       id="path31" />
    <path
       d="M827.26,1028.74 C827.06,1028.75 826.86,1028.77 826.66,1028.79 C823.89,1029.04 817.69,1029.93 815.20,1031.61 C812.21,1033.68 808.39,1037.17 807.06,1039.41 C805.29,1042.47 803.30,1048.30 802.65,1052.66 C802.00,1057.36 802.49,1070.38 803.52,1076.11 C804.07,1079.07 805.96,1085.10 806.87,1086.81 C808.80,1090.32 813.41,1094.61 816.67,1096.56 C819.41,1098.15 826.11,1100.49 829.29,1101.11 C832.42,1101.70 839.89,1102.11 843.20,1101.77 C846.77,1101.38 852.12,1099.94 855.12,1098.58 C857.72,1097.38 862.76,1093.96 864.36,1092.52 C866.86,1090.23 871.99,1084.33 873.70,1081.45 C874.92,1079.35 878.19,1071.98 878.84,1069.38 C879.38,1067.11 879.99,1061.35 879.94,1059.04 C879.84,1056.30 878.00,1049.53 877.04,1047.21 C875.77,1044.22 871.49,1038.04 869.39,1035.95 C866.87,1033.49 860.49,1029.61 856.57,1027.92 C853.75,1026.74 848.43,1025.74 844.19,1025.36 C840.81,1025.08 834.90,1025.36 832.87,1025.82 C829.24,1026.66 823.22,1029.27 820.52,1030.83 C818.17,1032.22 813.30,1036.12 811.41,1038.04 C809.66,1039.84 805.47,1045.21 804.08,1048.09 C801.10,1054.42 800.88,1063.99 801.35,1066.83 C801.60,1068.16 802.76,1070.48 803.80,1071.71 C805.50,1073.64 819.77,1076.84 825.61,1077.11 C828.75,1077.23 834.42,1076.57 838.15,1075.73 C839.81,1075.33 842.71,1074.10 844.19,1073.10 C846.36,1071.59 849.62,1065.82 850.44,1062.71 C851.21,1059.59 851.57,1052.50 851.02,1049.27 C850.45,1046.09 847.59,1040.17 846.49,1038.89 C844.98,1037.19 839.49,1033.61 837.04,1032.04 C837.83,1031.75 844.46,1032.69 847.53,1034.31 C849.26,1035.25 856.21,1041.13 858.00,1043.42 C859.28,1045.08 863.12,1052.39 863.69,1054.35 C864.46,1057.05 864.95,1063.92 865.14,1066.95 C864.35,1057.97 861.68,1046.74 859.22,1040.72 C858.79,1039.66 855.26,1031.84 854.03,1029.15 C855.75,1029.01 856.78,1029.33 857.85,1030.56 C862.53,1035.96 869.28,1047.44 871.38,1053.18 C872.53,1056.37 873.88,1063.16 874.00,1065.90 C874.08,1068.38 873.13,1074.63 871.58,1077.61 C869.90,1080.68 863.90,1085.08 861.32,1086.32 C858.15,1087.77 845.22,1091.02 842.03,1091.81 C845.65,1090.42 859.60,1082.48 863.23,1078.63 C865.18,1076.53 868.87,1071.12 870.11,1068.39 C872.16,1063.74 873.57,1051.30 873.46,1049.91 C871.49,1056.87 867.38,1066.77 864.04,1071.57 C862.03,1074.41 857.16,1079.86 854.53,1081.80 C852.17,1083.51 846.53,1086.65 844.49,1087.39 C840.86,1088.68 826.99,1091.09 824.27,1090.94 C825.85,1090.40 833.83,1088.78 834.65,1088.56 C838.32,1087.58 846.07,1083.93 850.07,1081.67 C853.85,1079.50 857.36,1076.50 859.37,1073.95 C862.06,1070.46 864.25,1066.12 865.76,1061.81 C866.33,1060.15 866.45,1059.39 866.35,1058.46 C865.28,1059.27 854.76,1074.82 850.46,1079.60 C848.05,1082.27 843.01,1087.01 840.69,1088.61 C837.99,1090.43 832.92,1092.66 829.82,1093.23 C827.26,1093.66 819.44,1092.71 816.49,1091.54 C815.17,1091.02 812.82,1089.56 811.41,1088.58 C811.67,1087.70 812.22,1087.73 815.20,1088.90 C828.15,1093.96 844.54,1090.95 846.65,1090.35 C843.46,1089.32 835.31,1087.99 832.30,1087.21 C829.53,1086.49 817.21,1081.84 816.06,1081.41 C817.84,1083.87 821.44,1087.12 825.96,1090.19 C827.24,1091.04 830.17,1092.94 830.78,1093.26 C831.96,1093.86 838.96,1095.67 840.76,1096.13"
       fill="none"
       stroke="rgb(0, 0, 0)"
       stroke-width="17.57"
       stroke-opacity="1.00"
       stroke-linejoin="round"
       id="path32" />
    <path
       d="M488.45,1161.90 C488.45,1161.90 486.34,1161.60 486.34,1161.60 C489.37,1160.65 505.97,1158.70 514.23,1157.93 C522.69,1157.29 539.13,1156.39 546.95,1155.99 C548.58,1155.93 551.18,1155.83 552.15,1155.80"
       fill="none"
       stroke="rgb(0, 0, 0)"
       stroke-width="21.96"
       stroke-opacity="1.00"
       stroke-linejoin="round"
       id="path33" />
    <path
       d="M493.00,1198.14 C499.27,1196.24 510.83,1193.18 517.96,1191.31 C526.42,1189.12 543.44,1184.79 552.01,1182.64 C555.94,1181.71 562.62,1180.12 565.39,1179.47 C566.00,1179.33 566.61,1179.18 567.22,1179.04"
       fill="none"
       stroke="rgb(0, 0, 0)"
       stroke-width="21.96"
       stroke-opacity="1.00"
       stroke-linejoin="round"
       id="path34" />
    <path
       d="M1301.82,1033.50 Q1324.30,1015.76 1377.44,990.20 Q1427.84,958.56 1428.64,1010.12 Q1433.89,1092.84 1412.76,1122.34 Q1467.86,1252.49 1338.03,1323.07 Q1152.92,1382.31 989.19,1234.37 Q938.15,1186.22 937.66,1125.56 Q937.16,1064.91 1013.06,1006.40 Q1009.00,970.27 1058.26,901.49 Q1086.65,857.37 1117.08,910.12 Q1144.27,946.79 1157.61,970.95 Q1158.91,973.31 1160.40,976.18 Q1161.90,979.05 1163.41,982.26 Q1257.22,970.07 1310.65,1026.83"
       fill="none"
       stroke="rgb(3, 3, 3)"
       stroke-width="10.00"
       stroke-opacity="1.00"
       stroke-linejoin="round"
       id="path35" />
    <path
       d="M1459.78,1210.68 C1459.78,1210.68 1461.91,1210.59 1461.91,1210.59 C1458.98,1209.36 1442.65,1205.81 1434.51,1204.24 C1426.15,1202.79 1409.87,1200.30 1402.13,1199.15 C1400.51,1198.93 1397.93,1198.58 1396.97,1198.45"
       fill="none"
       stroke="rgb(0, 0, 0)"
       stroke-width="21.96"
       stroke-opacity="1.00"
       stroke-linejoin="round"
       id="path36" />
    <path
       d="M1451.75,1246.32 C1445.70,1243.82 1434.48,1239.66 1427.56,1237.10 C1419.36,1234.11 1402.84,1228.15 1394.51,1225.19 C1390.70,1223.87 1384.20,1221.65 1381.51,1220.73 C1380.91,1220.53 1380.32,1220.33 1379.72,1220.13"
       fill="none"
       stroke="rgb(0, 0, 0)"
       stroke-width="21.96"
       stroke-opacity="1.00"
       stroke-linejoin="round"
       id="path37" />
    <path
       d="M1186.60,1165.27 C1184.82,1167.13 1181.40,1169.28 1177.15,1170.91 C1175.76,1171.43 1170.59,1173.20 1168.03,1174.17"
       fill="none"
       stroke="rgb(0, 0, 0)"
       stroke-width="17.16"
       stroke-opacity="1.00"
       stroke-linejoin="round"
       id="path38" />
    <path
       d="M1186.75,1161.10 C1183.91,1159.51 1176.51,1155.44 1174.08,1154.42 C1170.88,1153.12 1161.89,1151.92 1160.96,1151.80 C1163.45,1154.29 1169.87,1165.78 1170.46,1167.20 C1171.22,1169.05 1171.78,1171.05 1171.85,1171.95"
       fill="none"
       stroke="rgb(0, 0, 0)"
       stroke-width="17.16"
       stroke-opacity="1.00"
       stroke-linejoin="round"
       id="path39" />
    <path
       d="M1166.21,1156.74 C1166.21,1156.74 1168.67,1176.19 1168.67,1176.19 C1168.87,1176.24 1171.07,1173.03 1173.50,1171.14 C1177.51,1168.07 1185.93,1164.05 1190.81,1162.02 C1190.81,1162.02 1174.81,1160.58 1174.81,1160.58 C1174.81,1160.58 1180.52,1161.00 1180.52,1161.00 C1180.52,1161.00 1170.70,1157.31 1170.70,1157.31 C1170.70,1157.31 1175.06,1158.60 1175.06,1158.60"
       fill="none"
       stroke="rgb(0, 0, 0)"
       stroke-width="17.16"
       stroke-opacity="1.00"
       stroke-linejoin="round"
       id="path40" />
    <path
       d="M1282.36,1092.10 C1282.56,1092.14 1282.75,1092.17 1282.94,1092.20 C1285.62,1092.66 1291.58,1094.01 1293.88,1095.84 C1296.63,1098.09 1300.08,1101.79 1301.20,1104.06 C1302.69,1107.18 1304.17,1113.01 1304.46,1117.31 C1304.74,1121.94 1303.25,1134.57 1301.80,1140.07 C1301.04,1142.91 1298.73,1148.64 1297.71,1150.23 C1295.56,1153.49 1290.74,1157.32 1287.41,1158.96 C1284.62,1160.30 1277.91,1162.05 1274.77,1162.41 C1271.67,1162.74 1264.37,1162.57 1261.18,1161.98 C1257.73,1161.31 1252.63,1159.50 1249.82,1157.95 C1247.38,1156.58 1242.74,1152.85 1241.30,1151.32 C1239.03,1148.90 1234.50,1142.76 1233.06,1139.82 C1232.19,1138.00 1229.32,1130.02 1228.82,1126.40 C1228.34,1122.60 1228.94,1115.03 1230.10,1111.85 C1231.53,1108.07 1233.93,1103.41 1235.92,1100.95 C1238.58,1097.73 1243.43,1093.66 1246.99,1091.85 C1249.94,1090.38 1256.72,1088.10 1259.88,1087.76 C1261.68,1087.58 1269.93,1087.48 1273.42,1088.00 C1276.95,1088.57 1284.44,1091.79 1287.65,1093.92 C1290.77,1096.02 1295.54,1100.57 1297.07,1102.40 C1298.64,1104.28 1302.30,1109.83 1303.43,1112.75 C1305.84,1119.14 1305.31,1128.48 1304.63,1131.20 C1304.28,1132.48 1302.98,1134.65 1301.87,1135.77 C1300.96,1136.65 1295.84,1138.11 1292.26,1138.64 C1289.19,1139.07 1280.43,1139.47 1277.14,1139.09 C1273.63,1138.67 1265.02,1136.07 1262.43,1133.99 C1260.41,1132.29 1257.71,1126.48 1257.16,1123.38 C1256.65,1120.28 1256.85,1113.36 1257.64,1110.25 C1258.44,1107.20 1261.68,1101.66 1262.85,1100.50 C1264.45,1098.96 1270.08,1095.90 1272.59,1094.56 C1271.83,1094.22 1265.31,1094.63 1262.19,1095.96 C1260.44,1096.74 1253.22,1101.92 1251.29,1104.02 C1249.92,1105.53 1245.62,1112.35 1244.90,1114.21 C1243.95,1116.78 1242.94,1123.44 1242.52,1126.38 C1243.98,1117.69 1247.45,1106.97 1250.32,1101.29 C1250.82,1100.30 1254.86,1092.95 1256.27,1090.43 C1254.60,1090.17 1253.58,1090.39 1252.44,1091.51 C1247.46,1096.40 1240.00,1107.05 1237.51,1112.48 C1236.15,1115.50 1234.30,1122.01 1233.97,1124.66 C1233.70,1127.07 1234.14,1133.23 1235.42,1136.25 C1236.79,1139.32 1243.03,1144.73 1245.66,1146.04 C1248.80,1147.57 1261.88,1151.97 1263.09,1152.37 C1259.67,1150.73 1246.70,1141.92 1243.47,1137.89 C1241.73,1135.69 1238.57,1130.14 1237.57,1127.39 C1235.93,1122.70 1235.53,1110.48 1235.74,1109.14 C1237.40,1117.50 1241.47,1128.46 1245.05,1133.82 C1247.42,1137.31 1251.16,1141.34 1254.19,1143.63 C1256.57,1145.40 1261.07,1148.01 1264.07,1149.07 C1270.35,1151.27 1278.65,1152.86 1280.45,1152.90 C1276.32,1151.41 1269.87,1149.68 1266.51,1148.11 C1263.73,1146.79 1255.42,1141.55 1253.27,1139.87 C1250.69,1137.82 1247.13,1133.08 1245.66,1130.46 C1243.93,1127.31 1241.70,1119.12 1241.99,1118.01 C1242.98,1118.88 1252.02,1134.84 1255.82,1139.83 C1257.75,1142.32 1262.74,1147.89 1265.71,1150.19 C1268.59,1152.37 1274.97,1154.89 1277.45,1155.15 C1285.15,1155.80 1291.70,1152.44 1293.15,1151.60 C1292.97,1150.72 1292.42,1150.71 1289.44,1151.62 C1276.43,1155.53 1260.71,1151.34 1258.70,1150.59 C1261.89,1149.83 1269.93,1149.17 1272.92,1148.65 C1275.67,1148.16 1288.02,1144.59 1289.18,1144.26 C1287.26,1146.51 1283.49,1149.40 1278.86,1152.04 C1277.55,1152.76 1274.55,1154.39 1273.92,1154.65 C1272.73,1155.14 1265.78,1156.37 1263.99,1156.67"
       fill="none"
       stroke="rgb(0, 0, 0)"
       stroke-width="17.16"
       stroke-opacity="1.00"
       stroke-linejoin="round"
       id="path41" />
    <path
       d="M1130.79,1049.90 C1130.99,1049.93 1131.18,1049.96 1131.38,1050.00 C1134.05,1050.46 1140.02,1051.80 1142.31,1053.63 C1145.06,1055.88 1148.51,1059.58 1149.64,1061.86 C1151.12,1064.98 1152.61,1070.81 1152.89,1075.10 C1153.17,1079.73 1151.68,1092.37 1150.23,1097.87 C1149.47,1100.71 1147.16,1106.43 1146.14,1108.02 C1143.99,1111.28 1139.17,1115.11 1135.85,1116.75 C1133.05,1118.09 1126.34,1119.85 1123.20,1120.21 C1120.11,1120.54 1112.81,1120.36 1109.61,1119.77 C1106.16,1119.11 1101.06,1117.29 1098.25,1115.74 C1095.81,1114.37 1091.17,1110.64 1089.73,1109.12 C1087.46,1106.70 1082.93,1100.56 1081.49,1097.62 C1080.62,1095.79 1077.75,1087.81 1077.25,1084.20 C1076.77,1080.40 1077.37,1072.83 1078.53,1069.64 C1079.96,1065.86 1082.36,1061.21 1084.36,1058.74 C1087.01,1055.52 1091.86,1051.46 1095.42,1049.65 C1098.37,1048.18 1105.16,1045.90 1108.31,1045.55 C1110.11,1045.37 1118.36,1045.27 1121.85,1045.80 C1125.38,1046.36 1132.87,1049.58 1136.08,1051.72 C1139.20,1053.82 1143.97,1058.36 1145.50,1060.19 C1147.07,1062.07 1150.73,1067.63 1151.86,1070.54 C1154.27,1076.93 1153.74,1086.27 1153.06,1088.99 C1152.71,1090.27 1151.41,1092.45 1150.30,1093.56 C1149.39,1094.44 1144.27,1095.91 1140.69,1096.44 C1137.63,1096.87 1128.86,1097.27 1125.57,1096.89 C1122.07,1096.46 1113.45,1093.86 1110.87,1091.78 C1108.85,1090.09 1106.15,1084.27 1105.59,1081.18 C1105.08,1078.08 1105.29,1071.15 1106.07,1068.05 C1106.87,1065.00 1110.11,1059.45 1111.28,1058.29 C1112.88,1056.75 1118.51,1053.69 1121.02,1052.35 C1120.27,1052.01 1113.75,1052.42 1110.62,1053.76 C1108.87,1054.53 1101.65,1059.72 1099.72,1061.81 C1098.35,1063.33 1094.05,1070.15 1093.34,1072.01 C1092.38,1074.58 1091.37,1081.23 1090.95,1084.17 C1092.41,1075.49 1095.89,1064.76 1098.75,1059.08 C1099.25,1058.09 1103.29,1050.75 1104.70,1048.23 C1103.04,1047.96 1102.01,1048.19 1100.87,1049.30 C1095.89,1054.19 1088.43,1064.85 1085.94,1070.27 C1084.58,1073.29 1082.73,1079.80 1082.41,1082.45 C1082.13,1084.86 1082.57,1091.03 1083.86,1094.04 C1085.22,1097.12 1091.46,1102.52 1094.10,1103.83 C1097.23,1105.36 1110.31,1109.76 1111.52,1110.16 C1108.10,1108.52 1095.14,1099.72 1091.90,1095.69 C1090.16,1093.48 1087.00,1087.94 1086.00,1085.18 C1084.37,1080.49 1083.96,1068.28 1084.18,1066.93 C1085.83,1075.29 1089.91,1086.25 1093.48,1091.61 C1095.85,1095.11 1099.59,1099.14 1102.62,1101.42 C1105.01,1103.19 1109.50,1105.80 1112.50,1106.87 C1118.78,1109.06 1127.08,1110.65 1128.88,1110.69 C1124.75,1109.20 1118.31,1107.47 1114.94,1105.90 C1112.16,1104.59 1103.85,1099.35 1101.70,1097.67 C1099.12,1095.61 1095.56,1090.88 1094.09,1088.25 C1092.36,1085.11 1090.13,1076.91 1090.43,1075.81 C1091.41,1076.68 1100.45,1092.63 1104.26,1097.62 C1106.18,1100.12 1111.17,1105.69 1114.15,1107.98 C1117.02,1110.16 1123.41,1112.69 1125.88,1112.94 C1133.58,1113.60 1140.13,1110.24 1141.59,1109.39 C1141.40,1108.51 1140.86,1108.50 1137.87,1109.41 C1124.86,1113.33 1109.14,1109.13 1107.14,1108.38 C1110.32,1107.63 1118.36,1106.97 1121.35,1106.44 C1124.10,1105.95 1136.45,1102.38 1137.62,1102.05 C1135.69,1104.31 1131.93,1107.20 1127.29,1109.83 C1125.98,1110.56 1122.98,1112.18 1122.36,1112.45 C1121.16,1112.94 1114.21,1114.16 1112.42,1114.47"
       fill="none"
       stroke="rgb(0, 0, 0)"
       stroke-width="17.16"
       stroke-opacity="1.00"
       stroke-linejoin="round"
       id="path42" />
    <path
       d="M1092.07,1195.92 C1091.45,1196.06 1090.58,1197.25 1090.02,1198.98 C1089.60,1200.28 1089.32,1206.12 1089.76,1208.09 C1089.95,1208.84 1091.11,1211.74 1091.66,1212.52 C1093.08,1214.51 1094.93,1215.81 1096.71,1216.28 C1098.50,1215.68 1100.07,1214.34 1100.80,1212.31 C1102.25,1208.17 1100.67,1203.88 1099.49,1202.06 C1098.05,1202.65 1094.76,1203.86 1094.45,1204.50 C1093.97,1205.52 1094.51,1208.63 1095.14,1210.28 C1095.88,1211.99 1097.15,1213.89 1098.46,1215.15 C1099.80,1216.42 1101.58,1216.86 1103.33,1216.69 C1104.23,1214.89 1104.50,1213.71 1104.15,1212.45 C1103.80,1211.27 1103.12,1209.55 1102.59,1208.47 C1102.01,1207.33 1101.06,1206.50 1099.29,1205.43 C1098.01,1208.70 1097.88,1211.57 1099.19,1213.99 C1100.45,1216.23 1101.22,1217.10 1102.03,1217.29 C1102.96,1216.22 1101.61,1209.80 1100.67,1207.71 C1100.48,1207.29 1100.06,1206.54 1099.41,1205.44"
       fill="none"
       stroke="rgb(0, 0, 0)"
       stroke-width="18.01"
       stroke-opacity="1.00"
       stroke-linejoin="round"
       id="path43" />
    <path
       d="M1097.77,1205.45 C1097.70,1208.07 1097.95,1209.95 1098.73,1211.30 C1100.03,1213.47 1104.35,1217.83 1108.07,1220.73 C1110.67,1222.72 1114.52,1224.65 1116.52,1225.30 C1118.72,1226.00 1125.83,1226.84 1128.09,1226.79 C1130.41,1226.72 1136.02,1225.48 1139.60,1224.32 C1144.61,1222.65 1148.08,1221.57 1149.39,1221.17"
       fill="none"
       stroke="rgb(0, 0, 0)"
       stroke-width="18.01"
       stroke-opacity="1.00"
       stroke-linejoin="round"
       id="path44" />
    <path
       d="M1153.68,1224.66 C1153.76,1224.82 1153.80,1224.92 1153.81,1224.97 C1153.84,1225.13 1153.80,1225.30 1153.80,1225.47 C1153.88,1227.31 1161.10,1240.46 1165.64,1245.92 C1168.58,1249.38 1171.81,1252.62 1174.23,1254.25 C1177.28,1256.28 1183.61,1259.20 1187.50,1260.28 C1191.14,1261.26 1198.39,1262.17 1201.85,1262.18 C1205.18,1262.17 1210.86,1261.41 1212.54,1260.56"
       fill="none"
       stroke="rgb(0, 0, 0)"
       stroke-width="18.01"
       stroke-opacity="1.00"
       stroke-linejoin="round"
       id="path45" />
    <path
       d="M1214.44,1251.40 C1213.21,1251.12 1211.10,1250.87 1209.83,1251.08 C1208.64,1251.29 1204.04,1252.95 1202.63,1253.64 C1198.39,1255.79 1197.43,1258.21 1197.43,1259.57 C1199.02,1260.71 1200.13,1261.25 1201.52,1261.43 C1206.57,1262.07 1217.40,1260.37 1221.77,1258.51 C1222.90,1258.02 1223.93,1257.23 1225.55,1255.73 C1225.15,1253.80 1224.74,1252.62 1224.33,1252.17 C1223.32,1251.11 1216.02,1250.97 1214.27,1251.33 C1212.57,1251.69 1207.12,1253.61 1204.66,1255.20 C1203.06,1256.26 1202.09,1257.73 1201.63,1259.34 C1203.09,1260.44 1204.17,1260.92 1205.68,1260.95 C1211.40,1261.04 1218.75,1258.50 1220.30,1257.95 C1219.00,1255.98 1217.86,1255.30 1215.88,1255.71 C1212.00,1256.52 1206.63,1258.17 1204.40,1259.64 C1203.22,1260.43 1202.64,1261.18 1202.32,1262.08 C1203.64,1263.58 1204.68,1264.13 1206.66,1264.11 C1208.31,1264.10 1211.07,1264.09 1212.18,1264.07"
       fill="none"
       stroke="rgb(0, 0, 0)"
       stroke-width="18.01"
       stroke-opacity="1.00"
       stroke-linejoin="round"
       id="path46" />
    <path
       d="M1304.13,1185.12 C1307.36,1185.14 1314.85,1186.77 1318.26,1188.20 C1321.57,1189.62 1327.40,1194.02 1329.87,1196.70 C1332.56,1199.69 1335.79,1205.28 1337.03,1209.11 C1338.12,1212.58 1339.01,1219.83 1338.59,1223.41 C1338.12,1227.08 1335.79,1234.38 1334.19,1237.19 C1332.56,1239.98 1327.40,1245.65 1324.46,1247.89 C1321.57,1250.04 1314.85,1252.90 1311.29,1253.69 C1307.36,1254.53 1300.90,1254.53 1296.97,1253.69 C1293.41,1252.90 1286.69,1250.04 1283.80,1247.89 C1280.86,1245.65 1275.70,1239.98 1274.07,1237.19 C1272.47,1234.38 1270.14,1227.08 1269.67,1223.41 C1269.25,1219.83 1270.14,1212.58 1271.23,1209.11 C1272.47,1205.28 1275.70,1199.69 1278.39,1196.70 C1280.86,1194.02 1286.69,1189.62 1290.00,1188.20 C1293.41,1186.77 1300.90,1185.14 1304.13,1185.12 Z"
       fill="none"
       stroke="rgb(3, 3, 3)"
       stroke-width="8.00"
       stroke-opacity="1.00"
       stroke-linejoin="round"
       id="path47" />
    <path
       d="M1017.27,1098.18 C1020.32,1098.20 1027.38,1099.74 1030.60,1101.08 C1033.72,1102.43 1039.22,1106.57 1041.54,1109.10 C1044.08,1111.92 1047.12,1117.19 1048.29,1120.79 C1049.32,1124.07 1050.16,1130.91 1049.77,1134.28 C1049.32,1137.74 1047.12,1144.63 1045.62,1147.27 C1044.08,1149.90 1039.22,1155.25 1036.44,1157.36 C1033.72,1159.39 1027.38,1162.08 1024.02,1162.83 C1020.32,1163.62 1014.23,1163.62 1010.52,1162.83 C1007.17,1162.08 1000.83,1159.39 998.11,1157.36 C995.33,1155.25 990.47,1149.90 988.93,1147.27 C987.42,1144.63 985.22,1137.74 984.78,1134.28 C984.38,1130.91 985.22,1124.07 986.25,1120.79 C987.42,1117.19 990.47,1111.92 993.00,1109.10 C995.33,1106.57 1000.83,1102.43 1003.95,1101.08 C1007.17,1099.74 1014.23,1098.20 1017.27,1098.18 Z"
       fill="none"
       stroke="rgb(3, 3, 3)"
       stroke-width="8.00"
       stroke-opacity="1.00"
       stroke-linejoin="round"
       id="path48" />
    <path
       d="m 867.37839,694.18003 -11.44342,-1.47745 -2.32909,17.13581 q -0.49949,3.67492 -2.52466,5.34618 -2.02515,1.67125 -4.71772,1.32362 -2.81878,-0.36393 -4.29116,-2.44475 -1.46675,-2.12209 -0.97288,-5.75571 l 6.34187,-46.65897 q 0.55001,-4.04653 2.67893,-5.53632 2.12893,-1.48981 6.25193,-0.95748 l 16.02917,2.0695 q 7.11008,0.91797 10.79263,2.48583 3.64613,1.52115 6.05526,4.26911 2.4512,2.75337 3.41019,6.40651 0.959,3.65313 0.36975,7.9887 -1.25715,9.24922 -7.71402,13.28939 -6.45126,3.9989 -17.93675,2.51603 z m 0.7423,-28.13873 -8.41427,-1.08636 -2.51429,18.49843 8.41426,1.08636 q 4.41751,0.57034 7.48597,0.0421 3.11053,-0.52274 4.94779,-2.38633 1.83725,-1.86358 2.29183,-5.20816 0.5444,-4.00524 -1.51132,-6.83362 -2.32776,-3.03155 -10.69997,-4.11247 z m 59.33719,54.46648 0.19643,-1.44519 q -2.40946,2.29389 -4.91704,3.7348 -2.50756,1.4409 -5.31237,1.91909 -2.81043,0.51949 -6.26028,0.0741 -4.16507,-0.53775 -7.2586,-2.65981 -3.05146,-2.11661 -4.45644,-5.32314 -1.65738,-3.86935 -0.74258,-10.5998 l 3.03624,-22.33851 q 0.46021,-3.38587 2.24135,-4.83653 1.78673,-1.49196 4.35308,-1.16063 2.60843,0.33678 3.97704,2.23612 1.3686,1.89935 0.91401,5.24393 l -2.45256,18.04422 q -0.53317,3.92266 -0.22481,6.69349 0.31394,2.72954 1.83122,4.48001 1.56495,1.71461 4.55203,2.10027 2.90291,0.3748 5.69937,-0.9868 2.79646,-1.3616 4.34486,-3.93472 1.29316,-2.26995 2.39317,-10.36301 l 1.86327,-13.70865 q 0.45459,-3.34458 2.28341,-4.83112 1.82882,-1.48653 4.39516,-1.15519 2.56636,0.33134 3.8929,2.22525 1.33215,1.85262 0.87195,5.2385 l -4.43932,32.66128 q -0.43775,3.22072 -2.1712,4.63552 -1.69138,1.42025 -4.04738,1.11606 -2.35599,-0.30417 -3.68814,-2.15679 -1.28447,-1.88849 -0.87477,-4.90274 z m 52.04219,6.71913 0.19648,-1.44521 q -2.40937,2.2939 -4.91704,3.73481 -2.5075,1.44092 -5.3123,1.91911 -2.81046,0.51947 -6.26032,0.0741 -4.16506,-0.53774 -7.25859,-2.65979 -3.05147,-2.11661 -4.45646,-5.32314 -1.65735,-3.86936 -0.74256,-10.59981 l 3.03623,-22.3385 q 0.46021,-3.38587 2.24134,-4.83654 1.78675,-1.49196 4.3531,-1.16062 2.60842,0.33677 3.97703,2.23611 1.36861,1.89935 0.91402,5.24392 l -2.45257,18.04424 q -0.53316,3.92265 -0.22482,6.69348 0.31396,2.72955 1.83123,4.48002 1.56496,1.71462 4.55202,2.10028 2.90295,0.37479 5.6993,-0.98681 2.79657,-1.36161 4.34496,-3.93473 1.29311,-2.26996 2.39315,-10.36302 l 1.86323,-13.70866 q 0.45464,-3.34457 2.28344,-4.83109 1.82876,-1.48653 4.39522,-1.15519 2.56626,0.33134 3.89288,2.22524 1.33204,1.85263 0.87191,5.23849 l -4.43941,32.6613 q -0.4377,3.2207 -2.17118,4.6355 -1.69127,1.42025 -4.04734,1.11608 -2.35599,-0.30418 -3.68812,-2.15681 -1.28445,-1.88849 -0.87483,-4.90272 z m 52.04233,6.71912 0.1964,-1.4452 q -2.4094,2.29389 -4.9169,3.73481 -2.5076,1.4409 -5.3125,1.91909 -2.8104,0.51948 -6.2602,0.0741 -4.1651,-0.53775 -7.2587,-2.65982 -3.0513,-2.1166 -4.4563,-5.32312 -1.6574,-3.86937 -0.7427,-10.59981 l 3.0363,-22.33851 q 0.4602,-3.38588 2.2413,-4.83653 1.7868,-1.49196 4.3531,-1.16063 2.6084,0.33678 3.977,2.23612 1.3687,1.89935 0.9141,5.24392 l -2.4526,18.04423 q -0.5331,3.92265 -0.2249,6.69349 0.314,2.72954 1.8313,4.48001 1.5649,1.71461 4.5521,2.10028 2.9028,0.37479 5.6993,-0.9868 2.7965,-1.36161 4.345,-3.93473 1.2931,-2.26996 2.393,-10.36302 l 1.8633,-13.70865 q 0.4546,-3.34458 2.2835,-4.83111 1.8287,-1.48652 4.3952,-1.15519 2.5663,0.33134 3.8928,2.22525 1.3321,1.85262 0.8719,5.23849 l -4.4393,32.6613 q -0.4377,3.2207 -2.1712,4.63551 -1.6914,1.42025 -4.0474,1.11606 -2.3559,-0.30417 -3.6881,-2.1568 -1.2844,-1.88849 -0.8748,-4.90273 z m 34.9619,-5.56988 -1.2796,9.41438 q -0.4657,3.42716 -2.3422,4.94956 -1.8709,1.48109 -4.3952,1.15518 -2.4822,-0.32047 -3.8452,-2.26111 -1.363,-1.94062 -0.9027,-5.3265 l 4.2653,-31.38126 q 1.0327,-7.59757 6.6281,-6.87515 2.8608,0.36936 3.8817,2.30784 1.0208,1.93846 0.6756,5.42323 2.5329,-3.20231 4.9199,-4.7008 2.429,-1.49306 6.0471,-1.02593 3.6182,0.46714 6.7845,2.68262 3.1665,2.2155 2.7681,5.14716 -0.2806,2.06456 -1.9383,3.23706 -1.6101,1.13664 -3.2929,0.91936 -0.631,-0.0815 -2.9702,-1.13975 -2.2914,-1.09416 -4.1425,-1.33316 -2.5244,-0.3259 -4.3026,0.78901 -1.7727,1.07362 -3.0042,3.5196 -1.2314,2.44597 -2.0507,5.95356 -0.8136,3.46629 -1.504,8.5451 z m 87.0003,19.76171 -1.9124,-7.9778 -25.0745,-3.23734 -4,7.38251 q -2.3423,4.31931 -3.7813,5.77214 -1.4333,1.41154 -4.21,1.05304 -2.356,-0.30416 -3.9349,-2.23067 -1.5791,-1.92651 -1.2872,-4.07366 0.1683,-1.23872 0.7686,-2.50572 0.6004,-1.26701 1.8879,-3.49566 l 21.1197,-37.27224 q 0.9033,-1.60602 2.1486,-3.84012 1.2932,-2.26995 2.5582,-3.70322 1.3072,-1.42783 3.1612,-2.15482 1.9017,-0.76287 4.468,-0.43152 2.6084,0.33677 4.1986,1.55046 1.6381,1.17784 2.4821,2.84139 0.8863,1.669 1.3602,3.53687 0.5215,1.83199 1.2588,4.91032 l 10.8044,41.14178 q 1.2869,4.70387 1.0119,6.72715 -0.2861,2.10583 -2.3366,3.6478 -2.0026,1.50609 -4.527,1.18018 -1.4725,-0.19012 -2.4512,-0.86269 -0.9846,-0.6313 -1.5819,-1.59075 -0.5918,-1.00075 -1.1862,-2.92619 -0.5468,-1.9613 -0.945,-3.44124 z m -22.4538,-19.99938 18.4273,2.37912 -5.9023,-26.18157 z m 84.2941,13.5301 -2.0373,14.98869 q -0.4827,3.55104 -2.3648,5.11469 -1.8821,1.56369 -4.5747,1.21605 -2.6084,-0.33675 -4.0078,-2.32413 -1.3574,-1.98192 -0.8747,-5.53296 l 2.4413,-17.96164 q 0.578,-4.25298 0.6035,-6.6446 0.025,-2.39162 -1.0768,-4.04649 -1.0966,-1.69614 -3.9153,-2.06008 -5.6376,-0.72787 -7.963,2.83736 -2.2834,3.57064 -3.2488,10.67271 l -2.0708,15.23642 q -0.477,3.50976 -2.3648,5.11473 -1.84,1.56912 -4.4905,1.22691 -2.6084,-0.33677 -4.0499,-2.32956 -1.3939,-2.02865 -0.9168,-5.53839 l 4.3831,-32.24838 q 0.4322,-3.17941 2.1291,-4.64095 1.7391,-1.4561 4.1793,-1.14106 2.3559,0.30419 3.6993,2.07423 1.3912,1.73417 1.0208,4.45939 l -0.146,1.07357 q 3.4641,-3.12408 7.0964,-4.33576 3.6322,-1.21167 7.7973,-0.67392 4.3333,0.55947 7.2165,2.65435 2.8832,2.0949 4.4369,5.78278 3.3742,-3.09365 6.9224,-4.31619 3.5537,-1.26383 7.5926,-0.74237 4.712,0.60836 7.8729,2.86515 3.1608,2.25678 4.3835,5.85992 1.0572,3.24565 0.1648,9.81095 l -2.9914,22.00817 q -0.4826,3.55104 -2.3647,5.11472 -1.8822,1.56367 -4.5748,1.21603 -2.6083,-0.33675 -4.0499,-2.32955 -1.3938,-2.02864 -0.9168,-5.53839 l 2.576,-18.95264 q 0.494,-3.63361 0.4548,-5.86549 0,-2.22647 -1.1834,-3.89219 -1.1863,-1.66573 -4.005,-2.02966 -2.2719,-0.29331 -4.5131,0.76184 -2.199,1.06059 -3.6379,3.14364 -1.6493,2.68615 -2.6315,9.9121 z m 81.1416,9.6358 q -0.6847,5.03752 -2.8614,9.0841 -2.1768,4.04657 -5.6213,6.71102 -3.4444,2.66446 -7.876,3.77293 -4.4261,1.06718 -9.6849,0.38822 -5.217,-0.67355 -9.1575,-2.86294 -3.9405,-2.1894 -6.5964,-5.64146 -2.6083,-3.48792 -3.6401,-7.86472 -0.9842,-4.41267 -0.2939,-9.49149 0.6959,-5.1201 2.8726,-9.16668 2.1769,-4.04658 5.5735,-6.67517 3.3968,-2.6286 7.865,-3.69034 4.4737,-1.10303 9.6063,-0.44032 5.2169,0.67353 9.2416,2.87379 4.0247,2.20026 6.6385,5.6469 2.6139,3.44662 3.5981,7.85929 1.0263,4.4181 0.3359,9.49692 z m -11.5275,-1.48831 q 0.9373,-6.89561 -1.6541,-11.13765 -2.5493,-4.2366 -7.7661,-4.91014 -3.3658,-0.43453 -6.1677,0.96836 -2.7965,1.36158 -4.6395,4.52691 -1.8429,3.16533 -2.4491,7.62478 -0.6005,4.41816 0.2966,7.89528 0.9393,3.48254 3.2224,5.58395 2.3306,2.06557 5.7803,2.51098 5.2169,0.67354 8.8101,-2.77001 3.6409,-3.47941 4.5669,-10.29245 z m 31.0707,10.77604 -1.2796,9.41438 q -0.4658,3.42716 -2.3424,4.94954 -1.8709,1.48109 -4.3951,1.15519 -2.4823,-0.32047 -3.8453,-2.2611 -1.363,-1.94064 -0.9027,-5.32651 l 4.2653,-31.38126 q 1.0327,-7.59756 6.6282,-6.87513 2.8608,0.36935 3.8816,2.30782 1.0209,1.93847 0.6756,5.42323 2.533,-3.2023 4.9199,-4.7008 2.4291,-1.49306 6.0471,-1.02593 3.6183,0.46713 6.7846,2.68263 3.1664,2.21549 2.7681,5.14715 -0.2807,2.06455 -1.9384,3.23706 -1.61,1.13664 -3.2928,0.91936 -0.6311,-0.0815 -2.9703,-1.13976 -2.2914,-1.09415 -4.1425,-1.33315 -2.5244,-0.32591 -4.3026,0.78902 -1.7726,1.07361 -3.0042,3.51959 -1.2313,2.44598 -2.0506,5.95356 -0.8136,3.46629 -1.5039,8.54511 z"
       id="text1"
       style="-inkscape-font-specification:'Arial Rounded MT Bold, ';stroke-width:0.896929"
       aria-label="Puuur Amor" />
  </g>
</svg>
